<svg width="158" height="158" viewBox="0 0 158 158" fill="none" xmlns="http://www.w3.org/2000/svg">
<g clip-path="url(#clip0_168_1191)">
<path d="M79 0C35.3031 0 0 35.3031 0 79C0 122.697 35.3031 158 79 158C122.697 158 158 122.697 158 79C158 35.3031 122.697 0 79 0ZM115.537 96.775C113.316 110.106 105.416 121.709 95.0469 126.894C94.0594 127.388 93.0719 126.894 92.5781 126.153C92.3313 125.659 92.3313 125.166 92.5781 124.672C94.8 119.488 96.0344 114.303 96.5281 108.872C93.3187 111.094 89.8625 112.822 86.1594 114.056C85.4188 114.303 84.925 114.056 84.4313 113.562C79 107.884 73.8156 92.5781 73.5687 82.7031C61.9656 93.5656 59.25 118.253 63.6937 125.906C64.1875 126.647 63.9406 127.881 62.9531 128.375C62.4594 128.622 61.7188 128.622 60.9781 128.375C15.0594 93.0719 66.1625 68.1375 65.9156 31.8469C65.9156 30.8594 66.6562 30.1187 67.6437 30.1187C67.8906 30.1187 68.1375 30.1187 68.3844 30.1187C89.6156 37.525 99.7375 63.4469 97.2688 85.4187C100.972 79.2469 104.428 68.6312 102.947 64.6813C102.7 63.6938 103.194 62.7062 103.934 62.4594C104.675 62.2125 105.416 62.4594 105.909 62.9531C114.303 71.5938 117.759 84.4313 115.537 96.775Z" fill="white"/>
</g>
<defs>
<clipPath id="clip0_168_1191">
<rect width="158" height="158" fill="white"/>
</clipPath>
</defs>
</svg>
