<?xml version="1.0" encoding="utf-8"?>
<svg viewBox="-428.281 82.208 1446 335.583" xmlns="http://www.w3.org/2000/svg">
  <path d="M -102.362 176.526 C -103.595 176.526 -104.62 177.402 -104.857 178.563 L -162.678 178.563 L -191.908 149.316 L -357.624 149.316 C -357.861 148.152 -358.886 147.279 -360.119 147.279 C -361.528 147.279 -362.666 148.422 -362.666 149.828 C -362.666 151.233 -361.524 152.376 -360.119 152.376 C -358.886 152.376 -357.861 151.5 -357.624 150.339 L -192.327 150.339 L -163.098 179.586 L -104.857 179.586 C -104.62 180.75 -103.595 181.626 -102.362 181.626 C -100.953 181.626 -99.815 180.484 -99.815 179.078 C -99.815 177.673 -100.957 176.53 -102.362 176.53 L -102.362 176.526 Z" fill="#174034"/>
  <path d="M -151.225 230.033 C -152.458 230.033 -153.484 230.909 -153.721 232.07 L -228.807 232.07 L -257.515 203.345 L -257.664 203.195 L -392.425 203.195 C -392.662 202.031 -393.687 201.158 -394.921 201.158 C -396.329 201.158 -397.468 202.301 -397.468 203.706 C -397.468 205.112 -396.325 206.255 -394.921 206.255 C -393.687 206.255 -392.662 205.379 -392.425 204.218 L -258.084 204.218 L -229.227 233.092 L -153.717 233.092 C -153.48 234.257 -152.455 235.129 -151.221 235.129 C -149.813 235.129 -148.675 233.987 -148.675 232.581 C -148.675 231.175 -149.817 230.033 -151.221 230.033 L -151.225 230.033 Z" fill="#174034"/>
  <path d="M -96.141 208.372 C -97.374 208.372 -98.399 209.248 -98.637 210.409 L -168.308 210.409 L -211.086 167.424 L -211.235 167.274 L -286.23 167.274 C -286.467 166.11 -287.493 165.237 -288.726 165.237 C -290.134 165.237 -291.273 166.38 -291.273 167.786 C -291.273 169.191 -290.131 170.334 -288.726 170.334 C -287.493 170.334 -286.467 169.458 -286.23 168.297 L -211.658 168.297 L -168.881 211.282 L -168.732 211.431 L -98.637 211.431 C -98.399 212.596 -97.374 213.469 -96.141 213.469 C -94.733 213.469 -93.594 212.326 -93.594 210.92 C -93.594 209.515 -94.736 208.372 -96.141 208.372 Z" fill="#174034"/>
  <path d="M -102.358 315.602 C -103.591 315.602 -104.617 316.478 -104.854 317.642 L -163.094 317.642 L -192.324 346.889 L -357.624 346.889 C -357.861 345.725 -358.886 344.852 -360.119 344.852 C -361.528 344.852 -362.666 345.995 -362.666 347.4 C -362.666 348.806 -361.524 349.949 -360.119 349.949 C -358.886 349.949 -357.861 349.073 -357.624 347.912 L -191.904 347.912 L -162.674 318.665 L -104.854 318.665 C -104.617 319.829 -103.591 320.702 -102.358 320.702 C -100.95 320.702 -99.811 319.559 -99.811 318.153 C -99.811 316.748 -100.953 315.605 -102.358 315.605 L -102.358 315.602 Z" fill="#174034"/>
  <path d="M -96.028 283.515 C -97.261 283.515 -98.287 284.391 -98.524 285.552 L -168.487 285.552 L -211.655 328.931 L -286.092 328.931 C -286.329 327.767 -287.354 326.894 -288.587 326.894 C -289.996 326.894 -291.134 328.037 -291.134 329.442 C -291.134 330.848 -289.992 331.991 -288.587 331.991 C -287.354 331.991 -286.329 331.114 -286.092 329.953 L -211.232 329.953 L -168.064 286.574 L -98.524 286.574 C -98.29 287.739 -97.261 288.615 -96.028 288.615 C -94.62 288.615 -93.481 287.472 -93.481 286.067 C -93.481 284.661 -94.623 283.518 -96.028 283.518 L -96.028 283.515 Z" fill="#174034"/>
  <path d="M -257.632 294.025 L -228.807 265.183 L -153.721 265.183 C -153.484 266.344 -152.458 267.221 -151.225 267.221 C -149.817 267.221 -148.678 266.078 -148.678 264.672 C -148.678 263.267 -149.82 262.124 -151.225 262.124 C -152.458 262.124 -153.487 263 -153.721 264.165 L -229.227 264.165 L -258.051 293.007 L -392.425 293.007 C -392.662 291.842 -393.687 290.969 -394.921 290.969 C -396.329 290.969 -397.468 292.112 -397.468 293.518 C -397.468 294.923 -396.325 296.066 -394.921 296.066 C -393.687 296.066 -392.662 295.19 -392.425 294.029 L -257.632 294.029 L -257.632 294.025 Z" fill="#174034"/>
  <path d="M -3.534 181.623 C -2.301 181.623 -1.275 180.747 -1.038 179.586 L 85.826 179.586 C 86.063 180.75 87.089 181.623 88.322 181.623 C 89.73 181.623 90.869 180.48 90.869 179.075 C 90.869 177.669 89.727 176.526 88.322 176.526 C 87.089 176.526 86.063 177.403 85.826 178.564 L -1.038 178.564 C -1.275 177.399 -2.301 176.526 -3.534 176.526 C -4.942 176.526 -6.081 177.669 -6.081 179.075 C -6.081 180.484 -4.939 181.623 -3.534 181.623 Z" fill="#174034"/>
  <path d="M 103.318 187.223 C 101.91 187.223 100.771 188.365 100.771 189.771 C 100.771 191.176 101.914 192.319 103.318 192.319 C 104.552 192.319 105.577 191.443 105.814 190.282 L 208.032 190.282 L 208.032 189.263 L 105.814 189.263 C 105.577 188.099 104.552 187.226 103.318 187.226 L 103.318 187.223 Z" fill="#174034"/>
  <path d="M -17.169 221.365 L -78.894 221.365 C -79.131 220.201 -80.156 219.328 -81.389 219.328 C -82.798 219.328 -83.936 220.471 -83.936 221.876 C -83.936 223.282 -82.794 224.425 -81.389 224.425 C -80.156 224.425 -79.131 223.548 -78.894 222.387 L -17.169 222.387 C -16.932 223.548 -15.907 224.425 -14.673 224.425 C -13.265 224.425 -12.126 223.282 -12.126 221.876 C -12.126 220.471 -13.269 219.328 -14.673 219.328 C -15.907 219.328 -16.935 220.204 -17.169 221.369 L -17.169 221.365 Z" fill="#174034"/>
  <path d="M 87.862 315.602 C 86.454 315.602 85.316 316.744 85.316 318.15 C 85.316 319.555 86.458 320.698 87.862 320.698 C 89.096 320.698 90.121 319.822 90.358 318.661 L 208.028 318.661 L 208.028 317.642 L 90.358 317.642 C 90.121 316.478 89.096 315.605 87.862 315.605 L 87.862 315.602 Z" fill="#174034"/>
  <path d="M 77.486 315.601 C 76.252 315.601 75.227 316.477 74.99 317.638 L 47.479 317.638 L 36.788 306.941 L -84.863 306.941 C -85.1 305.777 -86.125 304.904 -87.358 304.904 C -88.767 304.904 -89.905 306.047 -89.905 307.453 C -89.905 308.858 -88.763 310.001 -87.358 310.001 C -86.125 310.001 -85.1 309.125 -84.863 307.96 L 36.365 307.96 L 47.055 318.657 L 74.986 318.657 C 75.223 319.822 76.249 320.694 77.482 320.694 C 78.89 320.694 80.029 319.551 80.029 318.146 C 80.029 316.74 78.887 315.598 77.482 315.598 L 77.486 315.601 Z" fill="#174034"/>
  <path d="M -425.734 134.41 C -424.501 134.41 -423.476 133.534 -423.239 132.373 L -289.208 132.373 L -231.602 190.133 L -231.453 190.283 L -99.99 190.283 L -89.3 179.586 L -16.41 179.586 C -16.173 180.75 -15.148 181.623 -13.914 181.623 C -12.506 181.623 -11.367 180.48 -11.367 179.075 C -11.367 177.669 -12.51 176.526 -13.914 176.526 C -15.148 176.526 -16.173 177.402 -16.41 178.563 L -89.719 178.563 L -100.41 189.26 L -231.026 189.26 L -288.635 131.501 L -288.784 131.351 L -423.239 131.351 C -423.476 130.186 -424.501 129.314 -425.734 129.314 C -427.143 129.314 -428.281 130.457 -428.281 131.862 C -428.281 133.268 -427.139 134.41 -425.734 134.41 Z" fill="#174034"/>
  <path d="M -304.185 186.262 L -255.811 186.262 L -241.103 200.979 L -46.77 200.979 C -46.533 202.144 -45.508 203.016 -44.274 203.016 C -42.866 203.016 -41.728 201.874 -41.728 200.468 C -41.728 199.062 -42.87 197.92 -44.274 197.92 C -45.508 197.92 -46.533 198.796 -46.77 199.957 L -240.68 199.957 L -255.388 185.24 L -304.185 185.24 C -304.422 184.076 -305.447 183.203 -306.681 183.203 C -308.089 183.203 -309.228 184.346 -309.228 185.751 C -309.228 187.161 -308.085 188.3 -306.681 188.3 C -305.447 188.3 -304.422 187.423 -304.185 186.262 Z" fill="#174034"/>
  <path d="M -342.781 219.325 C -344.19 219.325 -345.328 220.467 -345.328 221.873 C -345.328 223.278 -344.186 224.421 -342.781 224.421 C -341.548 224.421 -340.523 223.545 -340.286 222.384 L -94.028 222.384 L -83.082 211.431 L -6.252 211.431 C -6.015 212.596 -4.99 213.469 -3.756 213.469 C -2.348 213.469 -1.21 212.326 -1.21 210.92 C -1.21 209.515 -2.352 208.372 -3.756 208.372 C -4.99 208.372 -6.015 209.248 -6.252 210.409 L -83.502 210.409 L -94.448 221.362 L -340.286 221.362 C -340.523 220.197 -341.548 219.325 -342.781 219.325 Z" fill="#174034"/>
  <path d="M -306.681 314.02 C -305.448 314.02 -304.422 313.144 -304.185 311.983 L -255.388 311.983 L -240.68 297.267 L -73.789 297.267 C -73.552 298.431 -72.527 299.307 -71.293 299.307 C -69.885 299.307 -68.746 298.165 -68.746 296.759 C -68.746 295.354 -69.889 294.211 -71.293 294.211 C -72.527 294.211 -73.552 295.087 -73.789 296.248 L -241.099 296.248 L -255.807 310.965 L -304.182 310.965 C -304.419 309.8 -305.444 308.927 -306.677 308.927 C -308.086 308.927 -309.224 310.07 -309.224 311.476 C -309.224 312.881 -308.082 314.024 -306.677 314.024 L -306.681 314.02 Z" fill="#174034"/>
  <path d="M -81.999 288.611 C -80.59 288.611 -79.452 287.468 -79.452 286.063 C -79.452 284.657 -80.594 283.515 -81.999 283.515 C -82.517 283.515 -82.999 283.672 -83.404 283.938 L -92.492 274.844 L -340.286 274.844 C -340.523 273.679 -341.548 272.807 -342.781 272.807 C -344.19 272.807 -345.328 273.949 -345.328 275.355 C -345.328 276.76 -344.186 277.903 -342.781 277.903 C -341.548 277.903 -340.523 277.027 -340.286 275.866 L -92.916 275.866 L -84.126 284.661 C -84.392 285.062 -84.549 285.548 -84.549 286.066 C -84.549 287.476 -83.407 288.615 -82.002 288.615 L -81.999 288.611 Z" fill="#174034"/>
  <path d="M -137.192 245.827 C -135.959 245.827 -134.934 244.951 -134.697 243.79 L 60.063 243.79 C 60.3 244.954 61.326 245.827 62.559 245.827 C 63.967 245.827 65.106 244.684 65.106 243.279 C 65.106 241.873 63.964 240.73 62.559 240.73 C 61.326 240.73 60.3 241.607 60.063 242.768 L -134.697 242.768 C -134.934 241.603 -135.959 240.73 -137.192 240.73 C -138.601 240.73 -139.739 241.873 -139.739 243.279 C -139.739 244.684 -138.597 245.827 -137.192 245.827 Z" fill="#174034"/>
  <path d="M -50.467 275.877 L 31.512 275.877 C 31.749 277.042 32.774 277.918 34.007 277.918 C 35.416 277.918 36.554 276.775 36.554 275.37 C 36.554 273.964 35.412 272.821 34.007 272.821 C 32.774 272.821 31.749 273.697 31.512 274.858 L -50.467 274.858 C -50.704 273.697 -51.729 272.821 -52.963 272.821 C -54.371 272.821 -55.51 273.964 -55.51 275.37 C -55.51 276.775 -54.367 277.918 -52.963 277.918 C -51.729 277.918 -50.701 277.042 -50.467 275.877 Z" fill="#174034"/>
  <path d="M 24.569 294.211 C 23.16 294.211 22.022 295.354 22.022 296.759 C 22.022 298.165 23.164 299.307 24.569 299.307 C 25.802 299.307 26.827 298.431 27.064 297.27 L 208.032 297.27 L 208.032 296.252 L 27.064 296.252 C 26.827 295.087 25.802 294.215 24.569 294.215 L 24.569 294.211 Z" fill="#174034"/>
  <path d="M -48.745 315.602 C -49.978 315.602 -51.003 316.478 -51.24 317.639 L -89.3 317.639 L -99.99 306.942 L -231.453 306.942 L -289.208 364.852 L -423.239 364.852 C -423.476 363.687 -424.501 362.815 -425.734 362.815 C -427.143 362.815 -428.281 363.958 -428.281 365.363 C -428.281 366.769 -427.139 367.912 -425.734 367.912 C -424.501 367.912 -423.476 367.035 -423.239 365.874 L -288.784 365.874 L -231.029 307.965 L -100.414 307.965 L -89.723 318.662 L -51.244 318.662 C -51.007 319.826 -49.982 320.702 -48.748 320.702 C -47.34 320.702 -46.202 319.56 -46.202 318.154 C -46.202 316.749 -47.344 315.606 -48.748 315.606 L -48.745 315.602 Z" fill="#174034"/>
  <path d="M 191.492 219.325 C 190.084 219.325 188.946 220.468 188.946 221.873 C 188.946 223.283 190.088 224.422 191.492 224.422 C 192.726 224.422 193.751 223.546 193.988 222.385 L 208.032 222.385 L 208.032 221.366 L 193.988 221.366 C 193.751 220.201 192.726 219.329 191.492 219.329 L 191.492 219.325 Z" fill="#174034"/>
  <path d="M 173.226 262.12 C 171.818 262.12 170.68 263.263 170.68 264.668 C 170.68 266.074 171.822 267.217 173.226 267.217 C 174.46 267.217 175.485 266.34 175.722 265.179 L 208.028 265.179 L 208.028 264.161 L 175.722 264.161 C 175.485 262.996 174.46 262.124 173.226 262.124 L 173.226 262.12 Z" fill="#174034"/>
  <path d="M 156.34 288.611 C 157.749 288.611 158.887 287.468 158.887 286.063 C 158.887 284.657 157.745 283.514 156.34 283.514 C 155.107 283.514 154.082 284.391 153.844 285.552 L -56.097 285.552 L -64.872 276.771 C -64.606 276.37 -64.449 275.888 -64.449 275.366 C -64.449 273.956 -65.591 272.817 -66.996 272.817 C -68.401 272.817 -69.543 273.96 -69.543 275.366 C -69.543 276.771 -68.401 277.914 -66.996 277.914 C -66.478 277.914 -65.996 277.757 -65.591 277.49 L -56.517 286.57 L 153.848 286.57 C 154.085 287.735 155.111 288.607 156.344 288.607 L 156.34 288.611 Z" fill="#174034"/>
  <path d="M 145.653 272.817 C 144.42 272.817 143.395 273.694 143.158 274.858 L 47.062 274.858 L 36.372 264.161 L -75.183 264.161 C -75.421 262.997 -76.446 262.124 -77.679 262.124 C -79.087 262.124 -80.226 263.267 -80.226 264.672 C -80.226 266.078 -79.084 267.221 -77.679 267.221 C -76.446 267.221 -75.421 266.344 -75.183 265.183 L 35.948 265.183 L 46.639 275.88 L 143.158 275.88 C 143.395 277.045 144.42 277.918 145.653 277.918 C 147.062 277.918 148.2 276.775 148.2 275.369 C 148.2 273.964 147.058 272.821 145.653 272.821 L 145.653 272.817 Z" fill="#174034"/>
  <path d="M 151.59 240.73 C 150.181 240.73 149.043 241.873 149.043 243.279 C 149.043 244.684 150.185 245.827 151.59 245.827 C 152.823 245.827 153.848 244.951 154.085 243.79 L 208.028 243.79 L 208.028 242.771 L 154.085 242.771 C 153.848 241.607 152.823 240.734 151.59 240.734 L 151.59 240.73 Z" fill="#174034"/>
  <path d="M 92.785 251.427 C 91.376 251.427 90.238 252.569 90.238 253.975 C 90.238 255.381 91.38 256.523 92.785 256.523 C 94.018 256.523 95.043 255.647 95.28 254.486 L 208.032 254.486 L 208.032 253.468 L 95.28 253.468 C 95.043 252.303 94.018 251.43 92.785 251.43 L 92.785 251.427 Z" fill="#174034"/>
  <path d="M 49.423 304.904 C 48.015 304.904 46.876 306.047 46.876 307.453 C 46.876 308.858 48.019 310.001 49.423 310.001 C 50.657 310.001 51.682 309.125 51.919 307.964 L 208.032 307.964 L 208.032 306.945 L 51.919 306.945 C 51.682 305.78 50.657 304.908 49.423 304.908 L 49.423 304.904 Z" fill="#174034"/>
  <path d="M 34.423 315.602 C 33.19 315.602 32.165 316.478 31.928 317.639 L -35.872 317.639 C -36.109 316.474 -37.135 315.602 -38.368 315.602 C -39.776 315.602 -40.915 316.744 -40.915 318.15 C -40.915 319.555 -39.773 320.698 -38.368 320.698 C -37.135 320.698 -36.109 319.822 -35.872 318.661 L 31.928 318.661 C 32.165 319.826 33.19 320.698 34.423 320.698 C 35.832 320.698 36.97 319.555 36.97 318.15 C 36.97 316.744 35.828 315.602 34.423 315.602 Z" fill="#174034"/>
  <path d="M 131.537 219.325 C 130.3 219.325 129.271 220.209 129.038 221.377 L 13.732 221.377 C 13.502 220.209 12.469 219.325 11.233 219.325 C 9.824 219.325 8.686 220.468 8.686 221.873 C 8.686 223.279 9.828 224.422 11.233 224.422 C 12.459 224.422 13.484 223.553 13.725 222.396 L 129.041 222.396 C 129.282 223.553 130.307 224.422 131.533 224.422 C 132.942 224.422 134.08 223.279 134.08 221.873 C 134.08 220.468 132.938 219.325 131.533 219.325 L 131.537 219.325 Z" fill="#174034"/>
  <path d="M 95.998 208.559 C 94.59 208.559 93.452 209.701 93.452 211.107 C 93.452 212.512 94.594 213.655 95.998 213.655 C 97.232 213.655 98.257 212.779 98.494 211.618 L 208.031 211.618 L 208.031 210.599 L 98.494 210.599 C 98.257 209.435 97.232 208.562 95.998 208.562 L 95.998 208.559 Z" fill="#174034"/>
  <path d="M 85.618 208.559 C 84.366 208.559 83.327 209.464 83.115 210.654 L 8.871 210.654 L -12.528 232.066 L -138.583 232.066 L -149.281 242.771 L -361.678 242.771 C -361.915 241.606 -362.941 240.733 -364.174 240.733 C -365.582 240.733 -366.721 241.876 -366.721 243.282 C -366.721 244.687 -365.579 245.83 -364.174 245.83 C -362.941 245.83 -361.915 244.954 -361.678 243.793 L -148.858 243.793 L -138.16 233.089 L -12.105 233.089 L 9.295 211.676 L 83.137 211.676 C 83.396 212.812 84.407 213.659 85.618 213.659 C 87.026 213.659 88.165 212.516 88.165 211.11 C 88.165 209.705 87.023 208.562 85.618 208.562 L 85.618 208.559 Z" fill="#174034"/>
  <path d="M 65.751 197.916 C 64.343 197.916 63.204 199.059 63.204 200.464 C 63.204 201.87 64.346 203.013 65.751 203.013 C 66.984 203.013 68.009 202.136 68.247 200.975 L 208.031 200.975 L 208.031 199.957 L 68.247 199.957 C 68.009 198.792 66.984 197.92 65.751 197.92 L 65.751 197.916 Z" fill="#174034"/>
  <path d="M 55.371 197.917 C 54.137 197.917 53.112 198.793 52.875 199.954 L -31.22 199.954 L -41.911 189.257 L -84.859 189.257 C -85.097 188.092 -86.122 187.22 -87.355 187.22 C -88.763 187.22 -89.902 188.362 -89.902 189.768 C -89.902 191.174 -88.76 192.316 -87.355 192.316 C -86.122 192.316 -85.097 191.44 -84.859 190.279 L -42.33 190.279 L -31.64 200.976 L 52.879 200.976 C 53.116 202.141 54.141 203.013 55.374 203.013 C 56.783 203.013 57.921 201.871 57.921 200.465 C 57.921 199.059 56.779 197.917 55.374 197.917 L 55.371 197.917 Z" fill="#174034"/>
  <path d="M 11.692 297.268 C 11.929 298.432 12.954 299.305 14.188 299.305 C 15.596 299.305 16.734 298.162 16.734 296.756 C 16.734 295.351 15.592 294.208 14.188 294.208 C 12.954 294.208 11.929 295.084 11.692 296.245 L -58.242 296.245 L -90.311 264.158 L -138.171 264.158 L -148.861 253.461 L -361.678 253.461 C -361.915 252.296 -362.941 251.424 -364.174 251.424 C -365.582 251.424 -366.721 252.566 -366.721 253.972 C -366.721 255.378 -365.579 256.52 -364.174 256.52 C -362.941 256.52 -361.915 255.644 -361.678 254.483 L -149.281 254.483 L -138.59 265.18 L -90.73 265.18 L -58.662 297.268 L 11.696 297.268 L 11.692 297.268 Z" fill="#174034"/>
  <path d="M 66.109 254.483 L 75.183 245.404 C 75.585 245.67 76.07 245.827 76.588 245.827 C 77.996 245.827 79.135 244.684 79.135 243.279 C 79.135 241.873 77.993 240.73 76.588 240.73 C 75.183 240.73 74.041 241.873 74.041 243.279 C 74.041 243.797 74.198 244.279 74.464 244.684 L 65.689 253.465 L -134.697 253.486 C -134.934 252.322 -135.959 251.449 -137.192 251.449 C -138.601 251.449 -139.739 252.592 -139.739 253.998 C -139.739 255.403 -138.597 256.546 -137.192 256.546 C -135.959 256.546 -134.934 255.67 -134.697 254.505 L 65.901 254.483 L 66.113 254.483 L 66.109 254.483 Z" fill="#174034"/>
  <path d="M 138.539 242.767 L 89.245 242.767 L 80.167 251.851 C 79.762 251.58 79.277 251.423 78.755 251.423 C 77.347 251.423 76.208 252.566 76.208 253.972 C 76.208 255.377 77.35 256.52 78.755 256.52 C 80.16 256.52 81.302 255.377 81.302 253.972 C 81.302 253.457 81.149 252.975 80.882 252.573 L 89.665 243.786 L 138.958 243.786 L 149.649 233.089 L 208.028 233.089 L 208.028 232.07 L 149.226 232.07 L 138.535 242.767 L 138.539 242.767 Z" fill="#174034"/>
  <path d="M 144.588 222.381 L 178.615 222.381 C 178.849 223.546 179.878 224.422 181.111 224.422 C 182.52 224.422 183.658 223.279 183.658 221.873 C 183.658 220.468 182.516 219.325 181.111 219.325 C 179.878 219.325 178.853 220.201 178.615 221.362 L 144.165 221.362 L 133.463 232.07 L 3.019 232.07 C 2.782 230.909 1.753 230.037 0.523 230.037 C -0.885 230.037 -2.024 231.179 -2.024 232.585 C -2.024 233.991 -0.882 235.133 0.523 235.133 C 1.756 235.133 2.785 234.253 3.019 233.089 L 133.883 233.089 L 144.584 222.377 L 144.588 222.381 Z" fill="#174034"/>
  <path d="M 148.018 264.161 L 51.499 264.161 C 51.262 262.997 50.237 262.124 49.003 262.124 C 47.595 262.124 46.457 263.267 46.457 264.672 C 46.457 266.078 47.599 267.221 49.003 267.221 C 50.237 267.221 51.262 266.344 51.499 265.183 L 147.594 265.183 L 168.972 286.574 L 208.028 286.574 L 208.028 285.555 L 169.392 285.555 L 148.014 264.165 L 148.018 264.161 Z" fill="#174034"/>
  <path d="M 162.774 266.074 C 163.04 265.672 163.197 265.187 163.197 264.668 C 163.197 263.259 162.055 262.12 160.65 262.12 C 159.245 262.12 158.103 263.263 158.103 264.668 C 158.103 266.074 159.245 267.217 160.65 267.217 C 161.168 267.217 161.65 267.06 162.055 266.793 L 171.129 275.873 L 208.032 275.873 L 208.032 274.854 L 171.552 274.854 L 162.777 266.074 L 162.774 266.074 Z" fill="#174034"/>
  <path d="M 100.953 178.563 L 90.263 189.26 L -26.783 189.26 C -27.021 188.096 -28.046 187.223 -29.279 187.223 C -30.688 187.223 -31.826 188.366 -31.826 189.772 C -31.826 191.177 -30.684 192.32 -29.279 192.32 C -28.046 192.32 -27.021 191.444 -26.783 190.279 L 90.682 190.279 L 101.373 179.582 L 208.028 179.582 L 208.028 178.563 L 100.95 178.563 L 100.953 178.563 Z" fill="#174034"/>
  <path d="M 691.799 323.699 C 693.029 323.699 694.059 322.823 694.289 321.662 L 752.109 321.662 L 781.339 350.909 L 947.059 350.909 C 947.299 352.073 948.329 352.946 949.559 352.946 C 950.969 352.946 952.109 351.803 952.109 350.398 C 952.109 348.992 950.959 347.849 949.559 347.849 C 948.329 347.849 947.299 348.725 947.059 349.886 L 781.769 349.886 L 752.539 320.639 L 694.299 320.639 C 694.059 319.475 693.029 318.599 691.799 318.599 C 690.389 318.599 689.249 319.741 689.249 321.147 C 689.249 322.552 690.399 323.695 691.799 323.695 L 691.799 323.699 Z" fill="#174034"/>
  <path d="M 740.659 270.192 C 741.889 270.192 742.919 269.316 743.159 268.155 L 818.239 268.155 L 846.949 296.88 L 847.099 297.03 L 981.859 297.03 C 982.099 298.194 983.119 299.067 984.359 299.067 C 985.769 299.067 986.899 297.924 986.899 296.519 C 986.899 295.113 985.759 293.97 984.359 293.97 C 983.119 293.97 982.099 294.846 981.859 296.007 L 847.519 296.007 L 818.659 267.133 L 743.149 267.133 C 742.919 265.968 741.889 265.096 740.659 265.096 C 739.249 265.096 738.109 266.238 738.109 267.644 C 738.109 269.05 739.249 270.192 740.659 270.192 Z" fill="#174034"/>
  <path d="M 685.579 291.852 C 686.809 291.852 687.829 290.976 688.069 289.815 L 757.739 289.815 L 800.519 332.8 L 800.669 332.95 L 875.669 332.95 C 875.899 334.115 876.929 334.987 878.159 334.987 C 879.569 334.987 880.709 333.844 880.709 332.439 C 880.709 331.033 879.569 329.891 878.159 329.891 C 876.929 329.891 875.899 330.767 875.669 331.928 L 801.089 331.928 L 758.319 288.943 L 758.169 288.793 L 688.069 288.793 C 687.829 287.628 686.809 286.756 685.579 286.756 C 684.169 286.756 683.029 287.899 683.029 289.304 C 683.029 290.71 684.169 291.852 685.579 291.852 Z" fill="#174034"/>
  <path d="M 691.799 184.624 C 693.029 184.624 694.059 183.748 694.289 182.584 L 752.529 182.584 L 781.759 153.337 L 947.059 153.337 C 947.299 154.501 948.319 155.374 949.559 155.374 C 950.959 155.374 952.099 154.231 952.099 152.826 C 952.099 151.42 950.959 150.277 949.559 150.277 C 948.319 150.277 947.299 151.154 947.059 152.314 L 781.339 152.314 L 752.109 181.561 L 694.289 181.561 C 694.049 180.397 693.029 179.524 691.789 179.524 C 690.389 179.524 689.249 180.667 689.249 182.073 C 689.249 183.478 690.389 184.621 691.789 184.621 L 691.799 184.624 Z" fill="#174034"/>
  <path d="M 685.469 216.711 C 686.699 216.711 687.729 215.835 687.959 214.674 L 757.929 214.674 L 801.089 171.295 L 875.529 171.295 C 875.769 172.459 876.789 173.332 878.029 173.332 C 879.439 173.332 880.569 172.189 880.569 170.784 C 880.569 169.378 879.429 168.235 878.029 168.235 C 876.789 168.235 875.769 169.112 875.529 170.272 L 800.669 170.272 L 757.499 213.652 L 687.959 213.652 C 687.729 212.487 686.699 211.611 685.469 211.611 C 684.059 211.611 682.919 212.754 682.919 214.159 C 682.919 215.565 684.059 216.708 685.469 216.708 L 685.469 216.711 Z" fill="#174034"/>
  <path d="M 847.069 206.2 L 818.249 235.042 L 743.159 235.042 C 742.919 233.881 741.899 233.004 740.659 233.004 C 739.259 233.004 738.119 234.147 738.119 235.553 C 738.119 236.958 739.259 238.101 740.659 238.101 C 741.899 238.101 742.929 237.225 743.159 236.06 L 818.669 236.06 L 847.489 207.219 L 981.859 207.219 C 982.099 208.383 983.119 209.256 984.359 209.256 C 985.759 209.256 986.899 208.113 986.899 206.707 C 986.899 205.302 985.759 204.159 984.359 204.159 C 983.119 204.159 982.099 205.035 981.859 206.196 L 847.069 206.196 L 847.069 206.2 Z" fill="#174034"/>
  <path d="M 592.969 318.602 C 591.739 318.602 590.709 319.479 590.479 320.64 L 503.609 320.64 C 503.379 319.475 502.349 318.602 501.119 318.602 C 499.709 318.602 498.569 319.745 498.569 321.151 C 498.569 322.556 499.709 323.699 501.119 323.699 C 502.349 323.699 503.379 322.823 503.609 321.662 L 590.479 321.662 C 590.709 322.827 591.739 323.699 592.969 323.699 C 594.379 323.699 595.519 322.556 595.519 321.151 C 595.519 319.745 594.379 318.602 592.969 318.602 Z" fill="#174034"/>
  <path d="M 486.119 313.002 C 487.529 313.002 488.669 311.859 488.669 310.454 C 488.669 309.048 487.529 307.905 486.119 307.905 C 484.889 307.905 483.859 308.781 483.629 309.942 L 381.407 309.942 L 381.407 310.961 L 483.629 310.961 C 483.859 312.126 484.889 312.998 486.119 312.998 L 486.119 313.002 Z" fill="#174034"/>
  <path d="M 606.609 278.859 L 668.329 278.859 C 668.569 280.024 669.599 280.896 670.829 280.896 C 672.239 280.896 673.379 279.754 673.379 278.348 C 673.379 276.942 672.229 275.8 670.829 275.8 C 669.599 275.8 668.569 276.676 668.329 277.837 L 606.609 277.837 C 606.369 276.676 605.349 275.8 604.109 275.8 C 602.699 275.8 601.569 276.942 601.569 278.348 C 601.569 279.754 602.709 280.896 604.109 280.896 C 605.349 280.896 606.369 280.02 606.609 278.856 L 606.609 278.859 Z" fill="#174034"/>
  <path d="M 501.579 184.624 C 502.989 184.624 504.119 183.481 504.119 182.076 C 504.119 180.67 502.979 179.527 501.579 179.527 C 500.339 179.527 499.319 180.404 499.079 181.564 L 381.41 181.564 L 381.41 182.583 L 499.079 182.583 C 499.319 183.748 500.339 184.62 501.579 184.62 L 501.579 184.624 Z" fill="#174034"/>
  <path d="M 511.949 184.624 C 513.189 184.624 514.209 183.748 514.449 182.587 L 541.959 182.587 L 552.649 193.284 L 674.299 193.284 C 674.539 194.449 675.559 195.321 676.799 195.321 C 678.209 195.321 679.339 194.178 679.339 192.773 C 679.339 191.367 678.199 190.225 676.799 190.225 C 675.559 190.225 674.539 191.101 674.299 192.265 L 553.069 192.265 L 542.379 181.568 L 514.449 181.568 C 514.219 180.404 513.189 179.531 511.959 179.531 C 510.549 179.531 509.409 180.674 509.409 182.08 C 509.409 183.485 510.549 184.628 511.959 184.628 L 511.949 184.624 Z" fill="#174034"/>
  <path d="M 1015.169 365.816 C 1013.939 365.816 1012.919 366.692 1012.679 367.853 L 878.649 367.853 L 821.039 310.093 L 820.889 309.943 L 689.429 309.943 L 678.739 320.64 L 605.849 320.64 C 605.609 319.476 604.589 318.599 603.349 318.599 C 601.949 318.599 600.809 319.742 600.809 321.148 C 600.809 322.553 601.949 323.696 603.349 323.696 C 604.589 323.696 605.609 322.82 605.849 321.659 L 679.159 321.659 L 689.849 310.962 L 820.469 310.962 L 878.069 368.722 L 878.219 368.872 L 1012.679 368.872 C 1012.919 370.036 1013.939 370.909 1015.169 370.909 C 1016.579 370.909 1017.719 369.766 1017.719 368.361 C 1017.719 366.955 1016.579 365.812 1015.169 365.812 L 1015.169 365.816 Z" fill="#174034"/>
  <path d="M 893.619 313.963 L 845.249 313.963 L 830.539 299.246 L 636.209 299.246 C 635.969 298.082 634.939 297.209 633.709 297.209 C 632.299 297.209 631.159 298.352 631.159 299.757 C 631.159 301.163 632.309 302.306 633.709 302.306 C 634.939 302.306 635.969 301.429 636.209 300.268 L 830.119 300.268 L 844.819 314.985 L 893.619 314.985 C 893.859 316.15 894.879 317.022 896.119 317.022 C 897.529 317.022 898.659 315.879 898.659 314.474 C 898.659 313.068 897.519 311.926 896.119 311.926 C 894.879 311.926 893.859 312.802 893.619 313.963 Z" fill="#174034"/>
  <path d="M 932.219 280.9 C 933.629 280.9 934.769 279.758 934.769 278.352 C 934.769 276.946 933.629 275.804 932.219 275.804 C 930.989 275.804 929.959 276.68 929.729 277.841 L 683.469 277.841 L 672.519 288.793 L 595.689 288.793 C 595.449 287.629 594.429 286.756 593.199 286.756 C 591.789 286.756 590.649 287.899 590.649 289.305 C 590.649 290.71 591.789 291.853 593.199 291.853 C 594.429 291.853 595.449 290.977 595.689 289.816 L 672.939 289.816 L 683.889 278.863 L 929.719 278.863 C 929.959 280.028 930.979 280.9 932.219 280.9 Z" fill="#174034"/>
  <path d="M 896.119 186.205 C 894.889 186.205 893.859 187.081 893.619 188.242 L 844.829 188.242 L 830.119 202.959 L 663.229 202.959 C 662.989 201.794 661.969 200.918 660.729 200.918 C 659.319 200.918 658.189 202.06 658.189 203.466 C 658.189 204.872 659.329 206.014 660.729 206.014 C 661.969 206.014 662.989 205.138 663.229 203.977 L 830.539 203.977 L 845.249 189.261 L 893.619 189.261 C 893.859 190.425 894.879 191.298 896.119 191.298 C 897.529 191.298 898.659 190.155 898.659 188.749 C 898.659 187.344 897.519 186.201 896.119 186.201 L 896.119 186.205 Z" fill="#174034"/>
  <path d="M 671.439 211.614 C 670.029 211.614 668.889 212.757 668.889 214.162 C 668.889 215.568 670.029 216.711 671.439 216.711 C 671.959 216.711 672.439 216.554 672.839 216.287 L 681.929 225.381 L 929.719 225.381 C 929.959 226.546 930.989 227.418 932.219 227.418 C 933.629 227.418 934.769 226.276 934.769 224.87 C 934.769 223.465 933.619 222.322 932.219 222.322 C 930.989 222.322 929.959 223.198 929.719 224.359 L 682.349 224.359 L 673.559 215.564 C 673.829 215.163 673.989 214.677 673.989 214.159 C 673.989 212.749 672.849 211.61 671.439 211.61 L 671.439 211.614 Z" fill="#174034"/>
  <path d="M 726.629 254.399 C 725.399 254.399 724.369 255.276 724.139 256.437 L 529.379 256.437 C 529.139 255.272 528.109 254.399 526.879 254.399 C 525.469 254.399 524.329 255.542 524.329 256.948 C 524.329 258.353 525.479 259.496 526.879 259.496 C 528.109 259.496 529.139 258.62 529.379 257.459 L 724.139 257.459 C 724.369 258.623 725.399 259.496 726.629 259.496 C 728.039 259.496 729.179 258.353 729.179 256.948 C 729.179 255.542 728.039 254.399 726.629 254.399 Z" fill="#174034"/>
  <path d="M 639.909 224.349 L 557.929 224.349 C 557.689 223.185 556.669 222.309 555.429 222.309 C 554.019 222.309 552.889 223.451 552.889 224.857 C 552.889 226.262 554.029 227.405 555.429 227.405 C 556.669 227.405 557.689 226.529 557.929 225.368 L 639.909 225.368 C 640.139 226.529 641.169 227.405 642.399 227.405 C 643.809 227.405 644.949 226.262 644.949 224.857 C 644.949 223.451 643.809 222.309 642.399 222.309 C 641.169 222.309 640.139 223.185 639.909 224.349 Z" fill="#174034"/>
  <path d="M 564.869 206.014 C 566.279 206.014 567.419 204.871 567.419 203.465 C 567.419 202.06 566.279 200.917 564.869 200.917 C 563.639 200.917 562.609 201.793 562.379 202.954 L 381.407 202.954 L 381.407 203.973 L 562.379 203.973 C 562.609 205.137 563.639 206.01 564.869 206.01 L 564.869 206.014 Z" fill="#174034"/>
  <path d="M 638.179 184.624 C 639.419 184.624 640.439 183.748 640.679 182.587 L 678.739 182.587 L 689.429 193.284 L 820.889 193.284 L 878.649 135.374 L 1012.679 135.374 C 1012.919 136.539 1013.939 137.411 1015.169 137.411 C 1016.579 137.411 1017.719 136.269 1017.719 134.863 C 1017.719 133.458 1016.579 132.315 1015.169 132.315 C 1013.939 132.315 1012.919 133.191 1012.679 134.352 L 878.219 134.352 L 820.469 192.261 L 689.849 192.261 L 679.159 181.564 L 640.679 181.564 C 640.449 180.4 639.419 179.524 638.189 179.524 C 636.779 179.524 635.639 180.666 635.639 182.072 C 635.639 183.477 636.779 184.62 638.189 184.62 L 638.179 184.624 Z" fill="#174034"/>
  <path d="M 397.946 280.9 C 399.354 280.9 400.493 279.758 400.493 278.352 C 400.493 276.946 399.351 275.804 397.946 275.804 C 396.713 275.804 395.687 276.68 395.45 277.841 L 381.407 277.841 L 381.407 278.859 L 395.45 278.859 C 395.687 280.024 396.713 280.897 397.946 280.897 L 397.946 280.9 Z" fill="#174034"/>
  <path d="M 416.208 238.105 C 417.616 238.105 418.754 236.963 418.754 235.557 C 418.754 234.151 417.612 233.009 416.208 233.009 C 414.974 233.009 413.949 233.885 413.712 235.046 L 381.407 235.046 L 381.407 236.065 L 413.712 236.065 C 413.949 237.229 414.974 238.102 416.208 238.102 L 416.208 238.105 Z" fill="#174034"/>
  <path d="M 433.098 211.615 C 431.689 211.615 430.551 212.758 430.551 214.163 C 430.551 215.569 431.693 216.712 433.098 216.712 C 434.331 216.712 435.356 215.836 435.593 214.675 L 645.539 214.675 L 654.309 223.455 C 654.049 223.856 653.889 224.338 653.889 224.86 C 653.889 226.27 655.029 227.409 656.429 227.409 C 657.839 227.409 658.979 226.266 658.979 224.86 C 658.979 223.455 657.839 222.312 656.429 222.312 C 655.919 222.312 655.439 222.469 655.029 222.736 L 645.959 213.656 L 435.59 213.656 C 435.353 212.491 434.327 211.619 433.094 211.619 L 433.098 211.615 Z" fill="#174034"/>
  <path d="M 443.784 227.409 C 445.018 227.409 446.043 226.533 446.28 225.368 L 542.379 225.368 L 553.069 236.065 L 664.619 236.065 C 664.859 237.23 665.879 238.102 667.119 238.102 C 668.529 238.102 669.659 236.959 669.659 235.554 C 669.659 234.148 668.519 233.006 667.119 233.006 C 665.879 233.006 664.859 233.882 664.619 235.043 L 553.489 235.043 L 542.799 224.346 L 446.28 224.346 C 446.043 223.181 445.018 222.309 443.784 222.309 C 442.376 222.309 441.238 223.451 441.238 224.857 C 441.238 226.262 442.38 227.405 443.784 227.405 L 443.784 227.409 Z" fill="#174034"/>
  <path d="M 437.844 259.496 C 439.253 259.496 440.391 258.353 440.391 256.948 C 440.391 255.542 439.249 254.399 437.844 254.399 C 436.611 254.399 435.586 255.276 435.349 256.437 L 381.407 256.437 L 381.407 257.455 L 435.349 257.455 C 435.586 258.62 436.611 259.492 437.844 259.492 L 437.844 259.496 Z" fill="#174034"/>
  <path d="M 496.649 248.798 C 498.059 248.798 499.199 247.655 499.199 246.249 C 499.199 244.844 498.059 243.701 496.649 243.701 C 495.419 243.701 494.399 244.577 494.159 245.738 L 381.407 245.738 L 381.407 246.757 L 494.159 246.757 C 494.399 247.922 495.419 248.794 496.649 248.794 L 496.649 248.798 Z" fill="#174034"/>
  <path d="M 540.019 195.32 C 541.419 195.32 542.559 194.177 542.559 192.772 C 542.559 191.366 541.419 190.224 540.019 190.224 C 538.779 190.224 537.759 191.1 537.519 192.261 L 381.407 192.261 L 381.407 193.279 L 537.519 193.279 C 537.759 194.444 538.779 195.317 540.019 195.317 L 540.019 195.32 Z" fill="#174034"/>
  <path d="M 555.019 184.624 C 556.249 184.624 557.269 183.748 557.509 182.587 L 625.309 182.587 C 625.549 183.751 626.569 184.624 627.809 184.624 C 629.209 184.624 630.349 183.481 630.349 182.076 C 630.349 180.67 629.209 179.527 627.809 179.527 C 626.569 179.527 625.549 180.404 625.309 181.564 L 557.509 181.564 C 557.269 180.4 556.249 179.527 555.019 179.527 C 553.609 179.527 552.469 180.67 552.469 182.076 C 552.469 183.481 553.609 184.624 555.019 184.624 Z" fill="#174034"/>
  <path d="M 457.899 280.9 C 459.139 280.9 460.169 280.017 460.399 278.848 L 575.709 278.848 C 575.939 280.017 576.969 280.9 578.209 280.9 C 579.619 280.9 580.749 279.758 580.749 278.352 C 580.749 276.946 579.609 275.804 578.209 275.804 C 576.979 275.804 575.959 276.673 575.709 277.83 L 460.399 277.83 C 460.159 276.673 459.129 275.804 457.909 275.804 C 456.499 275.804 455.359 276.946 455.359 278.352 C 455.359 279.758 456.499 280.9 457.909 280.9 L 457.899 280.9 Z" fill="#174034"/>
  <path d="M 493.439 291.667 C 494.849 291.667 495.989 290.524 495.989 289.119 C 495.989 287.713 494.849 286.57 493.439 286.57 C 492.209 286.57 491.179 287.446 490.939 288.607 L 381.407 288.607 L 381.407 289.626 L 490.939 289.626 C 491.179 290.791 492.209 291.663 493.439 291.663 L 493.439 291.667 Z" fill="#174034"/>
  <path d="M 503.819 291.666 C 505.069 291.666 506.109 290.761 506.319 289.57 L 580.569 289.57 L 601.969 268.158 L 728.019 268.158 L 738.719 257.454 L 951.119 257.454 C 951.349 258.619 952.379 259.491 953.609 259.491 C 955.019 259.491 956.159 258.348 956.159 256.943 C 956.159 255.537 955.019 254.394 953.609 254.394 C 952.379 254.394 951.349 255.271 951.119 256.432 L 738.299 256.432 L 727.599 267.136 L 601.539 267.136 L 580.139 288.548 L 506.299 288.548 C 506.039 287.413 505.029 286.566 503.819 286.566 C 502.409 286.566 501.269 287.709 501.269 289.114 C 501.269 290.52 502.419 291.662 503.819 291.662 L 503.819 291.666 Z" fill="#174034"/>
  <path d="M 523.689 302.308 C 525.099 302.308 526.229 301.166 526.229 299.76 C 526.229 298.355 525.089 297.212 523.689 297.212 C 522.449 297.212 521.429 298.088 521.189 299.249 L 381.407 299.249 L 381.407 300.268 L 521.189 300.268 C 521.429 301.432 522.449 302.305 523.689 302.305 L 523.689 302.308 Z" fill="#174034"/>
  <path d="M 534.069 302.308 C 535.299 302.308 536.329 301.432 536.559 300.271 L 620.659 300.271 L 631.349 310.968 L 674.299 310.968 C 674.539 312.133 675.559 313.005 676.789 313.005 C 678.199 313.005 679.339 311.863 679.339 310.457 C 679.339 309.052 678.199 307.909 676.789 307.909 C 675.559 307.909 674.539 308.785 674.299 309.946 L 631.769 309.946 L 621.079 299.249 L 536.559 299.249 C 536.319 298.084 535.299 297.212 534.059 297.212 C 532.659 297.212 531.519 298.355 531.519 299.76 C 531.519 301.166 532.659 302.308 534.059 302.308 L 534.069 302.308 Z" fill="#174034"/>
  <path d="M 577.749 202.958 C 577.509 201.793 576.479 200.921 575.249 200.921 C 573.839 200.921 572.699 202.064 572.699 203.469 C 572.699 204.875 573.849 206.017 575.249 206.017 C 576.479 206.017 577.509 205.141 577.749 203.98 L 647.679 203.98 L 679.749 236.068 L 727.609 236.068 L 738.299 246.765 L 951.119 246.765 C 951.359 247.929 952.379 248.802 953.619 248.802 C 955.019 248.802 956.159 247.659 956.159 246.253 C 956.159 244.848 955.019 243.705 953.619 243.705 C 952.379 243.705 951.359 244.581 951.119 245.742 L 738.719 245.742 L 728.029 235.045 L 680.169 235.045 L 648.099 202.958 L 577.749 202.958 Z" fill="#174034"/>
  <path d="M 523.329 245.742 L 514.259 254.822 C 513.849 254.556 513.369 254.399 512.849 254.399 C 511.439 254.399 510.299 255.541 510.299 256.947 C 510.299 258.352 511.449 259.495 512.849 259.495 C 514.259 259.495 515.399 258.352 515.399 256.947 C 515.399 256.428 515.239 255.946 514.969 255.541 L 523.749 246.761 L 724.139 246.739 C 724.369 247.904 725.399 248.776 726.629 248.776 C 728.039 248.776 729.179 247.634 729.179 246.228 C 729.179 244.822 728.039 243.68 726.629 243.68 C 725.399 243.68 724.369 244.556 724.139 245.72 L 523.539 245.742 L 523.329 245.742 Z" fill="#174034"/>
  <path d="M 450.899 257.459 L 500.189 257.459 L 509.269 248.375 C 509.679 248.646 510.159 248.803 510.679 248.803 C 512.089 248.803 513.229 247.66 513.229 246.254 C 513.229 244.849 512.089 243.706 510.679 243.706 C 509.279 243.706 508.139 244.849 508.139 246.254 C 508.139 246.769 508.289 247.251 508.559 247.653 L 499.769 256.44 L 450.48 256.44 L 439.789 267.137 L 381.41 267.137 L 381.41 268.156 L 440.212 268.156 L 450.903 257.459 L 450.899 257.459 Z" fill="#174034"/>
  <path d="M 444.846 277.845 L 410.819 277.845 C 410.585 276.681 409.556 275.804 408.323 275.804 C 406.915 275.804 405.776 276.947 405.776 278.353 C 405.776 279.758 406.918 280.901 408.323 280.901 C 409.556 280.901 410.581 280.025 410.819 278.864 L 445.27 278.864 L 455.969 268.156 L 586.419 268.156 C 586.649 269.317 587.679 270.189 588.909 270.189 C 590.319 270.189 591.459 269.047 591.459 267.641 C 591.459 266.235 590.319 265.093 588.909 265.093 C 587.679 265.093 586.649 265.973 586.419 267.137 L 455.549 267.137 L 444.85 277.845 L 444.846 277.845 Z" fill="#174034"/>
  <path d="M 441.42 236.065 L 537.939 236.065 C 538.179 237.229 539.199 238.102 540.439 238.102 C 541.839 238.102 542.979 236.959 542.979 235.554 C 542.979 234.148 541.839 233.005 540.439 233.005 C 539.199 233.005 538.179 233.882 537.939 235.043 L 441.843 235.043 L 420.465 213.652 L 381.41 213.652 L 381.41 214.671 L 420.046 214.671 L 441.424 236.061 L 441.42 236.065 Z" fill="#174034"/>
  <path d="M 426.665 234.15 C 426.398 234.552 426.242 235.038 426.242 235.556 C 426.242 236.965 427.384 238.104 428.788 238.104 C 430.193 238.104 431.335 236.962 431.335 235.556 C 431.335 234.15 430.193 233.008 428.788 233.008 C 428.27 233.008 427.789 233.165 427.384 233.431 L 418.309 224.352 L 381.407 224.352 L 381.407 225.37 L 417.886 225.37 L 426.661 234.15 L 426.665 234.15 Z" fill="#174034"/>
  <path d="M 488.489 321.662 L 499.179 310.965 L 616.219 310.965 C 616.459 312.129 617.479 313.002 618.719 313.002 C 620.129 313.002 621.259 311.859 621.259 310.454 C 621.259 309.048 620.119 307.905 618.719 307.905 C 617.479 307.905 616.459 308.781 616.219 309.946 L 498.759 309.946 L 488.069 320.643 L 381.41 320.643 L 381.41 321.662 L 488.489 321.662 Z" fill="#174034"/>
  <g style="mix-blend-mode:multiply" opacity="0.17" transform="matrix(1, 0, 0, 1, -548.2814331054688, 42.540489196777344)">
    <path d="M836.537 372.943C927.439 372.943 1001.13 299.209 1001.13 208.253C1001.13 117.298 927.439 43.5635 836.537 43.5635C745.635 43.5635 671.945 117.298 671.945 208.253C671.945 299.209 745.635 372.943 836.537 372.943Z" fill="black"/>
  </g>
  <path d="M 287.463 417.791 C 380.077 417.791 455.159 342.668 455.159 249.999 C 455.159 157.331 380.077 82.208 287.463 82.208 C 194.849 82.208 119.771 157.331 119.771 249.999 C 119.771 342.668 194.849 417.791 287.463 417.791 Z" fill="white"/>
  <path d="M 203.209 277.101 C 195.907 254.651 197.789 230.702 208.505 209.67 C 219.222 188.637 237.488 173.042 259.943 165.753 C 282.398 158.465 306.352 160.356 327.397 171.079 C 348.442 181.802 364.051 200.069 371.357 222.522 C 378.659 244.972 376.779 268.917 366.063 289.949 C 355.346 310.982 337.078 326.581 314.623 333.87 C 292.164 341.156 268.21 339.266 247.165 328.543 C 226.12 317.82 210.511 299.552 203.209 277.101 Z M 380.969 297.549 C 393.712 272.541 395.946 244.063 387.264 217.359 C 378.579 190.658 360.016 168.931 334.989 156.179 C 309.962 143.427 281.476 141.182 254.767 149.848 C 228.058 158.515 206.335 177.063 193.591 202.076 C 180.847 227.088 178.609 255.564 187.295 282.27 C 195.979 308.97 214.543 330.698 239.569 343.45 C 264.596 356.202 293.086 358.449 319.791 349.78 C 346.497 341.112 368.223 322.565 380.969 297.549 Z" fill="#52F2A8"/>
  <path d="M 215.956 213.471 C 195.897 252.838 211.57 301.024 250.96 321.094 C 290.35 341.165 338.546 325.521 358.604 286.154 C 378.663 246.787 362.99 198.601 323.6 178.53 C 284.21 158.46 236.014 174.104 215.956 213.471 Z M 258.264 202.448 L 258.134 202.051 C 257.086 198.828 258.596 195.28 261.66 193.812 C 266.314 191.573 271.144 189.987 275.993 189.097 C 278.566 188.628 281.135 189.639 282.691 191.734 C 284.255 193.823 284.492 196.575 283.305 198.905 L 282.902 199.694 C 281.941 201.58 280.12 202.924 278.026 203.297 C 274.451 203.936 270.928 205.033 267.563 206.542 C 265.783 207.34 263.751 207.35 261.979 206.561 C 260.215 205.785 258.867 204.284 258.271 202.452 L 258.264 202.448 Z M 278.367 307.795 C 276.619 309.645 274.091 310.368 271.611 309.715 C 267.39 308.62 263.229 307.035 259.247 305.006 C 228.543 289.361 216.832 252.892 232.586 221.973 C 234.491 218.234 236.837 214.644 239.571 211.284 C 241.186 209.296 243.654 208.385 246.166 208.855 C 248.649 209.316 250.597 211.033 251.378 213.443 C 252.096 215.65 251.637 218.047 250.157 219.854 C 248.002 222.476 246.141 225.32 244.624 228.296 C 233.247 250.625 243.25 280.397 266.044 292.011 C 268.785 293.408 271.696 294.517 274.704 295.306 C 276.968 295.911 278.744 297.583 279.46 299.784 L 279.868 301.038 C 280.44 302.797 280.295 304.626 279.492 306.2 C 279.203 306.768 278.824 307.308 278.365 307.799 L 278.367 307.795 Z M 342.39 222.829 C 350.781 240.67 350.647 260.62 342.014 277.564 C 333.381 294.508 318.077 306.297 299.824 310.283 C 296.371 311.037 292.947 309.084 291.854 305.735 L 291.487 304.606 C 290.887 302.762 291.106 300.743 292.081 299.062 C 293.055 297.391 294.698 296.221 296.588 295.84 C 311.153 292.9 323.58 283.81 329.84 271.526 C 336.099 259.242 336.25 243.765 329.693 229.054 C 328.867 227.209 328.924 225.089 329.861 223.251 L 330.157 222.669 C 331.352 220.324 333.731 218.899 336.363 218.948 C 338.973 218.986 341.283 220.475 342.388 222.832 L 342.39 222.829 Z" fill="#174034"/>
  <path d="M 401.628 255.615 C 401.515 257.924 403.293 259.883 405.598 260 C 407.904 260.112 409.864 258.344 409.985 256.045 L 409.986 256.028 C 411.59 223.411 400.405 192.096 378.502 167.851 C 356.59 143.606 326.546 129.311 293.902 127.6 C 284.876 127.127 275.818 127.641 266.984 129.133 C 265.014 129.465 263.601 131.118 263.501 133.03 C 263.485 133.329 263.498 133.638 263.55 133.949 C 263.933 136.225 266.092 137.761 268.369 137.378 C 276.602 135.989 285.04 135.511 293.46 135.952 C 356.185 139.239 404.711 192.922 401.628 255.619 L 401.628 255.615 Z" fill="#52F2A8"/>
  <path d="M 202.637 161.481 C 201.84 162.25 201.407 163.254 201.353 164.281 C 201.295 165.389 201.68 166.524 202.509 167.391 C 204.108 169.059 206.754 169.117 208.422 167.52 C 216.657 159.644 225.978 153.054 236.134 147.94 C 238.196 146.903 239.029 144.388 237.988 142.328 C 236.951 140.263 234.434 139.434 232.372 140.475 C 221.473 145.964 211.472 153.029 202.637 161.481 Z" fill="#174034"/>
  <path d="M 355.982 351.697 C 366.662 344.502 376.102 335.723 384.048 325.602 C 392.104 315.335 398.428 303.934 402.846 291.711 C 403.636 289.536 402.507 287.141 400.333 286.36 C 398.16 285.574 395.764 286.699 394.979 288.871 C 377.76 336.507 332.156 366.729 281.501 364.074 C 218.57 360.776 170.053 306.929 173.349 244.035 C 174.274 226.38 179.084 209.663 187.654 194.346 C 188.782 192.332 188.058 189.785 186.042 188.657 C 184.026 187.53 181.479 188.249 180.35 190.268 C 171.155 206.709 165.989 224.649 164.996 243.597 C 163.283 276.293 174.415 307.702 196.336 332.033 C 218.256 356.367 248.348 370.711 281.067 372.426 C 307.878 373.831 333.782 366.666 355.986 351.705 L 355.982 351.697 Z" fill="#174034"/>
</svg>