<?xml version="1.0" encoding="utf-8"?>
<svg viewBox="0 0 176.96767 180.11378" xmlns="http://www.w3.org/2000/svg">
  <g id="layer1" transform="matrix(1, 0, 0, 1, -13.209461212158203, -17.23381233215332)">
    <path style="stroke-width: 0.352778; fill: rgb(255, 255, 255);" d="M 101.3939,197.21401 C 78.515045,195.09599 58.345275,186.02357 42.427865,170.69093 19.290755,148.40382 8.9935848,116.48556 14.798765,85.048699 c 4.55381,-24.660296 19.20526,-47.046517 40.02848,-61.16024 4.08822,-2.770946 11.22675,-6.900406 11.48397,-6.643185 0.0763,0.07629 -0.89639,1.558504 -2.16153,3.293803 -8.60752,11.806324 -14.408,26.174902 -16.79679,41.607867 -1.10694,7.151479 -1.0989,20.057593 0.017,27.289329 1.58092,10.245412 4.24856,18.696067 8.86939,28.096787 12.3358,25.09624 34.928549,43.37829 62.132075,50.27727 8.82813,2.23887 12.20207,2.61769 23.41561,2.62904 11.46501,0.0116 14.46578,-0.30869 23.45972,-2.50405 4.95571,-1.20966 12.12042,-3.64924 16.34872,-5.56674 1.13366,-0.51411 2.00679,-0.7862 1.94027,-0.60464 -0.32764,0.89434 -6.52953,7.56967 -9.64593,10.38228 -14.70483,13.27139 -31.56005,21.29349 -50.97639,24.26181 -4.61851,0.70607 -17.41971,1.18552 -21.51945,0.80598 z m 8.99584,-50.24989 c -15.281166,-1.52976 -28.957386,-9.78158 -37.627605,-22.70338 -3.62839,-5.40764 -5.92512,-10.82906 -7.40835,-17.4874 -0.71017,-3.188 -0.82516,-4.66277 -0.82516,-10.583346 0,-7.277765 0.3529,-9.880178 2.07242,-15.282871 l 0.80599,-2.532401 0.19714,6.702777 c 0.37609,12.786675 3.39336,22.617851 9.96075,32.455161 8.266809,12.38285 20.464039,20.16079 35.999815,22.95638 3.84504,0.69189 14.44078,0.89538 22.75416,0.43698 l 4.40972,-0.24315 -3.175,1.55065 c -8.23883,4.02381 -17.72381,5.67562 -27.16388,4.7306 z m 52.63674,-29.63633 c 4.12682,-5.55492 7.13421,-12.60101 8.63764,-20.237286 0.98435,-4.999807 1.0494,-13.184784 0.14454,-18.186616 -1.82265,-10.075096 -6.88699,-19.727798 -14.15721,-26.983877 -4.32143,-4.313026 -8.62037,-7.406184 -13.74783,-9.891777 -6.37144,-3.088634 -11.42525,-4.467407 -18.71856,-5.106771 -7.3552,-0.644792 -16.57304,0.745643 -23.08687,3.482466 -1.42957,0.600641 -2.680526,1.010751 -2.779926,0.911358 -0.32477,-0.324771 6.060506,-6.508266 9.131196,-8.842643 3.18265,-2.419489 10.5869,-6.263059 14.46389,-7.50825 4.73472,-1.520673 8.58973,-2.182097 13.93472,-2.39085 9.36657,-0.365819 16.87929,1.199328 24.94309,5.196464 14.27068,7.073812 23.97484,19.527877 27.50643,35.301037 1.0896,4.866468 1.18557,15.371738 0.1829,20.021991 -3.14695,14.595298 -11.45231,26.464644 -23.73561,33.920994 -4.12594,2.50457 -4.36662,2.53235 -2.7184,0.31376 z" id="path248"/>
  </g>
</svg>