<?xml version="1.0" encoding="UTF-8" standalone="no"?>
<!-- Created with Inkscape (http://www.inkscape.org/) -->

<svg
   width="317.21811mm"
   height="99.087883mm"
   viewBox="0 0 317.21812 99.08788"
   version="1.1"
   id="svg5"
   xml:space="preserve"
   inkscape:version="1.2.1 (9c6d41e410, 2022-07-14)"
   sodipodi:docname="ColtAllBlackNoBG_Text.svg"
   xmlns:inkscape="http://www.inkscape.org/namespaces/inkscape"
   xmlns:sodipodi="http://sodipodi.sourceforge.net/DTD/sodipodi-0.dtd"
   xmlns="http://www.w3.org/2000/svg"
   xmlns:svg="http://www.w3.org/2000/svg"><sodipodi:namedview
     id="namedview7"
     pagecolor="#ffffff"
     bordercolor="#000000"
     borderopacity="0.25"
     inkscape:showpageshadow="2"
     inkscape:pageopacity="0.0"
     inkscape:pagecheckerboard="0"
     inkscape:deskcolor="#d1d1d1"
     inkscape:document-units="mm"
     showgrid="false"
     inkscape:zoom="1.4770342"
     inkscape:cx="707.16033"
     inkscape:cy="311.4349"
     inkscape:window-width="1920"
     inkscape:window-height="1009"
     inkscape:window-x="-8"
     inkscape:window-y="-8"
     inkscape:window-maximized="1"
     inkscape:current-layer="layer1" /><defs
     id="defs2" /><g
     inkscape:label="Layer 1"
     inkscape:groupmode="layer"
     id="layer1"
     transform="translate(-29.705983,-59.913203)"><path
       style="fill:#000000;stroke-width:0.264583"
       d="m 79.055409,158.75361 c -10.74084,-0.87766 -20.38886,-4.50766 -28.83676,-10.84962 -2.94381,-2.20996 -7.10582,-6.35423 -9.41673,-9.37658 -1.11266,-1.45521 -2.16525,-2.82443 -2.33908,-3.04271 -1.0651,-1.3374 -4.16195,-7.46315 -5.57257,-11.02286 -2.42839,-6.1281 -3.59326,-14.40623 -3.05485,-21.7093 0.5802,-7.869953 2.472,-14.233383 6.45755,-21.721203 2.74555,-5.158176 8.4568,-11.865406 13.45061,-15.796259 1.29462,-1.019051 8.19677,-5.435852 8.313,-5.319623 0.0487,0.04865 -0.66983,1.206548 -1.59661,2.573113 -2.83695,4.183126 -4.70813,8.112344 -6.54577,13.745178 -3.233,9.909955 -3.16097,21.413521 0.19707,31.469694 1.62847,4.87672 4.31449,10.32271 6.98151,14.15522 2.92803,4.2076 8.46694,9.78602 12.68026,12.77073 5.2208,3.69841 11.56799,6.67671 17.59479,8.25601 7.26124,1.9028 17.565731,2.11854 24.473961,0.51242 4.29649,-0.99891 5.57691,-1.39967 8.71336,-2.72717 1.22709,-0.51937 2.2861,-0.88928 2.35335,-0.82202 0.22658,0.22658 -6.15271,6.37015 -8.28858,7.98231 -6.98308,5.27083 -14.19959,8.44019 -23.018751,10.10942 -2.58741,0.48972 -8.60208,1.14481 -9.65729,1.05182 -0.21829,-0.0192 -1.5181,-0.12659 -2.88847,-0.23857 z m 2.09472,-28.17513 c -2.5515,-0.44204 -5.304,-1.29908 -7.14375,-2.22433 -8.25141,-4.1498 -13.77706,-11.25765 -15.53969,-19.98925 -0.5801,-2.87367 -0.56608,-8.10032 0.0291,-10.840253 0.25196,-1.15995 0.49323,-2.14412 0.53616,-2.18705 0.0429,-0.0429 0.14993,1.20378 0.23779,2.77046 0.5568,9.928773 5.06406,18.561853 12.63625,24.203133 3.59203,2.67605 7.08839,4.18954 12.02227,5.20415 2.764,0.56839 7.37178,0.82808 10.05843,0.5669 3.44756,-0.33516 5.06748,-0.34158 4.7447,-0.0188 -0.29473,0.29473 -3.54076,1.56062 -4.88125,1.9036 -3.97055,1.01589 -8.97482,1.25682 -12.7,0.61144 z m 31.966501,-16.58745 c 1.93017,-2.8054 3.3419,-6.29862 4.15338,-10.27721 0.63539,-3.11528 0.43817,-9.538153 -0.38934,-12.679133 -2.01002,-7.629471 -8.27501,-15.207243 -15.00102,-18.144377 -0.85098,-0.371608 -2.023481,-0.89879 -2.605571,-1.17152 -2.62186,-1.228444 -5.32293,-1.679805 -10.05416,-1.680088 -4.76082,-2.65e-4 -7.24815,0.412911 -10.11229,1.679858 -0.66786,0.295423 -1.25959,0.491821 -1.31497,0.436441 -0.0554,-0.05538 0.7801,-0.923259 1.85664,-1.92862 3.81932,-3.566826 7.4289,-5.543647 12.59381,-6.897118 4.42793,-1.160346 11.412651,-0.936149 15.497641,0.497443 3.8851,1.363445 6.18729,2.651151 9.54682,5.339919 4.48703,3.591152 8.09936,9.654907 9.40213,15.782649 0.58436,2.748623 0.45091,9.404853 -0.24253,12.096383 -1.93847,7.524053 -6.72455,13.747923 -13.78629,17.927873 -0.20434,0.12095 8e-4,-0.32117 0.45575,-0.9825 z m 49.83099,-0.51017 c -3.71451,-0.37734 -7.35598,-2.1386 -9.53142,-4.61002 -1.34764,-1.531 -2.99883,-4.84404 -3.61474,-7.25281 -0.66792,-2.612193 -0.43197,-6.891403 0.53249,-9.657293 0.79096,-2.26833 2.06252,-4.47851 3.40589,-5.920046 2.92613,-3.139935 8.72889,-4.879859 14.23025,-4.266864 2.41143,0.268695 5.63692,1.135592 5.91812,1.590574 0.11777,0.190567 -1.0259,3.623386 -1.29773,3.895216 -0.0496,0.0496 -0.98996,-0.21174 -2.08957,-0.58087 -4.38884,-1.473285 -9.6293,-0.468413 -12.16568,2.3328 -1.65917,1.83241 -2.65901,5.08038 -2.65901,8.63773 0,4.933583 1.9628,9.105383 4.89143,10.396393 2.33452,1.02912 2.78617,1.11267 5.9106,1.0934 2.47814,-0.0153 3.50592,-0.13716 4.68274,-0.55528 l 1.50774,-0.5357 0.55728,1.83471 c 0.3065,1.00909 0.516,1.95853 0.46555,2.10988 -0.15546,0.46636 -3.13361,1.25047 -5.36123,1.41153 -1.16416,0.0842 -2.35479,0.18632 -2.64583,0.22699 -0.29104,0.0407 -1.52264,-0.027 -2.73688,-0.15034 z m 23.24912,-0.0176 c -2.34127,-0.23788 -5.1643,-1.4812 -6.67866,-2.94142 -2.16556,-2.08812 -3.25782,-5.51656 -3.04736,-9.56522 0.35906,-6.907393 4.41319,-11.091073 11.09486,-11.449393 5.9204,-0.31749 10.41874,2.61613 11.99968,7.82566 0.48616,1.60201 0.48942,6.109963 0.006,7.926923 -1.51056,5.67437 -6.73379,8.87818 -13.37426,8.20345 z m 3.65284,-4.05133 c 1.76795,-0.52502 2.99392,-1.6158 3.77661,-3.36015 0.53959,-1.20255 0.62384,-1.80319 0.62191,-4.4337 -0.002,-3.361673 -0.25703,-4.252913 -1.75497,-6.144213 -1.99517,-2.51912 -6.14354,-2.78304 -8.48547,-0.53985 -1.69505,1.62356 -2.51806,6.309843 -1.6812,9.572843 0.75105,2.92843 1.96476,4.30188 4.37622,4.95216 1.58055,0.42621 1.55167,0.42664 3.1469,-0.0471 z m 43.85976,4.05687 c -3.9752,-0.509 -6.06212,-2.82364 -6.04806,-6.708 0.008,-2.20791 0.58344,-3.55289 2.0837,-4.87014 1.88916,-1.6587 4.27967,-2.338153 9.03066,-2.566753 l 3.50573,-0.16868 v -1.29061 c 0,-2.50296 -0.88431,-3.64474 -3.22773,-4.16749 -1.49758,-0.33407 -4.59287,0.17227 -6.26361,1.02462 -0.589,0.30048 -1.16723,0.54634 -1.28496,0.54634 -0.33277,0 -1.97736,-3.1387 -1.79728,-3.43009 0.088,-0.14246 0.7207,-0.50951 1.4059,-0.81567 4.42497,-1.97716 10.4412,-2.09108 13.41367,-0.254 1.1359,0.70203 2.3008,2.33827 2.8805,4.04598 0.3618,1.06582 0.42976,2.62432 0.42976,9.855733 v 8.5897 h -2.08798 c -1.99653,0 -2.09513,-0.0285 -2.25107,-0.64979 -0.0897,-0.35738 -0.28251,-0.96388 -0.42846,-1.34777 l -0.26538,-0.69799 -0.97584,0.8568 c -1.93566,1.69953 -4.93392,2.45571 -8.11955,2.04781 z m 6.13703,-4.33286 c 2.03244,-1.01281 2.435,-1.72661 2.435,-4.31756 v -2.14197 h -2.08879 c -2.7499,0 -5.29122,0.76614 -6.22589,1.87693 -0.80793,0.96018 -0.94124,2.92566 -0.26401,3.89254 1.03067,1.4715 3.9235,1.79642 6.14369,0.69005 z m 42.12813,4.3511 c -4.71341,-0.53587 -7.6935,-2.41417 -9.44137,-5.95074 -0.90169,-1.82444 -0.98584,-2.1947 -1.09369,-4.8122 -0.19235,-4.668553 0.70329,-7.453973 3.1994,-9.950083 2.31194,-2.31194 4.83867,-3.31796 8.34764,-3.32363 3.58995,-0.006 6.30537,1.23645 8.20632,3.75423 1.27611,1.69022 1.83682,3.5947 2.06798,7.024403 l 0.16497,2.4474 h -8.24198 -8.24198 v 1.06683 c 0,3.01953 2.24132,5.19168 5.99048,5.80562 1.56406,0.25611 2.30889,0.23701 4.32509,-0.11093 1.33961,-0.23118 2.67245,-0.54705 2.96188,-0.70194 0.2894,-0.1549 0.56261,-0.24221 0.60711,-0.19404 0.23445,0.25376 1.11948,3.67487 0.97261,3.75958 -0.49429,0.28507 -3.26631,0.94807 -4.53842,1.08548 -2.89838,0.31308 -3.33867,0.32141 -5.28604,0.10002 z m 1.78031,-14.424623 3.77031,-0.17248 v -1.02772 c 0,-4.19662 -5.20114,-6.17432 -8.47035,-3.22079 -1.05204,0.95046 -2.27178,3.53537 -2.00109,4.24078 0.15678,0.40855 1.13476,0.43485 6.70113,0.18021 z m 37.19663,14.419623 c -4.00383,-0.45479 -6.17424,-2.76711 -6.17424,-6.57791 0,-2.10632 0.36912,-3.19651 1.52988,-4.51855 1.66653,-1.89807 4.5085,-2.798893 9.64877,-3.058373 l 3.37344,-0.17028 v -1.67064 c 0,-1.48362 -0.09,-1.77312 -0.80381,-2.58612 -1.48571,-1.69212 -4.92963,-1.79481 -8.43724,-0.25156 -0.78973,0.34745 -1.52077,0.53967 -1.62454,0.42716 -0.10377,-0.11251 -0.56642,-0.88226 -1.02812,-1.71055 l -0.83945,-1.50599 0.8404,-0.43459 c 4.38251,-2.26629 10.44694,-2.63012 13.91671,-0.83493 1.2047,0.62329 2.58347,2.3518 3.15222,3.95184 0.43461,1.22265 0.50435,2.42016 0.58542,10.053093 l 0.092,8.6651 h -2.23591 -2.23589 l -0.18542,-0.99219 c -0.28408,-1.52018 -0.61614,-1.77688 -1.34964,-1.04337 -1.73715,1.73712 -4.97753,2.62668 -8.2246,2.25785 z m 5.86409,-4.21872 c 0.65154,-0.30626 1.54805,-0.97075 1.99224,-1.47665 0.77015,-0.87717 0.80401,-1.01386 0.7307,-2.94888 l -0.0769,-2.02909 -2.07529,-0.0777 c -2.16289,-0.081 -4.43616,0.39936 -5.64816,1.1935 -1.27773,0.83719 -1.75906,2.71176 -1.07934,4.20358 0.71773,1.57524 3.95197,2.17161 6.15674,1.13526 z M 204.97512,95.664897 V 78.070108 h 2.77813 2.77812 v 17.594789 17.594793 h -2.77812 -2.77813 z m 12.17084,0 V 78.070108 h 2.64583 2.64583 v 17.594789 17.594793 h -2.64583 -2.64583 z m 42.96635,17.239443 c -1.97162,-0.50428 -3.06088,-1.23901 -3.80802,-2.56859 -0.65323,-1.16246 -0.66311,-1.27253 -0.79375,-8.85001 l -0.13229,-7.672923 -1.78594,-0.0782 -1.78594,-0.0782 v -1.82791 -1.8279 l 1.78594,-0.0782 1.78594,-0.0782 0.0736,-3.638023 0.0736,-3.638021 h 2.77065 2.77066 v 3.704167 3.704167 h 3.30729 3.3073 v 1.85208 1.85209 h -3.3073 -3.30729 v 6.891193 6.89119 l 0.6319,0.6319 c 0.84562,0.84562 2.2713,1.0731 4.33839,0.69222 0.93922,-0.17306 1.78271,-0.23998 1.87443,-0.14872 0.18351,0.18261 0.81509,3.38068 0.6939,3.51363 -0.0416,0.0456 -0.71294,0.2566 -1.49198,0.46892 -2.04814,0.55822 -5.39684,0.69381 -7.00111,0.28348 z m 37.99614,-11.28631 V 89.976357 h 1.96655 c 2.21035,0 2.02517,-0.18729 2.55071,2.57969 0.32343,1.7028 0.61122,2.0555 0.90972,1.11495 0.33708,-1.06204 2.84993,-3.31791 4.21129,-3.78063 1.49741,-0.50894 3.75031,-0.5752 5.16335,-0.15184 l 0.97237,0.29133 -0.41545,2.02377 -0.41548,2.02377 -2.54177,-0.091 c -2.00504,-0.0718 -2.73074,0.004 -3.43665,0.36094 -1.42832,0.72138 -2.30573,1.70409 -2.93264,3.28458 -0.54012,1.36167 -0.59169,2.00565 -0.68461,8.550193 l -0.10051,7.0776 h -2.62345 -2.62343 z m 43.39167,-5.943873 V 78.070108 l 2.71198,5.29e-4 2.71198,5.29e-4 v 17.528091 17.528103 l -2.71198,0.0754 -2.71198,0.0754 V 95.674117 Z"
       id="path875"
       sodipodi:nodetypes="ssscssssccsssssssssscsssssssssssssscsssscsscsssssscsssssssssssssscsssssssssscsssscsssssssssscssssssssscssscsssscssssssssscsscccssssssssscsssssssscssssscsssscccssssssscssssscccccccccccccccccccsscccccccccccccccccccccsssssccccssssscccscsscccccccccccccc" /><text
       xml:space="preserve"
       style="font-size:16.9333px;font-family:'Star Jedi';-inkscape-font-specification:'Star Jedi';text-align:center;text-anchor:middle;fill:#000000;fill-opacity:1;stroke:none;stroke-width:0.264583;stroke-linecap:round;stroke-linejoin:round"
       x="247.46553"
       y="137.0619"
       id="text1027-2"><tspan
         sodipodi:role="line"
         id="tspan1025-2"
         style="font-style:normal;font-variant:normal;font-weight:normal;font-stretch:normal;font-size:16.9333px;font-family:sans-serif;-inkscape-font-specification:sans-serif;fill:#000000;fill-opacity:1;stroke:none;stroke-width:0.264583"
         x="247.46553"
         y="137.0619">Network</tspan></text></g></svg>
