<?xml version="1.0" encoding="UTF-8"?>
<svg id="Layer_1" data-name="Layer 1" xmlns="http://www.w3.org/2000/svg" viewBox="0 0 712.1 236.94">
  <defs>
    <style>
      .cls-1 {
        stroke: #174034;
      }

      .cls-1, .cls-2 {
        stroke-miterlimit: 10;
        stroke-width: 4px;
      }

      .cls-1, .cls-3 {
        fill: #174034;
      }

      .cls-2 {
        stroke: #52f2a8;
      }

      .cls-2, .cls-4 {
        fill: #52f2a8;
      }

      .cls-4, .cls-3 {
        stroke-width: 0px;
      }
    </style>
  </defs>
  <g>
    <path class="cls-2" d="M39.46,137.16l-1.2,1.2c-3.8,3.8-10.24,1.85-11.39-3.41-1.16-5.28-1.77-10.79-1.77-16.47,0-43.57,34.73-76.91,77.51-76.91,5.3,0,10.64.59,15.89,1.71,5.27,1.13,7.24,7.59,3.44,11.4-1.63,1.63-3.97,2.3-6.22,1.81-4.37-.97-8.84-1.46-13.32-1.46-33.12,0-62.44,29.32-62.44,63.65,0,4.16.45,8.26,1.32,12.25.48,2.25-.18,4.59-1.81,6.22Z"/>
    <path class="cls-1" d="M164.1,164.48c-15.03,19.37-37.36,30.71-61.3,30.71s-46.19-10.98-60.52-28.47c-2.21-2.7-2.04-6.62.43-9.09l1.08-1.08c2.84-2.84,7.53-2.59,10.03.56,11.7,14.75,29.58,24.63,48.8,24.63s36.84-9.31,50.09-25.67c1.26-1.56,3.19-2.45,5.19-2.45h.84c5.59,0,8.8,6.44,5.37,10.86Z"/>
    <path class="cls-1" d="M141.35,58.98l.37-.37c2.39-2.39,6.18-2.65,8.87-.6,5.05,3.85,9.58,8.31,13.38,13.28,3.4,4.45.23,10.86-5.37,10.86h-1.14c-2.12,0-4.1-1-5.38-2.69-2.96-3.9-6.39-7.4-10.17-10.43-3.14-2.53-3.42-7.2-.57-10.05Z"/>
  </g>
  <circle class="cls-4" cx="676.77" cy="184.96" r="10.23"/>
  <g>
    <path class="cls-3" d="M185.62,192.96v-94.96h16.63v8.57h.34c4.29-6.34,11.66-10.46,24.17-11.14v18.34c-15.43.51-23.31,9.94-23.31,25.88v53.31h-17.83Z"/>
    <path class="cls-3" d="M252.13,153.2c4.11,15.77,16.63,25.88,31.2,25.88,11.14,0,21.6-5.83,27.08-15.94h17.83c-7.37,19.54-25.2,32.22-45.59,32.22-26.74,0-48.33-23.65-48.33-49.02,0-30,22.62-50.91,47.82-50.91,27.94,0,49.19,21.6,49.19,48.85,0,2.91,0,5.66-.51,8.91h-78.67ZM313.49,139.49c-1.37-16.11-15.6-27.77-30.85-27.77s-29.14,11.48-30.51,27.77h61.36Z"/>
    <path class="cls-3" d="M427.13,192.96v-14.74h-.34c-6.68,11.31-18.68,17.14-32.22,17.14-27.77,0-50.39-20.91-50.39-48.34,0-30.34,21.77-51.59,49.71-51.59,13.88,0,25.54,5.14,32.91,15.94h.34v-13.37h17.83v94.96h-17.83ZM427.48,145.66c0-18.51-13.37-33.94-33.08-33.94-17.83,0-32.39,15.25-32.39,33.94s14.57,33.42,32.39,33.42,33.08-15.43,33.08-33.42Z"/>
    <path class="cls-3" d="M470.84,192.96v-78.67h-12.86v-16.28h12.86v-31.88h17.83v31.88h15.6v16.28h-15.6v78.67h-17.83Z"/>
    <path class="cls-3" d="M561.86,195.36c-26.74,0-50.56-22.8-50.56-49.54,0-28.97,22.8-50.39,51.93-50.39,26.22,0,50.91,20.57,50.56,50.73-.34,25.37-21.6,49.19-51.93,49.19ZM562.37,111.72c-17.83,0-33.25,15.08-33.25,33.59s14.91,33.77,32.91,33.77,33.94-14.74,33.94-33.94-14.91-33.42-33.6-33.42Z"/>
    <path class="cls-3" d="M631.96,192.96v-94.96h16.63v8.57h.34c4.29-6.34,11.66-10.46,24.17-11.14v18.34c-15.43.51-23.31,9.94-23.31,25.88v53.31h-17.83Z"/>
  </g>
</svg>