<?xml version="1.0" encoding="UTF-8"?>
<svg id="Layer_1" data-name="Layer 1" xmlns="http://www.w3.org/2000/svg" viewBox="0 0 180 180">
  <defs>
    <style>
      .cls-1 {
        fill: #174034;
        stroke: #174034;
      }

      .cls-1, .cls-2 {
        stroke-miterlimit: 10;
        stroke-width: 4px;
      }

      .cls-2 {
        fill: #52f2a8;
        stroke: #52f2a8;
      }
    </style>
  </defs>
  <path class="cls-2" d="M34.16,108.77l-1.2,1.2c-3.8,3.8-10.24,1.85-11.39-3.41-1.16-5.28-1.77-10.79-1.77-16.47C19.79,46.54,54.53,13.19,97.3,13.19c5.3,0,10.64.59,15.89,1.71,5.27,1.13,7.24,7.59,3.44,11.4-1.63,1.63-3.97,2.3-6.22,1.81-4.37-.97-8.84-1.46-13.32-1.46-33.12,0-62.44,29.32-62.44,63.65,0,4.16.45,8.26,1.32,12.25.48,2.25-.18,4.59-1.81,6.22Z"/>
  <path class="cls-1" d="M158.79,136.09c-15.03,19.37-37.36,30.71-61.3,30.71s-46.19-10.98-60.52-28.47c-2.21-2.7-2.04-6.62.43-9.09l1.08-1.08c2.84-2.84,7.53-2.59,10.03.56,11.7,14.75,29.58,24.63,48.8,24.63s36.84-9.31,50.09-25.67c1.26-1.56,3.19-2.45,5.19-2.45h.84c5.59,0,8.8,6.44,5.37,10.86Z"/>
  <path class="cls-1" d="M136.05,30.6l.37-.37c2.39-2.39,6.18-2.65,8.87-.6,5.05,3.85,9.58,8.31,13.38,13.28,3.4,4.45.23,10.86-5.37,10.86h-1.14c-2.12,0-4.1-1-5.38-2.69-2.96-3.9-6.39-7.4-10.17-10.43-3.14-2.53-3.42-7.2-.57-10.05Z"/>
</svg>