<?xml version="1.0" encoding="UTF-8" standalone="no"?>
<!-- Created with Inkscape (http://www.inkscape.org/) -->

<svg
   width="26.28224mm"
   height="7.8549261mm"
   viewBox="0 0 26.28224 7.8549261"
   version="1.1"
   id="svg251362"
   inkscape:version="1.2.1 (9c6d41e410, 2022-07-14)"
   sodipodi:docname="CompetitorLogo_Vent.svg"
   xmlns:inkscape="http://www.inkscape.org/namespaces/inkscape"
   xmlns:sodipodi="http://sodipodi.sourceforge.net/DTD/sodipodi-0.dtd"
   xmlns="http://www.w3.org/2000/svg"
   xmlns:svg="http://www.w3.org/2000/svg">
  <sodipodi:namedview
     id="namedview251364"
     pagecolor="#ffffff"
     bordercolor="#000000"
     borderopacity="0.25"
     inkscape:showpageshadow="2"
     inkscape:pageopacity="0.0"
     inkscape:pagecheckerboard="0"
     inkscape:deskcolor="#d1d1d1"
     inkscape:document-units="mm"
     showgrid="false"
     inkscape:zoom="0.76167929"
     inkscape:cx="-40.699544"
     inkscape:cy="110.28264"
     inkscape:window-width="1920"
     inkscape:window-height="1009"
     inkscape:window-x="-8"
     inkscape:window-y="-8"
     inkscape:window-maximized="1"
     inkscape:current-layer="layer1" />
  <defs
     id="defs251359" />
  <g
     inkscape:label="Layer 1"
     inkscape:groupmode="layer"
     id="layer1"
     transform="translate(-115.73256,-119.3883)">
    <path
       style="fill:#ffffff;stroke-width:0.0564183"
       d="m 125.92501,127.2069 c -1.447,-0.1697 -2.46541,-0.9794 -2.75859,-2.1934 -0.12065,-0.4996 -0.0978,-1.3675 0.0485,-1.8404 0.43088,-1.3928 1.81211,-2.1951 3.59521,-2.0883 1.02818,0.061 1.74908,0.3387 2.29249,0.8812 0.52416,0.5233 0.74978,1.0939 0.81839,2.0699 l 0.0369,0.5251 -2.50479,0.014 -2.5048,0.014 0.0177,0.165 c 0.0363,0.3362 0.33263,0.7502 0.65923,0.9207 0.49232,0.2571 1.16223,0.3044 1.74822,0.1234 0.30087,-0.093 0.44119,-0.1781 0.68872,-0.4179 l 0.31086,-0.301 0.68537,0.3163 c 0.37696,0.1741 0.69515,0.3232 0.70712,0.3315 0.0445,0.031 -0.1899,0.3329 -0.45735,0.5894 -0.72922,0.6991 -2.0479,1.0457 -3.38329,0.8891 z m 2.07563,-3.8911 c -0.0899,-0.562 -0.46848,-0.952 -1.03919,-1.0706 -0.37922,-0.079 -0.91673,-0.039 -1.24398,0.092 -0.28701,0.1149 -0.64135,0.5043 -0.731,0.8036 -0.13105,0.4374 -0.24709,0.4058 1.49237,0.4058 h 1.55871 z m 12.32171,3.8813 c -0.922,-0.2114 -1.54595,-0.8633 -1.69454,-1.7706 -0.0296,-0.1806 -0.0539,-0.9567 -0.0541,-1.7247 l -4.2e-4,-1.3964 h -0.42314 -0.42314 v -0.536 -0.5359 h 0.41908 0.41907 l 0.0366,-0.3245 c 0.12227,-1.0843 0.47403,-1.4151 1.59356,-1.4987 l 0.2962,-0.022 v 0.9226 0.9227 h 0.6206 0.6206 v 0.5359 0.536 h -0.62501 -0.62501 l 0.0185,1.3682 c 0.0165,1.2126 0.0308,1.3929 0.12683,1.5864 0.16611,0.3346 0.37049,0.43 0.92132,0.4303 l 0.46545,2e-4 v 0.7264 0.7264 l -0.17135,0.035 c -0.38759,0.077 -1.2215,0.088 -1.5212,0.019 z m -22.01092,-0.1359 c -0.25084,-0.039 -0.74188,-0.3709 -0.90267,-0.6108 -0.0997,-0.1488 -0.35053,-0.8799 -0.7257,-2.1157 -0.3153,-1.0385 -0.65815,-2.1626 -0.76189,-2.4978 l -0.18861,-0.6094 0.40472,0.035 c 0.95777,0.083 1.34815,0.2283 1.61943,0.6028 0.18025,0.2488 0.34868,0.7418 1.12863,3.3032 0.36047,1.1838 0.48907,1.5374 0.55919,1.5374 0.07,0 0.20015,-0.3552 0.5632,-1.5374 0.81781,-2.6629 0.95308,-3.0581 1.13064,-3.3032 0.27144,-0.3747 0.6614,-0.5197 1.62141,-0.6031 l 0.40669,-0.035 -0.0804,0.2429 c -0.0443,0.1336 -0.38722,1.2565 -0.76216,2.4954 -0.46204,1.5265 -0.7314,2.3265 -0.83587,2.4825 -0.17701,0.264 -0.64271,0.5653 -0.9534,0.6166 -0.22706,0.037 -1.9745,0.035 -2.22319,0 z m 12.25053,-2.898 v -2.9379 l 0.32441,0.036 c 0.17842,0.02 0.46404,0.1048 0.6347,0.1888 0.35851,0.1762 0.61596,0.5106 0.77031,1.0002 0.12485,0.3961 0.25704,0.4133 0.35966,0.047 0.16099,-0.5751 0.64821,-1.0857 1.22989,-1.2893 0.60941,-0.2131 1.60324,-0.1611 2.18591,0.1146 0.34801,0.1646 0.77836,0.6059 0.93403,0.9579 0.23771,0.5374 0.27287,0.9117 0.2739,2.9165 l 0.002,1.9041 h -0.95427 -0.95428 l -0.0231,-1.7631 c -0.0197,-1.5039 -0.0376,-1.8021 -0.1221,-2.0285 -0.21532,-0.5772 -0.8091,-0.8638 -1.51705,-0.7321 -0.44959,0.084 -0.74174,0.2916 -0.96502,0.6872 l -0.17511,0.3104 -0.0171,1.763 -0.0171,1.7631 h -0.98436 -0.98435 z"
       id="path104106" />
  </g>
</svg>
