<?xml version="1.0" encoding="UTF-8" standalone="no"?>
<!-- Created with Inkscape (http://www.inkscape.org/) -->

<svg
   width="23.405935mm"
   height="9.8348475mm"
   viewBox="0 0 23.405936 9.8348475"
   version="1.1"
   id="svg251362"
   inkscape:version="1.2.1 (9c6d41e410, 2022-07-14)"
   sodipodi:docname="CompetitorLogo_Gitcoin.svg"
   xmlns:inkscape="http://www.inkscape.org/namespaces/inkscape"
   xmlns:sodipodi="http://sodipodi.sourceforge.net/DTD/sodipodi-0.dtd"
   xmlns="http://www.w3.org/2000/svg"
   xmlns:svg="http://www.w3.org/2000/svg">
  <sodipodi:namedview
     id="namedview251364"
     pagecolor="#ffffff"
     bordercolor="#000000"
     borderopacity="0.25"
     inkscape:showpageshadow="2"
     inkscape:pageopacity="0.0"
     inkscape:pagecheckerboard="0"
     inkscape:deskcolor="#d1d1d1"
     inkscape:document-units="mm"
     showgrid="false"
     inkscape:zoom="0.76167929"
     inkscape:cx="153.60796"
     inkscape:cy="120.78574"
     inkscape:window-width="1920"
     inkscape:window-height="1009"
     inkscape:window-x="-8"
     inkscape:window-y="-8"
     inkscape:window-maximized="1"
     inkscape:current-layer="layer1" />
  <defs
     id="defs251359" />
  <g
     inkscape:label="Layer 1"
     inkscape:groupmode="layer"
     id="layer1"
     transform="translate(-64.590984,-116.45266)">
    <g
       id="g123769"
       transform="matrix(0.13950422,0,0,0.13950422,129.06031,-55.47015)">
      <path
         style="fill:#ffffff;stroke-width:0.264583"
         d="m -447.7384,1302.5154 c -2.69693,-0.5858 -5.00029,-1.8688 -7.09967,-3.9546 -4.61036,-4.5804 -5.62997,-11.3689 -2.60897,-17.3704 3.55754,-7.0674 12.96652,-9.9301 20.86564,-6.3485 1.32306,0.5999 2.31369,1.3354 3.7982,2.8199 l 2.00831,2.0083 -2.95427,1.5691 c -1.62485,0.8631 -3.01577,1.5692 -3.09094,1.5692 -0.0752,0 -0.58817,-0.4515 -1.14002,-1.0034 -1.57046,-1.5705 -3.28242,-2.2823 -5.47894,-2.2782 -2.39447,0 -3.66132,0.3959 -5.29166,1.6347 -0.96003,0.7296 -1.57695,1.5036 -2.24896,2.8216 -0.85785,1.6826 -0.92604,1.994 -0.92604,4.2291 0,2.1998 0.0778,2.5708 0.88208,4.2044 1.03167,2.0955 2.71347,3.5872 4.84098,4.2939 2.58739,0.8594 5.80495,0.1035 7.55962,-1.7759 0.5673,-0.6076 1.40169,-2.3085 1.40169,-2.8573 0,-0.1719 -1.1275,-0.2731 -3.04271,-0.2731 h -3.04271 v -2.6458 -2.6459 h 6.87917 6.87917 l -0.004,2.0506 c -0.0133,6.9827 -3.92045,12.2998 -10.24189,13.9378 -1.94294,0.5035 -5.66206,0.5103 -7.94417,0.014 z m 138.60306,0 c -2.0583,-0.5767 -3.90848,-1.6587 -5.36789,-3.139 -0.70091,-0.711 -1.27437,-1.3919 -1.27437,-1.5132 0,-0.1213 0.79325,-1.0947 1.76279,-2.1631 l 1.76278,-1.9426 1.12245,1.1225 c 2.77942,2.7794 6.96475,3.3143 8.33606,1.0654 0.66834,-1.0961 0.64249,-2.0097 -0.088,-3.1086 -0.59505,-0.8951 -1.57962,-1.4706 -6.01694,-3.517 -3.9886,-1.8394 -5.549,-3.9726 -5.55366,-7.5923 -0.003,-2.6352 1.00375,-4.7961 2.95381,-6.3375 3.84347,-3.0381 10.69215,-2.7322 14.62275,0.6532 l 1.0427,0.8981 -1.11168,1.4128 c -0.61142,0.7771 -1.39194,1.7518 -1.7345,2.1661 l -0.6228,0.7532 -1.21468,-0.9272 c -2.89734,-2.2116 -6.90028,-1.6069 -6.90028,1.0424 0,1.3 0.97621,2.0972 4.14409,3.3843 5.2291,2.1245 7.2535,4.1226 7.82987,7.7283 0.46646,2.9181 -0.26379,5.3975 -2.19914,7.4665 -1.86168,1.9903 -3.81748,2.7588 -7.28773,2.8637 -1.90429,0.058 -3.22715,-0.042 -4.20566,-0.316 z m -114.85684,-14.4141 v -14.2875 h 5.4901 c 6.16048,0 7.88673,0.2735 10.42088,1.6242 2.34046,1.2474 3.70814,3.3787 4.06862,6.3403 0.40763,3.3489 -0.9192,6.148 -3.85517,8.1332 -0.93755,0.6339 -1.70464,1.1946 -1.70464,1.2461 0,0.051 1.54781,2.2609 3.43958,4.91 1.89177,2.6491 3.65964,5.1542 3.92859,5.5669 l 0.489,0.7504 h -4.08182 -4.08182 l -3.16606,-5.2255 c -1.78435,-2.945 -3.33403,-5.2255 -3.55094,-5.2255 -0.32135,0 -0.3967,0.8623 -0.4566,5.2255 l -0.0717,5.2255 h -3.43399 -3.43399 z m 11.10722,-1.7863 c 1.38583,-0.6963 2.19679,-2.058 2.04595,-3.4354 -0.24754,-2.2603 -1.41604,-3.1539 -4.3025,-3.2903 l -1.83921,-0.087 -0.0736,3.638 -0.0736,3.638 1.66111,-4e-4 c 1.05325,-3e-4 1.99806,-0.1697 2.58188,-0.463 z m 11.99163,15.7431 c 0.0752,-0.1819 2.35968,-5.7481 5.07666,-12.3693 2.71697,-6.6212 5.30015,-12.9053 5.74041,-13.9647 l 0.80047,-1.9261 3.16574,0.074 3.16575,0.074 5.66981,14.0157 c 3.1184,7.7087 5.66981,14.1083 5.66981,14.2214 0,0.1131 -1.70109,0.2056 -3.78018,0.2056 h -3.78021 l -0.86899,-2.6511 -0.86898,-2.6512 -5.43713,0.072 -5.43713,0.072 -0.92476,2.5796 -0.92477,2.5797 h -3.70161 c -2.85781,0 -3.67044,-0.075 -3.56489,-0.3307 z m 17.92,-10.451 c 0.0153,-0.3597 -3.04817,-9.5816 -3.18344,-9.5831 -0.13603,0 -3.45297,9.227 -3.44437,9.5831 0.003,0.1091 1.49307,0.1984 3.31208,0.1984 1.81901,0 3.31109,-0.089 3.31573,-0.1984 z m 15.07281,-3.5058 v -14.2875 h 2.86028 2.86028 l 7.08546,8.8627 c 3.89702,4.8745 7.19892,8.9328 7.33756,9.0185 0.1592,0.098 0.18375,-3.1667 0.0667,-8.8627 l -0.18542,-9.0185 h 3.34907 3.34904 v 14.2875 14.2875 h -2.78442 -2.7844 l -7.20362,-9.0432 -7.2036,-9.0433 -0.0696,9.0433 -0.0696,9.0432 h -3.3038 -3.30383 z m 37.04167,3.175 v -11.1125 h -3.04271 -3.04271 v -3.175 -3.175 h 9.6573 9.65729 v 3.175 3.175 h -3.04271 -3.04271 v 11.1125 11.1125 h -3.57187 -3.57188 z"
         id="path123751"
         sodipodi:nodetypes="ssssscssscsssssssscccccsssssssscssssssscsscssssssssccssssssscccsssccccssscccsssssscccssscccccccssssssssccccsssccccccccccccccccccccccccccccccc" />
      <path
         style="fill:#808080;fill-opacity:1;stroke-width:0.264583"
         d="m -449.79497,1261.8009 c -1.96728,-0.4097 -3.13387,-0.8134 -4.73055,-1.6369 -4.83089,-2.4917 -7.58628,-7.1083 -7.60597,-12.7436 -0.0105,-3.0139 0.3217,-4.5351 1.54196,-7.0602 2.55972,-5.297 8.38892,-8.3718 15.0425,-7.9348 3.85523,0.2533 6.92462,1.57 9.55103,4.0973 2.29876,2.2121 2.33435,2.0843 -1.08087,3.8825 l -2.98021,1.5692 -0.85215,-0.9706 c -0.46868,-0.5338 -1.52861,-1.3027 -2.3554,-1.7087 -1.25801,-0.6178 -1.82699,-0.735 -3.48763,-0.7186 -4.19831,0.041 -7.07491,2.3668 -8.10828,6.5543 -1.00816,4.0854 0.98211,8.4848 4.65807,10.2965 1.58913,0.7832 4.96241,0.834 6.36063,0.096 1.83881,-0.9708 3.43958,-2.8886 3.43958,-4.1207 0,-0.5138 -0.15288,-0.5423 -2.91042,-0.5423 h -2.91041 v -2.6458 -2.6459 h 6.91046 6.91046 l -0.1917,2.3013 c -0.62063,7.4506 -4.1187,12.0792 -10.35688,13.704 -1.40582,0.3662 -5.52116,0.5029 -6.84422,0.2273 z m 66.14583,-0.2182 c -5.44315,-1.1921 -9.72423,-5.2299 -11.12499,-10.4928 -0.51307,-1.9276 -0.49313,-6.1136 0.0377,-7.9209 1.37865,-4.6937 4.87508,-8.24 9.8099,-9.9499 1.75976,-0.6097 2.50864,-0.7182 4.98153,-0.7218 3.13954,0 4.96116,0.3937 7.39703,1.6168 0.73382,0.3685 1.37083,0.7022 1.41557,0.7415 0.0447,0.039 -0.35427,0.7526 -0.88668,1.5849 -0.53241,0.8323 -1.21556,2.1252 -1.51812,2.8731 -0.30256,0.748 -0.5742,1.3956 -0.60366,1.4392 -0.0295,0.043 -0.50473,-0.227 -1.05616,-0.6012 -2.36253,-1.6033 -5.46594,-1.8164 -8.20282,-0.5634 -5.36738,2.4572 -6.40646,10.0101 -1.93074,14.0342 1.7312,1.5565 3.40806,2.1032 5.95038,1.9401 1.52511,-0.098 2.30501,-0.3105 3.568,-0.9725 0.88894,-0.466 1.64145,-0.8113 1.67223,-0.7673 0.0308,0.044 0.49202,1.0122 1.02499,2.1515 0.53297,1.1393 1.21869,2.4221 1.52383,2.8506 l 0.5548,0.7792 -1.74433,0.7909 c -3.39303,1.5385 -7.31192,1.9668 -10.86849,1.1878 z m 25.00313,-0.027 c -5.68207,-1.4923 -9.94519,-5.904 -10.992,-11.3752 -0.48154,-2.5168 -0.47881,-3.7258 0.0137,-6.0672 0.59276,-2.8181 1.80799,-5.0048 3.99323,-7.1854 7.0368,-7.0221 19.30024,-5.6662 24.30877,2.6875 1.44431,2.409 2.04098,4.5902 2.06274,7.5406 0.0324,4.3904 -1.30097,7.5713 -4.40966,10.52 -3.1381,2.9766 -6.63092,4.3012 -11.27258,4.2747 -1.23693,-0.01 -2.90381,-0.1848 -3.70417,-0.395 z m 7.61869,-6.6908 c 1.73088,-0.8956 3.1354,-2.3053 3.94773,-3.9622 0.61659,-1.2577 0.73446,-1.8378 0.73548,-3.6199 10e-4,-1.872 -0.10281,-2.3336 -0.88085,-3.914 -1.10808,-2.2508 -2.72152,-3.6021 -5.09662,-4.2686 -3.02531,-0.8488 -5.83902,-0.1164 -8.05119,2.0957 -1.80494,1.805 -2.36855,3.2227 -2.3717,5.9657 -0.002,2.007 0.0909,2.4443 0.84867,3.9837 0.90845,1.8453 2.16829,3.0625 4.111,3.9719 1.56271,0.7314 5.11238,0.5989 6.75748,-0.2523 z m -76.41036,-7.7089 v -14.2875 h 3.43959 3.43958 v 14.2875 14.2875 h -3.43958 -3.43959 z m 16.93334,3.175 v -11.1125 h -3.175 -3.175 v -3.175 -3.175 h 9.78958 9.78958 v 3.175 3.175 h -3.175 -3.175 v 11.1125 11.1125 h -3.43958 -3.43958 z m 75.93541,-3.175 v -14.2875 h 3.43959 3.43958 v 14.2875 14.2875 h -3.43958 -3.43959 z m 13.49375,0 v -14.2875 h 2.84427 2.84427 l 7.1177,8.9267 c 3.91473,4.9098 7.18895,8.9566 7.27604,8.993 0.0871,0.036 0.11677,-3.9819 0.0659,-8.9297 l -0.0924,-8.9959 h 3.33354 3.33354 v 14.2875 14.2875 l -2.84427,-0.01 -2.84427,-0.011 -7.14375,-8.997 -7.14375,-8.9971 -0.0696,9.0075 -0.0696,9.0075 h -3.30382 -3.30382 z"
         id="path123743" />
    </g>
  </g>
</svg>
