<?xml version="1.0" encoding="UTF-8" standalone="no"?>
<!-- Created with Inkscape (http://www.inkscape.org/) -->

<svg
   width="33.949093mm"
   height="6.3388982mm"
   viewBox="0 0 33.949094 6.3388982"
   version="1.1"
   id="svg251362"
   inkscape:version="1.2.1 (9c6d41e410, 2022-07-14)"
   sodipodi:docname="CompetitorLogo_RealBlocks.svg"
   xmlns:inkscape="http://www.inkscape.org/namespaces/inkscape"
   xmlns:sodipodi="http://sodipodi.sourceforge.net/DTD/sodipodi-0.dtd"
   xmlns="http://www.w3.org/2000/svg"
   xmlns:svg="http://www.w3.org/2000/svg">
  <sodipodi:namedview
     id="namedview251364"
     pagecolor="#ffffff"
     bordercolor="#000000"
     borderopacity="0.25"
     inkscape:showpageshadow="2"
     inkscape:pageopacity="0.0"
     inkscape:pagecheckerboard="0"
     inkscape:deskcolor="#d1d1d1"
     inkscape:document-units="mm"
     showgrid="false"
     inkscape:zoom="0.76167929"
     inkscape:cx="210.06216"
     inkscape:cy="-13.128885"
     inkscape:window-width="1920"
     inkscape:window-height="1009"
     inkscape:window-x="-8"
     inkscape:window-y="-8"
     inkscape:window-maximized="1"
     inkscape:current-layer="layer1" />
  <defs
     id="defs251359">
    <clipPath
       id="clip0_3903_13141">
      <rect
         width="660.32001"
         height="157.06"
         fill="#ffffff"
         id="rect124554"
         x="0"
         y="0" />
    </clipPath>
  </defs>
  <g
     inkscape:label="Layer 1"
     inkscape:groupmode="layer"
     id="layer1"
     transform="translate(-49.60599,-151.78834)">
    <g
       id="g125521"
       transform="matrix(0.15078183,0,0,0.15078183,109.85592,-27.03938)">
      <g
         id="g125516">
        <path
           style="fill:#ffffff;stroke-width:0.264583"
           d="m -399.58349,1212.5862 v -15.4571 l 0.8599,-0.1802 c 0.47294,-0.099 2.52677,-0.6356 4.56406,-1.1922 2.03729,-0.5566 5.07339,-1.3678 6.74688,-1.8027 1.67349,-0.4349 6.43599,-1.7039 10.58333,-2.8201 4.14734,-1.1161 9.56469,-2.5612 12.03854,-3.2111 2.47386,-0.65 5.06346,-1.3478 5.75469,-1.5508 l 1.25677,-0.3689 v 21.0201 21.0201 h -20.90208 -20.90209 z m 35.45417,-4.3866 c 0,-7.7127 -0.0973,-14.023 -0.21614,-14.023 -0.11888,0 -2.88708,0.7172 -6.15157,1.5937 -3.26448,0.8764 -8.1976,2.1992 -10.9625,2.9393 -2.76489,0.7402 -6.60466,1.7721 -8.53281,2.2932 l -3.50573,0.9473 v 9.9598 c 0,5.4779 0.0794,10.0392 0.17639,10.1362 0.097,0.097 6.70498,0.1764 14.68437,0.1764 h 14.50799 z"
           id="path125495" />
      </g>
      <path
         style="fill:#ffffff;stroke-width:0.264583"
         d="m -323.56011,1219.8951 c -2.34519,-0.8353 -4.25103,-2.645 -5.00213,-4.7497 -0.5712,-1.6006 -0.47503,-5.0778 0.18958,-6.8541 1.14477,-3.0597 4.08606,-5.1045 7.65749,-5.3233 5.13532,-0.3148 8.56252,2.6325 8.9071,7.6597 l 0.14186,2.0698 h -5.97531 c -3.51472,0 -6.0397,0.1041 -6.13165,0.2529 -0.24271,0.3927 0.50809,1.9241 1.30294,2.6575 0.63182,0.583 0.9522,0.6614 2.70026,0.6614 1.96101,0 1.99386,-0.011 2.91144,-1.0126 l 0.92804,-1.0127 1.96204,0.1839 c 2.10549,0.1973 2.21437,0.3053 1.64294,1.6306 -0.59266,1.3744 -1.75152,2.6152 -3.16716,3.391 -1.24614,0.6829 -1.71356,0.7812 -4.05436,0.8523 -2.05273,0.062 -2.95232,-0.029 -4.01308,-0.4067 z m 6.67001,-10.5549 c -0.86593,-3.4502 -5.97098,-3.5543 -6.65468,-0.1357 l -0.16944,0.8471 h 3.50134 3.50134 z m 10.04307,10.6952 c -1.51074,-0.6213 -1.93527,-0.984 -2.48777,-2.1253 -0.71431,-1.4756 -0.70242,-2.6962 0.0404,-4.1449 0.83539,-1.6292 2.48094,-2.4811 6.15157,-3.1847 1.60073,-0.3068 3.1783,-0.6131 3.50573,-0.6807 0.84233,-0.1738 0.81192,-1.5077 -0.0541,-2.3737 -0.48922,-0.4892 -0.93161,-0.6495 -1.79322,-0.6495 -1.34104,0 -2.12213,0.4714 -2.56911,1.5505 l -0.32218,0.7778 -2.16168,-0.1384 c -1.18892,-0.076 -2.26301,-0.231 -2.38688,-0.3442 -0.63923,-0.5843 0.91865,-3.3848 2.46115,-4.4242 2.72194,-1.8344 7.62664,-1.8312 10.35515,0.01 0.49646,0.3344 1.19989,1.1392 1.56318,1.7884 0.61975,1.1075 0.66587,1.4581 0.74709,5.6783 0.0952,4.9466 0.20467,5.2735 1.6677,4.9809 l 0.76115,-0.1522 v 1.4664 1.4664 l -1.18378,0.4521 c -2.48595,0.9493 -4.81046,0.2197 -5.88543,-1.8473 l -0.40433,-0.7775 -0.36804,0.7024 c -0.20241,0.3863 -0.91798,1.0247 -1.59014,1.4186 -0.98163,0.5753 -1.61865,0.7324 -3.23738,0.7984 -1.18606,0.048 -2.34188,-0.052 -2.80903,-0.2442 z m 5.86019,-3.5379 c 1.00107,-0.475 1.94502,-2.0052 1.94502,-3.1529 0,-0.6881 -0.0172,-0.6944 -1.38373,-0.5065 -1.53205,0.2107 -3.27486,0.7667 -3.81895,1.2182 -0.19446,0.1614 -0.35357,0.6888 -0.35357,1.1721 0,1.5703 1.71011,2.1713 3.61123,1.2691 z m 58.38704,3.5066 c -2.42714,-0.791 -3.92235,-2.139 -5.0097,-4.5163 -0.60617,-1.3253 -0.72052,-1.9361 -0.72052,-3.8487 0,-1.8752 0.1172,-2.526 0.66926,-3.7163 0.84878,-1.8301 2.32421,-3.309 4.18144,-4.1913 1.26774,-0.6023 1.79605,-0.6913 4.10104,-0.6913 2.15344,0 2.87606,0.1064 3.88294,0.5717 1.65764,0.7661 3.40207,2.418 4.19728,3.9747 0.5694,1.1146 0.65103,1.6227 0.65103,4.0525 0,2.3562 -0.0915,2.9638 -0.60232,4.0006 -0.76617,1.5551 -2.44808,3.2245 -4.00512,3.9755 -1.51985,0.733 -5.62307,0.9502 -7.34533,0.3889 z m 4.94997,-4.0038 c 1.04652,-0.5412 1.62149,-1.7521 1.78213,-3.7533 0.24543,-3.0576 -1.22385,-5.3704 -3.41173,-5.3704 -2.42291,0 -3.65458,1.6316 -3.66492,4.8548 -0.01,3.0427 1.15779,4.6702 3.35031,4.6702 0.64244,0 1.51734,-0.1806 1.94421,-0.4013 z m 15.33546,4.1374 c -2.16961,-0.7075 -4.21118,-2.4156 -5.23589,-4.3807 -0.61666,-1.1827 -0.69957,-1.65 -0.70705,-3.9856 -0.01,-3.0346 0.4293,-4.3245 2.10184,-6.1758 2.0664,-2.2873 6.16097,-3.282 9.50629,-2.3095 2.5393,0.7382 4.59195,3.0716 5.27858,6.0007 0.15805,0.6742 0.1239,0.6943 -1.46018,0.8599 -2.71974,0.2843 -2.67919,0.2979 -3.33097,-1.1228 -0.93324,-2.0343 -3.16138,-2.7582 -5.01358,-1.6288 -1.57901,0.9628 -2.28763,3.5069 -1.68104,6.0355 0.44905,1.8718 1.45008,2.7643 3.24984,2.8974 1.84943,0.1367 2.88504,-0.4979 3.51827,-2.156 l 0.46444,-1.2161 2.14569,0.1717 c 1.18013,0.094 2.17292,0.1925 2.2062,0.218 0.0333,0.025 -0.12409,0.6951 -0.34973,1.4883 -0.57359,2.0163 -1.84913,3.6609 -3.56826,4.6007 -1.26427,0.6912 -1.732,0.7921 -3.94774,0.8517 -1.38244,0.037 -2.81196,-0.03 -3.17671,-0.1486 z m 36.57259,-0.2751 c -2.33924,-0.8651 -3.6872,-2.3121 -4.14849,-4.4532 l -0.18526,-0.8598 h 2.40227 c 1.85349,0 2.40227,0.082 2.40227,0.3611 0,1.3897 2.79766,2.6249 4.59874,2.0305 1.16899,-0.3858 1.58698,-0.8977 1.38621,-1.6976 -0.19979,-0.796 -0.42476,-0.8861 -4.05027,-1.6225 -4.85328,-0.9858 -6.20581,-2.1321 -6.20581,-5.2598 0,-3.175 2.26302,-5.0798 6.3878,-5.3765 4.45474,-0.3204 7.57496,1.3118 8.46935,4.4304 0.13907,0.4849 0.22512,0.9066 0.19123,0.9372 -0.0339,0.031 -1.02895,0.098 -2.21123,0.1503 -2.1405,0.094 -2.15077,0.091 -2.42616,-0.6381 -0.5378,-1.4248 -3.9762,-2.0933 -5.08153,-0.988 -0.6128,0.6128 -0.68551,1.393 -0.16972,1.8211 0.1977,0.164 1.59668,0.523 3.10886,0.7977 3.43572,0.6241 4.77565,1.1588 5.78492,2.3083 0.97537,1.1108 1.15945,1.7975 1.01547,3.788 -0.13933,1.9261 -0.97164,3.1236 -2.78056,4.0005 -1.81229,0.8784 -6.44512,1.026 -8.48809,0.2704 z m -165.95212,-11.6817 v -11.9249 l 7.34218,0.092 c 6.89314,0.086 7.43398,0.1286 8.84298,0.6914 1.65261,0.6601 3.1839,2.136 3.85429,3.7149 0.53904,1.2695 0.53732,4.3839 -0.003,5.5932 -0.65204,1.459 -2.71843,3.175 -3.82335,3.175 -0.87499,0 -0.73876,0.4572 0.1975,0.6628 2.03458,0.4469 2.99422,2.1739 3.41212,6.1406 0.14126,1.3408 0.38239,2.6724 0.53585,2.9592 0.15347,0.2867 0.27903,0.5887 0.27903,0.671 0,0.082 -1.24093,0.1497 -2.75761,0.1497 h -2.75761 l -0.29197,-0.8847 c -0.16058,-0.4866 -0.40412,-1.868 -0.54119,-3.0699 -0.44189,-3.8743 -1.2081,-4.4588 -5.8886,-4.4919 l -2.84427,-0.02 v 4.2334 4.2333 h -2.77813 -2.77812 z m 13.41086,-1.2896 c 0.89944,-0.4084 1.16707,-0.701 1.42329,-1.5562 0.58797,-1.9625 -0.15316,-3.5798 -1.95294,-4.2617 -0.40966,-0.1552 -2.22536,-0.2822 -4.0349,-0.2822 h -3.29006 v 3.3073 3.3073 l 3.37343,-0.01 c 2.74116,0 3.58106,-0.1001 4.48118,-0.5087 z m 49.0308,1.3083 v -11.9063 h 2.64584 2.64583 v 11.9063 11.9062 h -2.64583 -2.64584 z m 9.26042,0.025 v -11.931 h 6.46927 c 6.63809,0 8.48448,0.1953 10.24003,1.0833 2.80091,1.4166 3.95235,5.4371 2.31561,8.0854 -0.56552,0.9151 -2.00409,1.9438 -2.71812,1.9438 -0.77946,0 -0.4304,0.3859 0.95729,1.0583 0.75079,0.3638 1.72413,1.1147 2.163,1.6686 0.67803,0.8558 0.81365,1.2852 0.90253,2.8582 0.18649,3.3004 -0.98995,5.1201 -4.1022,6.3451 -1.44926,0.5705 -1.98928,0.6138 -8.88522,0.7133 l -7.34219,0.106 z m 13.58432,6.7743 c 1.53474,-1.0067 1.5796,-3.1528 0.089,-4.2602 -0.6605,-0.4906 -1.18591,-0.5649 -4.56406,-0.6454 l -3.81764,-0.091 v 2.8278 2.8277 l 3.78269,-0.091 c 3.09443,-0.074 3.91502,-0.1777 4.50997,-0.5679 z m -0.95831,-9.5316 c 0.97581,-0.513 1.3969,-1.1648 1.3969,-2.1622 0,-1.9903 -1.12641,-2.5136 -5.41081,-2.5136 h -3.32044 v 2.4695 c 0,1.3582 0.0893,2.5612 0.19844,2.6733 0.384,0.3946 6.22397,0.012 7.13591,-0.467 z m 10.9219,2.7326 v -11.9063 h 2.64584 2.64583 v 11.9063 11.9062 h -2.64583 -2.64584 z m 47.88959,0 v -11.9063 h 2.64129 2.64129 l 0.0707,6.5869 0.0707,6.5868 3.175,-3.011 3.175,-3.011 3.0427,0.01 3.04271,0.01 -3.38287,3.2283 -3.38288,3.2284 3.58131,4.9699 c 1.96973,2.7334 3.58132,5.0253 3.58132,5.0931 0,0.068 -1.29508,0.1231 -2.87796,0.1231 h -2.87796 l -2.70288,-3.5999 -2.70287,-3.6 -0.90146,0.8737 -0.90146,0.8738 v 2.7262 2.7262 h -2.64583 -2.64583 z"
         id="path125491" />
    </g>
  </g>
</svg>
