<?xml version="1.0" encoding="UTF-8" standalone="no"?>
<!-- Created with Inkscape (http://www.inkscape.org/) -->

<svg
   width="33.719334mm"
   height="5.0679727mm"
   viewBox="0 0 33.719334 5.0679727"
   version="1.1"
   id="svg251362"
   inkscape:version="1.2.1 (9c6d41e410, 2022-07-14)"
   sodipodi:docname="CompetitorLogo_Tecra.svg"
   xmlns:inkscape="http://www.inkscape.org/namespaces/inkscape"
   xmlns:sodipodi="http://sodipodi.sourceforge.net/DTD/sodipodi-0.dtd"
   xmlns="http://www.w3.org/2000/svg"
   xmlns:svg="http://www.w3.org/2000/svg">
  <sodipodi:namedview
     id="namedview251364"
     pagecolor="#ffffff"
     bordercolor="#000000"
     borderopacity="0.25"
     inkscape:showpageshadow="2"
     inkscape:pageopacity="0.0"
     inkscape:pagecheckerboard="0"
     inkscape:deskcolor="#d1d1d1"
     inkscape:document-units="mm"
     showgrid="false"
     inkscape:zoom="0.76167929"
     inkscape:cx="170.67551"
     inkscape:cy="262.5777"
     inkscape:window-width="1920"
     inkscape:window-height="1009"
     inkscape:window-x="-8"
     inkscape:window-y="-8"
     inkscape:window-maximized="1"
     inkscape:current-layer="layer1" />
  <defs
     id="defs251359" />
  <g
     inkscape:label="Layer 1"
     inkscape:groupmode="layer"
     id="layer1"
     transform="translate(-59.967635,-78.991137)">
    <g
       id="g113971"
       transform="matrix(0.17362827,0,0,0.17362827,169.95434,-129.01499)">
      <path
         style="fill:#808080;stroke-width:0.264583"
         d="m -623.42065,1203.1866 c -1.17543,-2.0367 -2.60016,-3.4532 -4.27277,-4.2482 l -1.33486,-0.6344 1.91033,-0.1883 c 1.05069,-0.1035 1.97821,-0.1203 2.06117,-0.037 0.0829,0.083 -0.25597,0.1513 -0.75316,0.1518 h -0.904 l 0.79375,0.4958 c 1.15117,0.719 2.33247,2.0569 3.41515,3.8678 1.09723,1.8353 1.10792,1.8815 0.47345,2.0474 -0.36016,0.094 -0.70046,-0.2624 -1.38906,-1.4555 z m 5.20456,-0.5918 c -0.67086,-1.1642 -1.52461,-2.6227 -1.89723,-3.2412 l -0.67749,-1.1245 h 0.62912 c 0.51408,0 0.85994,0.4113 1.89147,2.249 1.14026,2.0314 1.33811,2.249 2.04557,2.249 h 0.78322 l -1.22591,-2.249 -1.22591,-2.249 h 5.05691 5.0569 l -0.0745,3.1089 -0.0745,3.1089 -4.53392,0.1322 -4.53392,0.1323 z m -2.90475,-0.2142 c -0.69876,-1.2092 -1.68502,-2.638 -2.19168,-3.175 -0.87962,-0.9324 -0.89358,-0.9766 -0.30923,-0.9801 0.33659,0 0.8501,-0.044 1.14115,-0.094 0.29104,-0.05 0.37765,-0.039 0.19247,0.024 -0.23331,0.08 -0.10607,0.4132 0.41438,1.0865 0.41309,0.5344 1.08629,1.5669 1.496,2.2945 0.40971,0.7276 0.97709,1.7099 1.26084,2.1828 l 0.51592,0.8599 h -0.62469 c -0.50448,0 -0.86916,-0.423 -1.89516,-2.1985 z m -11.86042,-4.3322 c 0.191,-0.076 0.4192,-0.067 0.50712,0.021 0.0879,0.088 -0.0684,0.1504 -0.34726,0.1389 -0.30823,-0.013 -0.37092,-0.075 -0.15986,-0.1598 z"
         id="path104186"
         sodipodi:nodetypes="sscssscssssssscssscccccccccssscssssscssssssss" />
      <path
         style="fill:#ffffff;stroke-width:0.264583"
         d="m -563.67573,1227.0643 c -7.8427,-0.9486 -13.27913,-6.8554 -13.26708,-14.4151 0.0113,-7.0757 4.74226,-12.844 11.7445,-14.3195 2.73076,-0.5754 7.62986,-0.3649 10.18646,0.4377 2.60896,0.8191 5.49313,2.308 5.25302,2.7117 -0.47053,0.7912 -4.09792,5.4816 -4.23928,5.4816 -0.0866,0 -0.52878,-0.2276 -0.98252,-0.5058 -2.4833,-1.5224 -7.26175,-1.7914 -9.82041,-0.5527 -5.72258,2.7702 -5.85525,10.3214 -0.23219,13.2156 2.59267,1.3344 6.73835,1.2327 9.68092,-0.2374 l 1.51163,-0.7552 2.10408,2.8135 c 1.15724,1.5474 2.03798,2.9204 1.95719,3.0512 -0.30095,0.4869 -4.50335,2.2435 -6.29078,2.6295 -2.4791,0.5353 -5.43033,0.708 -7.60554,0.4449 z m -60.78925,-11.3724 v -11.1125 h -4.49792 -4.49791 v -3.2073 -3.2074 l 2.3151,0.1178 c 2.68467,0.1366 4.33149,0.8315 5.93314,2.5038 0.53471,0.5583 2.58854,3.8239 4.56406,7.2569 l 3.59186,6.2419 v 6.2597 6.2596 h -3.70416 -3.70417 z m 21.18029,-3.175 0.0111,-14.2875 h 11.6293 11.6293 v 3.175 3.175 h -7.80521 -7.8052 v 2.3813 2.3812 h 6.61458 6.61458 v 2.9105 2.9104 h -6.61458 -6.61458 v 2.5135 c 0,1.3825 0.0893,2.5152 0.19843,2.5172 0.10914,0 3.59172,0.032 7.73907,0.066 l 7.54062,0.062 0.0743,3.2411 0.0743,3.2411 h -11.64855 -11.64856 l 0.0111,-14.2875 z m 57.66554,0 v -14.2875 h 8.66511 c 6.49326,0 9.00662,0.094 10.02766,0.3659 3.24509,0.8641 5.93548,3.148 6.9824,5.9276 0.47226,1.2539 0.55165,1.9344 0.47019,4.0309 -0.1442,3.7115 -1.15732,5.5446 -4.31783,7.8126 l -0.75993,0.5453 3.22453,4.6692 c 1.7735,2.5681 3.22454,4.7933 3.22454,4.9448 0,0.1801 -1.48866,0.2717 -4.29948,0.2646 l -4.29948,-0.011 -2.73735,-4.3547 -2.73735,-4.3546 h -3.01734 -3.01733 v 4.3656 4.3656 h -3.70417 -3.70417 z m 16.56755,-1.3 c 1.47472,-0.6697 1.95329,-1.4303 1.95329,-3.1041 0,-1.0797 -0.14166,-1.5444 -0.65777,-2.1578 -0.91223,-1.0841 -2.33923,-1.3756 -6.73544,-1.3756 h -3.71929 v 3.5719 3.5719 l 4.03489,-0.01 c 3.368,0 4.21496,-0.088 5.12432,-0.5006 z m 13.17269,15.1316 c 0.0929,-0.2586 2.56743,-6.694 5.49891,-14.3011 l 5.32998,-13.8309 4.08867,0.073 4.08868,0.073 4.9922,12.9646 c 2.74571,7.1305 5.22522,13.5302 5.51002,14.2214 l 0.51781,1.2567 h -4.0645 -4.06451 l -0.96979,-2.9104 -0.96979,-2.9104 h -5.08037 -5.08036 l -0.93446,2.8443 -0.93447,2.8443 -4.04848,0.073 c -3.78283,0.068 -4.03739,0.042 -3.87954,-0.3969 z m 16.41839,-15.5714 c -0.79422,-2.2665 -1.45163,-4.2013 -1.46091,-4.2994 -0.0251,-0.266 -2.86149,7.7047 -2.87874,8.0898 -0.011,0.2453 0.73353,0.3307 2.88444,0.3307 h 2.89925 z m -120.65236,-4.083 c -3.12016,-5.4855 -3.98532,-6.7128 -5.54272,-7.8621 l -0.79375,-0.5858 1.07078,-0.01 c 1.80175,-0.014 2.38106,0.7846 8.86993,12.2286 l 1.01265,1.786 h -0.72771 c -0.67047,0 -0.97639,-0.4373 -3.88918,-5.5583 z m 135.41405,1.5966 c -0.61847,-0.2807 -1.12448,-0.5774 -1.12448,-0.6593 0,-0.082 0.26103,-0.5472 0.58008,-1.0339 l 0.58009,-0.8849 1.14818,0.5079 c 0.6315,0.2793 1.53132,0.4709 1.9996,0.4256 0.69925,-0.068 0.86596,-0.2079 0.93276,-0.7852 0.0734,-0.6344 -0.064,-0.7573 -1.41061,-1.2611 -2.41235,-0.9026 -3.05623,-1.3262 -3.45075,-2.2704 -0.49005,-1.1729 -0.24137,-2.2922 0.71224,-3.2058 0.63667,-0.6099 1.05535,-0.7556 2.42293,-0.8426 1.57798,-0.1005 3.33734,0.2041 4.13046,0.7152 0.54837,0.3534 -0.64785,2.2504 -1.26042,1.9989 -1.96315,-0.8062 -3.47415,-0.7493 -3.47415,0.1308 0,0.4736 1.00815,0.9877 3.36182,1.7142 0.32103,0.099 0.88658,0.5401 1.25677,0.98 1.17806,1.4001 0.71371,3.7539 -0.90576,4.5913 -1.12681,0.5827 -4.09258,0.5176 -5.49876,-0.1207 z m 8.6651,-4.7696 v -5.2917 h 2.78662 c 3.10023,0 4.20633,0.3146 5.0995,1.45 0.84604,1.0756 0.99133,2.3114 0.4094,3.4824 -0.76486,1.5391 -1.61143,2.0048 -3.91242,2.1525 l -2.00185,0.1285 v 1.685 1.685 h -1.19062 -1.19063 z m 5.66964,-0.6803 c 0.22868,-0.2287 0.41578,-0.6965 0.41578,-1.0395 0,-1.024 -0.67206,-1.4552 -2.26786,-1.4552 h -1.43631 v 1.4552 1.4552 h 1.43631 c 0.95296,0 1.57623,-0.1399 1.85208,-0.4157 z m 2.60784,5.6413 c 0.7294,-1.8274 3.89335,-10.0975 3.89335,-10.1767 0,-0.057 0.61051,-0.068 1.35668,-0.024 l 1.35667,0.08 1.81837,4.7625 c 1.0001,2.6193 1.8859,4.9708 1.96844,5.2255 0.1292,0.3986 -0.0312,0.463 -1.15239,0.463 -1.24262,0 -1.31377,-0.04 -1.54835,-0.8599 l -0.24589,-0.8599 -2.14971,-0.077 -2.14972,-0.076 -0.30902,0.9363 c -0.29935,0.907 -0.35074,0.9364 -1.63974,0.9364 -0.95858,0 -1.29378,-0.093 -1.19869,-0.3307 z m 6.38601,-4.2334 c -0.85824,-2.7057 -1.11425,-3.2338 -1.31473,-2.712 -0.11181,0.2911 -0.42259,1.0992 -0.69061,1.7958 -0.26802,0.6966 -0.48732,1.3217 -0.48732,1.389 0,0.067 0.60334,0.1225 1.34075,0.1225 1.26996,0 1.33078,-0.031 1.15191,-0.5953 z m 6.85695,3.8989 c -1.39063,-0.8336 -2.47308,-2.8593 -2.46463,-4.6123 0.0102,-2.1188 1.45038,-4.3435 3.25256,-5.0244 1.67583,-0.6332 5.47288,0.01 5.47288,0.9231 0,0.1944 -0.27553,0.6738 -0.61229,1.0653 -0.52285,0.6078 -0.69424,0.668 -1.17323,0.4116 -0.89786,-0.4805 -2.56023,-0.3638 -3.31902,0.2331 -2.67673,2.1055 -0.23855,6.4651 2.88566,5.1597 0.52832,-0.2207 0.99145,-0.4013 1.02917,-0.4013 0.0377,0 0.38339,0.4127 0.76817,0.9172 l 0.6996,0.9172 -1.05453,0.538 c -1.56071,0.7962 -4.03969,0.7387 -5.48434,-0.1272 z m 7.84831,-4.6265 v -5.2917 h 3.70417 3.70416 v 1.0584 1.0583 h -2.51354 -2.51354 v 1.0583 1.0584 h 2.11667 2.11666 v 0.926 0.9261 h -2.11666 -2.11667 v 1.1906 1.1906 h 2.51354 2.51354 v 1.0583 1.0584 h -3.70416 -3.70417 z m -172.24859,0.4845 c -1.07051,-1.9163 -2.34001,-3.9999 -2.82111,-4.6302 l -0.87472,-1.146 h 0.75099 c 1.08477,0 0.90011,-0.2608 5.76065,8.136 l 0.65092,1.1245 h -0.76017 c -0.70016,0 -0.91384,-0.2751 -2.70656,-3.4843 z m 1.65007,-1.8735 c -0.16049,-0.3275 -0.71424,-1.3395 -1.23057,-2.249 l -0.93878,-1.6537 h 0.74222 c 0.57278,0 0.84041,0.1964 1.17227,0.8599 0.23653,0.473 0.79678,1.485 1.24499,2.249 l 0.81493,1.3891 h -0.75664 c -0.5218,0 -0.84719,-0.1848 -1.04842,-0.5953 z"
         id="path104182"
         sodipodi:nodetypes="sssssssssscssssccccccsssccccccccccccccccccccccscscccccccccssssscssscccccccccccsssccccccsscccsscccccccccssssssscscsccscsccssscscssssssssssssccssssccccccssscccsscsscsssscccsscccsssscsssssssssscsscccccccccccccccccccccccccsscsscsssscssscss" />
    </g>
  </g>
</svg>
