<?xml version="1.0" encoding="UTF-8" standalone="no"?>
<!-- Created with Inkscape (http://www.inkscape.org/) -->

<svg
   width="32.237053mm"
   height="7.6677241mm"
   viewBox="0 0 32.237054 7.6677242"
   version="1.1"
   id="svg251362"
   inkscape:version="1.2.1 (9c6d41e410, 2022-07-14)"
   sodipodi:docname="CompetitorLogo_LenderKit.svg"
   xmlns:inkscape="http://www.inkscape.org/namespaces/inkscape"
   xmlns:sodipodi="http://sodipodi.sourceforge.net/DTD/sodipodi-0.dtd"
   xmlns="http://www.w3.org/2000/svg"
   xmlns:svg="http://www.w3.org/2000/svg">
  <sodipodi:namedview
     id="namedview251364"
     pagecolor="#ffffff"
     bordercolor="#000000"
     borderopacity="0.25"
     inkscape:showpageshadow="2"
     inkscape:pageopacity="0.0"
     inkscape:pagecheckerboard="0"
     inkscape:deskcolor="#d1d1d1"
     inkscape:document-units="mm"
     showgrid="false"
     inkscape:zoom="0.76167929"
     inkscape:cx="195.62039"
     inkscape:cy="-5.2515541"
     inkscape:window-width="1920"
     inkscape:window-height="1009"
     inkscape:window-x="-8"
     inkscape:window-y="-8"
     inkscape:window-maximized="1"
     inkscape:current-layer="layer1" />
  <defs
     id="defs251359">
    <clipPath
       id="clip0_3903_13141">
      <rect
         width="660.32001"
         height="157.06"
         fill="#ffffff"
         id="rect124554"
         x="0"
         y="0" />
    </clipPath>
  </defs>
  <g
     inkscape:label="Layer 1"
     inkscape:groupmode="layer"
     id="layer1"
     transform="translate(-53.33561,-149.78722)">
    <g
       style="fill:none"
       id="g124577"
       transform="matrix(0.04882035,0,0,0.04882035,53.33561,149.78722)">
      <g
         clip-path="url(#clip0_3903_13141)"
         id="g124552">
        <path
           d="m 156.971,23.1201 h 13.85 v 64.79 h 36.65 v 11.45 h -50.5 z"
           fill="#ffffff"
           id="path124530" />
        <path
           d="m 218.151,93.6901 c -5.67,-4.87 -8.51,-11.67 -8.51,-20.4 0,-8.73 2.51,-15.38 7.53,-20.39 5.02,-5.02 12.18,-7.53 21.49,-7.53 6.11,0 11.33,1.17 15.65,3.49 4.33,2.33 7.58,5.51 9.76,9.55 2.18,4.03 3.27,8.63 3.27,13.79 v 6.33 h -44.61 c 0.94,7.78 7.71,11.67 20.29,11.67 3.34,0 6.76,-0.29 10.25,-0.87 3.49,-0.58 6.54,-1.38 9.16,-2.4 v 10.58 c -2.47,1.02 -5.66,1.85 -9.55,2.5099 -3.89,0.66 -7.76,0.98 -11.62,0.98 -9.74,0 -17.45,-2.4299 -23.12,-7.2999 z m 36.21,-24.54 c -0.15,-4.15 -1.62,-7.34 -4.42,-9.6 -2.8,-2.25 -6.64,-3.38 -11.51,-3.38 -4.87,0 -8.58,1.16 -11.34,3.49 -2.76,2.32 -4.22,5.49 -4.37,9.49 h 31.63 z"
           fill="#ffffff"
           id="path124532" />
        <path
           d="m 278.25,47.0101 h 13.31 v 7.09 c 2.47,-2.99 5.41,-5.19 8.83,-6.6 3.42,-1.42 7.02,-2.13 10.8,-2.13 7.05,0 12.32,1.91 15.81,5.73 3.49,3.82 5.24,8.89 5.24,15.22 v 33.04 H 318.5 v -31.74 c 0,-7.63 -3.56,-11.45 -10.69,-11.45 -3.13,0 -6.07,0.75 -8.84,2.24 -2.76,1.49 -5.09,3.72 -6.98,6.71 v 34.24 h -13.74 z"
           fill="#ffffff"
           id="path124534" />
        <path
           d="m 355.96,97.5598 c -4.18,-2.29 -7.46,-5.52 -9.82,-9.71 -2.36,-4.18 -3.54,-9.03 -3.54,-14.56 0,-5.53 1.18,-10.28 3.54,-14.51 2.36,-4.21 5.63,-7.5 9.82,-9.87 4.18,-2.36 8.92,-3.54 14.23,-3.54 8.58,0 15.34,2.26 20.28,6.77 v -33.38 h 13.74 v 80.6 h -13.3 v -6.11 c -2.99,2.76 -6.08,4.74 -9.27,5.94 -3.2,1.2002 -7.01,1.8002 -11.45,1.8002 -5.31,0 -10.05,-1.1502 -14.23,-3.4302 z m 28.08,-10.53 c 3.06,-2.11 5.2,-4.94 6.43,-8.51 v -10.58 c -1.16,-3.56 -3.29,-6.42 -6.38,-8.56 -3.09,-2.14 -6.59,-3.22 -10.52,-3.22 -4.95,0 -9.02,1.6 -12.22,4.8 -3.2,3.2 -4.8,7.31 -4.8,12.32 0,5.01 1.6,9.09 4.8,12.22 3.2,3.13 7.27,4.69 12.22,4.69 3.93,0 7.41,-1.05 10.47,-3.16 z"
           fill="#ffffff"
           id="path124536" />
        <path
           d="m 423.641,93.6901 c -5.67,-4.87 -8.51,-11.67 -8.51,-20.4 0,-8.73 2.51,-15.38 7.53,-20.39 5.01,-5.02 12.18,-7.53 21.48,-7.53 6.11,0 11.33,1.17 15.65,3.49 4.32,2.33 7.58,5.51 9.76,9.55 2.18,4.03 3.27,8.63 3.27,13.79 v 6.33 h -44.6 c 0.94,7.78 7.7,11.67 20.28,11.67 3.34,0 6.76,-0.29 10.25,-0.87 3.49,-0.58 6.55,-1.38 9.16,-2.4 v 10.58 c -2.47,1.02 -5.65,1.85 -9.54,2.5099 -3.89,0.66 -7.76,0.98 -11.62,0.98 -9.74,0 -17.45,-2.4299 -23.12,-7.2999 z m 36.21,-24.54 c -0.15,-4.15 -1.62,-7.34 -4.42,-9.6 -2.8,-2.25 -6.63,-3.38 -11.5,-3.38 -4.87,0 -8.59,1.16 -11.34,3.49 -2.76,2.32 -4.22,5.49 -4.36,9.49 h 31.63 z"
           fill="#ffffff"
           id="path124538" />
        <path
           d="m 483.73,47.0098 h 13.31 v 8.4 c 2.11,-2.83 5.11,-4.94 8.99,-6.33 3.89,-1.38 8.35,-2.07 13.36,-2.07 v 10.47 c -5.3,0 -9.91,0.82 -13.79,2.45 -3.89,1.64 -6.6,4.2 -8.13,7.69 v 31.74 h -13.74 z"
           fill="#ffffff"
           id="path124540" />
        <path
           d="m 528.119,23.1201 h 13.86 v 34.58 l 31.3,-34.58 h 16.58 l -33.81,37.3 35.99,38.93 h -16.58 l -33.48,-36.21 v 36.21 h -13.86 z"
           fill="#ffffff"
           id="path124542" />
        <path
           d="m 601.371,35.66 c -1.49,-1.45 -2.24,-3.27 -2.24,-5.45 0,-2.18 0.75,-4.02 2.24,-5.51 1.49,-1.49 3.32,-2.24 5.51,-2.24 2.19,0 4.03,0.75 5.56,2.24 1.53,1.49 2.29,3.33 2.29,5.51 0,2.18 -0.76,4 -2.29,5.45 -1.53,1.45 -3.38,2.18 -5.56,2.18 -2.18,0 -4.02,-0.73 -5.51,-2.18 z M 599.901,47 h 13.96 v 52.35 h -13.96 z"
           fill="#ffffff"
           id="path124544" />
        <path
           d="m 635.771,96.1998 c -2.98,-3.2 -4.46,-7.7 -4.46,-13.52 v -25.2 h -7.85 v -10.47 h 7.85 v -15.71 h 13.74 v 15.71 h 12.54 v 10.47 h -12.54 v 23.45 c 0,3.34 0.62,5.72 1.86,7.14 1.23,1.41 3.49,2.12 6.76,2.12 2.25,0 4.48,-0.51 6.65,-1.53 v 10.47 c -3.13,1.2302 -6.94,1.8502 -11.45,1.8502 -5.74,0 -10.11,-1.6002 -13.09,-4.8002 z"
           fill="#ffffff"
           id="path124546" />
        <path
           d="M 29.75,109.51 0,124.39 V 24.88 L 49.75,0 v 77.14 c 0,13.71 -7.74,26.24 -20,32.37 z"
           fill="#ffffff"
           id="path124548" />
        <path
           d="m 99.5109,128.29 -57.55,28.78 v -35.19 c 0,-13.71 7.74,-26.2398 20,-32.3698 l 37.55,-18.77 z"
           fill="#ffffff"
           id="path124550" />
      </g>
    </g>
  </g>
</svg>
