<?xml version="1.0" encoding="UTF-8" standalone="no"?>
<!-- Created with Inkscape (http://www.inkscape.org/) -->

<svg
   width="317.50351mm"
   height="44.231335mm"
   viewBox="0 0 317.50351 44.231335"
   version="1.1"
   id="svg5"
   xml:space="preserve"
   inkscape:version="1.2.1 (9c6d41e410, 2022-07-14)"
   sodipodi:docname="Bitcoincom.svg"
   xmlns:inkscape="http://www.inkscape.org/namespaces/inkscape"
   xmlns:sodipodi="http://sodipodi.sourceforge.net/DTD/sodipodi-0.dtd"
   xmlns="http://www.w3.org/2000/svg"
   xmlns:svg="http://www.w3.org/2000/svg"><sodipodi:namedview
     id="namedview7"
     pagecolor="#ffffff"
     bordercolor="#000000"
     borderopacity="0.25"
     inkscape:showpageshadow="2"
     inkscape:pageopacity="0.0"
     inkscape:pagecheckerboard="0"
     inkscape:deskcolor="#d1d1d1"
     inkscape:document-units="mm"
     showgrid="false"
     inkscape:zoom="0.73851712"
     inkscape:cx="751.50594"
     inkscape:cy="282.99953"
     inkscape:window-width="1920"
     inkscape:window-height="1009"
     inkscape:window-x="-8"
     inkscape:window-y="-8"
     inkscape:window-maximized="1"
     inkscape:current-layer="layer1" /><defs
     id="defs2" /><g
     inkscape:label="Layer 1"
     inkscape:groupmode="layer"
     id="layer1"
     transform="translate(330.26551,-85.641867)"><path
       style="fill:#dbdbdb;stroke-width:0.264583"
       d="m -300.57022,122.48511 0.0703,-7.34219 7.33807,-0.0703 7.33807,-0.0703 0.0915,-7.33801 c 0.0503,-4.0359 0.04,-0.8491 -0.023,7.08178 -0.0733,9.23668 -0.21148,14.53868 -0.38434,14.75052 -0.20374,0.2497 -2.01328,0.33073 -7.3854,0.33073 h -7.11554 z m -29.69529,-29.117403 c 0,-5.16232 0.0863,-7.17719 0.3175,-7.40834 0.23115,-0.23114 2.24602,-0.3175 7.40833,-0.3175 h 7.09084 v 7.40834 7.408333 h -7.40834 -7.40833 z"
       id="path370"
       sodipodi:nodetypes="ccccscssccssscccccs" /><path
       style="fill:#b8b8b8;stroke-width:0.264583"
       d="m -329.96751,129.40904 c -0.3291,-0.41964 -0.31974,-0.429 0.0999,-0.0999 0.25466,0.19972 0.46302,0.40808 0.46302,0.46302 0,0.21776 -0.21727,0.0776 -0.56292,-0.36313 z m 14.58584,-6.94531 v -7.40833 h -7.40834 -7.40833 v -7.27604 -7.27605 h 7.40833 7.40834 v -7.408325 -7.40834 h 7.40414 7.40415 l 0.0703,7.34219 0.0703,7.342185 7.34218,0.0703 7.34219,0.0703 v 7.26768 7.26767 l -7.34219,0.0703 -7.34218,0.0703 -0.0703,7.34219 -0.0703,7.34218 h -7.40415 -7.40414 z m 14.81666,-14.68437 v -7.27605 h -7.40833 -7.40833 v 7.27605 7.27604 h 7.40833 7.40833 z m 14.93195,-14.287505 c 1.5e-4,-3.78354 0.0373,-5.29456 0.0826,-3.35782 0.0453,1.93674 0.0451,5.03237 -2.7e-4,6.87917 -0.0454,1.8468 -0.0825,0.26219 -0.0823,-3.52135 z"
       id="path368" /><path
       style="fill:#737373;stroke-width:0.264583"
       d="m -329.76046,129.38821 c -0.38397,-0.42429 -0.43788,-1.33633 -0.43788,-7.40833 v -6.92448 h 7.40833 7.40834 v -7.27604 -7.27605 h 7.40833 7.40833 v 7.27605 7.27604 h -7.40833 -7.40833 v 7.40833 7.40833 h -6.97045 c -6.41685,0 -7.00523,-0.0384 -7.40834,-0.48385 z m 29.37184,-29.06129 c -0.097,-0.097 -0.17639,-3.430755 -0.17639,-7.408325 v -7.23195 h 6.89656 c 4.248,0 7.09311,0.10519 7.40834,0.2739 0.48655,0.26039 0.51177,0.62551 0.51177,7.40833 v 7.134435 h -7.23194 c -3.97757,0 -7.31132,-0.0794 -7.40834,-0.17639 z"
       id="path362" /><path
       style="fill:#ffffff;stroke-width:0.264583"
       d="m -204.91813,126.26532 c -5.81956,-0.89943 -9.64837,-4.33747 -11.01076,-9.88701 -0.45209,-1.84156 -0.44747,-6.29936 0.009,-8.20208 1.51038,-6.30251 6.49796,-10.032835 13.43662,-10.049565 2.44197,-0.006 4.30214,0.38829 6.32046,1.33932 2.83066,1.333815 5.15369,4.455385 5.56866,7.482865 l 0.1704,1.24326 -3.51396,-0.0741 -3.51395,-0.0741 -0.32463,-1.10073 c -0.74802,-2.53631 -2.79216,-3.99117 -5.20609,-3.70528 -2.01775,0.23898 -3.4833,1.22719 -4.3022,2.90096 -1.60395,3.27836 -1.60395,8.99841 0,12.27676 1.44421,2.95185 5.38514,3.88056 7.9398,1.87107 0.83559,-0.65728 1.96147,-2.93437 1.96517,-3.97455 l 0.003,-0.72761 h 3.70417 c 2.03729,0 3.70417,0.094 3.70417,0.209 0,0.11495 -0.17803,0.89248 -0.39562,1.72786 -1.36809,5.25246 -5.62657,8.4957 -11.50724,8.76386 -1.23879,0.0565 -2.60954,0.0475 -3.0461,-0.02 z m 27.24332,-0.20076 c -2.71321,-0.51912 -4.76088,-1.58547 -6.62404,-3.44954 -2.60489,-2.60616 -3.80905,-5.87425 -3.80905,-10.33775 0,-4.19126 1.14794,-7.50643 3.48454,-10.06303 2.41145,-2.638515 5.13099,-3.791455 9.47493,-4.016855 7.4769,-0.38798 12.58393,3.135995 14.14574,9.760895 0.84743,3.59463 0.30961,8.92948 -1.19815,11.88494 -0.74522,1.46076 -2.97889,3.81376 -4.42462,4.66102 -2.73784,1.60448 -7.38712,2.26102 -11.04935,1.56032 z m 6.11181,-5.34672 c 1.19434,-0.56675 2.35732,-2.31028 2.74415,-4.114 0.42186,-1.96704 0.34948,-6.99325 -0.12723,-8.83504 -0.73298,-2.83194 -2.37735,-4.34815 -4.91785,-4.53458 -1.40374,-0.10301 -1.88189,-0.0209 -2.86074,0.49093 -2.51781,1.3167 -3.46567,3.66058 -3.4803,8.6062 -0.0147,4.95642 1.21639,7.72833 3.86184,8.69548 1.29255,0.47256 3.42341,0.33481 4.78013,-0.30899 z m 71.643893,5.42499 c -5.444733,-0.90965 -9.114523,-4.34805 -10.421633,-9.76452 -0.48978,-2.02957 -0.43976,-6.37376 0.0969,-8.412 1.66128,-6.31003 6.41997,-9.822985 13.328876,-9.839645 3.740492,-0.009 6.647416,1.02301 8.910691,3.163515 1.568881,1.48378 2.799294,3.83185 3.016165,5.75591 l 0.12917,1.14599 -3.512204,-0.0741 -3.512206,-0.0741 -0.32463,-1.10073 c -0.466096,-1.58039 -1.290701,-2.61005 -2.596531,-3.24219 -2.994552,-1.44963 -6.417111,0.29599 -7.490431,3.8204 -0.62809,2.06243 -0.64096,7.56888 -0.0221,9.47357 0.86023,2.64773 2.425092,4.02815 4.898406,4.32108 2.583262,0.30594 4.707867,-1.32021 5.433653,-4.15889 l 0.368258,-1.44032 3.608186,-0.0736 c 1.984494,-0.0405 3.608179,-0.0166 3.608179,0.0531 0,0.0697 -0.133977,0.75767 -0.297725,1.52882 -1.353947,6.37617 -7.806198,10.15641 -15.220964,8.91764 z m 29.14473,0.14206 c -0.291041,-0.0672 -1.18401,-0.25256 -1.984375,-0.41189 -4.684778,-0.93259 -8.346778,-4.71503 -9.406744,-9.71612 -1.375228,-6.48854 1.025842,-13.40121 5.582325,-16.07148 3.220915,-1.887585 8.034459,-2.475245 12.019809,-1.467425 6.288775,1.590295 9.531694,6.192515 9.531694,13.527005 0,4.51893 -1.072224,7.65858 -3.487711,10.2126 -1.641846,1.73602 -3.056229,2.62079 -5.311749,3.32279 -1.569058,0.48834 -5.837174,0.85995 -6.943249,0.60452 z m 4.798039,-5.57555 c 1.216337,-0.57718 2.355104,-2.34366 2.770712,-4.29792 0.174095,-0.81857 0.31533,-2.73948 0.313848,-4.26868 -0.0045,-4.55806 -1.123606,-7.36986 -3.36546,-8.45512 -2.047039,-0.99096 -4.968444,-0.49807 -6.422443,1.08357 -0.320315,0.34843 -0.856096,1.22734 -1.190625,1.95313 -0.554268,1.20252 -0.608237,1.69526 -0.608237,5.55295 0,3.89015 0.05097,4.3461 0.628724,5.62432 0.698918,1.54629 2.044758,2.8835 3.146441,3.12625 0.397512,0.0876 0.841814,0.20574 0.987335,0.26254 0.543091,0.21199 2.811097,-0.14039 3.739705,-0.58104 z m -160.257602,5.06633 c -1.58063,-0.50894 -3.24205,-1.64132 -4.08553,-2.78459 -1.30864,-1.77376 -1.45387,-2.88844 -1.45387,-11.1587 v -7.6249 h -1.72905 -1.72905 l 0.0754,-2.71198 0.0754,-2.711975 1.65364,-0.0788 1.65365,-0.0788 v -3.29467 -3.29467 h 3.83646 3.83646 v 3.2989 3.2989 l 3.10885,0.0745 3.10886,0.0745 0.0754,2.711975 0.0754,2.71198 h -3.18426 -3.18425 v 7.28918 c 0,8.21767 0.0674,8.56966 1.74825,9.12438 0.90068,0.29725 2.34112,0.23604 3.95045,-0.16788 l 0.67198,-0.16865 -0.0765,2.47816 -0.0765,2.47816 -1.05834,0.3611 c -1.5907,0.54273 -5.833,0.6438 -7.29289,0.17374 z m -51.06119,-0.33538 c -0.007,-0.10914 -0.0156,-8.29468 -0.0181,-18.1901 l -0.005,-17.991665 9.54421,-0.0694 c 7.68461,-0.0559 9.91652,0.008 11.45509,0.32898 3.61773,0.75432 6.05616,2.37866 7.26438,4.8391 0.6389,1.30104 0.74443,1.83477 0.74443,3.76491 0,1.928125 -0.1058,2.464405 -0.74161,3.759175 -0.83269,1.69568 -2.09381,2.82492 -4.18598,3.74826 l -1.39711,0.61658 1.33805,0.44443 c 2.76629,0.91882 4.70698,2.62483 5.47299,4.81118 1.72919,4.93546 -0.44922,10.17559 -5.19618,12.49931 -2.96233,1.45013 -4.67952,1.63773 -14.99046,1.63773 -5.09937,0 -9.27763,-0.0893 -9.28503,-0.19844 z m 18.69539,-5.48388 c 1.62477,-0.48251 2.66196,-1.52825 3.16127,-3.18735 0.73901,-2.45553 0.32332,-4.5161 -1.20522,-5.97424 -1.39327,-1.3291 -2.60624,-1.56026 -8.18744,-1.56026 h -4.77763 v 5.55625 5.55625 h 4.84677 c 3.50359,0 5.21133,-0.10826 6.16225,-0.39065 z m 0.2187,-16.67497 c 1.70769,-0.86785 2.13374,-1.68671 2.13374,-4.101035 0,-2.45233 -0.42088,-3.23033 -2.25436,-4.16719 -1.08596,-0.5549 -1.50253,-0.59532 -6.13608,-0.59532 h -4.97102 v 4.78274 4.782725 l 5.09323,-0.0864 c 4.46329,-0.0757 5.22202,-0.15182 6.13449,-0.61554 z m 13.21463,9.06877 c 0.002,-9.03273 0.0919,-13.364485 0.28151,-13.496485 0.31374,-0.21838 6.52291,-0.27746 7.07065,-0.0673 0.28718,0.1102 0.35025,2.594395 0.34093,13.427605 l -0.0114,13.29239 -3.84194,0.0729 -3.84195,0.0729 0.002,-13.3021 z m 86.74638,-0.13908 0.0686,-13.427605 h 3.70416 3.70417 l 0.0686,13.427605 0.0686,13.4276 h -3.84131 -3.84131 z m 9.99044,0.23083 c 0,-10.94629 0.0627,-13.248835 0.36793,-13.502125 0.24585,-0.20403 1.45302,-0.28062 3.63802,-0.23083 l 3.27009,0.0745 0.0791,1.664765 0.0791,1.66476 1.24386,-1.0966 c 3.08952,-2.723765 7.35246,-3.567465 11.23034,-2.222655 1.67757,0.58176 3.72282,2.465225 4.52767,4.169515 1.07893,2.28467 1.22855,3.94046 1.22855,13.59589 v 9.07953 h -3.83645 -3.83646 v -9.20435 c 0,-9.02367 -0.0117,-9.22723 -0.59532,-10.36941 -0.8647,-1.69227 -1.76834,-2.25613 -3.59953,-2.24609 -1.81585,0.01 -3.14677,0.72958 -4.30405,2.32716 -1.52702,2.108 -1.67205,3.17797 -1.59318,11.75363 l 0.0712,7.73906 h -3.98539 -3.98538 z m 27.8964,12.85064 c -0.073,-0.19038 -0.0991,-1.76795 -0.0578,-3.50573 l 0.075,-3.1596 4.0349,-0.073 4.03489,-0.073 v 3.57876 3.57877 h -3.97705 c -3.03196,0 -4.00862,-0.0823 -4.10988,-0.34613 z m 67.827236,0.14769 c -0.04771,-0.10914 -0.02487,-6.15156 0.05053,-13.4276 l 0.137292,-13.229165 3.042709,-0.0768 c 1.673489,-0.0422 3.325309,-0.007 3.670697,0.0794 0.599704,0.14915 0.619971,0.22707 0.449871,1.730435 -0.09795,0.86584 -0.13642,1.57425 -0.08549,1.57425 0.05093,0 0.76237,-0.64873 1.580991,-1.44162 1.230392,-1.191735 1.818481,-1.541885 3.392646,-2.020025 4.196054,-1.27452 8.354854,0.0959 10.06311,3.315955 0.351287,0.66222 0.70911,1.20403 0.795152,1.20403 0.08602,0 0.282152,-0.26789 0.435848,-0.59532 0.580337,-1.23632 2.254144,-2.838415 3.714935,-3.555735 1.341914,-0.65898 1.800993,-0.743 4.02807,-0.73727 1.980856,0.005 2.770875,0.12412 3.72782,0.56164 2.429881,1.11096 3.952875,3.328995 4.448546,6.478745 0.145785,0.92642 0.315965,5.88135 0.378142,11.01096 l 0.113083,9.32656 h -3.943085 -3.943086 l 0.07231,-9.45885 0.07231,-9.45886 -0.665533,-1.19062 c -0.51062,-0.9135 -0.914876,-1.27716 -1.736725,-1.56239 -1.36906,-0.47514 -2.242318,-0.2498 -3.525917,0.90986 -2.252901,2.03535 -2.731188,4.78711 -2.487163,14.30902 l 0.165735,6.46647 -3.889957,-0.0735 -3.889957,-0.0735 -0.05503,-9.525 c -0.05236,-9.06093 -0.08139,-9.57012 -0.595842,-10.45104 -0.297445,-0.50933 -0.957924,-1.15218 -1.467723,-1.42857 -1.94019,-1.05186 -4.081039,0.16129 -5.426631,3.07509 l -0.766921,1.66077 -0.08295,8.40052 -0.08295,8.40052 h -3.804047 c -2.092219,0 -3.843073,-0.0893 -3.890803,-0.19844 z M -245.08375,95.835965 c -0.10083,-0.10084 -0.18334,-1.65178 -0.18334,-3.44654 v -3.26319 h 3.97666 3.97665 l -0.074,3.37344 -0.074,3.37343 -3.71926,0.0731 c -2.0456,0.0402 -3.80177,-0.009 -3.90261,-0.11024 z m 86.78352,1.8e-4 c -0.10094,-0.10094 -0.18353,-1.65196 -0.18353,-3.44672 v -3.26319 h 3.84437 3.84436 l -0.074,3.37344 -0.074,3.37343 -3.58679,0.0733 c -1.97274,0.0403 -3.66938,-0.009 -3.77031,-0.11024 z"
       id="path358" /></g></svg>
