<?xml version="1.0" encoding="UTF-8" standalone="no"?>
<!-- Created with Inkscape (http://www.inkscape.org/) -->

<svg
   width="514.50641mm"
   height="135.38847mm"
   viewBox="0 0 514.50641 135.38847"
   version="1.1"
   id="svg5"
   xml:space="preserve"
   inkscape:version="1.2.1 (9c6d41e410, 2022-07-14)"
   sodipodi:docname="FeatureOnLogo_CoinGecko.svg"
   xmlns:inkscape="http://www.inkscape.org/namespaces/inkscape"
   xmlns:sodipodi="http://sodipodi.sourceforge.net/DTD/sodipodi-0.dtd"
   xmlns="http://www.w3.org/2000/svg"
   xmlns:svg="http://www.w3.org/2000/svg"><sodipodi:namedview
     id="namedview7"
     pagecolor="#ffffff"
     bordercolor="#000000"
     borderopacity="0.25"
     inkscape:showpageshadow="2"
     inkscape:pageopacity="0.0"
     inkscape:pagecheckerboard="0"
     inkscape:deskcolor="#d1d1d1"
     inkscape:document-units="mm"
     showgrid="false"
     inkscape:zoom="0.36925856"
     inkscape:cx="495.5877"
     inkscape:cy="184.15281"
     inkscape:window-width="1920"
     inkscape:window-height="1009"
     inkscape:window-x="-8"
     inkscape:window-y="-8"
     inkscape:window-maximized="1"
     inkscape:current-layer="layer1" /><defs
     id="defs2" /><g
     inkscape:label="Layer 1"
     inkscape:groupmode="layer"
     id="layer1"
     transform="translate(742.6503,-464.30145)"><g
       id="g492"
       transform="translate(-5.0156815,23.645356)" /><g
       id="g904"><circle
         style="fill:#e9e9e9;fill-opacity:1;stroke-width:0.00264583;stroke-linecap:round;stroke-linejoin:round"
         id="path584"
         cx="-674.25092"
         cy="531.66223"
         r="65.920387" /><path
         style="fill:#b4b4b4;stroke-width:0.264583"
         d="m -674.67343,575.9252 c -4.99827,-0.5513 -6.52145,-0.77073 -9.18927,-1.32382 -13.9544,-2.89299 -26.38916,-9.99114 -36.33583,-20.7416 -7.04089,-7.60987 -12.84794,-18.38956 -15.47411,-28.72479 -1.47244,-5.79473 -1.96037,-9.93399 -1.96197,-16.64399 -0.001,-6.16182 0.20203,-8.45672 1.20831,-13.62605 2.47864,-12.733 9.06231,-24.99018 18.4603,-34.36851 12.40886,-12.38291 28.47385,-19.32207 45.83759,-19.79923 5.5254,-0.15184 9.07643,0.10179 14.20044,1.01424 21.06415,3.75097 39.32339,17.56683 48.74331,36.88163 8.14895,16.70877 9.08241,35.87998 2.60231,53.44583 -5.76607,15.63035 -17.9622,29.2184 -32.99002,36.75514 -7.82636,3.92507 -16.34191,6.31485 -25.04689,7.0291 -2.97993,0.24451 -8.27533,0.29826 -10.05417,0.10205 z m 18.3051,-6.30132 c 7.07861,-1.50243 15.01309,-4.89743 21.15947,-9.05367 17.64514,-11.93182 27.86818,-31.01845 27.90217,-52.09396 0.0207,-12.8292 -3.71194,-25.06822 -10.80826,-35.43942 -3.38884,-4.95276 -8.39102,-10.3589 -12.90223,-13.9442 -4.57906,-3.63921 -11.45926,-7.52532 -16.93333,-9.56435 -18.2092,-6.78275 -38.33212,-4.86344 -54.89965,5.23628 -7.49538,4.56925 -14.70253,11.5441 -19.70102,19.06602 -2.05447,3.09163 -5.27738,9.49727 -6.60301,13.12366 -4.68546,12.81758 -4.85129,28.30835 -0.44245,41.33277 1.73174,5.11583 3.9528,9.75499 6.73417,14.06572 l 1.19183,1.84716 0.56914,-1.31799 c 1.85321,-4.2916 3.64631,-10.35383 4.62167,-15.6253 0.72085,-3.89595 1.48559,-10.45891 2.10956,-18.10415 0.83309,-10.20748 1.56196,-13.76529 3.72494,-18.18253 3.14474,-6.42218 8.76864,-10.97626 17.84794,-14.45276 6.15947,-2.35849 9.44898,-2.96799 14.79802,-2.74184 6.49989,0.27481 17.06297,2.90558 23.36813,5.81992 1.25075,0.57811 2.05706,0.8255 2.06729,0.63427 0.009,-0.17244 0.11463,-0.0754 0.23423,0.21565 0.26625,0.64787 7.1957,3.3192 14.75646,5.68866 5.91256,1.85294 8.32673,2.89637 11.33971,4.90114 4.01474,2.67131 6.10334,5.76177 6.38174,9.44294 0.18385,2.43089 -0.18039,4.1246 -1.49567,6.95476 -1.51211,3.25372 -3.75332,5.95436 -9.87175,11.89541 -8.36404,8.12156 -13.17927,13.462 -17.42486,19.32543 -4.98464,6.88411 -8.48686,14.16206 -9.88639,20.54488 -0.48092,2.19331 -0.83096,8.38451 -0.5567,9.84643 0.20575,1.09676 0.24273,1.10463 2.71885,0.57907 z m -10.28492,-95.57717 c 0.191,-0.0764 0.4192,-0.067 0.50712,0.0209 0.0879,0.0879 -0.0684,0.15045 -0.34726,0.13896 -0.30823,-0.0127 -0.37092,-0.0754 -0.15986,-0.15985 z m 2.76663,-0.2672 c 0.25743,-0.0671 0.61462,-0.0627 0.79375,0.01 0.17913,0.0725 -0.0315,0.12736 -0.46806,0.12197 -0.43656,-0.005 -0.58312,-0.0647 -0.32569,-0.13177 z m 12.8934,49.09068 c 7.13539,-1.15799 14.42872,-3.71546 20.69209,-7.25585 2.67217,-1.51045 6.97102,-4.55155 6.74853,-4.77405 -0.0704,-0.0704 -1.12386,0.51863 -2.34106,1.3089 -3.67104,2.38342 -8.02697,4.36402 -13.46204,6.12106 -6.20146,2.0048 -10.21564,2.64328 -16.6646,2.6506 -5.61961,0.006 -7.42149,-0.31889 -11.04636,-1.99407 -1.20054,-0.55481 -2.18281,-0.90018 -2.18281,-0.76748 0,0.1327 0.61803,0.72979 1.3734,1.32688 4.10193,3.24238 10.2107,4.46683 16.88285,3.38401 z m 16.99674,-15.61426 c 0.75415,-0.38639 1.32643,-1.76485 1.14164,-2.74988 -0.21761,-1.15993 -1.49585,-2.23276 -2.66026,-2.23276 -0.56401,0 -1.17768,0.2459 -1.69049,0.6774 -2.58962,2.17902 0.15981,5.86755 3.20911,4.30524 z m -40.88202,-2.90857 c 3.20375,-1.19368 5.45788,-3.22621 6.86983,-6.19451 1.97588,-4.15384 1.6813,-8.32958 -0.85745,-12.15436 -1.21909,-1.83664 -2.71464,-3.12514 -4.76379,-4.10428 -7.36644,-3.51987 -15.99606,0.97974 -17.38057,9.06249 -1.07263,6.26196 3.38382,12.64615 9.72516,13.93201 1.82579,0.37022 4.58621,0.13697 6.40682,-0.54135 z m 1.77593,-17.48605 -0.77711,-0.8599 0.8599,0.77711 c 0.80154,0.72437 0.98151,0.94268 0.7771,0.94268 -0.0455,0 -0.43249,-0.38695 -0.85989,-0.85989 z"
         id="path334"
         transform="translate(-5.0156733,23.645343)" /><path
         style="fill:#797979;stroke-width:0.264583"
         d="m -654.5651,479.62 c -2.45351,-1.1513 -10.8966,-3.94229 -13.22196,-4.37073 l -1.84489,-0.33991 1.18343,-0.35957 c 0.65088,-0.19776 2.43358,-0.42297 3.96155,-0.50046 4.24573,-0.21533 7.20826,0.63145 9.52184,2.72163 1.03803,0.9378 2.49299,3.12379 2.33636,3.51025 -0.0463,0.11432 -0.91768,-0.18322 -1.93633,-0.66121 z"
         id="path332"
         sodipodi:nodetypes="sscssscs"
         transform="translate(-5.0156733,23.645343)" /><path
         style="fill:#585858;stroke-width:0.264583"
         d="m -660.41826,522.63766 c -3.18632,-0.70748 -5.98053,-1.96131 -7.44525,-3.34086 l -1.25367,-1.18078 1.19063,0.64757 c 1.54013,0.83766 4.18044,1.67748 6.35,2.01978 2.56241,0.40428 9.36788,0.33161 12.71918,-0.13581 7.58079,-1.05734 17.03771,-4.48752 23.00474,-8.34419 2.4064,-1.55533 1.68302,-0.81301 -0.99345,1.01947 -5.07866,3.47716 -11.51046,6.36406 -18.06172,8.10694 -6.45136,1.71631 -11.46291,2.10659 -15.51046,1.20788 z m -20.01475,-21.42702 c -1.89589,-0.32729 -3.48856,-1.21235 -4.79356,-2.66383 -1.42452,-1.58441 -2.01457,-3.20524 -2.01457,-5.53394 0,-0.9668 0.18955,-2.31412 0.42123,-2.99404 0.54465,-1.59848 2.46656,-3.72411 4.18051,-4.62366 1.15524,-0.60631 1.67782,-0.70979 3.60035,-0.71296 1.92816,-0.003 2.46259,0.10119 3.74664,0.73177 2.81141,1.38063 4.45198,3.91791 4.65674,7.20201 0.33924,5.44118 -4.33119,9.53828 -9.79734,8.59465 z"
         id="path330"
         transform="translate(-5.0156733,23.645343)" /><path
         style="fill:#fefefe;stroke-width:0.264583"
         d="m -611.99538,508.39048 c -2.69581,-13.58848 -7.0054,-24.46186 -13.8162,-34.85915 -2.75964,-4.21285 -3.40933,-5.03345 -6.19324,-7.82254 -3.49299,-3.49948 -6.95219,-5.51674 -14.88007,-8.67741 -6.88666,-2.74555 -12.99856,-4.60375 -18.86792,-5.73639 -1.30969,-0.25274 -2.47952,-0.5471 -2.59963,-0.65414 -0.55443,-0.49409 5.99523,-0.84231 9.34651,-0.49691 8.72302,0.89904 14.3009,3.43467 22.70469,10.32125 12.42623,10.18281 16.60803,14.87834 20.96106,23.53608 2.366,4.70574 3.84147,9.551 4.63559,15.22271 0.33578,2.39817 0.4119,4.39312 0.3199,8.38448 -0.0664,2.88065 -0.2345,5.35133 -0.37357,5.4904 -0.16076,0.16076 -0.61137,-1.55422 -1.23712,-4.70838 z"
         id="path478"
         sodipodi:nodetypes="sssssssssssss"
         transform="translate(-5.0156733,23.645343)" /><path
         style="fill:#ffffff;stroke-width:0.264583"
         d="m -543.25789,551.03864 c -0.43656,-0.0643 -1.68672,-0.30471 -2.77813,-0.53414 -7.44189,-1.56441 -13.22831,-6.96474 -15.8448,-14.78756 -1.07917,-3.22651 -1.39372,-5.43539 -1.37466,-9.65332 0.0343,-7.5944 2.19509,-13.23369 6.90071,-18.00979 4.54952,-4.61765 9.72849,-6.55915 16.66875,-6.24878 3.83208,0.17137 5.91378,0.64664 8.86355,2.02363 4.97037,2.32025 8.24401,6.11875 9.50449,11.02834 0.76003,2.96031 1.02009,2.76477 -3.56529,2.68068 l -3.98267,-0.073 -0.61463,-1.51305 c -2.05643,-5.0624 -5.19281,-7.28449 -10.65865,-7.55155 -2.38919,-0.11673 -2.95664,-0.0527 -4.8994,0.55304 -3.77109,1.17577 -6.30478,3.4914 -8.15508,7.45322 -3.7867,8.10801 -2.22737,19.6214 3.34751,24.71653 2.30364,2.1054 4.42354,3.01868 7.76155,3.34377 6.8428,0.66642 12.06616,-3.75989 13.36479,-11.3254 l 0.17031,-0.99219 h 3.9517 3.9517 l -0.16381,1.25677 c -0.31101,2.3861 -1.15744,5.20434 -2.2263,7.41261 -0.85522,1.76688 -1.53871,2.68684 -3.37453,4.54199 -1.97081,1.99156 -2.66329,2.49873 -4.8121,3.52434 -1.38051,0.6589 -3.33287,1.39579 -4.33858,1.63752 -1.8358,0.44126 -6.21348,0.73497 -7.69643,0.51637 z m 140.75833,-0.11259 c -3.90083,-0.60133 -8.04617,-2.42335 -10.79335,-4.74406 -9.79008,-8.27025 -11.29792,-25.34446 -3.19598,-36.19015 1.87506,-2.51005 4.43039,-4.59782 7.37475,-6.02535 3.70366,-1.79568 5.13537,-2.09425 10.05416,-2.09675 5.06785,-0.003 6.69528,0.34324 10.60334,2.25307 2.24102,1.09517 2.98362,1.62957 4.66009,3.35356 2.48565,2.55611 4.1628,5.78998 4.80632,9.26755 l 0.1604,0.86676 -4.0181,-0.073 -4.0181,-0.073 -0.20671,-0.9963 c -0.97384,-4.69364 -6.04212,-8.13183 -11.98724,-8.13183 -6.7893,0 -11.55488,3.93359 -13.68998,11.29996 -0.52255,1.80287 -0.59712,2.65899 -0.59438,6.824 0.004,5.47192 0.2645,6.79761 2.05668,10.44984 2.84215,5.79197 8.41633,8.5033 15.21393,7.4002 2.78993,-0.45275 4.43392,-1.21901 6.23988,-2.90839 2.42469,-2.26818 3.57181,-4.71199 4.00185,-8.52551 l 0.17156,-1.52135 h -6.36904 -6.36904 v -3.04271 -3.04271 h 10.05417 10.05417 v 12.30313 12.30312 h -2.61322 -2.61322 l -0.59187,-2.57968 c -0.32554,-1.41883 -0.63545,-2.62689 -0.68871,-2.68457 -0.0533,-0.0577 -0.98963,0.74319 -2.08082,1.77971 -2.14467,2.03723 -4.65836,3.48328 -7.22117,4.15412 -1.91695,0.50178 -6.31951,0.70112 -8.40037,0.38035 z m -99.88021,-0.3695 c -6.81517,-1.43711 -11.28555,-5.98008 -12.7188,-12.92533 -2.07995,-10.07911 2.32261,-19.03831 10.71368,-21.80232 1.89393,-0.62385 2.55939,-0.70525 5.84158,-0.71451 4.26137,-0.012 6.04843,0.36589 8.96778,1.89644 3.54622,1.85919 6.18084,5.26788 7.61052,9.84654 0.53777,1.72225 0.61962,2.52611 0.61962,6.08542 0,3.55931 -0.0818,4.36317 -0.61962,6.08542 -1.86239,5.96444 -5.67822,9.77184 -11.28663,11.26167 -2.18821,0.58128 -6.97325,0.72107 -9.12813,0.26667 z m 8.05542,-6.35035 c 3.56405,-1.74372 5.6951,-5.95838 5.6951,-11.26341 0,-5.35193 -2.12583,-9.51318 -5.77558,-11.30552 -1.31297,-0.64479 -1.79521,-0.73302 -4.00619,-0.73302 -2.213,0 -2.69262,0.0879 -4.01122,0.73548 -3.81686,1.87439 -6.01317,6.58389 -5.70168,12.22602 0.39877,7.22301 4.33849,11.47688 10.32255,11.14566 1.52042,-0.0842 2.43719,-0.29646 3.47702,-0.80521 z m 135.81368,6.47204 c -5.31409,-0.96783 -9.11087,-3.75952 -11.31594,-8.32036 -1.49153,-3.085 -1.93691,-5.20299 -1.95202,-9.2828 -0.0149,-4.01738 0.35848,-5.71946 2.00234,-9.12812 1.40579,-2.91503 4.46188,-6.06186 7.15292,-7.36532 4.59621,-2.22626 10.31093,-2.11799 14.84334,0.28121 5.17113,2.73732 8.64818,9.09148 8.64818,15.8042 v 2.12782 h -12.7 -12.7 l 0.005,0.59532 c 0.01,1.2952 0.80878,4.28593 1.42136,5.32171 0.91269,1.54322 2.45233,2.95112 3.99801,3.65591 1.91241,0.872 6.02613,0.87174 7.9375,-5.3e-4 1.66745,-0.76094 2.9096,-1.94348 3.73225,-3.55317 l 0.64229,-1.25677 h 3.43513 c 4.07864,0 3.99256,-0.11668 2.3439,3.17725 -2.54419,5.08315 -7.21946,7.8915 -13.46086,8.08572 -1.52797,0.0476 -3.34282,-0.0164 -4.03299,-0.1421 z m 11.62051,-21.9892 c -0.33953,-2.86685 -2.18138,-5.59604 -4.72908,-7.00742 -1.26344,-0.69993 -1.64046,-0.77696 -3.78449,-0.77327 -1.92069,0.003 -2.64744,0.12368 -3.75755,0.62241 -2.64563,1.18855 -4.6768,4.05363 -5.22993,7.37713 l -0.18715,1.12448 h 8.92365 8.92365 z m 24.55935,21.85328 c -4.06559,-0.89651 -6.94782,-2.67424 -9.1249,-5.62811 -2.34786,-3.18562 -3.44281,-6.90889 -3.44281,-11.70684 0,-11.63827 7.06747,-18.82907 17.85456,-18.16613 4.66701,0.28682 7.63887,1.41658 10.32857,3.92645 1.81673,1.69524 2.83186,3.36941 3.42588,5.64997 0.69749,2.67792 0.92239,2.5043 -3.24372,2.5043 h -3.64929 l -0.30943,-1.1569 c -0.77898,-2.91257 -3.43757,-4.8833 -6.90872,-5.12122 -5.01229,-0.34355 -8.43999,2.35611 -9.68211,7.62566 -0.52192,2.21411 -0.52874,7.07128 -0.0127,9.05235 1.20007,4.6074 3.92385,7.20382 7.89123,7.52228 4.26198,0.34211 7.29358,-1.84034 8.64978,-6.22698 l 0.46646,-1.50873 3.6371,-0.0738 3.63709,-0.0738 -0.17581,1.09958 c -0.75415,4.71614 -3.77997,9.04723 -7.65175,10.95247 -3.23956,1.59415 -8.02244,2.13814 -11.6894,1.32953 z m 73.15676,0.0174 c -2.17921,-0.45782 -4.65206,-1.45885 -6.15039,-2.48974 -2.9014,-1.99621 -5.42275,-5.72878 -6.46515,-9.57094 -0.65545,-2.41588 -0.64844,-8.70162 0.0124,-11.1125 1.67746,-6.1199 6.026,-10.51723 11.80995,-11.94243 1.89163,-0.46611 7.62664,-0.46721 9.525,-0.002 2.45096,0.60085 5.57381,2.25009 7.17433,3.78891 2.02994,1.95168 3.23599,3.88988 4.25151,6.83243 0.83807,2.42839 0.86762,2.65696 0.87236,6.74688 0.004,3.70663 -0.0722,4.48022 -0.61471,6.2177 -1.81842,5.8237 -5.30315,9.4224 -10.75745,11.10937 -2.37167,0.73354 -7.176,0.94353 -9.65782,0.42214 z m 8.05596,-6.35351 c 3.58608,-1.75451 5.70291,-5.95337 5.70291,-11.31216 0,-5.33333 -2.11865,-9.45707 -5.7834,-11.25677 -1.3131,-0.64485 -1.79498,-0.733 -4.00619,-0.73282 -2.02623,1.6e-4 -2.7564,0.11234 -3.76623,0.57862 -1.64846,0.76118 -3.63189,2.77554 -4.51972,4.59018 -2.21303,4.52327 -1.85232,11.27008 0.80552,15.0673 1.18398,1.69156 3.1101,3.14525 4.80319,3.62514 1.90154,0.53896 5.05127,0.27843 6.76392,-0.55949 z m -233.48043,-11.26342 v -16.93333 h 3.77032 3.77031 l -0.0394,16.73489 c -0.0216,9.2042 -0.0514,16.8242 -0.0661,16.93334 -0.0147,0.10914 -1.69367,0.19843 -3.73096,0.19843 h -3.70417 z m 15.875,0 v -16.93333 h 3.5623 3.56229 l 0.0757,2.49628 0.0757,2.49629 1.19063,-1.48411 c 2.87595,-3.58487 7.37228,-5.15622 12.35118,-4.31642 4.37447,0.73785 7.35283,3.20903 8.55374,7.09716 0.49497,1.60251 0.52633,2.47479 0.52633,14.64075 v 12.93671 h -3.69197 -3.69197 l -0.0783,-12.36927 c -0.0769,-12.14756 -0.0887,-12.38869 -0.65807,-13.45265 -1.29251,-2.41544 -3.35419,-3.43727 -6.48764,-3.21547 -3.28398,0.23245 -5.69231,1.95515 -7.14893,5.11368 -0.59001,1.27936 -0.60174,1.49714 -0.67968,12.61278 l -0.0793,11.31093 h -3.69101 -3.69101 z m 162.45417,-6.61458 v -23.54792 h 3.70417 3.70416 v 13.36146 c 0,7.92378 0.0987,13.36146 0.2426,13.36146 0.13343,0 3.1922,-3.0361 6.79728,-6.74688 l 6.55465,-6.74687 4.51369,0.003 4.51366,0.003 -2.64584,2.58044 c -1.4552,1.41925 -4.34416,4.21603 -6.41992,6.21507 l -3.7741,3.63463 3.14597,4.69568 c 1.7303,2.58262 4.94986,7.40717 7.1546,10.72123 l 4.00863,6.02554 -4.54663,-0.0724 -4.54663,-0.0724 -5.00544,-7.9375 c -2.75299,-4.36563 -5.11717,-8.05228 -5.25372,-8.19256 -0.1573,-0.16159 -1.07106,0.56344 -2.49354,1.97853 l -2.24526,2.23359 v 6.02511 6.02512 h -3.70416 -3.70417 v -23.54735 z m -178.32917,-19.96878 v -3.57914 h 3.67331 c 3.28325,0 3.68411,0.0492 3.77504,0.46302 0.0559,0.25466 0.0968,1.83224 0.0908,3.50573 l -0.011,3.04271 -3.76406,0.0734 -3.76406,0.0734 z"
         id="path508" /></g></g></svg>
