<?xml version="1.0" encoding="UTF-8" standalone="no"?>
<!-- Created with Inkscape (http://www.inkscape.org/) -->

<svg
   width="711.4375mm"
   height="128.56546mm"
   viewBox="0 0 711.4375 128.56546"
   version="1.1"
   id="svg5"
   xml:space="preserve"
   inkscape:version="1.2.1 (9c6d41e410, 2022-07-14)"
   sodipodi:docname="CryptoDaily.svg"
   xmlns:inkscape="http://www.inkscape.org/namespaces/inkscape"
   xmlns:sodipodi="http://sodipodi.sourceforge.net/DTD/sodipodi-0.dtd"
   xmlns="http://www.w3.org/2000/svg"
   xmlns:svg="http://www.w3.org/2000/svg"><sodipodi:namedview
     id="namedview7"
     pagecolor="#ffffff"
     bordercolor="#000000"
     borderopacity="0.25"
     inkscape:showpageshadow="2"
     inkscape:pageopacity="0.0"
     inkscape:pagecheckerboard="0"
     inkscape:deskcolor="#d1d1d1"
     inkscape:document-units="mm"
     showgrid="false"
     inkscape:zoom="0.26110523"
     inkscape:cx="2060.4719"
     inkscape:cy="371.49773"
     inkscape:window-width="1920"
     inkscape:window-height="1009"
     inkscape:window-x="-8"
     inkscape:window-y="-8"
     inkscape:window-maximized="1"
     inkscape:current-layer="layer1" /><defs
     id="defs2" /><g
     inkscape:label="Layer 1"
     inkscape:groupmode="layer"
     id="layer1"
     transform="translate(-418.71491,-405.81652)"><g
       id="g4313"><path
         style="fill:#ffffff;stroke-width:0.264583"
         d="m 1056.4577,524.62588 -2.0506,-0.10933 v -5.80972 -5.80969 h 2.9947 c 4.0138,0 5.4712,-0.43537 7.1081,-2.12347 1.0017,-1.03296 1.3694,-1.69002 1.9182,-3.42736 0.3735,-1.18218 0.679,-2.37725 0.679,-2.65575 0,-0.27848 -4.6839,-13.7264 -10.4086,-29.88424 l -10.4086,-29.37793 h 8.2355 8.2355 l 6.0711,20.90208 c 3.339,11.49615 6.1399,20.90208 6.2241,20.90208 0.084,0 2.7655,-9.37617 5.9583,-20.83593 l 5.8051,-20.83594 7.7386,-0.0701 c 4.6779,-0.0424 7.7386,0.0278 7.7386,0.17742 0,0.25249 -18.9232,54.50468 -21.5941,61.90933 -4.3808,12.14552 -7.0613,15.54433 -13.1897,16.72416 -1.5311,0.29477 -8.0328,0.48556 -11.0552,0.32443 z m -99.24083,-21.68472 c -6.33781,-1.35962 -10.65515,-5.31601 -12.23346,-11.21069 -0.63514,-2.37204 -0.63112,-7.41828 0.008,-9.92187 1.61047,-6.30987 6.1145,-10.65033 12.77335,-12.30945 1.12969,-0.28149 5.68539,-1.05074 10.12378,-1.7095 8.8053,-1.30686 9.92946,-1.64269 11.04635,-3.29994 1.15681,-1.71651 0.61653,-5.30077 -1.02672,-6.81143 -2.20196,-2.02425 -7.972,-2.74643 -12.11458,-1.5162 -1.06622,0.31663 -1.77549,0.77513 -2.82945,1.82912 -1.2024,1.2024 -1.49244,1.69847 -1.99827,3.4177 l -0.59169,2.01116 h -7.08567 -7.08568 l 0.16381,-1.25678 c 0.47916,-3.67622 1.78601,-7.32943 3.58317,-10.01638 3.99973,-5.98011 11.18061,-8.59386 22.56893,-8.21483 11.44577,0.38095 18.1297,3.96462 20.83623,11.17155 0.58402,1.55514 0.59084,1.74575 0.74126,20.75185 0.17291,21.84562 0.10366,21.13502 2.26211,23.21274 0.87035,0.83781 1.16353,1.32115 1.16353,1.91823 v 0.7982 h -8.03492 -8.03492 l -0.41132,-1.52136 c -0.39428,-1.45838 -0.47583,-1.85502 -0.84579,-4.11482 l -0.16471,-1.00595 -2.14201,2.01504 c -3.47337,3.2675 -7.34867,5.20076 -11.90845,5.94072 -2.33479,0.37888 -6.62255,0.30199 -8.76273,-0.15711 z m 12.65589,-10.45795 c 4.99467,-1.06233 8.9254,-4.8727 9.66108,-9.36524 0.25368,-1.54924 0.37219,-8.85 0.14364,-8.85 -0.0644,0 -0.5134,0.23376 -0.99764,0.51948 -1.47124,0.86805 -3.03141,1.31324 -8.29858,2.36797 -5.78448,1.15832 -7.81798,1.93956 -9.33638,3.5868 -1.33768,1.45121 -1.75262,2.71579 -1.739,5.29971 0.013,2.46031 0.54859,3.76153 2.11403,5.13601 2.01043,1.76517 4.49013,2.1481 8.45285,1.30527 z m 32.41144,-18.7444 v -28.31042 h 7.4083 7.4084 v 28.31042 28.31041 h -7.4084 -7.4083 z M 877.93005,463.54803 v -38.25894 l 19.51302,0.10042 c 21.70597,0.1117 21.18908,0.0721 26.55562,2.03269 10.00908,3.6566 16.44031,13.07276 18.37119,26.8978 0.66921,4.79166 0.42275,13.78011 -0.51237,18.68385 -1.69643,8.89637 -5.17019,16.13378 -10.07859,20.99831 -3.35526,3.32528 -7.36851,5.59633 -12.25484,6.93486 l -2.56799,0.70345 -19.51302,0.0833 -19.51302,0.0833 z m 35.12616,24.87367 c 6.97468,-1.64444 11.49117,-7.86479 13.15839,-18.12248 0.53362,-3.283 0.61193,-10.85477 0.1478,-14.2875 -0.78436,-5.80103 -2.52143,-10.11487 -5.22854,-12.98455 -1.93363,-2.04975 -3.94888,-3.21355 -6.849,-3.95528 -1.84587,-0.47209 -2.94844,-0.52267 -11.39402,-0.52267 h -9.35037 v 25.13542 25.13541 l 8.92968,-0.004 c 6.93748,-0.003 9.29924,-0.091 10.58606,-0.39444 z m 113.30509,-24.86935 v -38.23229 h 7.4083 7.4084 v 38.23229 38.23229 h -7.4084 -7.4083 z m -24.0771,-32.01459 v -6.74687 h 7.4083 7.4084 v 6.74687 6.74688 h -7.4084 -7.4083 z"
         id="path529"
         sodipodi:nodetypes="ccccssssscccssscssssscsscssssssscccssssssscccsscssssssssssssscccccccccccssssssccccsssssscccssscccccccccccccccccc" /><path
         style="fill:#b3b3b3;stroke-width:0.264583;fill-opacity:1"
         d="m 675.32535,524.62532 -2.18281,-0.10792 v -5.81012 -5.81014 h 2.99469 c 3.49863,0 5.31734,-0.44186 6.65572,-1.61695 1.07888,-0.94726 2.08047,-2.90375 2.66241,-5.20062 l 0.42011,-1.6582 -9.44211,-26.65222 c -5.19316,-14.65871 -9.9006,-27.93383 -10.46098,-29.50025 l -1.01887,-2.84803 8.24582,0.0699 8.24582,0.0699 6.0289,20.74148 c 3.3159,11.40783 6.09125,20.80384 6.16745,20.88004 0.0762,0.0762 0.17802,0.0889 0.22627,0.0283 0.0483,-0.0607 2.69356,-9.48643 5.87846,-20.94619 l 5.79072,-20.83594 h 7.74759 c 4.26117,0 7.74758,0.0522 7.74758,0.11596 0,0.0638 -3.52262,10.21385 -7.82805,22.55573 -4.30543,12.34186 -9.37872,26.90461 -11.27399,32.36164 -3.86448,11.12697 -5.65662,15.50059 -7.46812,18.22548 -2.08801,3.14082 -4.19568,4.64651 -7.63448,5.45396 -1.74014,0.40862 -7.83821,0.6653 -11.50213,0.48416 z m 49.14636,-39.77402 v -39.42291 h 7.01146 7.01145 l 0.0147,4.16719 0.0147,4.16718 0.58062,-0.77337 c 0.31934,-0.42535 1.12555,-1.49691 1.79159,-2.38125 2.20707,-2.93043 5.48063,-5.11916 9.10777,-6.08953 2.27343,-0.60821 6.50879,-0.8121 9.07502,-0.43686 10.21497,1.49362 17.0977,8.92052 19.54607,21.09143 0.73584,3.65787 0.67545,12.47283 -0.1122,16.37708 -2.84724,14.11343 -10.90615,21.76624 -22.97019,21.81264 -6.81854,0.0262 -11.86761,-2.4008 -15.08957,-7.25342 -0.5324,-0.80184 -1.07179,-1.39374 -1.19867,-1.31535 -0.12689,0.0784 -0.23069,6.74352 -0.23069,14.81133 v 14.66876 h -7.27604 -7.27604 z m 32.06558,5.35144 c 5.29181,-2.60517 8.32703,-10.46901 7.40333,-19.18105 -0.17327,-1.63428 -0.50075,-3.67289 -0.72772,-4.53025 -1.76416,-6.66384 -6.50091,-10.31615 -12.81202,-9.87882 -6.16646,0.4273 -9.72274,4.00007 -11.2938,11.3462 -0.35418,1.65611 -0.46759,3.33251 -0.45368,6.70603 0.017,4.11202 0.0806,4.70209 0.74122,6.87768 1.49077,4.90916 4.08494,7.84961 8.09584,9.17652 1.12086,0.37081 2.12519,0.46633 4.37119,0.41569 2.69137,-0.0607 3.05153,-0.13245 4.67564,-0.932 z M 587.9467,503.73536 c -8.65418,-1.10244 -14.88441,-3.9347 -20.07647,-9.12675 -2.12525,-2.12524 -4.71591,-5.66539 -5.99934,-8.19812 -3.10171,-6.12092 -4.68846,-13.81924 -4.68418,-22.72585 0.0102,-21.31806 9.60032,-35.44447 26.79124,-39.46405 3.1857,-0.74488 11.03823,-0.95558 14.68438,-0.39401 9.89473,1.52397 17.65042,6.3911 22.37454,14.04129 2.07427,3.35904 3.51715,7.28604 4.06603,11.06625 l 0.18248,1.25677 h -7.94352 -7.94351 l -0.29823,-1.12448 c -0.4839,-1.82449 -2.20232,-5.25497 -3.36084,-6.70921 -4.26792,-5.35734 -14.24624,-6.96237 -21.20925,-3.41155 -5.85011,2.98329 -9.44582,8.97246 -10.75986,17.92208 -0.55714,3.79455 -0.39741,12.7349 0.28252,15.81274 1.27403,5.76718 3.17448,9.64904 6.22109,12.70717 3.32396,3.33656 6.93645,4.74409 12.19466,4.75142 5.18927,0.007 8.79962,-1.38661 12.06095,-4.65638 2.0669,-2.07227 3.61418,-4.82595 4.48029,-7.97356 l 0.45503,-1.65365 h 7.88751 7.8875 l -0.16395,0.8599 c -0.36638,1.92161 -1.76492,6.23832 -2.67188,8.24695 -4.51399,9.99713 -11.78981,15.94057 -22.22183,18.15248 -2.5249,0.53539 -9.9485,0.91189 -12.23536,0.62056 z m 248.84064,-0.75311 c -6.5912,-1.05109 -11.94314,-3.70221 -15.91514,-7.88369 -2.3506,-2.47456 -3.29123,-3.84786 -4.76155,-6.95171 -3.99888,-8.44174 -3.98897,-20.65986 0.0236,-29.13052 4.55525,-9.61624 14.05618,-15.17232 25.94473,-15.17232 12.08032,0 21.93404,5.96932 26.23434,15.8926 4.21997,9.73791 3.3237,23.34003 -2.08407,31.62863 -5.02579,7.70316 -13.92166,12.06791 -24.41485,11.97917 -1.60073,-0.0135 -3.86292,-0.17653 -5.02708,-0.36216 z m 9.2129,-12.44113 c 5.17802,-1.34872 8.48256,-5.64574 9.45472,-12.29434 0.41233,-2.82001 0.18746,-9.35829 -0.39621,-11.51943 -1.0481,-3.8807 -3.33928,-7.28208 -5.92669,-8.79838 -3.64885,-2.13839 -9.79075,-2.22906 -13.78786,-0.20357 -4.96661,2.51677 -7.77786,10.08335 -6.92331,18.63442 0.35333,3.53573 0.8527,5.47476 2.03208,7.89048 1.58848,3.2538 4.11316,5.34083 7.59498,6.27854 1.85591,0.49982 6.05557,0.50631 7.95229,0.0122 z m -47.70978,11.75083 c -6.10609,-0.77872 -9.301,-3.22093 -10.28584,-7.86252 -0.20418,-0.96231 -0.29749,-7.24852 -0.29749,-20.04218 v -18.64011 h -3.83646 -3.83646 v -5.15211 -5.15211 l 3.77031,-0.0734 3.77032,-0.0734 0.0701,-7.73907 0.0701,-7.73906 h 7.26805 7.26805 l 0.0701,7.73906 0.0701,7.73907 4.69635,0.0722 4.69636,0.0722 v 5.14716 5.14718 l -4.69636,0.0722 -4.69635,0.0723 v 16.40417 c 0,13.13042 0.0709,16.57207 0.35514,17.24549 0.60563,1.43475 1.76623,1.80451 5.66413,1.80451 h 3.37344 v 5.45089 5.45089 l -2.18282,0.16992 c -2.88458,0.22455 -9.15412,0.16171 -11.31093,-0.11335 z M 629.75087,473.47422 v -28.31041 h 7.14375 7.14375 v 4.89479 c 0,2.69213 0.0893,4.8945 0.19844,4.89415 0.10914,0 0.55562,-0.68468 0.99219,-1.52077 1.25489,-2.40333 3.67632,-5.48534 5.20858,-6.62953 2.92264,-2.18243 5.4034,-2.95138 9.54194,-2.95765 l 2.57968,-0.004 -2.6e-4,7.47448 -2.6e-4,7.47448 -3.76998,0.0153 c -3.97666,0.0164 -6.09729,0.39989 -8.2326,1.48924 -1.61422,0.82351 -3.70103,2.95224 -4.50628,4.59679 -1.42111,2.90227 -1.47254,3.63167 -1.47754,20.95217 l -0.005,15.94125 h -7.40834 -7.40833 z M 1112.129,434.83648 c -2.5527,-0.66864 -4.5749,-1.84757 -6.5401,-3.81277 -1.9974,-1.99737 -3.1476,-3.99551 -3.8252,-6.64486 -0.9154,-3.57893 -0.5132,-6.88311 1.2462,-10.23936 3.7727,-7.19708 12.9327,-9.87103 19.9243,-5.81622 2.893,1.67782 5.6469,5.09626 6.6432,8.24645 0.7157,2.26284 0.7707,5.87075 0.1233,8.08888 -1.1315,3.87622 -3.7563,7.12449 -7.2276,8.94416 -3.3474,1.75473 -6.7883,2.16512 -10.3441,1.23372 z m 7.4039,-1.83402 c 6.397,-1.97701 10.2306,-8.76931 8.5629,-15.17188 -1.7797,-6.83262 -8.8256,-11.08606 -15.4456,-9.3241 -8.5161,2.26665 -12.268,11.96228 -7.4897,19.35514 1.642,2.54056 4.6499,4.72778 7.3899,5.37372 1.8395,0.43364 5.1871,0.32199 6.9825,-0.23288 z m -8.868,-4.38251 c -0.2531,-0.65949 -0.1901,-15.817 0.068,-16.2233 0.1767,-0.2788 1.0768,-0.336 4.1631,-0.26459 3.3929,0.0785 4.0657,0.16632 4.8628,0.63459 1.776,1.04331 2.6326,3.13754 2.2398,5.4758 -0.1397,0.83106 -0.4739,1.40064 -1.2811,2.18281 -0.6007,0.58209 -1.3221,1.1855 -1.6031,1.34092 -0.4826,0.26693 -0.4203,0.4536 1.1255,3.37161 0.9001,1.69897 1.6365,3.26845 1.6365,3.48773 0,0.27847 -0.2764,0.3987 -0.9164,0.3987 -0.9089,0 -0.931,-0.0285 -2.6655,-3.43958 l -1.749,-3.43958 h -1.9568 -1.9569 l -0.074,3.37343 -0.074,3.37344 -0.8261,0.0804 c -0.5732,0.0558 -0.877,-0.0521 -0.9922,-0.35237 z m 8.0413,-8.72659 c 1.0341,-0.53478 1.3188,-1.14751 1.3117,-2.82414 -0.011,-2.50315 -0.955,-3.12625 -4.7392,-3.12625 h -2.6632 v 3.175 3.175 h 2.659 c 1.8541,0 2.8928,-0.12095 3.4317,-0.39961 z"
         id="path525"
         sodipodi:nodetypes="ccccssscsscccsssscssssssscccccccssssssssssccccsssssssssssssssssscccsssssscsscccsssssssssssssssssssssssscsscccccccccccccccccccssscccsccccccscsssccccsscccccsssssssssssssssccssssssssscccccsccscscccss" /><path
         d="m 482.96776,532.17726 c 32.4838,-18.06239 51.2032,-45.2817 55.2552,-80.34487 0.9087,-7.86317 1.0085,-20.8545 0.2131,-27.73011 l -0.193,-1.66865 -6.6146,-2.86375 -6.6146,-2.86375 -0.1833,0.82823 c -0.1008,0.45554 -0.4341,2.13147 -0.7408,3.72431 -3.2515,16.8914 -15.4477,33.53369 -33.0626,45.11549 -1.9712,1.29612 -3.8116,2.52105 -4.0897,2.72209 -0.4942,0.3573 -0.478,0.57194 0.7214,9.55276 1.1739,8.79024 1.2087,9.23285 0.8046,10.24274 -0.2948,0.73675 -0.7593,1.25299 -1.5384,1.70952 -1.113,0.65229 -1.1352,0.65404 -8.3158,0.65404 -7.8865,0 -8.0727,-0.0317 -9.3909,-1.5983 -0.8686,-1.03222 -0.875,-1.80459 -0.064,-7.66212 0.3324,-2.40109 0.59,-4.39028 0.5723,-4.42041 -0.018,-0.0301 -1.9734,0.60336 -4.3462,1.40774 -10.3903,3.52242 -21.8535,5.70198 -32.1108,6.10542 -2.292,0.0901 -4.1672,0.26757 -4.1672,0.39427 0,0.82891 4.1238,8.04281 7.0815,12.38798 3.6301,5.33287 6.9847,9.33279 12.2185,14.56885 6.6203,6.62321 13.1861,11.80229 21.2495,16.76158 2.964,1.82298 8.9292,5.18088 9.205,5.18166 0.08,2.3e-4 1.9296,-0.9919 4.1108,-2.20472 z"
         style="fill:#b3b3b3;stroke-width:0.264583;fill-opacity:1"
         id="path636" /><path
         d="m 425.3889,477.58424 c -4.9924,-13.54105 -7.3238,-29.83044 -6.5176,-45.53706 0.1691,-3.2948 0.381,-6.60805 0.4708,-7.36278 l 0.1633,-1.37224 7.5884,-3.31184 7.5883,-3.31184 1.7034,0.53735 c 5.5298,1.74447 12.4339,2.15252 17.7106,1.04672 4.4374,-0.92991 9.0724,-2.99818 12.6698,-5.65363 1.864,-1.37589 4.9814,-4.35232 5.9833,-5.71268 l 0.7938,-1.07772 5.0842,-0.006 5.0843,-0.006 3.1178,3.14865 c 3.4582,3.4924 6.333,5.53722 10.157,7.22469 6.1344,2.707 13.5863,3.412 20.6024,1.94911 1.0758,-0.22432 1.98,-0.37997 2.0093,-0.34588 0.029,0.0341 -0.2352,1.49073 -0.5876,3.23698 -2.4293,12.03574 -9.5734,23.97321 -19.9981,33.41558 -2.5365,2.2975 -6.778,5.69548 -8.4929,6.80385 l -0.7506,0.48517 0.8263,-1.3023 c 1.9302,-3.04223 2.4909,-7.79515 1.3275,-11.25258 -2.7588,-8.19839 -12.0354,-11.90377 -19.6461,-7.8473 -3.0764,1.63968 -5.7895,5.08263 -6.7001,8.50234 -0.542,2.03546 -0.4683,5.60681 0.1575,7.6328 0.685,2.21789 2.1941,4.52136 4.0401,6.16662 l 1.4821,1.32101 -0.5058,3.56969 c -0.2782,1.96334 -0.5078,3.64247 -0.5102,3.73142 -0.012,0.42502 -9.3125,3.58673 -14.6888,4.99324 -8.5041,2.22478 -19.217,3.68601 -27.1593,3.70449 l -1.7594,0.004 z"
         style="fill:#ffffff;stroke-width:0.264583"
         id="path669" /></g></g></svg>
