<?xml version="1.0" encoding="UTF-8" standalone="no"?>
<!-- Created with Inkscape (http://www.inkscape.org/) -->

<svg
   width="312.04233mm"
   height="42.834656mm"
   viewBox="0 0 312.04233 42.834656"
   version="1.1"
   id="svg5"
   xml:space="preserve"
   inkscape:version="1.2.1 (9c6d41e410, 2022-07-14)"
   sodipodi:docname="Bitcoinist.svg"
   xmlns:inkscape="http://www.inkscape.org/namespaces/inkscape"
   xmlns:sodipodi="http://sodipodi.sourceforge.net/DTD/sodipodi-0.dtd"
   xmlns="http://www.w3.org/2000/svg"
   xmlns:svg="http://www.w3.org/2000/svg"><sodipodi:namedview
     id="namedview7"
     pagecolor="#ffffff"
     bordercolor="#000000"
     borderopacity="0.25"
     inkscape:showpageshadow="2"
     inkscape:pageopacity="0.0"
     inkscape:pagecheckerboard="0"
     inkscape:deskcolor="#d1d1d1"
     inkscape:document-units="mm"
     showgrid="false"
     inkscape:zoom="0.73851712"
     inkscape:cx="689.21896"
     inkscape:cy="112.38737"
     inkscape:window-width="1920"
     inkscape:window-height="1009"
     inkscape:window-x="-8"
     inkscape:window-y="-8"
     inkscape:window-maximized="1"
     inkscape:current-layer="layer1" /><defs
     id="defs2" /><g
     inkscape:label="Layer 1"
     inkscape:groupmode="layer"
     id="layer1"
     transform="translate(-1835.0001,-703.18818)"><path
       style="fill:#bfe3fd;stroke-width:1.15916"
       d="m 1700.3536,589.82226 c 1.1157,-0.29156 2.9414,-0.29156 4.0571,0 1.1156,0.29156 0.2028,0.5301 -2.0286,0.5301 -2.2313,0 -3.1442,-0.23854 -2.0285,-0.5301 z m 664.2773,-67.59115 c 0,-4.14398 0.2104,-5.83924 0.4675,-3.76725 0.2572,2.07199 0.2572,5.46252 0,7.53451 -0.2571,2.07199 -0.4675,0.37673 -0.4675,-3.76726 z m -19.8936,0 c 0,-1.59383 0.2631,-2.24586 0.5847,-1.44894 0.3215,0.79692 0.3215,2.10097 0,2.89789 -0.3216,0.79692 -0.5847,0.14489 -0.5847,-1.44895 z"
       id="path778" /><path
       style="fill:#8fd0fd;stroke-width:1.15916"
       d="m 2366.3609,529.55337 c 0.8367,-0.33485 1.8365,-0.29367 2.2217,0.0915 0.3852,0.38518 -0.2995,0.65915 -1.5214,0.60881 -1.3503,-0.0556 -1.625,-0.33029 -0.7003,-0.70032 z m 12.3521,-0.9469 c -0.2988,-0.9563 -0.7877,-2.52116 -1.0864,-3.47747 -0.2988,-0.9563 -0.038,-1.73873 0.5796,-1.73873 0.6175,0 1.1227,1.2658 1.1227,2.81289 0,1.70424 0.7995,3.02183 2.0286,3.34301 1.9011,0.49681 1.8988,0.53855 -0.036,0.66457 -1.1357,0.0739 -2.3094,-0.64797 -2.6081,-1.60427 z m -11.5552,-13.33029 c -1.8899,-0.81212 -1.9561,-1.01127 -0.3582,-1.07768 1.0781,-0.0448 2.2825,0.44015 2.6765,1.07768 0.8238,1.33289 0.7835,1.33289 -2.3183,0 z m 13.1129,-0.79183 c 0.8368,-0.33485 1.8366,-0.29367 2.2218,0.0915 0.3851,0.38518 -0.2995,0.65914 -1.5214,0.60881 -1.3504,-0.0556 -1.625,-0.33029 -0.7004,-0.70032 z"
       id="path776" /><g
       id="g2071"><path
         style="fill:#b3b3b3;fill-opacity:1;stroke-width:0.264583"
         d="m 1840.1446,740.79746 c -2.3727,-2.48439 -4.5107,-4.5795 -4.7511,-4.6558 -0.4014,-0.12732 -0.4315,-1.46498 -0.3671,-16.28152 l 0.07,-16.14279 h 21.1626 21.1627 l -1e-4,20.70364 v 20.70365 l -16.4816,0.095 -16.4817,0.095 z m 16.3431,-1.83064 c 0.1381,-0.25811 0.3991,-1.18553 0.5799,-2.06094 l 0.3288,-1.59166 2.4494,0.10713 c 2.9416,0.12866 4.4634,-0.34022 5.7091,-1.75903 1.1463,-1.30551 1.5482,-2.4179 1.5482,-4.28503 0,-1.80498 -0.4342,-2.86433 -1.4891,-3.63273 l -0.7101,-0.51729 0.8418,-0.49724 c 1.004,-0.59308 2.1512,-2.73963 2.1512,-4.02517 0,-1.88098 -1.4803,-3.74329 -3.8239,-4.81096 -0.6441,-0.29342 -1.2246,-0.6231 -1.2899,-0.73263 -0.065,-0.10952 0.1029,-1.03257 0.3739,-2.05121 0.2709,-1.01865 0.4957,-1.92725 0.4996,-2.01912 0.01,-0.17873 -2.0839,-0.75901 -2.7356,-0.75901 -0.3764,0 -0.5218,0.344 -1.2123,2.86847 -0.292,1.06746 -0.3644,1.13609 -1.0234,0.97068 -0.3901,-0.0979 -0.7295,-0.19825 -0.7542,-0.22299 -0.025,-0.0247 0.1356,-0.69968 0.3563,-1.49985 0.7504,-2.72068 0.785,-2.52871 -0.5223,-2.89473 -1.8735,-0.52457 -2.1,-0.3826 -2.4939,1.56377 -0.1902,0.93975 -0.4598,1.82257 -0.599,1.96182 -0.239,0.23899 -0.7081,0.14766 -3.3306,-0.64843 -1.5874,-0.48187 -1.8502,-0.355 -2.3278,1.12368 -0.2434,0.75368 -0.3439,1.46899 -0.2233,1.58957 0.1206,0.12059 0.7363,0.36895 1.3683,0.55192 1.4896,0.43129 1.7882,0.90737 1.3918,2.2195 -0.2853,0.94453 -2.3301,8.98155 -2.6369,10.36428 -0.1239,0.55818 -0.267,0.6122 -1.491,0.56248 -1.8925,-0.0769 -2.0153,-0.048 -2.0164,0.47368 -6e-4,0.25467 -0.2387,0.85286 -0.5292,1.32932 -0.2905,0.47645 -0.5282,0.92589 -0.5282,0.99873 0,0.30253 3.7777,1.44227 4.7805,1.44227 0.5689,0 0.5595,0.15311 -0.1661,2.72073 -0.4295,1.51941 -0.2783,2.04177 0.5907,2.04177 0.3578,0 0.8936,0.13009 1.1907,0.28909 0.391,0.20925 0.6203,0.20898 0.8303,-10e-4 0.3301,-0.33005 0.9468,-2.50258 0.9643,-3.39695 0.013,-0.67284 0.6989,-0.80243 1.4,-0.26458 0.3828,0.29364 0.3902,0.44707 0.066,1.36822 -0.2007,0.57063 -0.442,1.49336 -0.5361,2.05053 -0.1577,0.93355 -0.1226,1.01334 0.4474,1.01707 0.3402,0.002 0.7972,0.11953 1.0155,0.26059 0.6163,0.39828 1.2794,0.31101 1.5554,-0.20469 z m -1.072,-8.09497 c -0.6801,-0.16461 -1.3153,-0.37888 -1.4116,-0.47616 -0.1533,-0.15473 0.8039,-4.53918 1.0999,-5.03868 0.062,-0.10365 0.3754,-0.0803 0.6976,0.052 0.3222,0.13223 1.292,0.43496 2.155,0.67275 3.2806,0.9039 4.4382,3.59188 2.0863,4.84449 -0.7064,0.37621 -2.9578,0.34976 -4.6272,-0.0544 z m 2.2947,-8.27779 c -0.291,-0.0615 -0.7971,-0.16906 -1.1245,-0.23893 -0.6434,-0.13729 -0.7626,-0.73506 -0.3505,-1.75815 0.1346,-0.33427 0.3995,-1.17579 0.5885,-1.87005 0.2616,-0.96041 0.4403,-1.22203 0.7474,-1.09398 0.222,0.0926 0.7609,0.2596 1.1974,0.37118 2.3323,0.59614 3.3073,1.40968 3.3073,2.75964 0,1.62696 -1.7861,2.37578 -4.3656,1.83029 z m 263.4023,-13.44103 c -0.4272,-0.51484 -0.1263,-0.93764 0.6675,-0.93764 0.7471,0 0.9223,0.89563 0.2273,1.16232 -0.5521,0.21184 -0.5273,0.21805 -0.8948,-0.22468 z m 5.5467,0.19909 c -0.2183,-0.0794 -0.7243,-0.44949 -1.1245,-0.82236 -0.9715,-0.90519 -1.0233,-2.71965 -0.1103,-3.86071 0.513,-0.64107 0.8568,-0.78828 2.0774,-0.88951 1.4581,-0.12091 2.7539,0.26373 2.4647,0.73162 -0.081,0.13089 -0.743,0.16739 -1.4714,0.0811 -1.1441,-0.13551 -1.4131,-0.0734 -1.977,0.45633 -0.906,0.8511 -0.8852,2.18278 0.047,3.04712 0.7382,0.68411 1.9004,0.85288 2.4042,0.3491 0.3249,-0.32491 1.129,-0.1358 1.129,0.26553 0,0.56289 -2.417,1.01384 -3.4395,0.64175 z m 7.0114,-0.003 c -0.291,-0.07 -0.8566,-0.43568 -1.2568,-0.81256 -0.5957,-0.56106 -0.7276,-0.91332 -0.7276,-1.9439 0,-1.91008 0.7716,-2.66973 2.8656,-2.82119 1.5683,-0.11344 1.6534,-0.0863 2.5534,0.81367 2.3177,2.3177 -0.036,5.58184 -3.4346,4.76398 z m 2.4604,-1.14153 c 0.8525,-0.79416 0.9849,-1.6914 0.3983,-2.69947 -0.4081,-0.7014 -0.6943,-0.88096 -1.5128,-0.949 -1.3729,-0.11414 -2.2719,0.71382 -2.2719,2.09234 0,1.74989 2.1286,2.72801 3.3864,1.55613 z m 3.7573,-1.73088 c 0,-2.71056 0.018,-2.79393 0.5683,-2.71198 0.3126,0.0465 0.6995,0.32071 0.8599,0.60935 0.8068,1.45195 1.8068,2.78229 2.0902,2.78064 0.175,-10e-4 0.7389,-0.74515 1.2534,-1.65364 0.7165,-1.26553 1.0755,-1.6518 1.5353,-1.6518 0.5812,0 0.6017,0.0849 0.6522,2.71223 0.051,2.65182 0.039,2.71222 -0.5431,2.71198 -0.5452,-2.3e-4 -0.5953,-0.12282 -0.5953,-1.45546 0,-1.92948 -0.5399,-1.92682 -1.6356,0.008 -0.5251,0.92734 -1.1369,1.13479 -1.3795,0.46778 -0.3832,-1.05325 -1.0036,-1.93104 -1.365,-1.93104 -0.2872,0 -0.3824,0.36249 -0.3824,1.45521 0,1.27882 -0.064,1.45521 -0.5292,1.45521 -0.4958,0 -0.5292,-0.17639 -0.5292,-2.79653 z"
         id="path820"
         sodipodi:nodetypes="cscccccccccsscsssscssscscssscssssssssssssssssssscssscssssscsssssssssssssssscsssssscssccsssssssssssssssssssssssssss" /><path
         style="fill:#ffffff;fill-opacity:1;stroke-width:0.264583"
         d="m 1992.6911,733.37421 c -4.5797,-0.51351 -8.0757,-2.3427 -10.7627,-5.63134 -2.9656,-3.62974 -3.946,-8.3757 -2.7284,-13.20794 0.8934,-3.54591 2.6545,-6.10454 5.6432,-8.19923 2.1155,-1.48261 3.9515,-1.95998 6.3014,-2.58093 1.0688,-0.28242 2.195,-0.41452 2.5511,-0.45427 1.0514,-0.11737 1.3366,-0.0586 2.2796,-0.008 0.5837,0.125 0.902,0.10432 1.9208,0.3313 3.2894,0.73285 7.2168,2.39361 9.5868,5.08617 1.2263,1.39309 2.6079,4.02244 3.0045,5.71754 0.6448,2.75659 0.4886,6.98951 -0.3345,9.06454 -0.7646,1.92736 -1.2844,2.83588 -2.4524,4.28572 -2.4891,3.0897 -6.2766,5.12365 -10.2469,5.5028 -0.9459,0.0903 -1.9579,0.19836 -2.249,0.24008 -0.291,0.0417 -1.4221,-0.0243 -2.5135,-0.14666 z m 5.5553,-6.97103 c 1.8366,-0.93069 2.9781,-2.01195 3.6839,-3.4896 0.3346,-0.70037 0.7143,-1.48013 0.8439,-1.73282 0.1296,-0.25269 0.2339,-1.44331 0.2317,-2.64584 -0.01,-3.11404 -0.7244,-4.89891 -2.7092,-6.72846 -1.9917,-1.83586 -5.4977,-2.72402 -7.527,-1.90679 -4.2567,1.71418 -6.164,4.31733 -6.164,8.41277 0,3.65944 1.5771,6.42006 4.5073,7.88977 1.4883,0.74647 1.9778,0.85811 3.7697,0.85989 1.6744,0.002 2.3031,-0.12151 3.3637,-0.65892 z m 76.201,6.95281 c -2.8826,-0.27666 -4.6402,-0.74827 -7.4745,-2.00568 -1.4653,-0.65005 -1.8436,-1.17014 -1.2991,-1.78585 0.1223,-0.13825 0.6202,-1.23362 1.1066,-2.43417 0.4863,-1.20054 0.9748,-2.18281 1.0855,-2.18281 0.1106,0 0.595,0.2255 1.0762,0.50112 2.0215,1.15767 5.9126,2.14471 8.4549,2.14471 2.3973,0 3.791,-0.42046 4.6066,-1.38979 0.7294,-0.86684 0.7799,-1.20158 0.3297,-2.18947 -0.504,-1.10618 -1.9319,-1.69344 -7.0922,-2.9169 -5.135,-1.21746 -7.5817,-2.6268 -8.7036,-5.01344 -0.7904,-1.68159 -0.7952,-5.50664 -0.01,-7.04807 1.4153,-2.77418 4.4623,-4.29656 7.9617,-5.27965 1.0678,-0.29998 2.1175,-0.53592 2.4008,-0.5323 0.8466,0.0108 1.8338,-0.0913 2.8172,0.009 0.5404,0.0551 1.9092,0.37353 3.0734,0.53 2.1439,0.28813 4.941,1.12739 5.7646,1.72961 0.4007,0.29303 0.4095,0.41385 0.08,1.09493 -0.2039,0.42106 -0.7446,1.67493 -1.2016,2.78638 l -0.8308,2.02082 -2.1377,-0.9016 c -2.3254,-0.98073 -5.5741,-1.40459 -7.9894,-1.04239 -1.4441,0.21655 -3.0774,1.61508 -3.0774,2.63504 0,1.47357 1.8198,2.53839 5.6886,3.32861 2.2721,0.4641 5.6082,1.4214 6.6506,1.90841 2.9764,1.39063 4.4476,3.6489 4.4503,6.83134 0,4.19836 -2.1785,6.85692 -7.1565,8.71933 -1.141,0.42687 -6.1937,0.71144 -8.5746,0.48293 z m -112.0511,-0.11201 c -2.8895,-0.45721 -6.3397,-2.34086 -8.437,-4.60621 -2.8194,-3.04528 -3.7091,-5.47591 -3.7234,-10.17258 -0.013,-4.32293 0.4646,-5.91297 2.7935,-9.29785 1.6906,-2.45724 5.7076,-4.83251 9.116,-5.39036 1.0111,-0.16549 2.2244,-0.36315 2.7749,-0.43493 0.5784,-0.0754 1.644,-0.085 2.1005,-0.0527 0.7596,0.0538 1.117,0.0272 1.9901,0.24474 1.8628,0.46406 3.8895,0.93516 5.1594,1.63819 1.4515,0.80363 3.72,2.5753 3.9008,3.04663 0.1171,0.305 -0.5132,1.05356 -2.1987,2.61147 l -2.3627,2.18392 -0.6619,-0.60543 c -3.4622,-3.16687 -7.6079,-3.64321 -11.2634,-1.29414 -1.9727,1.26762 -2.9273,2.72487 -3.5478,5.41553 -0.5961,2.58471 0.2051,5.8286 1.9209,7.77792 1.6957,1.92634 3.6115,2.748 6.4076,2.748 2.5959,0 4.2534,-0.63816 6.005,-2.31211 l 0.978,-0.93459 1.8002,1.58444 c 0.99,0.87145 2.068,1.8088 2.3954,2.08301 0.3274,0.27422 0.5953,0.63967 0.5953,0.81212 0,0.51967 -2.5244,2.62265 -4.0219,3.35049 -2.7698,1.34625 -3.6365,1.53907 -7.3552,1.63647 -1.9645,0.0515 -3.929,0.037 -4.3656,-0.032 z m -79.9151,-0.42515 c -0.07,-0.1819 -0.096,-6.7601 -0.058,-14.61823 l 0.069,-14.28749 8.8636,0.0177 c 9.3965,0.0188 10.4699,0.12822 13.1368,1.3393 4.563,2.07212 5.4391,8.02491 1.66,11.27934 -1.3129,1.1307 -1.6427,1.78344 -0.9009,1.78344 0.5185,0 2.2102,1.08008 2.9548,1.88657 2.2712,2.45979 2.2207,7.3242 -0.1006,9.69207 -2.5959,2.64788 -5.93,3.23802 -18.2938,3.23802 -5.5194,0 -7.2338,-0.0773 -7.3308,-0.33073 z m 16.9136,-5.53447 c 0.5989,-0.16992 1.4164,-0.60892 1.8166,-0.97554 0.6143,-0.56274 0.7276,-0.88003 0.7276,-2.03662 0,-1.67375 -0.6509,-2.62623 -2.0625,-3.0183 -0.5391,-0.14972 -2.9745,-0.27288 -5.412,-0.27369 l -4.4317,-0.001 v 2.98979 c 0,1.97262 0.108,3.09781 0.3175,3.30729 0.4222,0.42228 7.5623,0.42903 9.0445,0.009 z m -1.5922,-11.77212 c 1.5313,-0.25296 2.8135,-1.64016 2.8135,-3.0439 0,-0.89166 -0.1608,-1.23604 -0.9045,-1.93744 -0.5486,-0.51742 -1.3033,-0.91891 -1.9182,-1.02051 -1.2976,-0.21441 -6.7917,-0.22393 -7.3421,-0.0127 -0.3459,0.13274 -0.4185,0.65674 -0.4185,3.02066 0,2.04049 0.095,2.8983 0.3307,2.99352 0.4873,0.19661 6.2495,0.19693 7.4391,5.2e-4 z m 15.9023,17.31389 c -0.071,-0.18591 -0.099,-6.7674 -0.061,-14.62553 l 0.069,-14.28749 h 3.8364 3.8365 v 14.55208 14.55208 l -3.7758,0.0734 c -2.8747,0.0559 -3.8067,-0.007 -3.9052,-0.26458 z m 19.1822,0.125 c 0,-0.10914 0,-5.15032 0.01,-11.20262 0.01,-6.05229 -0.06,-11.20174 -0.1523,-11.44322 -0.1478,-0.38509 -0.719,-0.43906 -4.6468,-0.43906 h -4.4783 l 0.075,-2.97656 0.075,-2.97656 h 12.8323 12.8323 l 0.075,2.97012 0.075,2.97013 -4.4403,0.0726 -4.4404,0.0726 -0.069,11.57552 -0.069,11.57552 h -3.8337 c -2.1085,0 -3.8373,-0.0893 -3.8418,-0.19843 z m 80.5657,-0.125 c -0.071,-0.18591 -0.099,-6.7674 -0.061,-14.62553 l 0.069,-14.28749 h 3.8364 3.8365 v 14.55208 14.55208 l -3.7758,0.0734 c -2.8746,0.0559 -3.8067,-0.007 -3.9052,-0.26458 z m 11.3743,-0.007 c -0.07,-0.1819 -0.096,-6.76011 -0.058,-14.61823 l 0.069,-14.2875 3.086,-0.0743 3.086,-0.0743 1.4119,1.6328 c 1.8014,2.0833 3.4181,3.98979 3.9259,4.62975 1.5234,1.91985 2.5344,3.16564 2.6608,3.27885 0.081,0.0728 1.2509,1.47174 2.5993,3.10885 1.3485,1.63711 2.6215,2.97656 2.8289,2.97656 0.318,10e-6 0.3772,-1.22484 0.3772,-7.8052 v -7.80521 h 3.7042 c 2.0373,0 3.7048,0.0893 3.7055,0.19844 8e-4,0.10914 0,6.68734 0.01,14.61823 l 0.01,14.41979 -2.7215,0.0771 c -1.4969,0.0424 -2.9596,0.0159 -3.2507,-0.059 -0.291,-0.0749 -1.1187,-0.86921 -1.8392,-1.76513 -0.7205,-0.89592 -1.4387,-1.76232 -1.5961,-1.92534 -0.4176,-0.43259 -7.2269,-8.70229 -8.4854,-10.30534 -1.9921,-2.53739 -1.9699,-2.60813 -1.9699,6.28539 v 7.8246 h -3.7125 c -2.726,0 -3.7461,-0.0879 -3.839,-0.33073 z m 30.8987,-14.2875 0.068,-14.61822 3.9026,-0.0732 3.9026,-0.0732 v 14.69145 14.69144 h -3.971 -3.9709 l 0.068,-14.61823 z m 45.3811,3.04977 -0.069,-11.58258 -4.4404,-0.0726 -4.4404,-0.0726 0.075,-2.97013 0.075,-2.97012 h 12.8323 12.8323 l 0.075,2.97656 0.075,2.97656 h -4.5065 c -4.1141,0 -4.507,0.0403 -4.5108,0.46302 0,0.25466 -0.032,5.46365 -0.066,11.57552 l -0.062,11.1125 -3.8999,0.0732 -3.8998,0.0732 z"
         id="path812"
         sodipodi:nodetypes="cssssscsssssssccssscsssscscsssssssssscssssssscssssscsccssssssssssscsssssscssssssssscssssssssscsssccssccsssssscsssscccccssscscscccccccccccsccsscccccssscscccsssssscssccsssssscsccccccccccccccccccccccscscccc" /></g></g></svg>
