<?xml version="1.0" encoding="UTF-8" standalone="no"?>
<!-- Created with Inkscape (http://www.inkscape.org/) -->

<svg
   width="647.08514mm"
   height="111.53811mm"
   viewBox="0 0 647.08514 111.53811"
   version="1.1"
   id="svg5"
   xml:space="preserve"
   inkscape:version="1.2.1 (9c6d41e410, 2022-07-14)"
   sodipodi:docname="CoinMarketCap.svg"
   xmlns:inkscape="http://www.inkscape.org/namespaces/inkscape"
   xmlns:sodipodi="http://sodipodi.sourceforge.net/DTD/sodipodi-0.dtd"
   xmlns="http://www.w3.org/2000/svg"
   xmlns:svg="http://www.w3.org/2000/svg"><sodipodi:namedview
     id="namedview7"
     pagecolor="#ffffff"
     bordercolor="#000000"
     borderopacity="0.25"
     inkscape:showpageshadow="2"
     inkscape:pageopacity="0.0"
     inkscape:pagecheckerboard="0"
     inkscape:deskcolor="#d1d1d1"
     inkscape:document-units="mm"
     showgrid="false"
     inkscape:zoom="0.26110523"
     inkscape:cx="1455.3519"
     inkscape:cy="233.62228"
     inkscape:window-width="1920"
     inkscape:window-height="1009"
     inkscape:window-x="-8"
     inkscape:window-y="-8"
     inkscape:window-maximized="1"
     inkscape:current-layer="layer1" /><defs
     id="defs2" /><g
     inkscape:label="Layer 1"
     inkscape:groupmode="layer"
     id="layer1"
     transform="translate(-1066.9551,-595.24242)"><g
       id="g742"><path
         style="fill:#ffffff;stroke-width:0.264583"
         d="m 1120.807,706.67624 c 0.4697,-0.0584 1.3032,-0.0594 1.8521,-0.002 0.549,0.0573 0.1647,0.1051 -0.854,0.10627 -1.0186,10e-4 -1.4678,-0.0457 -0.9981,-0.10414 z m -2.8879,-10.30854 c 0.191,-0.0764 0.4192,-0.067 0.5071,0.0209 0.088,0.0879 -0.068,0.15045 -0.3473,0.13896 -0.3082,-0.0127 -0.3709,-0.0754 -0.1598,-0.15985 z m 6.8791,0 c 0.191,-0.0764 0.4192,-0.067 0.5071,0.0209 0.088,0.0879 -0.068,0.15045 -0.3472,0.13896 -0.3082,-0.0127 -0.3709,-0.0754 -0.1599,-0.15985 z m 32.858,-3.35874 c 0,-0.0549 0.2083,-0.2633 0.463,-0.46302 0.4196,-0.3291 0.429,-0.31975 0.1,0.0999 -0.3457,0.44073 -0.5629,0.58089 -0.5629,0.36312 z m -74.6463,-2.47979 c -0.3291,-0.41964 -0.3197,-0.429 0.1,-0.0999 0.4407,0.34564 0.5809,0.56291 0.3631,0.56291 -0.055,0 -0.2633,-0.20836 -0.463,-0.46302 z m 75.9354,-6.08541 c -0.3291,-0.41965 -0.3197,-0.42901 0.1,-0.0999 0.4408,0.34564 0.5809,0.56292 0.3632,0.56292 -0.055,0 -0.2633,-0.20836 -0.4631,-0.46302 z m 119.1675,-5.012 c 0.2574,-0.0671 0.6146,-0.0627 0.7937,0.01 0.1791,0.0725 -0.032,0.12736 -0.468,0.12197 -0.4366,-0.005 -0.5832,-0.0647 -0.3257,-0.13177 z m 259.8157,10e-4 c 0.2547,-0.0665 0.6714,-0.0665 0.9261,0 0.2546,0.0666 0.046,0.12101 -0.463,0.12101 -0.5094,0 -0.7177,-0.0544 -0.4631,-0.12101 z m 159.9572,0.002 c 0.191,-0.0764 0.4192,-0.067 0.5071,0.0209 0.088,0.0879 -0.068,0.15045 -0.3472,0.13896 -0.3083,-0.0127 -0.371,-0.0754 -0.1599,-0.15985 z M 1469.203,677.4988 c 0.2634,-0.29104 0.5385,-0.52916 0.6112,-0.52916 0.073,0 -0.083,0.23812 -0.3466,0.52916 -0.2634,0.29104 -0.5384,0.52917 -0.6112,0.52917 -0.073,0 0.083,-0.23813 0.3466,-0.52917 z m -7.0452,-0.19843 c -0.3291,-0.41965 -0.3197,-0.42901 0.1,-0.0999 0.4407,0.34564 0.5809,0.56292 0.3631,0.56292 -0.055,0 -0.2633,-0.20836 -0.463,-0.46302 z m 47.625,-0.26459 c -0.3291,-0.41964 -0.3197,-0.429 0.1,-0.0999 0.4407,0.34564 0.5809,0.56291 0.3631,0.56291 -0.055,0 -0.2633,-0.20836 -0.463,-0.46302 z m 128.3424,-2.38125 -0.9118,-0.99218 0.9922,0.91179 c 0.9235,0.84868 1.1139,1.07258 0.9118,1.07258 -0.044,0 -0.4907,-0.44648 -0.9922,-0.99219 z m -216.8369,0.13229 -0.504,-0.59531 0.5953,0.50403 c 0.5594,0.47366 0.7157,0.6866 0.504,0.6866 -0.05,0 -0.3181,-0.26789 -0.5953,-0.59532 z m 103.0466,-0.39687 c -0.3291,-0.41965 -0.3198,-0.429 0.1,-0.0999 0.4407,0.34565 0.5809,0.56292 0.3631,0.56292 -0.055,0 -0.2633,-0.20836 -0.463,-0.46302 z m -258.8862,-0.39688 -0.504,-0.59531 0.5953,0.50403 c 0.3274,0.27721 0.5953,0.54511 0.5953,0.59531 0,0.21174 -0.2129,0.0554 -0.6866,-0.50403 z m 55.5785,-13.4276 c 0,-7.63984 0.034,-10.76523 0.075,-6.94531 0.041,3.81992 0.041,10.0707 0,13.89062 -0.041,3.81992 -0.075,0.69453 -0.075,-6.94531 z m 10.0473,6.48229 c 2e-4,-4.07458 0.037,-5.70449 0.082,-3.62201 0.045,2.08248 0.045,5.41623 -2e-4,7.40833 -0.045,1.99211 -0.082,0.28826 -0.081,-3.78632 z m 40.9573,-4.29948 c -0.035,-6.14825 -0.018,-11.17864 0.037,-11.17864 0.055,0 0.2633,0.20145 0.463,0.44766 0.2406,0.29662 0.2525,0.38124 0.035,0.25079 -0.2581,-0.15501 -0.3431,2.12669 -0.3999,10.73098 l -0.072,10.92786 z m 28.0433,0.24897 c -0.048,-8.6607 -0.1293,-10.88843 -0.3913,-10.73098 -0.19,0.11412 -0.1619,-0.009 0.066,-0.29003 0.3561,-0.43856 0.4042,0.0858 0.4683,5.10859 0.039,3.07852 0.037,8.12738 -0.01,11.2197 -0.042,3.09232 -0.1042,0.70404 -0.1375,-5.30728 z m -241.9528,10.34567 c 0.3291,-0.0633 0.8053,-0.0609 1.0583,0.005 0.253,0.0662 -0.016,0.118 -0.5984,0.11507 -0.5821,-0.003 -0.789,-0.0571 -0.4599,-0.12041 z m 422.4452,-1.7311 -0.5041,-0.59531 0.5953,0.50403 c 0.5595,0.47366 0.7158,0.6866 0.5041,0.6866 -0.05,0 -0.3181,-0.26789 -0.5953,-0.59532 z m -466.1959,-0.26458 -0.504,-0.59531 0.5953,0.50403 c 0.5595,0.47366 0.7158,0.68659 0.5041,0.68659 -0.05,0 -0.3181,-0.26789 -0.5954,-0.59531 z m 435.3633,-1.45521 c -0.3291,-0.41964 -0.3198,-0.429 0.1,-0.0999 0.4407,0.34564 0.5809,0.56291 0.3631,0.56291 -0.055,0 -0.2633,-0.20836 -0.463,-0.46302 z m 80.2443,-0.59531 c 0,-0.3638 0.06,-0.51263 0.1334,-0.33073 0.073,0.1819 0.073,0.47956 0,0.66146 -0.073,0.1819 -0.1334,0.0331 -0.1334,-0.33073 z m -346.7782,-1.05833 c 0.2633,-0.29105 0.5384,-0.52917 0.6111,-0.52917 0.073,0 -0.083,0.23812 -0.3466,0.52917 -0.2634,0.29104 -0.5384,0.52916 -0.6112,0.52916 -0.073,0 0.083,-0.23812 0.3467,-0.52916 z m 372.6656,-0.1323 c 0.3417,-0.3638 0.6809,-0.66145 0.7537,-0.66145 0.073,0 -0.1474,0.29765 -0.4892,0.66145 -0.3417,0.36381 -0.6809,0.66146 -0.7536,0.66146 -0.073,0 0.1473,-0.29765 0.4891,-0.66146 z m -427.9802,-2.05052 -0.7771,-0.85989 0.8599,0.7771 c 0.4729,0.42741 0.8599,0.81436 0.8599,0.8599 0,0.20441 -0.2183,0.0245 -0.9427,-0.77711 z m 27.8964,-0.13229 c -0.3291,-0.41964 -0.3197,-0.429 0.1,-0.0999 0.2547,0.19972 0.463,0.40808 0.463,0.46302 0,0.21776 -0.2172,0.0776 -0.5629,-0.36313 z m 307.0654,-7.20989 c 0,-3.71078 0.037,-5.22883 0.083,-3.37344 0.045,1.85539 0.045,4.89148 0,6.74687 -0.045,1.85539 -0.083,0.33735 -0.083,-3.37343 z m -172.491,3.43958 c 0.2634,-0.29104 0.5384,-0.52917 0.6112,-0.52917 0.073,0 -0.083,0.23813 -0.3466,0.52917 -0.2634,0.29104 -0.5385,0.52917 -0.6112,0.52917 -0.073,0 0.083,-0.23813 0.3466,-0.52917 z m -8.8973,-0.19844 c -0.3291,-0.41964 -0.3198,-0.429 0.1,-0.0999 0.4407,0.34564 0.5809,0.56291 0.3631,0.56291 -0.055,0 -0.2633,-0.20836 -0.463,-0.46302 z m 306.4933,-0.85989 c 0,-0.65485 0.052,-0.92274 0.1147,-0.59532 0.063,0.32743 0.063,0.86321 0,1.19063 -0.063,0.32742 -0.1147,0.0595 -0.1147,-0.59531 z m -532.712,0.33073 c -0.3291,-0.41965 -0.3198,-0.42901 0.1,-0.0999 0.2546,0.19972 0.463,0.40808 0.463,0.46302 0,0.21776 -0.2173,0.0776 -0.5629,-0.36312 z m 140.8641,-0.59532 c 0,-0.65484 0.052,-0.92273 0.1147,-0.59531 0.063,0.32742 0.063,0.8632 0,1.19063 -0.063,0.32742 -0.1147,0.0595 -0.1147,-0.59532 z m 407.6926,0.26459 c 0,-0.36381 0.06,-0.51263 0.1335,-0.33073 0.073,0.1819 0.073,0.47955 0,0.66146 -0.073,0.1819 -0.1335,0.0331 -0.1335,-0.33073 z m -433.6729,-0.94809 c 0.013,-0.30823 0.075,-0.37092 0.1598,-0.15986 0.076,0.191 0.067,0.4192 -0.021,0.50712 -0.088,0.0879 -0.1504,-0.0684 -0.139,-0.34726 z m 108.3008,-1.49931 -0.504,-0.59531 0.5953,0.50403 c 0.5594,0.47366 0.7157,0.68659 0.504,0.68659 -0.05,0 -0.3181,-0.26789 -0.5953,-0.59531 z m 15.1064,0.0661 c 0.2634,-0.29105 0.5384,-0.52917 0.6112,-0.52917 0.073,0 -0.083,0.23812 -0.3466,0.52917 -0.2634,0.29104 -0.5384,0.52916 -0.6112,0.52916 -0.073,0 0.083,-0.23812 0.3466,-0.52916 z m 116.2844,-0.0999 c 0,-0.0549 0.2083,-0.2633 0.463,-0.46302 0.4196,-0.32911 0.429,-0.31975 0.1,0.0999 -0.3457,0.44073 -0.5629,0.58088 -0.5629,0.36312 z m -11.1125,-1.5875 c 0,-0.0549 0.2083,-0.2633 0.463,-0.46302 0.4196,-0.32911 0.429,-0.31975 0.1,0.0999 -0.3457,0.44073 -0.5629,0.58088 -0.5629,0.36312 z m -356.0161,-7.04416 c 0,-3.27422 0.038,-4.61368 0.084,-2.97657 0.046,1.63711 0.046,4.31602 0,5.95313 -0.046,1.63711 -0.084,0.29766 -0.084,-2.97656 z m 232.5628,5.22552 -0.504,-0.59532 0.5953,0.50403 c 0.5594,0.47367 0.7157,0.6866 0.504,0.6866 -0.05,0 -0.3181,-0.26789 -0.5953,-0.59531 z m 21.4564,0.0661 c 0.2634,-0.29104 0.5384,-0.52916 0.6112,-0.52916 0.073,0 -0.083,0.23812 -0.3466,0.52916 -0.2634,0.29104 -0.5385,0.52917 -0.6112,0.52917 -0.073,0 0.083,-0.23813 0.3466,-0.52917 z m 116.1521,0 c 0.2634,-0.29104 0.5384,-0.52916 0.6112,-0.52916 0.073,0 -0.083,0.23812 -0.3466,0.52916 -0.2634,0.29104 -0.5385,0.52917 -0.6112,0.52917 -0.073,0 0.083,-0.23813 0.3466,-0.52917 z m -359.9239,-0.26458 c 0,-0.3638 0.06,-0.51263 0.1335,-0.33073 0.073,0.1819 0.073,0.47956 0,0.66146 -0.073,0.1819 -0.1335,0.0331 -0.1335,-0.33073 z m 432.8375,0.11024 c 0.013,-0.30822 0.075,-0.37092 0.1598,-0.15985 0.077,0.191 0.067,0.4192 -0.021,0.50712 -0.088,0.0879 -0.1505,-0.0684 -0.139,-0.34727 z m -302.3325,-0.70555 -0.504,-0.59531 0.5953,0.50402 c 0.3274,0.27722 0.5953,0.54511 0.5953,0.59532 0,0.21173 -0.213,0.0554 -0.6866,-0.50403 z m 312.4075,0.0661 c 0,-0.3638 0.06,-0.51263 0.1335,-0.33073 0.073,0.18191 0.073,0.47956 0,0.66146 -0.073,0.1819 -0.1335,0.0331 -0.1335,-0.33073 z m -419.3854,-0.15434 c 0.013,-0.30822 0.075,-0.37092 0.1598,-0.15985 0.076,0.191 0.067,0.4192 -0.021,0.50712 -0.088,0.0879 -0.1504,-0.0684 -0.1389,-0.34727 z m 354.9176,-0.11024 c 0.2634,-0.29104 0.5384,-0.52917 0.6112,-0.52917 0.073,0 -0.083,0.23813 -0.3466,0.52917 -0.2634,0.29104 -0.5384,0.52917 -0.6112,0.52917 -0.073,0 0.083,-0.23813 0.3466,-0.52917 z m 11.211,0.0661 c -0.3291,-0.41965 -0.3197,-0.42901 0.1,-0.0999 0.4408,0.34564 0.5809,0.56292 0.3632,0.56292 -0.055,0 -0.2633,-0.20836 -0.4631,-0.46302 z m -465.612,-0.22049 c 0.013,-0.30823 0.075,-0.37092 0.1599,-0.15985 0.076,0.19099 0.067,0.4192 -0.021,0.50712 -0.088,0.0879 -0.1505,-0.0684 -0.139,-0.34727 z m 424.1062,0.31903 c 0,-0.0549 0.2084,-0.2633 0.463,-0.46302 0.4197,-0.32911 0.429,-0.31975 0.1,0.0999 -0.3456,0.44073 -0.5629,0.58089 -0.5629,0.36313 z m -158.9074,-0.76 -0.504,-0.59532 0.5953,0.50403 c 0.5594,0.47367 0.7157,0.6866 0.504,0.6866 -0.05,0 -0.3181,-0.26789 -0.5953,-0.59531 z m -129.2029,-0.0882 c 0.013,-0.30822 0.075,-0.37092 0.1598,-0.15985 0.076,0.191 0.067,0.4192 -0.021,0.50712 -0.088,0.0879 -0.1504,-0.0683 -0.139,-0.34727 z m 382.8729,-0.37469 c 0,-0.36381 0.06,-0.51263 0.1335,-0.33073 0.073,0.1819 0.073,0.47955 0,0.66146 -0.073,0.1819 -0.1335,0.0331 -0.1335,-0.33073 z m -429.3737,-1.45521 c 10e-4,-1.01865 0.049,-1.40294 0.1063,-0.854 0.057,0.54895 0.056,1.38239 0,1.85209 -0.058,0.46969 -0.1053,0.0205 -0.1041,-0.99809 z m 348.8986,0.82614 c 0,-0.0549 0.2084,-0.2633 0.463,-0.46302 0.4197,-0.3291 0.429,-0.31975 0.1,0.0999 -0.3456,0.44073 -0.5629,0.58089 -0.5629,0.36312 z m -82.335,-0.34542 c 0.191,-0.0764 0.4192,-0.067 0.5071,0.0209 0.088,0.0879 -0.068,0.15046 -0.3472,0.13897 -0.3083,-0.0127 -0.371,-0.0754 -0.1599,-0.15985 z m 1.0583,0 c 0.191,-0.0764 0.4192,-0.067 0.5071,0.0209 0.088,0.0879 -0.068,0.15046 -0.3472,0.13897 -0.3083,-0.0127 -0.3709,-0.0754 -0.1599,-0.15985 z m 102.5095,-0.002 c 0.2547,-0.0665 0.6714,-0.0665 0.9261,0 0.2546,0.0666 0.046,0.121 -0.4631,0.121 -0.5093,0 -0.7176,-0.0545 -0.463,-0.121 z m 113.3905,0.002 c 0.191,-0.0764 0.4192,-0.067 0.5071,0.0209 0.088,0.0879 -0.068,0.15046 -0.3472,0.13897 -0.3083,-0.0127 -0.3709,-0.0754 -0.1599,-0.15985 z m 1.0583,0 c 0.1911,-0.0764 0.4193,-0.067 0.5072,0.0209 0.088,0.0879 -0.068,0.15046 -0.3473,0.13897 -0.3082,-0.0127 -0.3709,-0.0754 -0.1599,-0.15985 z m -147.3233,-0.71291 c 0,-0.0549 0.2084,-0.2633 0.4631,-0.46302 0.4196,-0.32911 0.429,-0.31975 0.1,0.0999 -0.3457,0.44073 -0.563,0.58088 -0.563,0.36312 z m -327.2281,-1.75219 c 0,-0.50932 0.054,-0.71768 0.121,-0.46302 0.067,0.25466 0.067,0.67138 0,0.92604 -0.067,0.25467 -0.121,0.0463 -0.121,-0.46302 z m 207.0736,-0.46302 c -0.3291,-0.41964 -0.3198,-0.429 0.1,-0.0999 0.4407,0.34564 0.5809,0.56291 0.3631,0.56291 -0.055,0 -0.2633,-0.20836 -0.463,-0.46302 z m 4.5316,0.36313 c 0,-0.0549 0.2084,-0.2633 0.4631,-0.46302 0.4196,-0.32911 0.429,-0.31975 0.1,0.0999 -0.3457,0.44073 -0.563,0.58089 -0.563,0.36313 z m 118.2688,-1.05834 c 0,-0.0549 0.2083,-0.2633 0.463,-0.46302 0.4197,-0.3291 0.429,-0.31975 0.1,0.0999 -0.3456,0.44073 -0.5629,0.58089 -0.5629,0.36312 z m 11.6932,-0.56156 c 0.01,-0.43656 0.065,-0.58312 0.1318,-0.32569 0.067,0.25743 0.063,0.61462 -0.01,0.79375 -0.072,0.17913 -0.1273,-0.0315 -0.122,-0.46806 z m -441.0911,-0.0221 c 0.013,-0.30822 0.075,-0.37092 0.1599,-0.15985 0.076,0.191 0.067,0.4192 -0.021,0.50712 -0.088,0.0879 -0.1505,-0.0684 -0.139,-0.34727 z m 213.605,-0.17639 -0.504,-0.59531 0.5953,0.50403 c 0.5595,0.47366 0.7158,0.6866 0.504,0.6866 -0.05,0 -0.318,-0.26789 -0.5953,-0.59532 z m 418.4299,0.1323 c -0.329,-0.41965 -0.3197,-0.42901 0.1,-0.0999 0.2546,0.19972 0.463,0.40808 0.463,0.46302 0,0.21776 -0.2173,0.0776 -0.563,-0.36312 z m -160.1965,-0.66146 -0.5041,-0.59532 0.5954,0.50403 c 0.5594,0.47367 0.7157,0.6866 0.504,0.6866 -0.05,0 -0.3181,-0.26789 -0.5953,-0.59531 z m -167.3576,-0.39688 c -0.3291,-0.41964 -0.3198,-0.429 0.1,-0.0999 0.4407,0.34564 0.5809,0.56291 0.3631,0.56291 -0.055,0 -0.2633,-0.20836 -0.463,-0.46302 z m 8.765,0.36313 c 0,-0.0549 0.2084,-0.2633 0.463,-0.46302 0.4197,-0.32911 0.429,-0.31975 0.1,0.0999 -0.3456,0.44073 -0.5629,0.58089 -0.5629,0.36313 z m 317.7308,-0.36313 c -0.3291,-0.41964 -0.3197,-0.429 0.1,-0.0999 0.4407,0.34564 0.5809,0.56291 0.3631,0.56291 -0.055,0 -0.2633,-0.20836 -0.463,-0.46302 z m -199.1975,-0.94268 c 0,-0.0455 0.387,-0.43249 0.8599,-0.8599 l 0.8599,-0.77711 -0.7771,0.8599 c -0.7244,0.80155 -0.9427,0.98151 -0.9427,0.77711 z m -198.3303,-1.30628 -0.504,-0.59531 0.5953,0.50403 c 0.3274,0.27721 0.5953,0.54511 0.5953,0.59531 0,0.21174 -0.213,0.0554 -0.6866,-0.50403 z m 68.9153,-0.13229 c -0.3291,-0.41964 -0.3197,-0.429 0.1,-0.0999 0.2547,0.19972 0.463,0.40808 0.463,0.46302 0,0.21776 -0.2172,0.0776 -0.5629,-0.36313 z m 12.9984,0.36313 c 0,-0.0549 0.2083,-0.2633 0.463,-0.46302 0.4196,-0.32911 0.429,-0.31975 0.1,0.0999 -0.3457,0.44073 -0.5629,0.58089 -0.5629,0.36313 z m 170.5019,-6.91156 c 3e-4,-2.7649 0.039,-3.86005 0.087,-2.43366 0.048,1.42639 0.047,3.68858 0,5.02708 -0.048,1.33851 -0.087,0.17147 -0.087,-2.59342 z m -309.0113,1.71979 c 0.2634,-0.29105 0.5384,-0.52917 0.6112,-0.52917 0.073,0 -0.083,0.23812 -0.3466,0.52917 -0.2634,0.29104 -0.5384,0.52916 -0.6112,0.52916 -0.073,0 0.083,-0.23812 0.3466,-0.52916 z m 1.4761,-3.32934 c 0.013,-0.30823 0.075,-0.37092 0.1598,-0.15986 0.076,0.191 0.067,0.4192 -0.021,0.50712 -0.088,0.0879 -0.1504,-0.0684 -0.1389,-0.34726 z m 337.9843,-1.16858 c 0.5684,-0.58208 1.093,-1.05833 1.1657,-1.05833 0.073,0 -0.3327,0.47625 -0.9011,1.05833 -0.5684,0.58208 -1.093,1.05833 -1.1657,1.05833 -0.073,0 0.3327,-0.47625 0.9011,-1.05833 z m -471.578,0 c 0,-0.3638 0.06,-0.51263 0.1335,-0.33073 0.073,0.1819 0.073,0.47956 0,0.66146 -0.073,0.1819 -0.1335,0.0331 -0.1335,-0.33073 z m 451.0937,-2.00642 c 0.013,-0.30823 0.075,-0.37092 0.1598,-0.15986 0.077,0.191 0.067,0.4192 -0.021,0.50712 -0.088,0.0879 -0.1504,-0.0684 -0.139,-0.34726 z m -204.313,-0.83785 c -0.3291,-0.41965 -0.3197,-0.429 0.1,-0.0999 0.4407,0.34565 0.5809,0.56292 0.3631,0.56292 -0.055,0 -0.2633,-0.20836 -0.463,-0.46302 z m 34.6942,0.36312 c 0,-0.0549 0.2083,-0.2633 0.463,-0.46302 0.4197,-0.3291 0.429,-0.31975 0.1,0.0999 -0.3456,0.44073 -0.5629,0.58089 -0.5629,0.36312 z m -36.8109,-2.74437 c -0.3291,-0.41965 -0.3197,-0.429 0.1,-0.0999 0.4407,0.34565 0.5809,0.56292 0.3631,0.56292 -0.055,0 -0.2632,-0.20836 -0.463,-0.46302 z m 38.9275,0.36312 c 0,-0.0549 0.2084,-0.2633 0.4631,-0.46302 0.4196,-0.3291 0.429,-0.31975 0.1,0.0999 -0.3457,0.44073 -0.563,0.58089 -0.563,0.36312 z m 166.001,-0.49541 -0.5041,-0.59532 0.5953,0.50403 c 0.5595,0.47367 0.7158,0.6866 0.5041,0.6866 -0.05,0 -0.3181,-0.26789 -0.5953,-0.59531 z m -456.7068,-3.82138 c 0.2574,-0.0671 0.6146,-0.0627 0.7937,0.01 0.1791,0.0725 -0.032,0.12736 -0.4681,0.12197 -0.4365,-0.005 -0.5831,-0.0647 -0.3256,-0.13177 z m 39.7234,-5.96821 -0.504,-0.59531 0.5953,0.50403 c 0.3274,0.27721 0.5953,0.54511 0.5953,0.59531 0,0.21174 -0.2129,0.0554 -0.6866,-0.50403 z m -2.6458,-2.64583 -0.504,-0.59531 0.5953,0.50403 c 0.3274,0.27721 0.5953,0.5451 0.5953,0.59531 0,0.21173 -0.2129,0.0554 -0.6866,-0.50403 z m 10.4424,-3.83646 c -0.3291,-0.41964 -0.3197,-0.429 0.1,-0.0999 0.4408,0.34564 0.5809,0.56291 0.3632,0.56291 -0.055,0 -0.2633,-0.20836 -0.4631,-0.46302 z m -78.8121,-2.3151 c 0.7905,-0.80037 1.4967,-1.45521 1.5695,-1.45521 0.073,0 -0.5145,0.65484 -1.3049,1.45521 -0.7904,0.80036 -1.4966,1.45521 -1.5694,1.45521 -0.073,0 0.5144,-0.65485 1.3048,-1.45521 z m 36.4495,-5.61109 c 0.3291,-0.0633 0.8053,-0.0609 1.0583,0.005 0.253,0.0662 -0.016,0.118 -0.5984,0.11506 -0.5821,-0.003 -0.789,-0.0571 -0.4599,-0.1204 z m 3.0396,0.005 c 0.2547,-0.0666 0.6714,-0.0666 0.926,0 0.2547,0.0665 0.046,0.121 -0.463,0.121 -0.5093,0 -0.7177,-0.0545 -0.463,-0.121 z m -1.9903,-10.32733 c 0.4697,-0.0584 1.3032,-0.0594 1.8521,-0.002 0.549,0.0573 0.1647,0.1051 -0.854,0.10627 -1.0186,10e-4 -1.4678,-0.0457 -0.9981,-0.10414 z"
         id="path723" /><path
         style="fill:#ffffff;stroke-width:0.264583"
         d="m 1158.8468,691.78594 c 0.2634,-0.29104 0.5384,-0.52916 0.6112,-0.52916 0.073,0 -0.083,0.23812 -0.3466,0.52916 -0.2634,0.29104 -0.5384,0.52917 -0.6112,0.52917 -0.073,0 0.083,-0.23813 0.3466,-0.52917 z m 519.1064,-23.54791 c 0,-11.85995 0.032,-16.71175 0.072,-10.78177 0.04,5.92997 0.04,15.63356 0,21.56354 -0.04,5.92997 -0.072,1.07817 -0.072,-10.78177 z m -587.9147,15.27968 -0.7771,-0.85989 0.8599,0.7771 c 0.8015,0.72437 0.9815,0.94269 0.7771,0.94269 -0.045,0 -0.4325,-0.38695 -0.8599,-0.8599 z m 200.4385,-9.32656 c 0.3418,-0.3638 0.6809,-0.66146 0.7537,-0.66146 0.073,0 -0.1474,0.29766 -0.4891,0.66146 -0.3418,0.3638 -0.681,0.66146 -0.7537,0.66146 -0.073,0 0.1473,-0.29766 0.4891,-0.66146 z m 71.5639,-22.225 c 0,-12.36927 0.032,-17.39073 0.072,-11.15881 0.04,6.23193 0.039,16.35224 -10e-5,22.48959 -0.04,6.13734 -0.072,1.03849 -0.072,-11.33078 z m 48.1542,0 c 0,-12.36927 0.032,-17.39073 0.072,-11.15881 0.04,6.23193 0.039,16.35224 -10e-5,22.48959 -0.04,6.13734 -0.072,1.03849 -0.072,-11.33078 z m 136.8781,16.88489 c 0.191,-0.0764 0.4192,-0.067 0.5071,0.0209 0.088,0.0879 -0.068,0.15046 -0.3472,0.13897 -0.3083,-0.0127 -0.371,-0.0754 -0.1599,-0.15985 z m 25.8289,-10.27031 c -2e-4,-3.63802 0.037,-5.16299 0.083,-3.38884 0.046,1.77416 0.046,4.75073 0,6.61459 -0.046,1.86386 -0.083,0.41228 -0.083,-3.22575 z m -38.0163,5.49046 c 2.8013,-0.0429 7.3852,-0.0429 10.1865,0 2.8013,0.0429 0.5093,0.0779 -5.0932,0.0779 -5.6026,0 -7.8945,-0.0351 -5.0933,-0.0779 z m -152.6322,-1.32327 c -0.3291,-0.41964 -0.3197,-0.429 0.1,-0.0999 0.4407,0.34564 0.5809,0.56291 0.3631,0.56291 -0.055,0 -0.2632,-0.20836 -0.463,-0.46302 z m -122.1828,-1.01423 c 0.013,-0.30823 0.075,-0.37092 0.1599,-0.15986 0.076,0.191 0.067,0.4192 -0.021,0.50712 -0.088,0.0879 -0.1505,-0.0684 -0.139,-0.34726 z m 25.95,-0.11025 c 0,-0.3638 0.06,-0.51263 0.1335,-0.33073 0.073,0.18191 0.073,0.47956 0,0.66146 -0.073,0.1819 -0.1335,0.0331 -0.1335,-0.33073 z M 1286,660.41077 c 0.013,-0.30823 0.075,-0.37092 0.1598,-0.15985 0.076,0.19099 0.067,0.4192 -0.021,0.50712 -0.088,0.0879 -0.1505,-0.0684 -0.139,-0.34727 z m -25.9292,-0.26458 c 0.013,-0.30823 0.075,-0.37092 0.1598,-0.15986 0.076,0.191 0.067,0.4192 -0.021,0.50712 -0.088,0.0879 -0.1504,-0.0684 -0.1389,-0.34726 z m 70.9083,-0.79375 c 0.013,-0.30823 0.075,-0.37092 0.1599,-0.15986 0.076,0.191 0.067,0.4192 -0.021,0.50712 -0.088,0.0879 -0.1505,-0.0683 -0.139,-0.34726 z m -209.1848,-12.28108 c 0,-6.33016 0.034,-8.91977 0.077,-5.75469 0.042,3.16508 0.042,8.3443 0,11.50938 -0.042,3.16508 -0.077,0.57547 -0.077,-5.75469 z m 474.0327,8.31233 c 0.013,-0.30823 0.075,-0.37092 0.1599,-0.15986 0.076,0.191 0.067,0.4192 -0.021,0.50712 -0.088,0.0879 -0.1505,-0.0683 -0.139,-0.34726 z m -9.9957,-1.96233 c 0,-0.80036 0.05,-1.12779 0.1102,-0.7276 0.061,0.40018 0.061,1.05502 0,1.4552 -0.061,0.40019 -0.1102,0.0728 -0.1102,-0.7276 z m 59.1873,1.22302 c 0,-0.0549 0.2084,-0.2633 0.4631,-0.46302 0.4196,-0.32911 0.429,-0.31975 0.1,0.0999 -0.3457,0.44073 -0.563,0.58088 -0.563,0.36312 z m -421.9895,-0.84819 c 0.013,-0.30823 0.075,-0.37092 0.1599,-0.15986 0.076,0.191 0.067,0.4192 -0.021,0.50712 -0.088,0.0879 -0.1505,-0.0684 -0.139,-0.34726 z m -46.5457,-0.37483 c 0,-0.3638 0.06,-0.51263 0.1334,-0.33073 0.073,0.1819 0.073,0.47956 0,0.66146 -0.073,0.1819 -0.1334,0.0331 -0.1334,-0.33073 z m 0.025,-1.98438 c 0,-0.58208 0.057,-0.78905 0.1205,-0.45993 0.063,0.32912 0.061,0.80537 0,1.05833 -0.066,0.25297 -0.118,-0.0163 -0.1151,-0.5984 z m -10.0693,-2.11666 c 0,-0.43656 0.065,-0.58313 0.1318,-0.3257 0.067,0.25744 0.063,0.61462 -0.01,0.79375 -0.072,0.17914 -0.1273,-0.0315 -0.1219,-0.46805 z m 493.641,-2.18281 -0.6415,-0.72761 0.7276,0.64143 c 0.4002,0.35279 0.7276,0.68022 0.7276,0.72761 0,0.20751 -0.2142,0.0386 -0.8137,-0.64143 z m -227.9847,-4.48187 c 0.2546,-0.0666 0.6713,-0.0666 0.926,0 0.2547,0.0666 0.046,0.121 -0.463,0.121 -0.5093,0 -0.7177,-0.0544 -0.463,-0.121 z m 140.8015,-4.44782 c 3e-4,-2.61938 0.04,-3.65515 0.088,-2.30172 0.048,1.35343 0.048,3.49655 0,4.7625 -0.048,1.26594 -0.088,0.15859 -0.088,-2.46078 z m 76.1568,4.44782 c 0.2547,-0.0666 0.6714,-0.0666 0.9261,0 0.2546,0.0666 0.046,0.121 -0.463,0.121 -0.5094,0 -0.7177,-0.0544 -0.4631,-0.121 z M 1306.815,639.4878 c 0.1819,-0.0734 0.4795,-0.0734 0.6614,0 0.1819,0.0734 0.033,0.13345 -0.3307,0.13345 -0.3638,0 -0.5126,-0.06 -0.3307,-0.13345 z m -162.1731,-9.00135 c 0.191,-0.0764 0.4192,-0.067 0.5071,0.0209 0.088,0.0879 -0.068,0.15045 -0.3472,0.13896 -0.3083,-0.0127 -0.3709,-0.0754 -0.1599,-0.15985 z m 347.646,-2.37573 c 0.1819,-0.0734 0.4796,-0.0734 0.6615,0 0.1819,0.0734 0.033,0.13345 -0.3308,0.13345 -0.3638,0 -0.5126,-0.0601 -0.3307,-0.13345 z m -330.9613,-15.36905 c -0.3291,-0.41964 -0.3198,-0.429 0.1,-0.0999 0.4407,0.34564 0.5809,0.56291 0.3631,0.56291 -0.055,0 -0.2633,-0.20836 -0.463,-0.46302 z m -2.9104,-2.91041 c -0.3292,-0.41965 -0.3198,-0.42901 0.1,-0.0999 0.4407,0.34564 0.5808,0.56292 0.3631,0.56292 -0.055,0 -0.2633,-0.20836 -0.463,-0.46302 z"
         id="path721" /><path
         style="fill:#ffffff;stroke-width:0.264583"
         d="m 1433.3024,679.16979 c 0.191,-0.0764 0.4192,-0.067 0.5071,0.0209 0.088,0.0879 -0.068,0.15046 -0.3473,0.13897 -0.3082,-0.0127 -0.3709,-0.0754 -0.1598,-0.15985 z m -81.1775,-1.50666 c 0,-0.0549 0.2084,-0.2633 0.463,-0.46302 0.4197,-0.32911 0.429,-0.31975 0.1,0.0999 -0.3456,0.44073 -0.5629,0.58088 -0.5629,0.36312 z m -40.0939,-16.56885 c 0,-7.34881 0.034,-10.35513 0.075,-6.68073 0.042,3.6744 0.042,9.68705 0,13.36146 -0.041,3.6744 -0.075,0.66807 -0.075,-6.68073 z m 32.0088,5.02708 c 0,-4.29286 0.036,-6.04904 0.081,-3.9026 0.044,2.14643 0.044,5.65877 0,7.8052 -0.044,2.14644 -0.081,0.39026 -0.081,-3.9026 z m -224.7978,7.22759 c 0.191,-0.0764 0.4192,-0.067 0.5071,0.0209 0.088,0.0879 -0.068,0.15045 -0.3473,0.13896 -0.3082,-0.0127 -0.3709,-0.0754 -0.1598,-0.15985 z m 137.9184,-4.20693 c 0.013,-0.30823 0.075,-0.37092 0.1598,-0.15985 0.076,0.19099 0.067,0.4192 -0.021,0.50712 -0.088,0.0879 -0.1504,-0.0684 -0.1389,-0.34727 z m -109.3276,-0.30868 c -0.3291,-0.41965 -0.3197,-0.429 0.1,-0.0999 0.4408,0.34565 0.5809,0.56292 0.3632,0.56292 -0.055,0 -0.2633,-0.20836 -0.4631,-0.46302 z m 542.6604,-0.79375 c -0.3291,-0.41965 -0.3197,-0.429 0.1,-0.0999 0.4407,0.34565 0.5809,0.56292 0.3631,0.56292 -0.055,0 -0.2633,-0.20836 -0.463,-0.46302 z m -117.6849,-2.60174 c 0.013,-0.30822 0.075,-0.37092 0.1598,-0.15985 0.077,0.191 0.067,0.4192 -0.021,0.50712 -0.088,0.0879 -0.1504,-0.0683 -0.139,-0.34727 z m -156.8979,-3.43958 c 0.013,-0.30823 0.075,-0.37092 0.1598,-0.15985 0.076,0.19099 0.067,0.4192 -0.021,0.50712 -0.088,0.0879 -0.1505,-0.0684 -0.139,-0.34727 z m 25.9696,-0.90399 c 0,-0.50933 0.054,-0.71769 0.121,-0.46302 0.067,0.25466 0.067,0.67138 0,0.92604 -0.067,0.25466 -0.121,0.0463 -0.121,-0.46302 z m -181.8092,-0.15434 c 0.013,-0.30823 0.075,-0.37092 0.1599,-0.15986 0.076,0.191 0.067,0.4192 -0.021,0.50712 -0.088,0.0879 -0.1505,-0.0684 -0.139,-0.34726 z m 293.7182,-1.03629 c 0.01,-0.43656 0.065,-0.58312 0.1318,-0.32569 0.067,0.25743 0.063,0.61462 -0.01,0.79375 -0.072,0.17913 -0.1274,-0.0315 -0.122,-0.46806 z m -330.7599,-5.31371 c 0.013,-0.30823 0.075,-0.37092 0.1599,-0.15986 0.076,0.191 0.067,0.4192 -0.021,0.50712 -0.088,0.0879 -0.1505,-0.0684 -0.139,-0.34726 z m -156.0734,-1.30087 c 0.01,-0.43656 0.065,-0.58313 0.1317,-0.3257 0.067,0.25744 0.063,0.61462 -0.01,0.79375 -0.072,0.17914 -0.1273,-0.0315 -0.1219,-0.46805 z m 156.0734,-0.28663 c 0.013,-0.30823 0.075,-0.37092 0.1599,-0.15986 0.076,0.191 0.067,0.4192 -0.021,0.50712 -0.088,0.0879 -0.1505,-0.0684 -0.139,-0.34726 z m 55.2275,-0.82015 c 0.1909,-0.0764 0.4192,-0.067 0.5071,0.0209 0.088,0.0879 -0.068,0.15046 -0.3473,0.13897 -0.3082,-0.0127 -0.3709,-0.0754 -0.1598,-0.15985 z m -211.3009,-3.39114 c 0.01,-0.43656 0.065,-0.58312 0.1317,-0.32569 0.067,0.25743 0.063,0.61462 -0.01,0.79375 -0.072,0.17913 -0.1273,-0.0315 -0.1219,-0.46806 z m 198.1213,-0.23219 c 0,-0.0549 0.2084,-0.2633 0.463,-0.46302 0.4197,-0.3291 0.429,-0.31975 0.1,0.0999 -0.3456,0.44073 -0.5629,0.58089 -0.5629,0.36312 z m 259.6885,-1.22302 c 0.2634,-0.29104 0.5384,-0.52916 0.6112,-0.52916 0.073,0 -0.083,0.23812 -0.3466,0.52916 -0.2634,0.29104 -0.5384,0.52917 -0.6112,0.52917 -0.073,0 0.083,-0.23813 0.3466,-0.52917 z m 56.5094,0.11025 c 0.013,-0.30823 0.075,-0.37092 0.1599,-0.15986 0.076,0.191 0.067,0.4192 -0.021,0.50712 -0.088,0.0879 -0.1505,-0.0683 -0.139,-0.34726 z m -138.1671,-0.30868 c -0.3291,-0.41965 -0.3197,-0.42901 0.1,-0.0999 0.4407,0.34564 0.5809,0.56292 0.3631,0.56292 -0.055,0 -0.2633,-0.20836 -0.463,-0.46302 z m 73.2896,-2.64584 c -0.3291,-0.41964 -0.3198,-0.429 0.1,-0.0999 0.4407,0.34564 0.5809,0.56291 0.3631,0.56291 -0.055,0 -0.2633,-0.20836 -0.463,-0.46302 z m -278.5063,-7.39228 c 0.2546,-0.0666 0.6713,-0.0666 0.926,0 0.2547,0.0666 0.046,0.121 -0.463,0.121 -0.5093,0 -0.7177,-0.0544 -0.463,-0.121 z m 372.7979,0 c 0.2546,-0.0666 0.6713,-0.0666 0.926,0 0.2547,0.0666 0.046,0.121 -0.463,0.121 -0.5093,0 -0.7177,-0.0544 -0.463,-0.121 z m -43.1221,-8.73222 c 0.2574,-0.0671 0.6146,-0.0627 0.7938,0.01 0.1791,0.0725 -0.032,0.12736 -0.4681,0.12197 -0.4366,-0.005 -0.5831,-0.0647 -0.3257,-0.13177 z m -477.5118,-9.60623 c 0.2634,-0.29104 0.5384,-0.52916 0.6112,-0.52916 0.073,0 -0.083,0.23812 -0.3466,0.52916 -0.2634,0.29104 -0.5384,0.52917 -0.6112,0.52917 -0.073,0 0.083,-0.23813 0.3466,-0.52917 z m 69.2957,-8.00364 -0.504,-0.59531 0.5953,0.50402 c 0.3274,0.27722 0.5953,0.54511 0.5953,0.59532 0,0.21173 -0.2129,0.0554 -0.6866,-0.50403 z"
         id="path719" /><path
         style="fill:#ffffff;stroke-width:0.264583"
         d="m 1121.2148,696.62967 c 0.2575,-0.0671 0.6147,-0.0627 0.7938,0.01 0.1791,0.0725 -0.031,0.12736 -0.4681,0.12197 -0.4365,-0.005 -0.5831,-0.0647 -0.3257,-0.13177 z m -39.7924,-7.95258 c -0.3291,-0.41965 -0.3197,-0.429 0.1,-0.0999 0.4407,0.34565 0.5809,0.56292 0.3631,0.56292 -0.055,0 -0.2633,-0.20836 -0.463,-0.46302 z m 155.8237,-9.5073 c 0.191,-0.0764 0.4192,-0.067 0.5072,0.0209 0.088,0.0879 -0.068,0.15046 -0.3473,0.13897 -0.3082,-0.0127 -0.3709,-0.0754 -0.1599,-0.15985 z m 2.3813,0 c 0.191,-0.0764 0.4192,-0.067 0.5071,0.0209 0.088,0.0879 -0.068,0.15046 -0.3473,0.13897 -0.3082,-0.0127 -0.3709,-0.0754 -0.1598,-0.15985 z m 333.8876,0.005 c 0.1819,-0.0734 0.4796,-0.0734 0.6615,0 0.1819,0.0734 0.033,0.13345 -0.3308,0.13345 -0.3638,0 -0.5126,-0.0601 -0.3307,-0.13345 z m 36.529,-0.005 c 0.191,-0.0764 0.4192,-0.067 0.5072,0.0209 0.088,0.0879 -0.068,0.15046 -0.3473,0.13897 -0.3082,-0.0127 -0.3709,-0.0754 -0.1599,-0.15985 z m 2.1167,0 c 0.191,-0.0764 0.4192,-0.067 0.5071,0.0209 0.088,0.0879 -0.068,0.15046 -0.3472,0.13897 -0.3083,-0.0127 -0.371,-0.0754 -0.1599,-0.15985 z m -289.7029,-1.86978 c -0.3291,-0.41965 -0.3197,-0.42901 0.1,-0.0999 0.4407,0.34564 0.5809,0.56292 0.3631,0.56292 -0.055,0 -0.2633,-0.20836 -0.463,-0.46302 z m 243.8222,-0.92605 -0.5041,-0.59531 0.5953,0.50403 c 0.5595,0.47366 0.7158,0.6866 0.5041,0.6866 -0.05,0 -0.3181,-0.26789 -0.5953,-0.59532 z m 93.0261,-0.56291 c 0,-0.0549 0.2084,-0.2633 0.4631,-0.46302 0.4196,-0.32911 0.429,-0.31975 0.1,0.0999 -0.3457,0.44073 -0.563,0.58089 -0.563,0.36313 z m -171.5886,-22.38969 c 0,-11.42339 0.033,-16.09659 0.072,-10.3849 0.04,5.7117 0.04,15.0581 0,20.7698 -0.04,5.71169 -0.072,1.03849 -0.072,-10.3849 z m -267.1105,18.3224 -0.6415,-0.72761 0.7276,0.64143 c 0.4002,0.35279 0.7276,0.68022 0.7276,0.72761 0,0.20751 -0.2142,0.0386 -0.8137,-0.64143 z m 317.1893,-0.77054 c 0.1819,-0.0734 0.4795,-0.0734 0.6614,0 0.1819,0.0734 0.033,0.13345 -0.3307,0.13345 -0.3638,0 -0.5127,-0.0601 -0.3307,-0.13345 z m -299.5084,-0.52917 c 0.1819,-0.0734 0.4796,-0.0734 0.6615,0 0.1819,0.0734 0.033,0.13345 -0.3307,0.13345 -0.3638,0 -0.5127,-0.0601 -0.3308,-0.13345 z m 338.1375,-0.0115 c 0.3274,-0.0631 0.8632,-0.0631 1.1906,0 0.3275,0.0631 0.06,0.11466 -0.5953,0.11466 -0.6548,0 -0.9227,-0.0516 -0.5953,-0.11466 z m 34.3958,0.0115 c 0.1819,-0.0734 0.4796,-0.0734 0.6615,0 0.1819,0.0734 0.033,0.13345 -0.3307,0.13345 -0.3638,0 -0.5127,-0.0601 -0.3308,-0.13345 z m -79.3426,-1.87529 c -0.3291,-0.41965 -0.3197,-0.42901 0.1,-0.0999 0.2547,0.19972 0.4631,0.40808 0.4631,0.46302 0,0.21776 -0.2173,0.0776 -0.563,-0.36312 z m -258.7624,-0.52917 c -0.3291,-0.41965 -0.3198,-0.429 0.1,-0.0999 0.4407,0.34565 0.5809,0.56292 0.3631,0.56292 -0.055,0 -0.2633,-0.20836 -0.463,-0.46302 z m 110.7367,-4.10104 -0.504,-0.59532 0.5953,0.50403 c 0.5594,0.47367 0.7157,0.6866 0.504,0.6866 -0.05,0 -0.3181,-0.26789 -0.5953,-0.59531 z m 249.4158,-2.20486 c 0.013,-0.30823 0.075,-0.37092 0.1598,-0.15986 0.076,0.191 0.067,0.4192 -0.021,0.50712 -0.088,0.0879 -0.1504,-0.0684 -0.1389,-0.34726 z m 80.9834,-0.11025 c 0,-0.3638 0.06,-0.51263 0.1334,-0.33073 0.073,0.18191 0.073,0.47956 0,0.66146 -0.073,0.1819 -0.1334,0.0331 -0.1334,-0.33073 z m -297.9012,-0.79375 c 0,-0.50932 0.054,-0.71768 0.121,-0.46302 0.067,0.25466 0.067,0.67138 0,0.92604 -0.066,0.25467 -0.121,0.0463 -0.121,-0.46302 z m 242.847,-0.41892 c 0.013,-0.30823 0.075,-0.37092 0.1598,-0.15985 0.076,0.19099 0.067,0.4192 -0.021,0.50712 -0.088,0.0879 -0.1505,-0.0684 -0.139,-0.34727 z m 55.0542,-0.11024 c 0,-0.36381 0.06,-0.51263 0.1334,-0.33073 0.073,0.1819 0.073,0.47955 0,0.66146 -0.073,0.1819 -0.1334,0.0331 -0.1334,-0.33073 z m -193.9396,-0.26459 c 0,-0.3638 0.06,-0.51263 0.1335,-0.33073 0.073,0.18191 0.073,0.47956 0,0.66146 -0.073,0.1819 -0.1335,0.0331 -0.1335,-0.33073 z m 112.9562,-0.15434 c 0.013,-0.30822 0.075,-0.37092 0.1598,-0.15985 0.076,0.191 0.067,0.4192 -0.021,0.50712 -0.088,0.0879 -0.1504,-0.0684 -0.1389,-0.34727 z m -409.8396,-4.49791 c 0.013,-0.30823 0.075,-0.37092 0.1599,-0.15986 0.076,0.191 0.067,0.4192 -0.021,0.50712 -0.088,0.0879 -0.1505,-0.0683 -0.139,-0.34726 z m 205.0312,-0.73931 c 0,-0.0549 0.2084,-0.2633 0.463,-0.46302 0.4197,-0.32911 0.429,-0.31975 0.1,0.0999 -0.3456,0.44073 -0.5629,0.58088 -0.5629,0.36312 z m -361.0715,-3.60427 c 0,-0.94589 0.048,-1.33284 0.1067,-0.8599 0.059,0.47295 0.059,1.24685 0,1.7198 -0.059,0.47294 -0.1067,0.086 -0.1067,-0.8599 z m 411.6731,0.87595 c 0.2546,-0.0666 0.6714,-0.0666 0.926,0 0.2547,0.0666 0.046,0.121 -0.463,0.121 -0.5093,0 -0.7177,-0.0545 -0.463,-0.121 z m 81.8933,-0.009 c 0.4755,-0.0589 1.1899,-0.0577 1.5875,0.003 0.3975,0.0604 0.01,0.10855 -0.8647,0.10707 -0.8731,-0.002 -1.1984,-0.0509 -0.7228,-0.10977 z m 13.489,-0.002 c 0.6184,-0.0557 1.6305,-0.0557 2.2489,0 0.6185,0.0557 0.1125,0.10128 -1.1245,0.10128 -1.2369,0 -1.7429,-0.0456 -1.1244,-0.10128 z m -90.3796,-4.30431 c 0,-0.36381 0.06,-0.51263 0.1334,-0.33073 0.073,0.1819 0.073,0.47955 0,0.66146 -0.073,0.1819 -0.1334,0.0331 -0.1334,-0.33073 z m 72.241,-0.1323 c 0.01,-0.43656 0.065,-0.58312 0.1318,-0.32569 0.067,0.25743 0.063,0.61462 -0.01,0.79375 -0.072,0.17913 -0.1273,-0.0315 -0.1219,-0.46806 z m -134.989,0.29698 c 0,-0.0549 0.2083,-0.2633 0.463,-0.46302 0.4196,-0.3291 0.429,-0.31975 0.1,0.0999 -0.3457,0.44073 -0.5629,0.58089 -0.5629,0.36312 z m 179.652,-6.38239 c 0.3418,-0.3638 0.681,-0.66146 0.7537,-0.66146 0.073,0 -0.1473,0.29766 -0.4891,0.66146 -0.3417,0.3638 -0.6809,0.66146 -0.7537,0.66146 -0.073,0 0.1474,-0.29766 0.4891,-0.66146 z m -361.2058,-4.282 c 0.191,-0.0764 0.4192,-0.067 0.5071,0.0209 0.088,0.0879 -0.068,0.15046 -0.3472,0.13897 -0.3083,-0.0127 -0.371,-0.0754 -0.1599,-0.15985 z m 372.7979,0 c 0.191,-0.0764 0.4192,-0.067 0.5071,0.0209 0.088,0.0879 -0.068,0.15046 -0.3472,0.13897 -0.3083,-0.0127 -0.371,-0.0754 -0.1599,-0.15985 z m -474.6129,-2.82958 c 0,-0.0549 0.2084,-0.2633 0.4631,-0.46302 0.4196,-0.3291 0.429,-0.31975 0.1,0.0999 -0.3457,0.44073 -0.563,0.58089 -0.563,0.36312 z m 358.4767,-4.59645 c -0.3291,-0.41965 -0.3198,-0.42901 0.1,-0.0999 0.4407,0.34564 0.5809,0.56292 0.3631,0.56292 -0.055,0 -0.2633,-0.20836 -0.463,-0.46302 z m -407.16,-9.69105 c 0,-0.0549 0.2084,-0.2633 0.463,-0.46302 0.4197,-0.3291 0.429,-0.31975 0.1,0.0999 -0.3456,0.44073 -0.5629,0.58089 -0.5629,0.36312 z m 2.249,-2.28135 c 0.2633,-0.29104 0.5384,-0.52917 0.6111,-0.52917 0.073,0 -0.083,0.23813 -0.3466,0.52917 -0.2633,0.29104 -0.5384,0.52917 -0.6111,0.52917 -0.073,0 0.083,-0.23813 0.3466,-0.52917 z"
         id="path717" /><path
         style="fill:#ffffff;stroke-width:0.264583"
         d="m 1119.8919,696.62967 c 0.2575,-0.0671 0.6146,-0.0627 0.7938,0.01 0.1791,0.0725 -0.032,0.12736 -0.4681,0.12197 -0.4365,-0.005 -0.5831,-0.0647 -0.3257,-0.13177 z m 2.6408,10e-4 c 0.2547,-0.0666 0.6714,-0.0666 0.9261,0 0.2546,0.0666 0.046,0.121 -0.4631,0.121 -0.5093,0 -0.7176,-0.0544 -0.463,-0.121 z m -38.1861,-5.04322 -0.6415,-0.72761 0.7276,0.64143 c 0.6801,0.59952 0.849,0.81378 0.6415,0.81378 -0.047,0 -0.3749,-0.32742 -0.7276,-0.7276 z m -2.1304,-2.11667 c -0.3291,-0.41965 -0.3198,-0.429 0.1,-0.0999 0.4407,0.34565 0.5809,0.56292 0.3631,0.56292 -0.055,0 -0.2633,-0.20836 -0.463,-0.46302 z m 155.9394,-10.3027 c 0.2547,-0.0666 0.6714,-0.0666 0.9261,0 0.2546,0.0666 0.046,0.121 -0.463,0.121 -0.5094,0 -0.7177,-0.0544 -0.4631,-0.121 z m 193.5427,0.007 c 0.1819,-0.0734 0.4796,-0.0734 0.6615,0 0.1819,0.0734 0.033,0.13345 -0.3307,0.13345 -0.3638,0 -0.5127,-0.0601 -0.3308,-0.13345 z m 143.3983,-0.0157 c 0.4697,-0.0584 1.3031,-0.0594 1.8521,-0.002 0.5489,0.0573 0.1646,0.1051 -0.854,0.10627 -1.0187,10e-4 -1.4678,-0.0457 -0.9981,-0.10413 z m 35.862,0.008 c 0.2574,-0.0671 0.6146,-0.0627 0.7937,0.01 0.1792,0.0725 -0.032,0.12736 -0.468,0.12197 -0.4366,-0.005 -0.5831,-0.0647 -0.3257,-0.13177 z m 37.6981,0.008 c 0.1819,-0.0734 0.4795,-0.0734 0.6614,0 0.1819,0.0734 0.033,0.13345 -0.3307,0.13345 -0.3638,0 -0.5126,-0.0601 -0.3307,-0.13345 z m -200.8022,-0.53468 c 0.191,-0.0764 0.4192,-0.067 0.5071,0.0209 0.088,0.0879 -0.068,0.15046 -0.3473,0.13897 -0.3082,-0.0127 -0.3709,-0.0754 -0.1598,-0.15985 z m 216.9583,0 c 0.191,-0.0764 0.4192,-0.067 0.5071,0.0209 0.088,0.0879 -0.068,0.15046 -0.3473,0.13897 -0.3082,-0.0127 -0.3709,-0.0754 -0.1598,-0.15985 z m -319.3362,-1.3406 c -0.3291,-0.41965 -0.3198,-0.42901 0.1,-0.0999 0.4407,0.34564 0.5809,0.56292 0.3631,0.56292 -0.055,0 -0.2633,-0.20836 -0.463,-0.46302 z m 17.9916,0 c -0.3291,-0.41965 -0.3197,-0.42901 0.1,-0.0999 0.4408,0.34564 0.5809,0.56292 0.3632,0.56292 -0.055,0 -0.2633,-0.20836 -0.4631,-0.46302 z m 132.4577,-0.0661 c 0.2634,-0.29104 0.5385,-0.52917 0.6112,-0.52917 0.073,0 -0.083,0.23813 -0.3466,0.52917 -0.2634,0.29104 -0.5384,0.52917 -0.6112,0.52917 -0.073,0 0.083,-0.23813 0.3466,-0.52917 z m 173.0287,-16.13958 c 0,-7.93089 0.034,-11.17534 0.075,-7.2099 0.041,3.96544 0.041,10.45435 0,14.41979 -0.041,3.96545 -0.075,0.72099 -0.075,-7.20989 z m -198.1801,5.95312 c 2e-4,-4.07458 0.037,-5.70449 0.082,-3.62201 0.045,2.08248 0.045,5.41623 -3e-4,7.40833 -0.045,1.99211 -0.082,0.28826 -0.081,-3.78632 z m -9.783,-6.61458 c 0,-7.42156 0.034,-10.49574 0.075,-6.83152 0.042,3.66423 0.042,9.73642 1e-4,13.49375 -0.041,3.75734 -0.075,0.75933 -0.075,-6.66223 z m 132.4192,11.31094 -0.9118,-0.99219 0.9921,0.9118 c 0.9235,0.84868 1.1139,1.07257 0.9118,1.07257 -0.044,0 -0.4906,-0.44648 -0.9921,-0.99218 z m -54.5396,-0.77606 c 0.191,-0.0764 0.4192,-0.067 0.5071,0.0209 0.088,0.0879 -0.068,0.15045 -0.3472,0.13896 -0.3083,-0.0127 -0.3709,-0.0754 -0.1599,-0.15985 z m -301.3604,-0.52916 c 0.191,-0.0764 0.4192,-0.067 0.5071,0.0209 0.088,0.0879 -0.068,0.15046 -0.3472,0.13897 -0.3083,-0.0127 -0.3709,-0.0754 -0.1599,-0.15985 z m 40.2167,0 c 0.191,-0.0764 0.4192,-0.067 0.5071,0.0209 0.088,0.0879 -0.068,0.15046 -0.3473,0.13897 -0.3082,-0.0127 -0.3709,-0.0754 -0.1598,-0.15985 z m 156.3687,0 c 0.191,-0.0764 0.4192,-0.067 0.5072,0.0209 0.088,0.0879 -0.068,0.15046 -0.3473,0.13897 -0.3082,-0.0127 -0.3709,-0.0754 -0.1599,-0.15985 z m 177.8,0 c 0.191,-0.0764 0.4192,-0.067 0.5071,0.0209 0.088,0.0879 -0.068,0.15046 -0.3472,0.13897 -0.3083,-0.0127 -0.3709,-0.0754 -0.1599,-0.15985 z m 39.1583,0 c 0.1911,-0.0764 0.4193,-0.067 0.5072,0.0209 0.088,0.0879 -0.068,0.15046 -0.3473,0.13897 -0.3082,-0.0127 -0.3709,-0.0754 -0.1599,-0.15985 z m -481.492,-1.5068 c 0,-0.0549 0.2084,-0.2633 0.463,-0.46302 0.4197,-0.32911 0.429,-0.31975 0.1,0.0999 -0.3456,0.44073 -0.5629,0.58088 -0.5629,0.36312 z m 269.3458,-0.52917 c 0,-0.0549 0.2084,-0.2633 0.4631,-0.46302 0.4196,-0.3291 0.429,-0.31975 0.1,0.0999 -0.3457,0.44073 -0.563,0.58089 -0.563,0.36312 z m -268.2875,-0.52916 c 0,-0.0549 0.2084,-0.2633 0.4631,-0.46302 0.4196,-0.32911 0.429,-0.31975 0.1,0.0999 -0.3457,0.44073 -0.563,0.58089 -0.563,0.36313 z m 429.799,-1.81834 -0.7771,-0.85989 0.8599,0.7771 c 0.8016,0.72437 0.9815,0.94269 0.7771,0.94269 -0.045,0 -0.4325,-0.38695 -0.8599,-0.8599 z m 28.161,0.1323 c -0.3291,-0.41965 -0.3197,-0.42901 0.1,-0.0999 0.2547,0.19972 0.463,0.40808 0.463,0.46302 0,0.21776 -0.2172,0.0776 -0.5629,-0.36312 z m -242.6387,-1.04064 c 0.191,-0.0764 0.4192,-0.067 0.5071,0.0209 0.088,0.0879 -0.068,0.15045 -0.3473,0.13896 -0.3082,-0.0127 -0.3709,-0.0754 -0.1598,-0.15985 z m -133.3666,-0.25907 c 0.1819,-0.0734 0.4796,-0.0734 0.6615,0 0.1819,0.0734 0.033,0.13345 -0.3307,0.13345 -0.3638,0 -0.5127,-0.06 -0.3308,-0.13345 z m 372.7979,0 c 0.1819,-0.0734 0.4796,-0.0734 0.6615,0 0.1819,0.0734 0.033,0.13345 -0.3307,0.13345 -0.3638,0 -0.5127,-0.06 -0.3308,-0.13345 z m -105.4305,-3.26436 c 0,-0.65484 0.052,-0.92273 0.1146,-0.59531 0.063,0.32742 0.063,0.8632 0,1.19063 -0.063,0.32742 -0.1146,0.0595 -0.1146,-0.59532 z m 122.7364,-0.52916 c 0,-0.36381 0.06,-0.51263 0.1334,-0.33073 0.073,0.1819 0.073,0.47955 0,0.66146 -0.073,0.1819 -0.1334,0.0331 -0.1334,-0.33073 z m -262.0131,-0.19844 c -0.329,-0.41965 -0.3197,-0.429 0.1,-0.0999 0.4408,0.34565 0.5809,0.56292 0.3632,0.56292 -0.055,0 -0.2633,-0.20836 -0.4631,-0.46302 z m 10.3526,0.36312 c 0,-0.0549 0.2083,-0.2633 0.463,-0.46302 0.4196,-0.3291 0.429,-0.31975 0.1,0.0999 -0.3457,0.44073 -0.563,0.58089 -0.563,0.36312 z m 241.8709,-0.42927 c 0,-0.3638 0.06,-0.51263 0.1334,-0.33073 0.073,0.18191 0.073,0.47956 0,0.66146 -0.073,0.1819 -0.1334,0.0331 -0.1334,-0.33073 z m -255.3985,-3.37343 c -0.329,-0.41965 -0.3197,-0.42901 0.1,-0.0999 0.4408,0.34564 0.5809,0.56292 0.3632,0.56292 -0.055,0 -0.2633,-0.20836 -0.4631,-0.46302 z m 154.815,0.27698 c 6.26,-0.1875 12.1105,-0.19355 11.9981,-0.0124 -0.068,0.10914 -3.3605,0.17352 -7.3173,0.14306 -3.9569,-0.0304 -6.0632,-0.0892 -4.6808,-0.13066 z m 123.9322,-3.31969 -0.504,-0.59531 0.5953,0.50402 c 0.5594,0.47367 0.7157,0.6866 0.504,0.6866 -0.05,0 -0.3181,-0.26789 -0.5953,-0.59531 z m -142.9822,0.23083 c 0,-0.0549 0.2084,-0.2633 0.4631,-0.46302 0.4196,-0.32911 0.429,-0.31975 0.1,0.0999 -0.3457,0.44073 -0.563,0.58088 -0.563,0.36312 z m 188.085,-0.36312 c -0.3291,-0.41965 -0.3197,-0.42901 0.1,-0.0999 0.4408,0.34564 0.5809,0.56292 0.3632,0.56292 -0.055,0 -0.2633,-0.20836 -0.4631,-0.46302 z m -363.5533,-2.36356 c 0.191,-0.0764 0.4192,-0.067 0.5071,0.0209 0.088,0.0879 -0.068,0.15045 -0.3472,0.13896 -0.3083,-0.0127 -0.371,-0.0754 -0.1599,-0.15985 z m -261.0426,-0.7453 c 0,-0.43656 0.065,-0.58312 0.1318,-0.32569 0.067,0.25743 0.063,0.61462 -0.01,0.79375 -0.072,0.17913 -0.1273,-0.0315 -0.1219,-0.46806 z m 307.6251,-0.85989 c -0.3291,-0.41965 -0.3197,-0.42901 0.1,-0.0999 0.4407,0.34564 0.5809,0.56292 0.3631,0.56292 -0.055,0 -0.2633,-0.20836 -0.463,-0.46302 z m 2.9442,0.36312 c 0,-0.0549 0.2083,-0.2633 0.463,-0.46302 0.4197,-0.32911 0.429,-0.31975 0.1,0.0999 -0.3456,0.44073 -0.5629,0.58088 -0.5629,0.36312 z m 74.3479,-5.82083 c 0,-0.0549 0.2084,-0.2633 0.463,-0.46302 0.4197,-0.32911 0.429,-0.31975 0.1,0.0999 -0.3456,0.44073 -0.5629,0.58089 -0.5629,0.36313 z m -16.4042,-0.26459 c 0,-0.0549 0.2084,-0.2633 0.4631,-0.46302 0.4196,-0.3291 0.429,-0.31975 0.1,0.0999 -0.3457,0.44073 -0.563,0.58089 -0.563,0.36312 z m 37.0079,-0.36312 c -0.3291,-0.41965 -0.3197,-0.429 0.1,-0.0999 0.2547,0.19972 0.4631,0.40808 0.4631,0.46302 0,0.21777 -0.2173,0.0776 -0.563,-0.36312 z m 74.6463,0.36312 c 0,-0.0549 0.2084,-0.2633 0.463,-0.46302 0.4197,-0.3291 0.429,-0.31975 0.1,0.0999 -0.3456,0.44073 -0.5629,0.58089 -0.5629,0.36312 z m -19.1161,-1.66283 c 0.1819,-0.0734 0.4795,-0.0734 0.6614,0 0.1819,0.0734 0.033,0.13345 -0.3307,0.13345 -0.3638,0 -0.5127,-0.06 -0.3307,-0.13345 z m -310.0256,-1.54456 c 0.3418,-0.3638 0.681,-0.66146 0.7537,-0.66146 0.073,0 -0.1473,0.29766 -0.4891,0.66146 -0.3417,0.3638 -0.6809,0.66146 -0.7537,0.66146 -0.073,0 0.1474,-0.29766 0.4891,-0.66146 z m 83.0792,-3.40719 c 0,-0.0549 0.2084,-0.2633 0.463,-0.46302 0.4197,-0.32911 0.429,-0.31975 0.1,0.0999 -0.3456,0.44073 -0.5629,0.58088 -0.5629,0.36312 z m -90.2229,-2.67823 c 0.4937,-0.50932 0.9571,-0.92604 1.0298,-0.92604 0.073,0 -0.2716,0.41672 -0.7652,0.92604 -0.4937,0.50932 -0.9571,0.92604 -1.0299,0.92604 -0.073,0 0.2716,-0.41672 0.7653,-0.92604 z m 80.7397,-1.71979 c 0,-0.3638 0.06,-0.51263 0.1334,-0.33073 0.073,0.1819 0.073,0.47956 0,0.66146 -0.073,0.1819 -0.1334,0.0331 -0.1334,-0.33073 z m 11.3771,0 c 0,-0.3638 0.06,-0.51263 0.1334,-0.33073 0.073,0.1819 0.073,0.47956 0,0.66146 -0.073,0.1819 -0.1334,0.0331 -0.1334,-0.33073 z m -202.8449,-5.02708 c 0.2634,-0.29105 0.5384,-0.52917 0.6112,-0.52917 0.073,0 -0.083,0.23812 -0.3466,0.52917 -0.2634,0.29104 -0.5385,0.52916 -0.6112,0.52916 -0.073,0 0.083,-0.23812 0.3466,-0.52916 z m 9.0943,-0.72761 c -0.3291,-0.41964 -0.3197,-0.429 0.1,-0.0999 0.4408,0.34564 0.5809,0.56291 0.3632,0.56291 -0.055,0 -0.2633,-0.20836 -0.4631,-0.46302 z m 34.0076,-9.39271 -0.504,-0.59531 0.5953,0.50403 c 0.5594,0.47366 0.7158,0.6866 0.504,0.6866 -0.05,0 -0.3181,-0.26789 -0.5953,-0.59532 z m -71.8092,-4.79625 c 0,-0.0549 0.2083,-0.2633 0.463,-0.46302 0.4196,-0.3291 0.429,-0.31975 0.1,0.0999 -0.3456,0.44073 -0.5629,0.58089 -0.5629,0.36312 z"
         id="path715" /><path
         style="fill:#ffffff;stroke-width:0.264583"
         d="m 1118.9774,696.63229 c 0.191,-0.0764 0.4192,-0.067 0.5071,0.0209 0.088,0.0879 -0.068,0.15046 -0.3473,0.13897 -0.3082,-0.0127 -0.3709,-0.0754 -0.1598,-0.15985 z m -35.8266,-6.23541 -0.504,-0.59531 0.5953,0.50403 c 0.5595,0.47366 0.7158,0.68659 0.504,0.68659 -0.05,0 -0.3181,-0.26789 -0.5953,-0.59531 z m 77.193,-2.3151 c 0,-0.36381 0.06,-0.51263 0.1334,-0.33073 0.073,0.1819 0.073,0.47955 0,0.66146 -0.073,0.1819 -0.1334,0.0331 -0.1334,-0.33073 z m -1.6631,-3.63802 c -0.3291,-0.41965 -0.3197,-0.42901 0.1,-0.0999 0.2547,0.19972 0.4631,0.40808 0.4631,0.46302 0,0.21776 -0.2173,0.0776 -0.563,-0.36312 z m 421.515,-6.25146 c 0,-0.0549 0.2084,-0.2633 0.463,-0.46302 0.4197,-0.32911 0.429,-0.31975 0.1,0.0999 -0.3457,0.44073 -0.563,0.58089 -0.563,0.36313 z m -117.7733,-0.89229 c -0.3291,-0.41965 -0.3198,-0.42901 0.1,-0.0999 0.4407,0.34564 0.5809,0.56292 0.3631,0.56292 -0.055,0 -0.2633,-0.20836 -0.463,-0.46302 z m 47.5013,-0.39688 -0.504,-0.59531 0.5953,0.50403 c 0.5594,0.47366 0.7158,0.68659 0.504,0.68659 -0.05,0 -0.3181,-0.26789 -0.5953,-0.59531 z m 128.4661,-2.24896 -0.9118,-0.99218 0.9922,0.91179 c 0.9235,0.84868 1.1138,1.07258 0.9118,1.07258 -0.044,0 -0.4907,-0.44648 -0.9922,-0.99219 z m -216.9641,0 -0.6414,-0.7276 0.7276,0.64143 c 0.4002,0.35279 0.7276,0.68021 0.7276,0.7276 0,0.20751 -0.2143,0.0386 -0.8138,-0.64143 z m 160.3784,0.30868 c 0.013,-0.30822 0.075,-0.37092 0.1599,-0.15985 0.076,0.191 0.067,0.4192 -0.021,0.50712 -0.088,0.0879 -0.1505,-0.0684 -0.139,-0.34727 z m -129.8079,-14.00087 c 0,-7.85812 0.034,-11.03464 0.075,-7.05892 0.041,3.97571 0.041,10.40508 -1e-4,14.2875 -0.041,3.88241 -0.075,0.62955 -0.075,-7.22858 z m 72.4796,13.29532 -0.504,-0.59531 0.5953,0.50402 c 0.5594,0.47367 0.7157,0.6866 0.504,0.6866 -0.05,0 -0.3181,-0.26789 -0.5953,-0.59531 z m -258.8897,-0.39688 -0.6414,-0.7276 0.7276,0.64143 c 0.4002,0.35279 0.7276,0.68021 0.7276,0.7276 0,0.20751 -0.2142,0.0386 -0.8138,-0.64143 z m 36.6553,-12.76614 c 0,-7.34881 0.034,-10.35513 0.075,-6.68073 0.042,3.6744 0.042,9.68705 0,13.36146 -0.042,3.6744 -0.075,0.66807 -0.075,-6.68073 z m 195.2521,7.14375 c 0,-3.1287 0.038,-4.40862 0.085,-2.84427 0.047,1.56434 0.047,4.12419 0,5.68854 -0.047,1.56435 -0.085,0.28442 -0.085,-2.84427 z m -382.8573,3.10885 -0.504,-0.59531 0.5953,0.50403 c 0.5595,0.47366 0.7158,0.68659 0.504,0.68659 -0.05,0 -0.318,-0.26789 -0.5953,-0.59531 z m 168.4325,-2.67958 c 0,-0.0549 0.2083,-0.2633 0.463,-0.46302 0.4196,-0.32911 0.429,-0.31975 0.1,0.0999 -0.3457,0.44073 -0.5629,0.58089 -0.5629,0.36313 z m 372.9302,-0.42927 c 0.2633,-0.29105 0.5384,-0.52917 0.6111,-0.52917 0.073,0 -0.083,0.23812 -0.3466,0.52917 -0.2634,0.29104 -0.5384,0.52916 -0.6112,0.52916 -0.073,0 0.083,-0.23812 0.3467,-0.52916 z m -428.2482,-2.05052 -0.6414,-0.72761 0.7276,0.64143 c 0.4002,0.35279 0.7276,0.68022 0.7276,0.72761 0,0.20751 -0.2143,0.0386 -0.8138,-0.64143 z m 28.0321,0 c -0.3291,-0.41965 -0.3197,-0.42901 0.1,-0.0999 0.2547,0.19972 0.463,0.40808 0.463,0.46302 0,0.21776 -0.2172,0.0776 -0.5629,-0.36312 z m -144.1224,-3.77032 c 0,-0.3638 0.06,-0.51263 0.1335,-0.33073 0.073,0.18191 0.073,0.47956 0,0.66146 -0.073,0.1819 -0.1335,0.0331 -0.1335,-0.33073 z m 43.4571,-0.85989 -0.5041,-0.59532 0.5954,0.50403 c 0.3274,0.27722 0.5953,0.54511 0.5953,0.59532 0,0.21173 -0.213,0.0554 -0.6866,-0.50403 z m 226.3424,0.13229 c -0.3291,-0.41965 -0.3198,-0.429 0.1,-0.0999 0.2546,0.19972 0.463,0.40808 0.463,0.46302 0,0.21777 -0.2173,0.0776 -0.5629,-0.36312 z m 8.765,0.36312 c 0,-0.0549 0.2084,-0.2633 0.463,-0.46302 0.4197,-0.3291 0.429,-0.31975 0.1,0.0999 -0.3456,0.44073 -0.5629,0.58089 -0.5629,0.36312 z m 35.4959,-0.95843 c 0,-0.36381 0.06,-0.51263 0.1335,-0.33073 0.073,0.1819 0.073,0.47955 0,0.66146 -0.073,0.1819 -0.1335,0.0331 -0.1335,-0.33073 z m 44.9583,-1.74184 c 0.013,-0.30823 0.075,-0.37092 0.1599,-0.15986 0.076,0.191 0.067,0.4192 -0.021,0.50712 -0.088,0.0879 -0.1505,-0.0683 -0.139,-0.34726 z m -92.3942,-1.10243 c -0.3291,-0.41965 -0.3198,-0.42901 0.1,-0.0999 0.4407,0.34564 0.5809,0.56292 0.3631,0.56292 -0.055,0 -0.2633,-0.20836 -0.463,-0.46302 z m 15.115,0.36312 c 0,-0.0549 0.2084,-0.2633 0.463,-0.46302 0.4197,-0.32911 0.429,-0.31975 0.1,0.0999 -0.3456,0.44073 -0.5629,0.58088 -0.5629,0.36312 z m 104.1037,-12.86469 c 0,-7.05776 0.034,-9.94502 0.076,-6.41614 0.042,3.52888 0.042,9.30341 0,12.83229 -0.042,3.52888 -0.076,0.64161 -0.076,-6.41615 z m 12.313,12.60011 c 0,-0.0549 0.2083,-0.2633 0.463,-0.46302 0.4196,-0.32911 0.429,-0.31975 0.1,0.0999 -0.3457,0.44073 -0.5629,0.58089 -0.5629,0.36313 z m -156.0833,-0.8482 c 0.013,-0.30822 0.075,-0.37092 0.1598,-0.15985 0.076,0.191 0.067,0.4192 -0.021,0.50712 -0.088,0.0879 -0.1504,-0.0683 -0.1389,-0.34727 z m 144.9708,-0.21014 c 0,-0.0549 0.2083,-0.2633 0.463,-0.46302 0.4196,-0.3291 0.429,-0.31975 0.1,0.0999 -0.3457,0.44073 -0.5629,0.58089 -0.5629,0.36312 z m -123.5942,-2.47979 c -0.3291,-0.41964 -0.3198,-0.429 0.1,-0.0999 0.4407,0.34564 0.5809,0.56291 0.3631,0.56291 -0.055,0 -0.2633,-0.20836 -0.463,-0.46302 z m 21.465,0.36313 c 0,-0.0549 0.2084,-0.2633 0.463,-0.46302 0.4197,-0.32911 0.429,-0.31975 0.1,0.0999 -0.3456,0.44073 -0.5629,0.58089 -0.5629,0.36313 z m -113.0108,-0.89229 c -0.3291,-0.41965 -0.3198,-0.42901 0.1,-0.0999 0.4407,0.34564 0.5809,0.56292 0.3631,0.56292 -0.055,0 -0.2633,-0.20836 -0.463,-0.46302 z m 217.5212,0.36312 c 0,-0.0549 0.2084,-0.2633 0.463,-0.46302 0.4197,-0.32911 0.429,-0.31975 0.1,0.0999 -0.3456,0.44073 -0.5629,0.58088 -0.5629,0.36312 z m 41.6468,-0.49542 -0.5041,-0.59531 0.5953,0.50403 c 0.5595,0.47366 0.7158,0.6866 0.5041,0.6866 -0.05,0 -0.3181,-0.26789 -0.5953,-0.59532 z m -11.7489,0.23084 c 0,-0.0549 0.2084,-0.2633 0.4631,-0.46302 0.4196,-0.32911 0.4289,-0.31975 0.1,0.0999 -0.3457,0.44073 -0.563,0.58089 -0.563,0.36313 z m -188.6816,-0.89229 c -0.3291,-0.41965 -0.3198,-0.42901 0.1,-0.0999 0.2546,0.19972 0.463,0.40808 0.463,0.46302 0,0.21776 -0.2173,0.0776 -0.5629,-0.36312 z m -265.5662,-1.12448 c 0,-0.36381 0.06,-0.51263 0.1335,-0.33073 0.073,0.1819 0.073,0.47955 0,0.66146 -0.073,0.1819 -0.1335,0.0331 -0.1335,-0.33073 z m 438.6374,-0.0999 c 0,-0.0549 0.2084,-0.2633 0.463,-0.46302 0.4197,-0.32911 0.429,-0.31975 0.1,0.0999 -0.3456,0.44073 -0.5629,0.58088 -0.5629,0.36312 z m -115.8875,-0.26458 c 0,-0.0549 0.2084,-0.2633 0.463,-0.46302 0.4197,-0.32911 0.429,-0.31975 0.1,0.0999 -0.3456,0.44073 -0.5629,0.58089 -0.5629,0.36313 z m 104.2458,-0.26459 c 0,-0.0549 0.2084,-0.2633 0.4631,-0.46302 0.4196,-0.3291 0.429,-0.31975 0.1,0.0999 -0.3457,0.44073 -0.563,0.58089 -0.563,0.36312 z m -426.9859,-1.88447 c 0,-0.43657 0.065,-0.58313 0.1318,-0.3257 0.067,0.25743 0.063,0.61462 -0.01,0.79375 -0.072,0.17913 -0.1273,-0.0315 -0.1219,-0.46805 z m 306.8314,-0.33073 c -0.3291,-0.41965 -0.3198,-0.42901 0.1,-0.0999 0.4407,0.34564 0.5809,0.56292 0.3631,0.56292 -0.055,0 -0.2633,-0.20836 -0.463,-0.46302 z m 4.5316,0.36312 c 0,-0.0549 0.2084,-0.2633 0.4631,-0.46302 0.4196,-0.32911 0.429,-0.31975 0.1,0.0999 -0.3457,0.44073 -0.563,0.58088 -0.563,0.36312 z m -97.6512,-1.95062 -0.6415,-0.72761 0.7276,0.64143 c 0.4002,0.35279 0.7276,0.68022 0.7276,0.72761 0,0.20751 -0.2142,0.0386 -0.8137,-0.64143 z m 258.3605,-0.39688 -0.5041,-0.59531 0.5954,0.50403 c 0.5594,0.47366 0.7157,0.68659 0.504,0.68659 -0.05,0 -0.3181,-0.26789 -0.5953,-0.59531 z m -158.5926,-0.0337 c 0,-0.0549 0.2084,-0.2633 0.463,-0.46302 0.4197,-0.32911 0.429,-0.31975 0.1,0.0999 -0.3456,0.44073 -0.5629,0.58088 -0.5629,0.36312 z m 317.4662,-0.62771 c -0.3291,-0.41964 -0.3197,-0.429 0.1,-0.0999 0.4408,0.34564 0.5809,0.56291 0.3632,0.56291 -0.055,0 -0.2633,-0.20836 -0.4631,-0.46302 z m -198.1391,-1.52135 c 0.4936,-0.50932 0.9571,-0.92604 1.0298,-0.92604 0.073,0 -0.2716,0.41672 -0.7652,0.92604 -0.4937,0.50932 -0.9571,0.92604 -1.0299,0.92604 -0.073,0 0.2716,-0.41672 0.7653,-0.92604 z m -231.5766,-2.43568 c 0.3275,-0.0631 0.8632,-0.0631 1.1907,0 0.3274,0.0631 0.06,0.11466 -0.5954,0.11466 -0.6548,0 -0.9227,-0.0516 -0.5953,-0.11466 z m 60.9901,-0.003 c 0.4022,-0.0608 0.9975,-0.0592 1.3229,0.004 0.3255,0.0628 0,0.11256 -0.7312,0.11058 -0.7276,-0.002 -0.9939,-0.0534 -0.5917,-0.11419 z m 196.9787,0.003 c 0.3274,-0.0631 0.8632,-0.0631 1.1906,0 0.3274,0.0631 0.06,0.11466 -0.5953,0.11466 -0.6549,0 -0.9228,-0.0516 -0.5953,-0.11466 z m 160.8666,0 c 0.3275,-0.0631 0.8632,-0.0631 1.1907,0 0.3274,0.0631 0.06,0.11466 -0.5954,0.11466 -0.6548,0 -0.9227,-0.0516 -0.5953,-0.11466 z m -68.9692,-6.5822 c 0.013,-0.30823 0.075,-0.37092 0.1599,-0.15986 0.076,0.191 0.067,0.4192 -0.021,0.50712 -0.088,0.0879 -0.1505,-0.0684 -0.139,-0.34726 z m -34.4278,-0.97014 c 0.6488,-0.69123 1.2143,-1.25677 1.2568,-1.25677 0.1987,0 -0.011,0.23755 -1.1796,1.33397 l -1.2567,1.17957 z m -224.9185,-2.77813 c -0.3291,-0.41964 -0.3197,-0.429 0.1,-0.0999 0.4407,0.34564 0.5809,0.56291 0.3631,0.56291 -0.055,0 -0.2633,-0.20836 -0.463,-0.46302 z m 34.6942,0.36313 c 0,-0.0549 0.2083,-0.2633 0.463,-0.46302 0.4197,-0.32911 0.429,-0.31975 0.1,0.0999 -0.3456,0.44073 -0.5629,0.58089 -0.5629,0.36313 z m -36.8109,-2.74438 c -0.329,-0.41964 -0.3197,-0.429 0.1,-0.0999 0.4408,0.34564 0.5809,0.56291 0.3632,0.56291 -0.055,0 -0.2633,-0.20836 -0.4631,-0.46302 z m 38.9276,0.36313 c 0,-0.0549 0.2083,-0.2633 0.463,-0.46302 0.4196,-0.32911 0.429,-0.31975 0.1,0.0999 -0.3457,0.44073 -0.563,0.58089 -0.563,0.36313 z m -168.0766,-2.72117 c 0.1819,-0.0734 0.4796,-0.0734 0.6615,0 0.1819,0.0734 0.033,0.13345 -0.3308,0.13345 -0.3638,0 -0.5126,-0.0601 -0.3307,-0.13345 z m 2.927,-0.005 c 0.1909,-0.0764 0.4192,-0.067 0.5071,0.0209 0.088,0.0879 -0.068,0.15046 -0.3473,0.13897 -0.3082,-0.0127 -0.3709,-0.0754 -0.1598,-0.15985 z m 369.8874,0 c 0.191,-0.0764 0.4192,-0.067 0.5072,0.0209 0.088,0.0879 -0.068,0.15046 -0.3473,0.13897 -0.3082,-0.0127 -0.3709,-0.0754 -0.1599,-0.15985 z m -455.8474,-8.21979 -0.6415,-0.72761 0.7276,0.64144 c 0.6801,0.59951 0.849,0.81377 0.6415,0.81377 -0.047,0 -0.3749,-0.32742 -0.7276,-0.7276 z m -2.2541,-2.24896 -0.504,-0.59531 0.5953,0.50403 c 0.3274,0.27721 0.5953,0.5451 0.5953,0.59531 0,0.21173 -0.213,0.0554 -0.6866,-0.50403 z m -68.502,-6.01927 c 0.8641,-0.87313 1.6305,-1.5875 1.7033,-1.5875 0.073,0 -0.5747,0.71437 -1.4387,1.5875 -0.864,0.87312 -1.6304,1.5875 -1.7032,1.5875 -0.073,0 0.5746,-0.71438 1.4386,-1.5875 z"
         id="path713" /><path
         style="fill:#ffffff;stroke-width:0.264583"
         d="m 1116.6922,706.31787 c -18.4214,-1.77845 -34.8816,-13.1159 -43.4541,-29.9302 -2.6907,-5.27776 -4.4123,-10.47785 -5.4572,-16.48402 -0.7056,-4.05549 -0.6383,-14.26846 0.1211,-18.38854 2.1044,-11.41771 7.051,-21.13265 14.8689,-29.2019 4.9024,-5.06001 9.3338,-8.29489 15.4325,-11.26568 4.4177,-2.15194 8.2181,-3.4627 12.6911,-4.37723 22.684,-4.63779 45.3909,5.52782 57.618,25.79481 5.4295,8.99966 8.3496,20.52993 7.84,30.95625 -0.1976,4.04264 -0.8015,6.44805 -2.4575,9.78891 -2.2022,4.44272 -6.4265,8.03521 -11.0795,9.4223 -2.1863,0.65177 -6.3678,0.64877 -8.3343,-0.006 -6.3886,-2.12704 -10.4181,-7.4484 -11.3663,-15.01046 -0.1515,-1.2081 -0.2754,-4.78927 -0.2754,-7.95816 0,-3.1689 -0.089,-5.76045 -0.1984,-5.75901 -0.1092,10e-4 -2.9964,4.5522 -6.4162,10.11281 -7.9904,12.99262 -9.0097,14.53923 -10.6904,16.21991 -2.4653,2.46534 -5.4037,3.48529 -7.9705,2.76665 -1.536,-0.43005 -3.5826,-2.24422 -4.3332,-3.84095 -1.3128,-2.79283 -1.4012,-3.61656 -1.5777,-14.69547 l -0.1667,-10.4688 -11.7117,18.79342 -11.7117,18.79343 2.0544,2.08245 c 12.8358,13.0111 32.4711,16.67935 49.4285,9.23419 4.0214,-1.76563 8.7745,-4.83905 11.7431,-7.59339 1.6038,-1.48802 2.7615,-2.04501 4.2505,-2.04501 1.4072,0 2.4737,0.47861 3.4734,1.55879 1.0333,1.11641 1.2891,1.76298 1.2891,3.25791 0,2.4221 -1.1239,3.77811 -6.4781,7.81641 -10.3722,7.82285 -24.1187,11.68285 -37.1317,10.42654 z m -21.1745,-55.0779 c 14.2953,-22.95608 14.8514,-23.73317 17.6478,-24.66089 2.7726,-0.91978 5.8097,0.36201 7.179,3.02978 1.1217,2.18526 1.1561,2.60962 1.3108,16.13958 l 0.1498,13.09688 6.7469,-10.80987 c 3.7108,-5.94543 7.3791,-11.57667 8.1519,-12.51387 2.715,-3.29264 6.0736,-5.11467 8.7555,-4.74976 1.9762,0.2689 3.8435,1.33831 4.9364,2.8271 2.1128,2.87832 2.4979,5.26791 2.4979,15.503 0,4.07731 0.1217,7.7716 0.2805,8.51206 0.1543,0.71954 0.6604,1.94354 1.1245,2.72001 2.7882,4.66428 9.2035,3.07396 11.6065,-2.87718 0.5724,-1.41768 0.6142,-1.88432 0.61,-6.81358 0,-4.50352 -0.097,-5.74484 -0.6265,-8.33437 -3.3478,-16.37828 -14.6532,-29.39074 -29.9955,-34.52459 -5.4133,-1.81141 -7.2974,-2.09198 -14.0881,-2.0979 -5.3281,-0.005 -6.4229,0.0683 -8.7971,0.58646 -4.0796,0.89029 -7.2352,2.00573 -11.0466,3.90475 -20.1635,10.0464 -29.9912,33.78923 -22.8552,55.21592 0.9843,2.95524 2.8723,7.1133 3.1516,6.9407 0.1108,-0.0685 6.0778,-9.56092 13.2599,-21.09423 z m 585.2642,42.09492 c -0.6708,-0.33204 -1.4389,-1.00968 -1.8521,-1.63398 l -0.7059,-1.06666 -0.069,-22.11217 c -0.064,-20.66964 -0.039,-22.17136 0.3969,-23.01941 1.3792,-2.68618 4.8726,-2.76938 6.3444,-0.1511 0.3273,0.58208 0.5969,1.32622 0.5993,1.65364 0,0.32743 0.075,0.59532 0.1622,0.59532 0.087,0 0.7009,-0.47805 1.3647,-1.06233 1.4737,-1.29718 3.8603,-2.48922 6.1283,-3.06084 2.4137,-0.60837 7.246,-0.41928 9.3969,0.36771 4.86,1.77827 8.5211,5.67001 10.3775,11.0315 0.6674,1.92724 0.7338,2.45999 0.7419,5.95312 0.011,4.49491 -0.3234,5.9586 -2.2025,9.65729 -2.0628,4.06034 -5.5145,6.99065 -9.6927,8.22865 -3.2528,0.96378 -8.4942,0.34558 -12.0353,-1.41951 -0.7986,-0.39804 -1.5427,-0.76341 -1.6536,-0.81191 -0.111,-0.0485 -0.2024,2.80899 -0.2032,6.35 0,3.67597 -0.1206,6.86698 -0.279,7.43761 -0.8267,2.97656 -4.0596,4.42884 -6.8188,3.06307 z m 18.258,-23.45232 c 1.6012,-0.71983 3.0591,-2.27395 4.0249,-4.29038 0.7606,-1.58825 0.8236,-1.93269 0.8236,-4.50348 0,-2.61317 -0.053,-2.89206 -0.871,-4.55295 -1.4663,-2.97849 -3.7582,-4.43732 -6.9714,-4.43732 -3.171,0 -5.96,1.81291 -7.3267,4.7625 -0.8804,1.90018 -1.0902,5.08295 -0.4746,7.20072 1.4738,5.06949 6.4719,7.76454 10.7952,5.82091 z m -422.9827,9.21918 c -4.1406,-0.67348 -7.1253,-2.22004 -10.2136,-5.29221 -1.8966,-1.88665 -2.4821,-2.68336 -3.5116,-4.77776 -0.6795,-1.38245 -1.4093,-3.34698 -1.6219,-4.36563 -1.675,-8.02747 2.389,-16.22457 9.7908,-19.74841 2.9109,-1.3858 4.7884,-1.81513 7.9375,-1.81513 5.008,0 8.4201,1.41989 12.0722,5.02365 1.9513,1.92548 2.4565,2.6172 3.4803,4.76593 1.5495,3.25212 1.9083,4.80851 1.8912,8.20209 -0.015,3.05707 -0.599,5.49504 -1.9617,8.19451 -2.2598,4.47666 -6.4025,7.97653 -11.088,9.36749 -1.7532,0.52047 -5.0012,0.73402 -6.7752,0.44547 z m 5.2293,-9.22138 c 1.6249,-0.71879 3.0273,-2.21443 3.9988,-4.26473 0.7619,-1.6078 0.8261,-1.95909 0.8261,-4.52136 0,-2.4447 -0.083,-2.95553 -0.6932,-4.25622 -1.4408,-3.07238 -3.7989,-4.59638 -7.112,-4.59638 -3.2742,0 -5.8297,1.56098 -7.3458,4.48697 -0.8977,1.7325 -1.1271,5.15088 -0.4922,7.33484 1.476,5.0774 6.4473,7.75039 10.8183,5.81688 z m 253.5757,9.18859 c -6.8868,-0.95297 -11.8291,-4.86135 -13.8637,-10.96323 -0.6509,-1.95245 -0.7067,-2.46561 -0.7183,-6.61458 -0.011,-3.93325 0.064,-4.76214 0.5968,-6.60266 1.3726,-4.74091 4.0702,-8.23035 7.7529,-10.02875 2.8003,-1.36749 4.6117,-1.75713 8.1689,-1.75713 4.999,0 8.5904,1.28915 11.7009,4.2001 3.1884,2.98382 5,7.1731 5.0675,11.71815 0.033,2.20476 -0.038,2.66012 -0.5101,3.30729 -1.2146,1.6635 -1.3072,1.67568 -12.7473,1.67613 l -10.3849,4.1e-4 v 0.72761 c 0.01,4.26166 4.626,6.9964 10.4396,6.18312 1.2506,-0.17495 3.1535,-0.67034 4.2287,-1.10087 2.3196,-0.92882 2.7983,-0.9554 4.2808,-0.2377 1.1647,0.56381 2.2161,2.15687 2.2161,3.35769 0,2.34162 -2.6942,4.58574 -6.7511,5.62333 -2.4178,0.61838 -6.9406,0.86226 -9.4783,0.51109 z m 9.4712,-22.00958 c -0.7235,-3.35211 -3.7802,-5.20563 -8.0777,-4.89815 -2.5334,0.18126 -4.5449,1.19342 -5.5634,2.79949 -0.4478,0.70617 -0.7674,1.57413 -0.7674,2.08432 v 0.87424 h 7.2971 7.297 z m -310.4972,21.64595 c -9.6393,-2.00966 -17.2241,-9.25946 -19.733,-18.86155 -0.9209,-3.52423 -0.9771,-8.60507 -0.1334,-12.05989 4.0129,-16.43312 21.6291,-24.6686 36.4228,-17.02751 4.4458,2.29629 5.9078,5.19773 4.0333,8.00447 -0.8765,1.31251 -2.1836,2.06227 -3.5951,2.06227 -0.9787,0 -1.6263,-0.23384 -3.1431,-1.13496 -6.4128,-3.80976 -14.0507,-3.3974 -19.1768,1.03534 -1.8329,1.58497 -3.6925,4.53549 -4.596,7.29225 -0.6952,2.12142 -0.7744,2.71442 -0.7744,5.80249 0,3.07708 0.081,3.68512 0.7637,5.76943 2.1058,6.42488 6.9278,10.32706 13.4967,10.92232 3.7532,0.34011 8.5085,-1.16048 11.5584,-3.64738 1.9868,-1.62002 2.375,-1.79958 3.8903,-1.79958 3.1427,0 5.2018,3.26065 3.7975,6.01334 -1.1283,2.21156 -7.1198,5.92112 -11.6784,7.23052 -2.5438,0.73066 -8.5141,0.94434 -11.1325,0.39844 z m 194.5184,-0.0376 c -3.9499,-1.06226 -8.0404,-4.56488 -10.0173,-8.57765 -1.6997,-3.44982 -2.0496,-5.06726 -2.0323,-9.39271 0.013,-3.27745 0.096,-3.94865 0.718,-5.82641 2.2891,-6.90748 7.8558,-11.47626 14.5594,-11.94934 3.9875,-0.2814 8.0725,1.20587 11.3309,4.1254 l 1.4916,1.33641 0.1794,-1.43615 c 0.1007,-0.80558 0.4144,-1.7349 0.7146,-2.11655 1.6208,-2.06041 4.6153,-1.91561 6.0718,0.29361 0.4737,0.71852 0.4987,1.50837 0.5004,15.78461 0,16.58494 0.051,16.08339 -1.6648,17.12934 -1.0945,0.66734 -2.9661,0.67639 -4.0432,0.0195 -0.8464,-0.51611 -1.6986,-1.96757 -1.6986,-2.89287 0,-1.33264 -0.2794,-1.32133 -1.6693,0.0675 -1.5693,1.56817 -3.5611,2.59807 -6.457,3.3387 -2.3956,0.6127 -5.9064,0.65516 -7.9836,0.0965 z m 8.3761,-8.72273 c 4.6107,-1.9265 6.7015,-8.3666 4.2999,-13.24498 -0.9381,-1.90549 -2.1745,-3.08956 -4.1891,-4.0119 -1.9615,-0.89798 -4.9316,-0.77075 -6.7393,0.28868 -2.673,1.56646 -4.1894,4.38618 -4.223,7.85286 -0.067,6.88132 5.3361,11.4198 10.8515,9.11534 z m 133.9464,8.71676 c -2.852,-0.76641 -4.8037,-2.40085 -6.008,-5.03144 -1.2529,-2.73673 -1.4542,-4.42554 -1.5969,-13.39597 l -0.1336,-8.40052 h -1.6987 c -2.0986,0 -3.2532,-0.46126 -4.173,-1.66712 -1.6943,-2.22138 -0.9858,-5.41645 1.4844,-6.69382 0.4301,-0.22243 1.598,-0.47283 2.5952,-0.55643 l 1.8132,-0.15201 0.085,-5.32104 c 0.084,-5.25065 0.095,-5.33733 0.8091,-6.5524 1.9307,-3.28437 6.5334,-3.04891 8.2765,0.42341 0.6311,1.25739 0.6569,1.50767 0.6569,6.38078 v 5.07205 l 2.5797,0.1253 c 2.9298,0.14231 3.9035,0.51989 4.9799,1.93123 1.5482,2.02971 0.9213,5.03625 -1.3244,6.35233 -0.9873,0.57858 -1.432,0.65772 -3.696,0.65772 h -2.5737 l 0.095,8.13594 c 0.07,6.00341 0.1877,8.36878 0.4499,9.02429 0.4521,1.13036 1.5923,1.62519 3.7448,1.62519 1.821,0 3.1838,0.60262 4.0795,1.80384 0.4056,0.54399 0.5291,1.12265 0.5291,2.47826 0,1.60319 -0.074,1.84663 -0.7937,2.60331 -1.3553,1.42523 -1.9076,1.58294 -5.477,1.56384 -1.9769,-0.0106 -3.8229,-0.17023 -4.7031,-0.40674 z m 36.4614,0.15344 c -5.0718,-0.85585 -10.2599,-3.65309 -13.9055,-7.49729 -3.1565,-3.32847 -5.3881,-7.36504 -6.4746,-11.71142 -0.8295,-3.31833 -0.8324,-8.77631 -0.01,-12.07857 1.2387,-4.95267 3.5786,-8.99221 7.2475,-12.51214 3.6038,-3.45734 7.6411,-5.63238 12.2577,-6.60363 2.7083,-0.56977 7.8181,-0.59626 10.3231,-0.0535 4.5201,0.97933 9.5175,3.64299 10.6451,5.67394 0.6964,1.25426 0.789,3.16547 0.208,4.28913 -1.2085,2.33688 -4.2659,3.22797 -6.2724,1.82811 -1.4015,-0.97771 -4.6377,-2.34996 -6.4447,-2.73274 -3.6483,-0.7728 -7.7586,-0.24707 -10.7913,1.38025 -2.0546,1.10244 -4.9228,4.09 -6.089,6.34242 -2.7491,5.30937 -2.745,12.09157 0.011,17.35693 2.7318,5.22002 8.5987,8.47428 14.4379,8.00848 3.9201,-0.3127 6.0894,-1.25752 11.0113,-4.79585 1.0547,-0.75822 3.0419,-0.87952 4.242,-0.25893 2.0707,1.07081 2.8826,3.47495 1.8758,5.55469 -0.9715,2.00675 -6.3019,5.52129 -10.4427,6.88521 -3.4129,1.12415 -8.3602,1.51087 -11.8324,0.92493 z m 38.2174,-0.13649 c -2.5782,-0.69439 -4.5854,-1.92605 -6.832,-4.1921 -3.5457,-3.57653 -5.1056,-7.29549 -5.3407,-12.73271 -0.117,-2.70666 -0.05,-3.52895 0.453,-5.55625 0.8705,-3.5086 2.3644,-6.20898 4.7603,-8.6045 4.3539,-4.35335 10.3338,-5.79443 15.9459,-3.84274 2.0512,0.71333 5.0908,2.63432 6.1385,3.8795 0.7416,0.8813 0.8083,0.82375 1.0606,-0.91511 0.1319,-0.90928 0.4331,-1.55216 1.0349,-2.20888 1.5954,-1.74079 4.4741,-1.44389 5.7318,0.59115 0.5049,0.81685 0.5229,1.36623 0.5212,15.89611 0,14.29758 -0.027,15.08784 -0.5004,15.80639 -0.7665,1.16258 -1.8534,1.75346 -3.229,1.75543 -2.1915,0.003 -3.2288,-1.09644 -3.8098,-4.03845 l -0.1447,-0.73291 -1.3827,1.41233 c -1.5726,1.60636 -3.5157,2.6206 -6.4662,3.37522 -2.3787,0.60836 -5.904,0.6561 -7.9407,0.10752 z m 8.5448,-8.83416 c 1.5936,-0.70492 3.2078,-2.43593 4.1748,-4.47695 0.7543,-1.59209 0.8335,-1.99936 0.831,-4.27335 0,-2.14715 -0.1026,-2.72743 -0.6882,-3.98083 -0.9561,-2.0467 -2.1173,-3.26903 -3.998,-4.20887 -2.03,-1.01441 -4.6512,-1.11704 -6.5558,-0.25668 -5.1396,2.32164 -6.5586,9.92357 -2.777,14.8762 2.1494,2.81509 5.7813,3.75012 9.0132,2.32048 z m -348.2102,8.6518 c -1.1316,-0.40376 -2.026,-1.15436 -2.7106,-2.27479 l -0.594,-0.97211 -10e-4,-14.09756 c 0,-15.40402 -0.02,-15.20169 1.5435,-16.51757 2.3186,-1.95096 5.4589,-1.48467 7.2103,1.07061 l 0.6376,0.93028 0.073,14.10607 c 0.07,13.61715 0.055,14.14168 -0.4514,15.13373 -0.6589,1.29153 -1.8626,2.31661 -3.1354,2.67009 -1.1808,0.32795 -1.5345,0.32124 -2.5715,-0.0488 z m 18.7854,-0.0725 c -1.3221,-0.46748 -2.6516,-1.88229 -3.0218,-3.2156 -0.1835,-0.66069 -0.283,-5.84243 -0.284,-14.78558 0,-13.75938 0,-13.76918 0.5939,-14.92939 1.0102,-1.97007 3.1449,-2.66682 4.8972,-1.59842 0.9977,0.60829 1.9134,1.97758 1.9148,2.86326 0,0.57514 0.095,0.54019 1.5223,-0.56766 3.0455,-2.36324 5.2654,-3.08792 9.4589,-3.08792 3.2904,0 4.9193,0.36691 7.3561,1.65702 3.0142,1.59576 5.457,5.1616 6.4591,9.42857 0.4067,1.73202 0.4723,3.31545 0.4723,11.40399 0,10.59489 -0.02,10.71778 -2.0278,12.1719 -1.8273,1.32365 -4.0772,1.25671 -5.7749,-0.17183 -1.7178,-1.44545 -1.7091,-1.38953 -1.8546,-11.86777 -0.1299,-9.3558 -0.1434,-9.54764 -0.7596,-10.79923 -0.8112,-1.64757 -2.1149,-2.50603 -4.3743,-2.88043 -3.4563,-0.57272 -6.0314,0.67366 -7.3301,3.54783 -0.6184,1.36844 -0.6359,1.61003 -0.7652,10.5287 -0.1454,10.03531 -0.1449,10.03232 -1.8508,11.46769 -0.7706,0.64842 -2.3149,1.24122 -3.1763,1.21922 -0.2182,-0.006 -0.8731,-0.17853 -1.4552,-0.38435 z m 41.0515,0.0235 c -1.3166,-0.48492 -2.2394,-1.34961 -2.8483,-2.66874 -0.4627,-1.0025 -0.4887,-2.2531 -0.4942,-23.70534 -0.01,-22.18765 0.01,-22.65657 0.5146,-23.11797 0.6732,-0.60929 1.6616,-0.59929 2.4839,0.0251 0.3594,0.27286 4.9669,5.34984 10.239,11.2822 5.7348,6.4531 9.8286,10.84711 10.1905,10.93796 0.3328,0.0835 0.8407,0.077 1.1288,-0.0144 0.288,-0.0914 4.8314,-5.0135 10.0964,-10.93795 5.2651,-5.92446 9.8668,-10.99498 10.2262,-11.26783 0.8223,-0.62443 1.8107,-0.63443 2.4839,-0.0251 0.5099,0.4614 0.5203,0.93032 0.5146,23.11797 -0.01,21.39975 -0.033,22.7059 -0.4915,23.71629 -0.9094,2.002 -3.1779,3.25972 -5.1964,2.88104 -1.2864,-0.24133 -2.853,-1.44846 -3.4558,-2.6628 -0.4711,-0.94913 -0.5173,-1.8746 -0.64,-12.82721 l -0.1323,-11.80428 -5.8209,6.34816 c -3.2014,3.49149 -6.178,6.57055 -6.6145,6.84235 -1.1275,0.70195 -2.5685,0.64143 -3.4855,-0.14637 -0.4113,-0.3534 -3.3077,-3.42804 -6.4364,-6.83254 l -5.6886,-6.19 -0.1323,11.79348 c -0.1268,11.30991 -0.1549,11.83688 -0.685,12.85181 -1.0966,2.09965 -3.6675,3.17345 -5.7562,2.40416 z m 98.9494,-0.005 c -1.257,-0.45874 -2.495,-1.58957 -2.9793,-2.72142 -0.2944,-0.68811 -0.3643,-3.61088 -0.3643,-15.24055 v -14.3891 l 0.6006,-0.89902 c 0.8126,-1.21637 2.1636,-1.88688 3.4776,-1.72601 1.4348,0.17568 2.3115,0.91147 2.9409,2.4684 l 0.5367,1.3277 1.0485,-0.9064 c 2.4571,-2.12394 5.4377,-3.26696 8.6545,-3.31887 3.3456,-0.054 5.2308,1.60164 5.2308,4.59381 0,1.89786 -1.5274,3.7956 -3.2489,4.03664 -0.4687,0.0656 -1.8288,0.24365 -3.0224,0.39563 -3.3733,0.42949 -4.8006,1.35986 -5.9448,3.87504 -0.5767,1.26763 -0.6059,1.67923 -0.7405,10.44774 -0.1355,8.82027 -0.1599,9.1597 -0.7225,10.06425 -1.0917,1.75514 -3.6059,2.67138 -5.4669,1.99224 z m 26.1581,-0.30248 c -1.1344,-0.59145 -1.7064,-1.16528 -2.2777,-2.28461 -0.4796,-0.93958 -0.5008,-1.89771 -0.4952,-22.35729 0.01,-20.17505 0.033,-21.43509 0.4918,-22.43398 0.578,-1.25884 1.1681,-1.82296 2.4801,-2.37116 1.9915,-0.8321 4.2972,-0.18186 5.6519,1.59394 l 0.7631,1.00017 0.073,13.58071 c 0.04,7.4694 0.1699,13.58071 0.2883,13.58071 0.1184,0 2.224,-2.23242 4.6792,-4.96093 5.8064,-6.45275 8.5498,-9.28797 9.4321,-9.7479 2.975,-1.55072 6.9139,1.77282 6.1614,5.19884 -0.1271,0.57878 -1.3387,2.11584 -3.7958,4.81553 -1.9851,2.18097 -4.1111,4.53089 -4.7245,5.22203 l -1.1153,1.25664 4.603,5.5684 c 2.5316,3.06262 4.7897,5.92948 5.0179,6.3708 1.3651,2.63986 -1.1454,6.38493 -4.2802,6.38493 -2.1454,0 -2.219,-0.0675 -10.2408,-9.39271 -3.0044,-3.4925 -5.5758,-6.38969 -5.7143,-6.43819 -0.1547,-0.0542 -0.2519,2.26195 -0.2519,6.00204 0,6.46002 -0.094,7.07904 -1.2736,8.34009 -1.3592,1.45373 -3.8171,1.93517 -5.4726,1.07194 z m -185.278,-39.09461 c -2.3278,-0.8442 -3.7515,-2.92297 -3.7616,-5.49218 -0.014,-3.57154 3.2112,-6.25881 6.6071,-5.50498 4.6218,1.02598 6.1066,6.99658 2.4832,9.98544 -1.593,1.31406 -3.4979,1.67572 -5.3287,1.01172 z"
         id="path711" /></g></g></svg>
