<?xml version="1.0" encoding="UTF-8" standalone="no"?>
<!-- Created with Inkscape (http://www.inkscape.org/) -->

<svg
   width="508.00089mm"
   height="74.200333mm"
   viewBox="0 0 508.00089 74.200334"
   version="1.1"
   id="svg26608"
   inkscape:version="1.2.1 (9c6d41e410, 2022-07-14)"
   sodipodi:docname="GiveawayBanner (1).svg"
   xmlns:inkscape="http://www.inkscape.org/namespaces/inkscape"
   xmlns:sodipodi="http://sodipodi.sourceforge.net/DTD/sodipodi-0.dtd"
   xmlns="http://www.w3.org/2000/svg"
   xmlns:svg="http://www.w3.org/2000/svg">
  <sodipodi:namedview
     id="namedview26610"
     pagecolor="#ffffff"
     bordercolor="#000000"
     borderopacity="0.25"
     inkscape:showpageshadow="2"
     inkscape:pageopacity="0.0"
     inkscape:pagecheckerboard="0"
     inkscape:deskcolor="#d1d1d1"
     inkscape:document-units="mm"
     showgrid="false"
     inkscape:zoom="0.5"
     inkscape:cx="1060"
     inkscape:cy="650"
     inkscape:window-width="1920"
     inkscape:window-height="1009"
     inkscape:window-x="-8"
     inkscape:window-y="-8"
     inkscape:window-maximized="1"
     inkscape:current-layer="layer1" />
  <defs
     id="defs26605">
    <clipPath
       clipPathUnits="userSpaceOnUse"
       id="clipPath168694">
      <path
         d="M 0,1080 H 1920 V 0 H 0 Z"
         id="path168692" />
    </clipPath>
    <clipPath
       clipPathUnits="userSpaceOnUse"
       id="clipPath168706">
      <path
         d="M -0.375,424.123 H 1989.05 V 159.705 H -0.375 Z"
         id="path168704" />
    </clipPath>
    <clipPath
       clipPathUnits="userSpaceOnUse"
       id="clipPath168710">
      <path
         d="M -0.375,424.123 H 1989.05 V 224.634 H -0.375 Z"
         id="path168708" />
    </clipPath>
    <linearGradient
       x1="0"
       y1="0"
       x2="1"
       y2="0"
       gradientUnits="userSpaceOnUse"
       gradientTransform="matrix(1989.42,0,0,1989.42,-1098.2885,1248.7866)"
       spreadMethod="pad"
       id="linearGradient168720">
      <stop
         style="stop-opacity:1;stop-color:#174034"
         offset="0"
         id="stop168712" />
      <stop
         style="stop-opacity:1;stop-color:#52f2a8"
         offset="0.256983"
         id="stop168714" />
      <stop
         style="stop-opacity:1;stop-color:#174034"
         offset="0.494413"
         id="stop168716" />
      <stop
         style="stop-opacity:1;stop-color:#52f2a8"
         offset="1"
         id="stop168718" />
    </linearGradient>
    <clipPath
       clipPathUnits="userSpaceOnUse"
       id="clipPath168724">
      <path
         d="M 7.61876,410.413 H 1985.64 V 228.88 H 7.61876 Z"
         id="path168722" />
    </clipPath>
    <linearGradient
       x1="0"
       y1="0"
       x2="1"
       y2="0"
       gradientUnits="userSpaceOnUse"
       gradientTransform="matrix(1978.02,0,0,1978.02,-1090.2948,1253.5186)"
       spreadMethod="pad"
       id="linearGradient168734">
      <stop
         style="stop-opacity:1;stop-color:#174034"
         offset="0"
         id="stop168726" />
      <stop
         style="stop-opacity:1;stop-color:#52f2a8"
         offset="0.256983"
         id="stop168728" />
      <stop
         style="stop-opacity:1;stop-color:#174034"
         offset="0.494413"
         id="stop168730" />
      <stop
         style="stop-opacity:1;stop-color:#52f2a8"
         offset="1"
         id="stop168732" />
    </linearGradient>
    <clipPath
       clipPathUnits="userSpaceOnUse"
       id="clipPath168738">
      <path
         d="M 15.6125,396.806 H 1982.24 V 232.994 H 15.6125 Z"
         id="path168736" />
    </clipPath>
    <linearGradient
       x1="0"
       y1="0"
       x2="1"
       y2="0"
       gradientUnits="userSpaceOnUse"
       gradientTransform="matrix(1966.63,0,0,1966.63,-1082.301,1258.2646)"
       spreadMethod="pad"
       id="linearGradient168748">
      <stop
         style="stop-opacity:1;stop-color:#174034"
         offset="0"
         id="stop168740" />
      <stop
         style="stop-opacity:1;stop-color:#52f2a8"
         offset="0.256983"
         id="stop168742" />
      <stop
         style="stop-opacity:1;stop-color:#174034"
         offset="0.494413"
         id="stop168744" />
      <stop
         style="stop-opacity:1;stop-color:#52f2a8"
         offset="1"
         id="stop168746" />
    </linearGradient>
    <clipPath
       clipPathUnits="userSpaceOnUse"
       id="clipPath168752">
      <path
         d="M 23.6063,383.346 H 1978.84 V 232.191 H 23.6063 Z"
         id="path168750" />
    </clipPath>
    <linearGradient
       x1="0"
       y1="0"
       x2="1"
       y2="0"
       gradientUnits="userSpaceOnUse"
       gradientTransform="matrix(1955.23,0,0,1955.23,-1074.3072,1265.3966)"
       spreadMethod="pad"
       id="linearGradient168762">
      <stop
         style="stop-opacity:1;stop-color:#174034"
         offset="0"
         id="stop168754" />
      <stop
         style="stop-opacity:1;stop-color:#52f2a8"
         offset="0.256983"
         id="stop168756" />
      <stop
         style="stop-opacity:1;stop-color:#174034"
         offset="0.494413"
         id="stop168758" />
      <stop
         style="stop-opacity:1;stop-color:#52f2a8"
         offset="1"
         id="stop168760" />
    </linearGradient>
    <clipPath
       clipPathUnits="userSpaceOnUse"
       id="clipPath168766">
      <path
         d="M 31.6,370.105 H 1975.43 V 224.943 H 31.6 Z"
         id="path168764" />
    </clipPath>
    <linearGradient
       x1="0"
       y1="0"
       x2="1"
       y2="0"
       gradientUnits="userSpaceOnUse"
       gradientTransform="matrix(1943.83,0,0,1943.83,-1066.3135,1275.6406)"
       spreadMethod="pad"
       id="linearGradient168776">
      <stop
         style="stop-opacity:1;stop-color:#174034"
         offset="0"
         id="stop168768" />
      <stop
         style="stop-opacity:1;stop-color:#52f2a8"
         offset="0.256983"
         id="stop168770" />
      <stop
         style="stop-opacity:1;stop-color:#174034"
         offset="0.494413"
         id="stop168772" />
      <stop
         style="stop-opacity:1;stop-color:#52f2a8"
         offset="1"
         id="stop168774" />
    </linearGradient>
    <clipPath
       clipPathUnits="userSpaceOnUse"
       id="clipPath168780">
      <path
         d="M 39.5938,367.511 H 1972.03 V 217.694 H 39.5938 Z"
         id="path168778" />
    </clipPath>
    <linearGradient
       x1="0"
       y1="0"
       x2="1"
       y2="0"
       gradientUnits="userSpaceOnUse"
       gradientTransform="matrix(1932.44,0,0,1932.44,-1058.3197,1280.5626)"
       spreadMethod="pad"
       id="linearGradient168790">
      <stop
         style="stop-opacity:1;stop-color:#174034"
         offset="0"
         id="stop168782" />
      <stop
         style="stop-opacity:1;stop-color:#52f2a8"
         offset="0.256983"
         id="stop168784" />
      <stop
         style="stop-opacity:1;stop-color:#174034"
         offset="0.494413"
         id="stop168786" />
      <stop
         style="stop-opacity:1;stop-color:#52f2a8"
         offset="1"
         id="stop168788" />
    </linearGradient>
    <clipPath
       clipPathUnits="userSpaceOnUse"
       id="clipPath168794">
      <path
         d="M 47.5875,366.682 H 1968.63 V 210.445 H 47.5875 Z"
         id="path168792" />
    </clipPath>
    <linearGradient
       x1="0"
       y1="0"
       x2="1"
       y2="0"
       gradientUnits="userSpaceOnUse"
       gradientTransform="matrix(1921.04,0,0,1921.04,-1050.326,1284.6016)"
       spreadMethod="pad"
       id="linearGradient168804">
      <stop
         style="stop-opacity:1;stop-color:#174034"
         offset="0"
         id="stop168796" />
      <stop
         style="stop-opacity:1;stop-color:#52f2a8"
         offset="0.256983"
         id="stop168798" />
      <stop
         style="stop-opacity:1;stop-color:#174034"
         offset="0.494413"
         id="stop168800" />
      <stop
         style="stop-opacity:1;stop-color:#52f2a8"
         offset="1"
         id="stop168802" />
    </linearGradient>
    <clipPath
       clipPathUnits="userSpaceOnUse"
       id="clipPath168808">
      <path
         d="M 55.5813,365.854 H 1965.23 V 203.197 H 55.5813 Z"
         id="path168806" />
    </clipPath>
    <linearGradient
       x1="0"
       y1="0"
       x2="1"
       y2="0"
       gradientUnits="userSpaceOnUse"
       gradientTransform="matrix(1909.65,0,0,1909.65,-1042.3322,1288.6396)"
       spreadMethod="pad"
       id="linearGradient168818">
      <stop
         style="stop-opacity:1;stop-color:#174034"
         offset="0"
         id="stop168810" />
      <stop
         style="stop-opacity:1;stop-color:#52f2a8"
         offset="0.256983"
         id="stop168812" />
      <stop
         style="stop-opacity:1;stop-color:#174034"
         offset="0.494413"
         id="stop168814" />
      <stop
         style="stop-opacity:1;stop-color:#52f2a8"
         offset="1"
         id="stop168816" />
    </linearGradient>
    <clipPath
       clipPathUnits="userSpaceOnUse"
       id="clipPath168822">
      <path
         d="M 63.575,365.027 H 1961.82 V 195.948 H 63.575 Z"
         id="path168820" />
    </clipPath>
    <linearGradient
       x1="0"
       y1="0"
       x2="1"
       y2="0"
       gradientUnits="userSpaceOnUse"
       gradientTransform="matrix(1898.25,0,0,1898.25,-1034.3385,1292.6766)"
       spreadMethod="pad"
       id="linearGradient168832">
      <stop
         style="stop-opacity:1;stop-color:#174034"
         offset="0"
         id="stop168824" />
      <stop
         style="stop-opacity:1;stop-color:#52f2a8"
         offset="0.256983"
         id="stop168826" />
      <stop
         style="stop-opacity:1;stop-color:#174034"
         offset="0.494413"
         id="stop168828" />
      <stop
         style="stop-opacity:1;stop-color:#52f2a8"
         offset="1"
         id="stop168830" />
    </linearGradient>
    <clipPath
       clipPathUnits="userSpaceOnUse"
       id="clipPath168836">
      <path
         d="M 71.5688,364.202 H 1958.42 V 188.7 H 71.5688 Z"
         id="path168834" />
    </clipPath>
    <linearGradient
       x1="0"
       y1="0"
       x2="1"
       y2="0"
       gradientUnits="userSpaceOnUse"
       gradientTransform="matrix(1886.85,0,0,1886.85,-1026.3447,1296.7136)"
       spreadMethod="pad"
       id="linearGradient168846">
      <stop
         style="stop-opacity:1;stop-color:#174034"
         offset="0"
         id="stop168838" />
      <stop
         style="stop-opacity:1;stop-color:#52f2a8"
         offset="0.256983"
         id="stop168840" />
      <stop
         style="stop-opacity:1;stop-color:#174034"
         offset="0.494413"
         id="stop168842" />
      <stop
         style="stop-opacity:1;stop-color:#52f2a8"
         offset="1"
         id="stop168844" />
    </linearGradient>
    <clipPath
       clipPathUnits="userSpaceOnUse"
       id="clipPath168850">
      <path
         d="M 79.5625,363.375 H 1955.02 V 181.451 H 79.5625 Z"
         id="path168848" />
    </clipPath>
    <linearGradient
       x1="0"
       y1="0"
       x2="1"
       y2="0"
       gradientUnits="userSpaceOnUse"
       gradientTransform="matrix(1875.46,0,0,1875.46,-1018.351,1300.7516)"
       spreadMethod="pad"
       id="linearGradient168860">
      <stop
         style="stop-opacity:1;stop-color:#174034"
         offset="0"
         id="stop168852" />
      <stop
         style="stop-opacity:1;stop-color:#52f2a8"
         offset="0.256983"
         id="stop168854" />
      <stop
         style="stop-opacity:1;stop-color:#174034"
         offset="0.494413"
         id="stop168856" />
      <stop
         style="stop-opacity:1;stop-color:#52f2a8"
         offset="1"
         id="stop168858" />
    </linearGradient>
    <clipPath
       clipPathUnits="userSpaceOnUse"
       id="clipPath168864">
      <path
         d="M 87.5563,362.556 H 1951.62 V 174.202 H 87.5563 Z"
         id="path168862" />
    </clipPath>
    <linearGradient
       x1="0"
       y1="0"
       x2="1"
       y2="0"
       gradientUnits="userSpaceOnUse"
       gradientTransform="matrix(1864.06,0,0,1864.06,-1010.3572,1304.7856)"
       spreadMethod="pad"
       id="linearGradient168874">
      <stop
         style="stop-opacity:1;stop-color:#174034"
         offset="0"
         id="stop168866" />
      <stop
         style="stop-opacity:1;stop-color:#52f2a8"
         offset="0.256983"
         id="stop168868" />
      <stop
         style="stop-opacity:1;stop-color:#174034"
         offset="0.494413"
         id="stop168870" />
      <stop
         style="stop-opacity:1;stop-color:#52f2a8"
         offset="1"
         id="stop168872" />
    </linearGradient>
    <clipPath
       clipPathUnits="userSpaceOnUse"
       id="clipPath168878">
      <path
         d="M 95.55,361.743 H 1948.21 V 166.954 H 95.55 Z"
         id="path168876" />
    </clipPath>
    <linearGradient
       x1="0"
       y1="0"
       x2="1"
       y2="0"
       gradientUnits="userSpaceOnUse"
       gradientTransform="matrix(1852.66,0,0,1852.66,-1002.3635,1308.8156)"
       spreadMethod="pad"
       id="linearGradient168888">
      <stop
         style="stop-opacity:1;stop-color:#174034"
         offset="0"
         id="stop168880" />
      <stop
         style="stop-opacity:1;stop-color:#52f2a8"
         offset="0.256983"
         id="stop168882" />
      <stop
         style="stop-opacity:1;stop-color:#174034"
         offset="0.494413"
         id="stop168884" />
      <stop
         style="stop-opacity:1;stop-color:#52f2a8"
         offset="1"
         id="stop168886" />
    </linearGradient>
    <clipPath
       clipPathUnits="userSpaceOnUse"
       id="clipPath168892">
      <path
         d="M 103.544,360.94 H 1944.81 V 159.705 H 103.544 Z"
         id="path168890" />
    </clipPath>
    <linearGradient
       x1="0"
       y1="0"
       x2="1"
       y2="0"
       gradientUnits="userSpaceOnUse"
       gradientTransform="matrix(1841.27,0,0,1841.27,-994.3695,1312.8426)"
       spreadMethod="pad"
       id="linearGradient168902">
      <stop
         style="stop-opacity:1;stop-color:#174034"
         offset="0"
         id="stop168894" />
      <stop
         style="stop-opacity:1;stop-color:#52f2a8"
         offset="0.256983"
         id="stop168896" />
      <stop
         style="stop-opacity:1;stop-color:#174034"
         offset="0.494413"
         id="stop168898" />
      <stop
         style="stop-opacity:1;stop-color:#52f2a8"
         offset="1"
         id="stop168900" />
    </linearGradient>
  </defs>
  <g
     inkscape:label="Layer 1"
     inkscape:groupmode="layer"
     id="layer1"
     transform="translate(0,-64.375931)">
    <g
       id="g194711"
       transform="translate(-86.864664,-1277.5521)">
      <g
         id="g168688"
         transform="matrix(0.28262153,0,0,-0.28262155,52.232183,1461.6884)">
        <g
           id="g168690"
           clip-path="url(#clipPath168694)">
          <g
             id="g168700">
            <g
               id="g168702" />
            <g
               id="g169074">
              <g
                 clip-path="url(#clipPath168706)"
                 id="g169072">
                <g
                   id="g168914">
                  <g
                     id="g168904" />
                  <g
                     id="g168912">
                    <g
                       clip-path="url(#clipPath168710)"
                       id="g168910">
                      <g
                         transform="translate(0,254.3121)"
                         id="g168908">
                        <path
                           d="m 0,0 c 36.33,72.24 109.785,117.854 188.601,116.981 93.294,-1.034 108.76,-135.194 195.764,-145.629 108.328,-12.993 147.654,171.285 291.258,195.763 122.166,20.824 143.322,-104.085 324.68,-150.403 237.729,-60.715 333.829,120.082 587.291,50.134 44.103,-12.171 109.387,-36.464 207.7,-38.198 82.732,-1.458 150.332,13.738 193.376,26.261"
                           style="fill:none;stroke:url(#linearGradient168720);stroke-width:0.75;stroke-linecap:round;stroke-linejoin:round;stroke-miterlimit:10;stroke-dasharray:0, 7;stroke-dashoffset:0;stroke-opacity:1"
                           id="path168906" />
                      </g>
                    </g>
                  </g>
                </g>
                <g
                   id="g168926">
                  <g
                     id="g168916" />
                  <g
                     id="g168924">
                    <g
                       clip-path="url(#clipPath168724)"
                       id="g168922">
                      <g
                         transform="translate(8.0803,247.15)"
                         id="g168920">
                        <path
                           d="m 0,0 c 38.628,73.494 114.332,123.767 197.049,123.224 92.308,-0.79 110.263,-127.605 195.362,-140.075 57.929,-8.315 96.6,38.953 144.581,86.464 39.604,39.216 83.507,79.295 146.159,90.47 119.243,21.376 143.41,-89.043 321.357,-131.135 8.675,-2.044 17.186,-3.792 25.549,-5.269 216.795,-38.381 317.21,106.973 552.302,40.369 44.929,-12.729 109.402,-36.196 204.835,-37.17 24.983,-0.223 48.679,1.16 70.843,3.653 49.543,5.538 90.269,16.212 119.064,25.113"
                           style="fill:none;stroke:url(#linearGradient168734);stroke-width:0.923;stroke-linecap:round;stroke-linejoin:round;stroke-miterlimit:10;stroke-dasharray:0, 7;stroke-dashoffset:0;stroke-opacity:1"
                           id="path168918" />
                      </g>
                    </g>
                  </g>
                </g>
                <g
                   id="g168938">
                  <g
                     id="g168928" />
                  <g
                     id="g168936">
                    <g
                       clip-path="url(#clipPath168738)"
                       id="g168934">
                      <g
                         transform="translate(16.1606,239.988)"
                         id="g168932">
                        <path
                           d="m 0,0 c 40.927,74.748 118.878,129.681 205.497,129.468 91.322,-0.547 111.725,-120.252 194.96,-134.522 56.207,-9.636 94.946,32.45 144.109,74.636 41.124,35.287 85.373,72.124 146.113,83.469 116.32,21.928 143.499,-74 318.033,-111.867 8.539,-1.836 16.944,-3.414 25.232,-4.756 214.388,-34.887 317.035,90.551 543.181,24.822 45.753,-13.298 109.417,-35.928 201.969,-36.142 24.452,0.003 47.768,1.636 69.736,4.471 48.942,6.25 88.88,17.659 116.701,26.799"
                           style="fill:none;stroke:url(#linearGradient168748);stroke-width:1.096;stroke-linecap:round;stroke-linejoin:round;stroke-miterlimit:10;stroke-dasharray:0, 7;stroke-dashoffset:0;stroke-opacity:1"
                           id="path168930" />
                      </g>
                    </g>
                  </g>
                </g>
                <g
                   id="g168950">
                  <g
                     id="g168940" />
                  <g
                     id="g168948">
                    <g
                       clip-path="url(#clipPath168752)"
                       id="g168946">
                      <g
                         transform="translate(24.2409,232.8259)"
                         id="g168944">
                        <path
                           d="M 0,0 C 43.225,76.001 123.425,136.229 213.944,135.712 304.28,135.197 327.147,22.956 408.503,6.743 c 54.495,-10.86 93.392,25.93 143.637,62.807 42.724,31.357 87.239,64.954 146.067,76.469 113.397,22.48 143.587,-58.958 314.709,-92.599 8.403,-1.629 16.703,-3.036 24.914,-4.243 211.983,-31.393 316.832,74.014 534.06,9.275 46.575,-13.881 109.432,-35.66 199.104,-35.114 23.92,0.229 46.857,2.112 68.628,5.288 48.343,6.963 87.493,19.107 114.34,28.487"
                           style="fill:none;stroke:url(#linearGradient168762);stroke-width:1.269;stroke-linecap:round;stroke-linejoin:round;stroke-miterlimit:10;stroke-dasharray:0, 7;stroke-dashoffset:0;stroke-opacity:1"
                           id="path168942" />
                      </g>
                    </g>
                  </g>
                </g>
                <g
                   id="g168962">
                  <g
                     id="g168952" />
                  <g
                     id="g168960">
                    <g
                       clip-path="url(#clipPath168766)"
                       id="g168958">
                      <g
                         transform="translate(32.3212,225.6638)"
                         id="g168956">
                        <path
                           d="M 0,0 C 45.524,77.255 127.97,142.278 222.392,141.956 311.742,141.652 337.071,36.714 416.549,18.54 469.332,6.47 508.49,37.909 559.713,69.518 c 44.409,27.405 89.106,57.785 146.022,69.469 110.473,23.032 143.676,-43.915 311.385,-73.33 8.267,-1.422 16.461,-2.659 24.597,-3.731 209.576,-27.899 316.601,57.367 524.939,-6.272 47.394,-14.477 109.45,-35.582 196.238,-34.086 23.39,0.404 45.945,2.587 67.521,6.105 47.743,7.676 86.105,20.555 111.977,30.175"
                           style="fill:none;stroke:url(#linearGradient168776);stroke-width:1.442;stroke-linecap:round;stroke-linejoin:round;stroke-miterlimit:10;stroke-dasharray:0, 7;stroke-dashoffset:0;stroke-opacity:1"
                           id="path168954" />
                      </g>
                    </g>
                  </g>
                </g>
                <g
                   id="g168974">
                  <g
                     id="g168964" />
                  <g
                     id="g168972">
                    <g
                       clip-path="url(#clipPath168780)"
                       id="g168970">
                      <g
                         transform="translate(40.4015,218.5017)"
                         id="g168968">
                        <path
                           d="m 0,0 c 47.822,78.509 132.514,147.709 230.839,148.2 88.365,0.441 116.156,-97.707 193.756,-117.863 51.072,-13.266 90.587,12.741 142.692,39.15 46.175,23.403 90.973,50.614 145.976,62.467 107.55,23.585 143.765,-28.872 308.061,-54.061 8.13,-1.215 16.219,-2.281 24.28,-3.219 207.169,-24.404 316.343,40.619 515.817,-21.818 48.21,-15.09 109.468,-35.34 193.373,-33.058 22.859,0.622 45.034,3.063 66.413,6.923 47.144,8.388 84.717,22.002 109.616,31.861"
                           style="fill:none;stroke:url(#linearGradient168790);stroke-width:1.615;stroke-linecap:round;stroke-linejoin:round;stroke-miterlimit:10;stroke-dasharray:0, 7;stroke-dashoffset:0;stroke-opacity:1"
                           id="path168966" />
                      </g>
                    </g>
                  </g>
                </g>
                <g
                   id="g168986">
                  <g
                     id="g168976" />
                  <g
                     id="g168984">
                    <g
                       clip-path="url(#clipPath168794)"
                       id="g168982">
                      <g
                         transform="translate(48.4818,211.3396)"
                         id="g168980">
                        <path
                           d="m 0,0 c 50.121,79.763 137.06,153.64 239.287,154.444 87.378,0.687 117.634,-90.15 193.354,-112.31 49.362,-14.446 89.317,6.022 142.219,27.321 48.012,19.33 92.864,43.337 145.932,55.467 104.674,23.926 143.808,-14.168 304.736,-34.793 7.992,-1.024 15.977,-1.903 23.963,-2.706 204.762,-20.91 316.056,23.773 506.696,-37.365 49.02,-15.721 109.485,-35.088 190.507,-32.03 22.328,0.843 44.122,3.539 65.306,7.74 46.543,9.101 83.329,23.45 107.253,33.549"
                           style="fill:none;stroke:url(#linearGradient168804);stroke-width:1.788;stroke-linecap:round;stroke-linejoin:round;stroke-miterlimit:10;stroke-dasharray:0, 7;stroke-dashoffset:0;stroke-opacity:1"
                           id="path168978" />
                      </g>
                    </g>
                  </g>
                </g>
                <g
                   id="g168998">
                  <g
                     id="g168988" />
                  <g
                     id="g168996">
                    <g
                       clip-path="url(#clipPath168808)"
                       id="g168994">
                      <g
                         transform="translate(56.562,204.1776)"
                         id="g168992">
                        <path
                           d="m 0,0 c 52.419,81.017 141.605,159.557 247.734,160.688 86.392,0.92 119.118,-82.57 192.953,-106.757 47.655,-15.611 88.104,-0.806 141.747,15.492 49.9,15.161 94.732,36.165 145.886,48.467 101.756,24.472 143.904,0.866 301.413,-15.525 7.856,-0.817 15.734,-1.525 23.645,-2.193 202.355,-17.416 315.742,6.837 497.574,-52.912 49.824,-16.372 109.504,-34.826 187.642,-31.002 21.797,1.067 43.211,4.015 64.198,8.557 45.944,9.814 81.941,24.898 104.892,35.236"
                           style="fill:none;stroke:url(#linearGradient168818);stroke-width:1.962;stroke-linecap:round;stroke-linejoin:round;stroke-miterlimit:10;stroke-dasharray:0, 7;stroke-dashoffset:0;stroke-opacity:1"
                           id="path168990" />
                      </g>
                    </g>
                  </g>
                </g>
                <g
                   id="g169010">
                  <g
                     id="g169000" />
                  <g
                     id="g169008">
                    <g
                       clip-path="url(#clipPath168822)"
                       id="g169006">
                      <g
                         transform="translate(64.6423,197.0155)"
                         id="g169004">
                        <path
                           d="m 0,0 c 54.717,82.271 146.15,165.459 256.182,166.931 85.406,1.143 120.609,-74.964 192.551,-101.203 45.953,-16.761 86.92,-7.751 141.275,3.664 51.814,10.881 96.599,28.997 145.84,41.466 98.834,25.027 144.002,15.918 298.089,3.744 7.72,-0.61 15.492,-1.148 23.328,-1.681 199.948,-13.922 315.4,-10.185 488.452,-68.459 50.622,-17.047 109.522,-34.552 184.777,-29.974 21.266,1.294 42.299,4.49 63.091,9.374 45.344,10.527 80.553,26.346 102.529,36.924"
                           style="fill:none;stroke:url(#linearGradient168832);stroke-width:2.135;stroke-linecap:round;stroke-linejoin:round;stroke-miterlimit:10;stroke-dasharray:0, 7;stroke-dashoffset:0;stroke-opacity:1"
                           id="path169002" />
                      </g>
                    </g>
                  </g>
                </g>
                <g
                   id="g169022">
                  <g
                     id="g169012" />
                  <g
                     id="g169020">
                    <g
                       clip-path="url(#clipPath168836)"
                       id="g169018">
                      <g
                         transform="translate(72.7226,189.8534)"
                         id="g169016">
                        <path
                           d="m 0,0 c 57.016,83.525 150.696,171.346 264.63,173.175 84.419,1.356 122.11,-67.333 192.149,-95.65 44.258,-17.894 85.73,-14.811 140.802,-8.165 53.728,6.484 98.465,21.836 145.795,34.466 95.91,25.594 144.101,30.988 294.765,23.012 7.584,-0.402 15.25,-0.77 23.01,-1.169 197.542,-10.428 315.031,-27.285 479.332,-84.005 51.408,-17.747 109.538,-34.265 181.91,-28.946 20.736,1.524 41.388,4.966 61.984,10.192 44.745,11.239 79.165,27.793 100.168,38.61"
                           style="fill:none;stroke:url(#linearGradient168846);stroke-width:2.308;stroke-linecap:round;stroke-linejoin:round;stroke-miterlimit:10;stroke-dasharray:0, 7;stroke-dashoffset:0;stroke-opacity:1"
                           id="path169014" />
                      </g>
                    </g>
                  </g>
                </g>
                <g
                   id="g169034">
                  <g
                     id="g169024" />
                  <g
                     id="g169032">
                    <g
                       clip-path="url(#clipPath168850)"
                       id="g169030">
                      <g
                         transform="translate(80.8029,182.6913)"
                         id="g169028">
                        <path
                           d="m 0,0 c 59.314,84.778 155.247,176.987 273.077,179.419 83.437,1.398 123.627,-59.677 191.748,-90.097 42.572,-19.011 84.507,-21.976 140.33,-19.994 55.61,1.975 100.305,14.764 145.749,27.466 92.934,26.344 144.207,46.341 291.441,42.28 7.449,-0.179 15.009,-0.392 22.693,-0.656 195.135,-6.934 314.632,-44.462 470.21,-99.552 52.185,-18.479 109.554,-33.966 179.045,-27.918 20.205,1.759 40.477,5.442 60.876,11.009 44.145,11.952 77.778,29.241 97.806,40.298"
                           style="fill:none;stroke:url(#linearGradient168860);stroke-width:2.481;stroke-linecap:round;stroke-linejoin:round;stroke-miterlimit:10;stroke-dasharray:0, 7;stroke-dashoffset:0;stroke-opacity:1"
                           id="path169026" />
                      </g>
                    </g>
                  </g>
                </g>
                <g
                   id="g169046">
                  <g
                     id="g169036" />
                  <g
                     id="g169044">
                    <g
                       clip-path="url(#clipPath168864)"
                       id="g169042">
                      <g
                         transform="translate(88.8832,175.5293)"
                         id="g169040">
                        <path
                           d="m 0,0 c 61.613,86.032 159.793,182.901 281.525,185.663 82.451,1.641 125.16,-51.994 191.346,-84.544 40.896,-20.112 83.225,-29.226 139.857,-31.822 57.441,-2.634 102.172,7.593 145.704,20.465 90.011,26.896 144.295,61.383 288.117,61.548 7.313,0.029 14.767,-0.014 22.376,-0.143 192.728,-3.44 314.203,-61.709 461.089,-115.099 52.946,-19.245 109.566,-33.652 176.179,-26.89 19.673,1.997 39.566,5.917 59.769,11.826 43.545,12.665 76.39,30.689 95.444,41.986"
                           style="fill:none;stroke:url(#linearGradient168874);stroke-width:2.654;stroke-linecap:round;stroke-linejoin:round;stroke-miterlimit:10;stroke-dasharray:0, 7;stroke-dashoffset:0;stroke-opacity:1"
                           id="path169038" />
                      </g>
                    </g>
                  </g>
                </g>
                <g
                   id="g169058">
                  <g
                     id="g169048" />
                  <g
                     id="g169056">
                    <g
                       clip-path="url(#clipPath168878)"
                       id="g169054">
                      <g
                         transform="translate(96.9635,168.3672)"
                         id="g169052">
                        <path
                           d="m 0,0 c 63.911,87.286 164.339,188.814 289.972,191.907 81.466,1.884 126.717,-44.286 190.945,-78.991 39.234,-21.2 81.87,-36.539 139.385,-43.651 59.202,-7.32 104.039,0.423 145.659,13.464 87.087,27.449 144.383,76.427 284.792,80.818 7.177,0.235 14.525,0.363 22.059,0.369 190.321,0.054 313.743,-79.021 451.967,-130.646 53.692,-20.053 109.568,-33.247 173.314,-25.862 19.137,2.264 38.654,6.393 58.661,12.644 42.946,13.377 75.002,32.136 93.082,43.672"
                           style="fill:none;stroke:url(#linearGradient168888);stroke-width:2.827;stroke-linecap:round;stroke-linejoin:round;stroke-miterlimit:10;stroke-dasharray:0, 7;stroke-dashoffset:0;stroke-opacity:1"
                           id="path169050" />
                      </g>
                    </g>
                  </g>
                </g>
                <g
                   id="g169070">
                  <g
                     id="g169060" />
                  <g
                     id="g169068">
                    <g
                       clip-path="url(#clipPath168892)"
                       id="g169066">
                      <g
                         transform="translate(105.0438,161.2051)"
                         id="g169064">
                        <path
                           d="m 0,0 c 66.21,88.54 168.886,194.727 298.42,198.151 129.079,3.411 174.14,-98.146 329.455,-128.918 196.574,-38.945 227.742,103.256 448.824,107.432 290.936,5.494 431.869,-237.086 670.848,-157.566 42.346,14.09 73.614,33.584 90.719,45.36"
                           style="fill:none;stroke:url(#linearGradient168902);stroke-width:3;stroke-linecap:round;stroke-linejoin:round;stroke-miterlimit:10;stroke-dasharray:0, 7;stroke-dashoffset:0;stroke-opacity:1"
                           id="path169062" />
                      </g>
                    </g>
                  </g>
                </g>
              </g>
            </g>
          </g>
        </g>
      </g>
    </g>
  </g>
</svg>
