<?xml version="1.0" encoding="UTF-8" standalone="no"?>
<!-- Created with Inkscape (http://www.inkscape.org/) -->

<svg
   width="131.17148mm"
   height="26.368387mm"
   viewBox="0 0 131.17148 26.368388"
   version="1.1"
   id="svg26608"
   inkscape:version="1.2.1 (9c6d41e410, 2022-07-14)"
   sodipodi:docname="GiveawayBanner (1).svg"
   xmlns:inkscape="http://www.inkscape.org/namespaces/inkscape"
   xmlns:sodipodi="http://sodipodi.sourceforge.net/DTD/sodipodi-0.dtd"
   xmlns="http://www.w3.org/2000/svg"
   xmlns:svg="http://www.w3.org/2000/svg">
  <sodipodi:namedview
     id="namedview26610"
     pagecolor="#ffffff"
     bordercolor="#000000"
     borderopacity="0.25"
     inkscape:showpageshadow="2"
     inkscape:pageopacity="0.0"
     inkscape:pagecheckerboard="0"
     inkscape:deskcolor="#d1d1d1"
     inkscape:document-units="mm"
     showgrid="false"
     inkscape:zoom="0.5"
     inkscape:cx="1060"
     inkscape:cy="650"
     inkscape:window-width="1920"
     inkscape:window-height="1009"
     inkscape:window-x="-8"
     inkscape:window-y="-8"
     inkscape:window-maximized="1"
     inkscape:current-layer="layer1" />
  <defs
     id="defs26605" />
  <g
     inkscape:label="Layer 1"
     inkscape:groupmode="layer"
     id="layer1"
     transform="translate(-279.30432,-52.199402)">
    <g
       id="g194711"
       transform="translate(-86.864664,-1277.5521)">
      <path
         style="fill:#ffffff;stroke-width:0.129;stroke-dasharray:none"
         d="m 372.44917,1356.0541 -0.64745,-0.047 -2.81636,-2.8093 -2.81637,-2.8093 v -3.259 -3.259 l 1.29419,-0.7998 c 0.71181,-0.44 1.33082,-0.8591 1.37559,-0.9316 0.0448,-0.072 -0.36282,-0.5785 -0.90573,-1.1246 l -0.98712,-0.993 v -3.8817 -3.8818 l 3.98176,-0.01 c 6.31418,-0.01 10.74238,-0.5753 15.58909,-1.9921 l 1.72571,-0.5044 2.74745,2.8051 2.74746,2.8051 0.006,3.306 0.006,3.306 -0.7776,0.7695 -0.77761,0.7695 1.03659,1.042 1.03657,1.0419 v 3.9176 3.9175 l -0.35609,0.137 c -0.70413,0.271 -3.36475,1.0027 -4.88817,1.3444 -1.96677,0.4411 -5.2953,0.9175 -7.64713,1.0945 -1.67662,0.1262 -7.41272,0.1537 -8.92736,0.043 z m 6.95063,-1.9794 c 4.31484,-0.1862 8.10573,-0.7254 11.5338,-1.6406 l 1.26251,-0.337 v -1.8383 -1.8384 l -1.65097,0.4191 c -2.1722,0.5514 -4.97693,1.0513 -7.21173,1.2854 -0.99308,0.1041 -1.8235,0.1713 -1.84538,0.1494 -0.0219,-0.022 0.55177,-0.4942 1.27477,-1.0495 2.55733,-1.9644 5.94266,-4.8659 7.97656,-6.8367 l 1.06829,-1.0351 v -1.5295 c 0,-0.8412 -0.0515,-1.5613 -0.11444,-1.6001 -0.0629,-0.039 -0.39799,0.016 -0.74456,0.1219 -1.06017,0.3242 -4.93964,1.0734 -6.65132,1.2844 -2.06962,0.2551 -5.5228,0.4591 -7.80166,0.4606 h -1.78046 v 1.8129 1.8128 h 2.57096 c 2.32369,0 5.05551,-0.1407 6.42847,-0.3311 l 0.51795,-0.072 -0.32373,0.2724 c -1.09094,0.9182 -5.61516,4.2362 -7.67607,5.6295 l -2.4318,1.6441 0.0363,1.5756 0.0363,1.5756 1.23014,0.072 c 0.67658,0.04 1.25927,0.083 1.29488,0.095 0.0356,0.012 1.38617,-0.034 3.00125,-0.1041 z m 102.40211,0.21 c 0,-0.028 0.56417,-0.9985 1.25369,-2.1569 l 1.25369,-2.1062 -1.79027,-3.5083 c -0.98464,-1.9295 -2.60142,-5.096 -3.59284,-7.0368 l -1.80258,-3.5285 h 3.14846 3.14846 l 1.94814,4.1075 c 1.11929,2.36 2.02964,4.1233 2.13969,4.1444 0.13686,0.026 0.72739,-1.1379 2.06854,-4.0782 l 1.87699,-4.1151 2.94331,-0.035 c 1.61882,-0.019 2.9433,0 2.9433,0.048 0,0.045 -2.1389,4.1836 -4.7531,9.1961 l -4.75311,9.1136 h -3.01618 c -1.65891,0 -3.01619,-0.023 -3.01619,-0.051 z m -48.75229,-4.4244 c -3.40034,-0.5761 -5.03634,-2.0268 -5.49868,-4.8758 -0.31481,-1.94 -0.0914,-4.6566 0.49141,-5.974 0.7755,-1.7531 2.65545,-2.8229 5.61298,-3.1939 1.70512,-0.2139 7.22611,-0.097 8.40294,0.1779 2.67181,0.6241 4.04681,1.6512 4.7499,3.5478 0.26084,0.7037 0.33634,1.1931 0.38916,2.5229 l 0.0655,1.6498 -6.97714,0.033 -6.97713,0.033 0.0337,0.6377 c 0.0401,0.7589 0.35039,1.3414 0.87917,1.6502 0.61245,0.3577 2.15055,0.5373 3.90583,0.4561 1.68222,-0.078 2.45187,-0.2999 2.93832,-0.8476 0.23834,-0.2684 0.34439,-0.2778 3.14009,-0.2778 1.88963,0 2.89341,0.046 2.89341,0.1327 0,0.073 -0.11044,0.447 -0.24544,0.8311 -0.71678,2.0393 -2.16508,3.0154 -5.19306,3.4999 -1.59276,0.2548 -7.0983,0.2523 -8.61097,0 z m 8.35199,-8.9982 c 0,-0.523 -0.29869,-1.0774 -0.75578,-1.4029 -0.56377,-0.4014 -1.46735,-0.5494 -3.35738,-0.5498 -2.05387,0 -2.94796,0.2066 -3.44571,0.7981 -0.27843,0.3309 -0.59555,1.1009 -0.59816,1.4524 -3.9e-4,0.053 1.83477,0.097 4.07815,0.097 h 4.07888 z m 11.07499,8.9856 c -2.42261,-0.5191 -3.60952,-1.7025 -3.78277,-3.7714 -0.15503,-1.8512 0.4338,-3.1158 1.76657,-3.794 1.04823,-0.5334 1.84038,-0.6255 6.67402,-0.7754 2.42143,-0.075 4.5991,-0.1661 4.83928,-0.2021 0.4345,-0.065 0.43635,-0.068 0.37033,-0.6541 -0.14589,-1.2943 -0.95766,-1.7098 -3.35803,-1.7188 -1.9846,-0.01 -2.7136,0.1528 -3.28219,0.7213 l -0.44312,0.4432 -2.98773,-0.035 -2.98773,-0.035 0.4621,-0.9235 c 0.93884,-1.8763 2.61216,-2.8385 5.70374,-3.2798 1.43295,-0.2046 6.53246,-0.1661 7.92517,0.06 2.13867,0.3469 3.37199,0.9946 4.08277,2.1442 0.65236,1.0552 0.74192,1.9072 0.7444,7.0817 l 0.002,4.6939 h -2.91348 -2.91348 v -1.2301 c 0,-0.6765 -0.0535,-1.2301 -0.11893,-1.2301 -0.0654,0 -0.2415,0.1983 -0.3913,0.4407 -0.67014,1.0843 -1.73192,1.7276 -3.43084,2.0785 -1.27253,0.2628 -4.70572,0.2545 -5.96102,-0.014 z m 6.66488,-2.8978 c 1.81211,-0.2843 3.03608,-1.2199 3.20059,-2.4464 l 0.0707,-0.5272 -1.40905,0.01 c -0.77498,0 -2.31315,0.053 -3.41818,0.1105 -2.67186,0.139 -2.9811,0.293 -2.97204,1.4804 0.004,0.596 0.15719,0.863 0.64332,1.1252 0.69685,0.3759 2.39277,0.4858 3.88464,0.2516 z m -51.2773,0.9923 v -1.8609 l 4.84981,-3.0272 c 2.6674,-1.665 4.85252,-3.0709 4.85581,-3.1243 0.003,-0.053 -2.03345,-0.097 -4.5261,-0.097 h -4.53208 v -1.9423 -1.9423 h 8.54621 8.54622 v 1.8598 1.8597 l -4.85304,3.0284 c -2.66917,1.6657 -4.85428,3.0722 -4.85581,3.1256 -10e-4,0.053 2.32803,0.097 5.17677,0.097 h 5.17952 v 1.9423 1.9423 h -9.19366 -9.19365 z m 62.2838,-7.3327 v -9.1936 h 2.91348 2.91349 v 9.1936 9.1937 h -2.91349 -2.91348 z"
         id="path180807" />
    </g>
  </g>
</svg>
