<?xml version="1.0" encoding="UTF-8" standalone="no"?>
<!-- Created with Inkscape (http://www.inkscape.org/) -->

<svg
   width="5.7430606mm"
   height="5.209764mm"
   viewBox="0 0 5.7430606 5.209764"
   version="1.1"
   id="svg11742"
   inkscape:version="1.2.1 (9c6d41e410, 2022-07-14)"
   sodipodi:docname="Roadmap.svg"
   xmlns:inkscape="http://www.inkscape.org/namespaces/inkscape"
   xmlns:sodipodi="http://sodipodi.sourceforge.net/DTD/sodipodi-0.dtd"
   xmlns="http://www.w3.org/2000/svg"
   xmlns:svg="http://www.w3.org/2000/svg">
  <sodipodi:namedview
     id="namedview11744"
     pagecolor="#ffffff"
     bordercolor="#000000"
     borderopacity="0.25"
     inkscape:showpageshadow="2"
     inkscape:pageopacity="0.0"
     inkscape:pagecheckerboard="0"
     inkscape:deskcolor="#d1d1d1"
     inkscape:document-units="mm"
     showgrid="false"
     inkscape:zoom="0.76167929"
     inkscape:cx="733.90468"
     inkscape:cy="288.83547"
     inkscape:window-width="1920"
     inkscape:window-height="1009"
     inkscape:window-x="-8"
     inkscape:window-y="-8"
     inkscape:window-maximized="1"
     inkscape:current-layer="layer1" />
  <defs
     id="defs11739" />
  <g
     inkscape:label="Layer 1"
     inkscape:groupmode="layer"
     id="layer1"
     transform="translate(-170.97073,-120.35639)">
    <path
       d="m 171.01247,123.6646 c 0.29164,0.4739 0.79543,1.2213 1.18511,1.7124 0.18383,0.2316 0.51022,0.2532 0.72475,0.05 1.23389,-1.1711 2.37914,-2.6486 3.75047,-4.6943 0.0795,-0.1186 0.0395,-0.28 -0.0863,-0.3475 v 0 c -0.0961,-0.052 -0.21501,-0.032 -0.28985,0.047 -1.52137,1.6108 -2.30145,2.3763 -3.8152,3.6357 0,0 -0.47726,-0.3031 -1.05363,-0.7684 -0.12363,-0.1 -0.30544,-0.077 -0.40087,0.05 v 0 c -0.0693,0.092 -0.075,0.2175 -0.0145,0.3159"
       style="fill:#ffffff;fill-opacity:1;fill-rule:nonzero;stroke:none;stroke-width:0.00118987"
       id="path16-2-7-1" />
  </g>
</svg>
