<?xml version="1.0" encoding="UTF-8" standalone="no"?>
<!-- Created with Inkscape (http://www.inkscape.org/) -->

<svg
   width="231.95052mm"
   height="31.788799mm"
   viewBox="0 0 231.95052 31.788799"
   version="1.1"
   id="svg5"
   xml:space="preserve"
   inkscape:version="1.2.1 (9c6d41e410, 2022-07-14)"
   sodipodi:docname="stakeXchange-logo-text.svg"
   xmlns:inkscape="http://www.inkscape.org/namespaces/inkscape"
   xmlns:sodipodi="http://sodipodi.sourceforge.net/DTD/sodipodi-0.dtd"
   xmlns="http://www.w3.org/2000/svg"
   xmlns:svg="http://www.w3.org/2000/svg"><sodipodi:namedview
     id="namedview7"
     pagecolor="#ffffff"
     bordercolor="#000000"
     borderopacity="0.25"
     inkscape:showpageshadow="2"
     inkscape:pageopacity="0.0"
     inkscape:pagecheckerboard="0"
     inkscape:deskcolor="#d1d1d1"
     inkscape:document-units="mm"
     showgrid="false"
     inkscape:zoom="1.0444209"
     inkscape:cx="552.45925"
     inkscape:cy="182.87646"
     inkscape:window-width="1920"
     inkscape:window-height="1009"
     inkscape:window-x="-8"
     inkscape:window-y="-8"
     inkscape:window-maximized="1"
     inkscape:current-layer="text11247" /><defs
     id="defs2"><rect
       x="-1183.4309"
       y="-472.98938"
       width="1005.3418"
       height="270.00607"
       id="rect11249" /></defs><g
     inkscape:label="Layer 1"
     inkscape:groupmode="layer"
     id="layer1"
     transform="translate(247.0995,-108.42285)"><g
       id="g21410"
       transform="matrix(2.2912721,0,0,2.2912721,596.89028,85.441073)"><g
         aria-label="Stake  change"
         transform="matrix(1.0255423,0,0,1.0255423,844.3699,492.91117)"
         id="text11247"
         style="font-weight:bold;font-size:14px;-inkscape-font-specification:'sans-serif Bold';white-space:pre;shape-inside:url(#rect11249);fill:#ffffff;stroke:#ffffff;stroke-width:5.08724;stroke-linecap:round"><path
           d="m -1174.668,-463.12288 q 0,0.59472 -0.2802,1.17578 -0.2735,0.58105 -0.7725,0.98437 -0.5469,0.4375 -1.2783,0.6836 -0.7246,0.24609 -1.75,0.24609 -1.1006,0 -1.9824,-0.20508 -0.875,-0.20508 -1.7842,-0.6084 v -1.69531 h 0.096 q 0.7724,0.64258 1.7842,0.99121 1.0117,0.34864 1.9003,0.34864 1.2579,0 1.9551,-0.47168 0.7041,-0.47168 0.7041,-1.25782 0,-0.67675 -0.3349,-0.99804 -0.3282,-0.32129 -1.0049,-0.49903 -0.5127,-0.13672 -1.1143,-0.22558 -0.5947,-0.0889 -1.2646,-0.22559 -1.3535,-0.28711 -2.0098,-0.97754 -0.6494,-0.69726 -0.6494,-1.81152 0,-1.27832 1.0801,-2.0918 1.0801,-0.82031 2.7412,-0.82031 1.0732,0 1.9687,0.20508 0.8955,0.20508 1.586,0.50586 v 1.59961 h -0.096 q -0.5811,-0.49219 -1.5313,-0.81348 -0.9433,-0.32813 -1.9345,-0.32813 -1.087,0 -1.75,0.45118 -0.6563,0.45117 -0.6563,1.16211 0,0.63574 0.3281,0.99804 0.3282,0.36231 1.1553,0.55371 0.4375,0.0957 1.2441,0.23243 0.8067,0.13671 1.3672,0.28027 1.1348,0.30078 1.709,0.90918 0.5742,0.6084 0.5742,1.70215 z"
           style="font-weight:normal;-inkscape-font-specification:sans-serif;stroke:none"
           id="path435" /><path
           d="m -1168.6318,-460.28597 q -0.3623,0.0957 -0.793,0.15723 -0.4238,0.0615 -0.7588,0.0615 -1.1689,0 -1.7773,-0.62891 -0.6084,-0.6289 -0.6084,-2.0166 v -4.06054 h -0.8682 v -1.08008 h 0.8682 v -2.19434 h 1.2851 v 2.19434 h 2.6524 v 1.08008 h -2.6524 v 3.47949 q 0,0.60156 0.027,0.94336 0.027,0.33496 0.1914,0.6289 0.1504,0.27344 0.4101,0.40332 0.2666,0.12305 0.8067,0.12305 0.3144,0 0.6562,-0.0889 0.3418,-0.0957 0.4922,-0.15722 h 0.068 z"
           style="font-weight:normal;-inkscape-font-specification:sans-serif;stroke:none"
           id="path437" /><path
           d="m -1161.1465,-460.21761 h -1.2783 v -0.81348 q -0.1709,0.11621 -0.4648,0.32813 -0.2872,0.20508 -0.5606,0.32812 -0.3213,0.15723 -0.7383,0.25977 -0.417,0.10937 -0.9775,0.10937 -1.0322,0 -1.75,-0.68359 -0.7178,-0.68359 -0.7178,-1.74316 0,-0.86817 0.3692,-1.40137 0.3759,-0.54004 1.0664,-0.84766 0.6972,-0.30761 1.6748,-0.41699 0.9775,-0.10937 2.0986,-0.16406 v -0.19824 q 0,-0.4375 -0.1572,-0.72461 -0.1504,-0.28711 -0.4375,-0.45118 -0.2735,-0.15722 -0.6563,-0.21191 -0.3828,-0.0547 -0.7998,-0.0547 -0.5058,0 -1.1279,0.13672 -0.6221,0.12988 -1.2852,0.38281 h -0.068 v -1.30566 q 0.3759,-0.10254 1.0869,-0.22559 0.7109,-0.12304 1.4013,-0.12304 0.8067,0 1.4014,0.13672 0.6016,0.12988 1.0391,0.45117 0.4306,0.31445 0.6562,0.81347 0.2256,0.49903 0.2256,1.23731 z m -1.2783,-1.87988 v -2.12598 q -0.5879,0.0342 -1.3877,0.10254 -0.793,0.0684 -1.2578,0.19824 -0.5537,0.15723 -0.8955,0.49219 -0.3418,0.32812 -0.3418,0.90918 0,0.65625 0.3965,0.99121 0.3965,0.32813 1.2099,0.32813 0.6768,0 1.2373,-0.25977 0.5606,-0.2666 1.0391,-0.63574 z"
           style="font-weight:normal;-inkscape-font-specification:sans-serif;stroke:none"
           id="path439" /><path
           d="m -1151.7402,-460.21761 h -1.6953 l -3.0625,-3.34277 -0.834,0.79297 v 2.5498 h -1.2852 v -10.63672 h 1.2852 v 6.82227 l 3.7119,-3.82129 H -1152 l -3.5479,3.52734 z"
           style="font-weight:normal;-inkscape-font-specification:sans-serif;stroke:none"
           id="path441" /><path
           d="m -1144.1318,-463.90218 h -5.626 q 0,0.7041 0.2119,1.23047 0.2119,0.51953 0.5811,0.85449 0.3554,0.32813 0.8408,0.49219 0.4922,0.16406 1.0801,0.16406 0.7793,0 1.5654,-0.30762 0.793,-0.31445 1.1279,-0.61523 h 0.068 v 1.40137 q -0.6494,0.27343 -1.3262,0.458 -0.6768,0.18457 -1.4219,0.18457 -1.9004,0 -2.9668,-1.02539 -1.0664,-1.03222 -1.0664,-2.92578 0,-1.87304 1.0186,-2.97363 1.0254,-1.10059 2.6933,-1.10059 1.545,0 2.3789,0.90235 0.8409,0.90234 0.8409,2.56347 z m -1.251,-0.98438 q -0.01,-1.01171 -0.5127,-1.56542 -0.499,-0.55372 -1.5244,-0.55372 -1.0322,0 -1.6475,0.6084 -0.6084,0.6084 -0.6904,1.51074 z"
           style="font-weight:normal;-inkscape-font-specification:sans-serif;stroke:none"
           id="path443" /><path
           d="m -1126.6934,-460.69613 q -0.6425,0.30762 -1.2236,0.47852 -0.5742,0.1709 -1.2236,0.1709 -0.8272,0 -1.5176,-0.23926 -0.6904,-0.24609 -1.1826,-0.73828 -0.499,-0.49219 -0.7725,-1.24414 -0.2734,-0.75195 -0.2734,-1.75684 0,-1.87304 1.0254,-2.93945 1.0322,-1.06641 2.7207,-1.06641 0.6562,0 1.2851,0.18457 0.6358,0.18457 1.1621,0.45118 v 1.42871 h -0.068 q -0.5879,-0.45801 -1.2168,-0.7041 -0.6221,-0.2461 -1.2168,-0.2461 -1.0938,0 -1.7295,0.73828 -0.6289,0.73145 -0.6289,2.15332 0,1.38086 0.6152,2.12598 0.6221,0.73828 1.7432,0.73828 0.3896,0 0.793,-0.10254 0.4033,-0.10254 0.7246,-0.2666 0.2802,-0.14355 0.5263,-0.30078 0.2461,-0.16406 0.3897,-0.28027 h 0.068 z"
           style="font-weight:normal;-inkscape-font-specification:sans-serif;stroke:none"
           id="path445" /><path
           d="m -1118.6611,-460.21761 h -1.2852 v -4.34766 q 0,-0.52636 -0.062,-0.98437 -0.062,-0.46484 -0.2256,-0.72461 -0.1709,-0.28711 -0.4922,-0.42383 -0.3213,-0.14355 -0.834,-0.14355 -0.5263,0 -1.1006,0.25976 -0.5742,0.25977 -1.1005,0.66309 v 5.70117 h -1.2852 v -10.63672 h 1.2852 v 3.84863 q 0.6015,-0.49902 1.2441,-0.77929 0.6426,-0.28028 1.3193,-0.28028 1.2373,0 1.8868,0.74512 0.6494,0.74512 0.6494,2.14649 z"
           style="font-weight:normal;-inkscape-font-specification:sans-serif;stroke:none"
           id="path447" /><path
           d="m -1110.2529,-460.21761 h -1.2784 v -0.81348 q -0.1708,0.11621 -0.4648,0.32813 -0.2871,0.20508 -0.5605,0.32812 -0.3213,0.15723 -0.7383,0.25977 -0.417,0.10937 -0.9776,0.10937 -1.0322,0 -1.75,-0.68359 -0.7177,-0.68359 -0.7177,-1.74316 0,-0.86817 0.3691,-1.40137 0.376,-0.54004 1.0664,-0.84766 0.6973,-0.30761 1.6748,-0.41699 0.9776,-0.10937 2.0986,-0.16406 v -0.19824 q 0,-0.4375 -0.1572,-0.72461 -0.1504,-0.28711 -0.4375,-0.45118 -0.2734,-0.15722 -0.6562,-0.21191 -0.3828,-0.0547 -0.7998,-0.0547 -0.5059,0 -1.128,0.13672 -0.622,0.12988 -1.2851,0.38281 h -0.068 v -1.30566 q 0.376,-0.10254 1.0869,-0.22559 0.711,-0.12304 1.4014,-0.12304 0.8066,0 1.4014,0.13672 0.6015,0.12988 1.039,0.45117 0.4307,0.31445 0.6563,0.81347 0.2256,0.49903 0.2256,1.23731 z m -1.2784,-1.87988 v -2.12598 q -0.5878,0.0342 -1.3876,0.10254 -0.793,0.0684 -1.2579,0.19824 -0.5537,0.15723 -0.8955,0.49219 -0.3418,0.32812 -0.3418,0.90918 0,0.65625 0.3965,0.99121 0.3965,0.32813 1.21,0.32813 0.6767,0 1.2373,-0.25977 0.5605,-0.2666 1.039,-0.63574 z"
           style="font-weight:normal;-inkscape-font-specification:sans-serif;stroke:none"
           id="path449" /><path
           d="m -1101.3936,-460.21761 h -1.2851 v -4.34766 q 0,-0.52636 -0.062,-0.98437 -0.062,-0.46484 -0.2256,-0.72461 -0.1709,-0.28711 -0.4922,-0.42383 -0.3213,-0.14355 -0.834,-0.14355 -0.5264,0 -1.1006,0.25976 -0.5742,0.25977 -1.1006,0.66309 v 5.70117 h -1.2851 v -7.63574 h 1.2851 v 0.84765 q 0.6016,-0.49902 1.2442,-0.77929 0.6426,-0.28028 1.3193,-0.28028 1.2373,0 1.8867,0.74512 0.6494,0.74512 0.6494,2.14649 z"
           style="font-weight:normal;-inkscape-font-specification:sans-serif;stroke:none"
           id="path451" /><path
           d="m -1092.7256,-461.08577 q 0,1.9414 -0.8818,2.85058 -0.8819,0.90918 -2.7139,0.90918 -0.6084,0 -1.1894,-0.0889 -0.5743,-0.082 -1.1348,-0.23925 v -1.3125 h 0.068 q 0.3144,0.12304 0.998,0.30078 0.6836,0.18457 1.3672,0.18457 0.6562,0 1.0869,-0.15723 0.4307,-0.15722 0.6699,-0.4375 0.2393,-0.2666 0.3418,-0.64258 0.1026,-0.37597 0.1026,-0.84082 v -0.69726 q -0.5811,0.46484 -1.1143,0.69726 -0.5264,0.22559 -1.3467,0.22559 -1.3672,0 -2.1738,-0.98438 -0.7998,-0.99121 -0.7998,-2.78906 0,-0.98437 0.2734,-1.69531 0.2803,-0.71777 0.7588,-1.23731 0.4443,-0.48535 1.0801,-0.75195 0.6357,-0.27344 1.2646,-0.27344 0.6631,0 1.1075,0.13672 0.4511,0.12989 0.9502,0.40332 l 0.082,-0.32812 h 1.2031 z m -1.2851,-1.23047 v -4.16309 q -0.5127,-0.23242 -0.9571,-0.32812 -0.4375,-0.10254 -0.875,-0.10254 -1.0595,0 -1.6679,0.71093 -0.6084,0.71094 -0.6084,2.06446 0,1.28515 0.4511,1.94824 0.4512,0.66309 1.4971,0.66309 0.5605,0 1.1211,-0.21192 0.5674,-0.21875 1.0391,-0.58105 z"
           style="font-weight:normal;-inkscape-font-specification:sans-serif;stroke:none"
           id="path453" /><path
           d="m -1083.8047,-463.90218 h -5.626 q 0,0.7041 0.2119,1.23047 0.212,0.51953 0.5811,0.85449 0.3555,0.32813 0.8408,0.49219 0.4922,0.16406 1.0801,0.16406 0.7793,0 1.5654,-0.30762 0.793,-0.31445 1.128,-0.61523 h 0.068 v 1.40137 q -0.6494,0.27343 -1.3262,0.458 -0.6767,0.18457 -1.4218,0.18457 -1.9004,0 -2.9668,-1.02539 -1.0664,-1.03222 -1.0664,-2.92578 0,-1.87304 1.0185,-2.97363 1.0254,-1.10059 2.6934,-1.10059 1.5449,0 2.3789,0.90235 0.8408,0.90234 0.8408,2.56347 z m -1.251,-0.98438 q -0.01,-1.01171 -0.5127,-1.56542 -0.499,-0.55372 -1.5244,-0.55372 -1.0322,0 -1.6474,0.6084 -0.6084,0.6084 -0.6905,1.51074 z"
           style="font-weight:normal;-inkscape-font-specification:sans-serif;stroke:none"
           id="path455" /></g><path
         style="fill:#ffffff;fill-opacity:1;stroke:#52f2a8;stroke-width:1.246;stroke-linecap:round;stroke-linejoin:round;stroke-dasharray:none;stroke-opacity:1"
         d="m -326.20221,12.039275 3.24718,3.563854"
         id="path21304"
         sodipodi:nodetypes="cc" /><path
         style="fill:#ffffff;fill-opacity:1;stroke:#52f2a8;stroke-width:1.24597;stroke-linecap:round;stroke-linejoin:round;stroke-dasharray:none;stroke-opacity:1"
         d="m -319.53934,12.024555 -3.24702,3.563878"
         id="path21304-3"
         sodipodi:nodetypes="cc" /><path
         style="fill:#ffffff;fill-opacity:1;stroke:#52f2a8;stroke-width:1.246;stroke-linecap:round;stroke-linejoin:round;stroke-dasharray:none;stroke-opacity:1"
         d="m -319.56955,21.375997 -3.24718,-3.563854"
         id="path21304-0"
         sodipodi:nodetypes="cc" /><path
         style="fill:#ffffff;fill-opacity:1;stroke:#52f2a8;stroke-width:1.24597;stroke-linecap:round;stroke-linejoin:round;stroke-dasharray:none;stroke-opacity:1"
         d="m -326.23242,21.390717 3.24702,-3.563878"
         id="path21304-3-1"
         sodipodi:nodetypes="cc" /></g></g></svg>
