<?xml version="1.0" encoding="UTF-8"?>
<svg id="Layer_1" data-name="Layer 1" xmlns="http://www.w3.org/2000/svg" viewBox="0 0 712.1 236.94">
  <defs>
    <style>
      .cls-1 {
        fill: #174034;
      }

      .cls-1, .cls-2 {
        stroke-width: 0px;
      }

      .cls-2 {
        fill: #fff;
      }
    </style>
  </defs>
  <g>
    <g>
      <path class="cls-2" d="M117.67,56.1c-2.11,2.12-5.12,2.99-8.06,2.35-4.26-.94-8.59-1.42-12.89-1.42-32.19,0-60.44,28.81-60.44,61.65,0,3.96.43,7.94,1.28,11.83.63,2.95-.25,5.96-2.36,8.06l-1.2,1.2c-1.68,1.68-3.85,2.58-6.12,2.58-.83,0-1.67-.12-2.5-.37-3.14-.92-5.43-3.39-6.13-6.6-1.21-5.47-1.82-11.15-1.82-16.89,0-44.25,34.92-78.91,79.51-78.91,5.38,0,10.87.59,16.3,1.76,3.23.69,5.71,2.98,6.64,6.13.91,3.11.09,6.33-2.21,8.63Z"/>
      <path class="cls-1" d="M160,165.71c-15.52,20-38.44,31.48-62.87,31.48s-46.86-10.65-62.07-29.2c-2.88-3.51-2.64-8.57.56-11.78l1.08-1.07c1.76-1.77,4.2-2.69,6.69-2.55,2.47.14,4.78,1.34,6.32,3.28,11.86,14.95,29.51,23.87,47.23,23.87s35.52-8.85,48.53-24.93c1.64-2.03,4.1-3.19,6.75-3.19h.84c3.37,0,6.39,1.89,7.88,4.93,1.47,3.01,1.11,6.52-.94,9.16Z"/>
      <path class="cls-1" d="M160.79,79.27c-1.49,3.01-4.5,4.88-7.85,4.88h-1.14c-2.72,0-5.33-1.3-6.97-3.48-2.82-3.72-6.13-7.11-9.83-10.08-1.95-1.57-3.14-3.89-3.28-6.38-.13-2.47.8-4.89,2.55-6.64l.37-.38c3.09-3.08,8.03-3.42,11.5-.77,5.28,4.02,9.91,8.62,13.76,13.65,2.04,2.67,2.38,6.19.89,9.2Z"/>
    </g>
    <g>
      <path class="cls-1" d="M179.95,192.96v-94.96h16.63v8.57h.34c4.29-6.34,11.66-10.46,24.17-11.14v18.34c-15.43.51-23.31,9.94-23.31,25.88v53.31h-17.83Z"/>
      <path class="cls-1" d="M246.45,153.2c4.11,15.77,16.63,25.88,31.2,25.88,11.14,0,21.6-5.83,27.08-15.94h17.83c-7.37,19.54-25.2,32.22-45.59,32.22-26.74,0-48.33-23.65-48.33-49.02,0-30,22.62-50.91,47.82-50.91,27.94,0,49.19,21.6,49.19,48.85,0,2.91,0,5.66-.51,8.91h-78.67ZM307.82,139.49c-1.37-16.11-15.6-27.77-30.85-27.77s-29.14,11.48-30.51,27.77h61.36Z"/>
      <path class="cls-1" d="M421.46,192.96v-14.74h-.34c-6.68,11.31-18.68,17.14-32.22,17.14-27.77,0-50.39-20.91-50.39-48.34,0-30.34,21.77-51.59,49.71-51.59,13.88,0,25.54,5.14,32.91,15.94h.34v-13.37h17.83v94.96h-17.83ZM421.8,145.66c0-18.51-13.37-33.94-33.08-33.94-17.83,0-32.39,15.25-32.39,33.94s14.57,33.42,32.39,33.42,33.08-15.43,33.08-33.42Z"/>
      <path class="cls-1" d="M465.17,192.96v-78.67h-12.86v-16.28h12.86v-31.88h17.83v31.88h15.6v16.28h-15.6v78.67h-17.83Z"/>
      <path class="cls-1" d="M567.53,195.36c-26.74,0-50.56-22.8-50.56-49.54,0-28.97,22.8-50.39,51.93-50.39,26.22,0,50.91,20.57,50.56,50.73-.34,25.37-21.6,49.19-51.93,49.19ZM568.04,111.72c-17.83,0-33.25,15.08-33.25,33.59s14.91,33.77,32.91,33.77,33.94-14.74,33.94-33.94-14.91-33.42-33.6-33.42Z"/>
      <path class="cls-1" d="M637.64,192.96v-94.96h16.63v8.57h.34c4.29-6.34,11.66-10.46,24.17-11.14v18.34c-15.43.51-23.31,9.94-23.31,25.88v53.31h-17.83Z"/>
      <circle class="cls-2" cx="682.44" cy="184.96" r="10.23"/>
    </g>
  </g>
  <path class="cls-2" d="M507.16,95.59c4.11-1.37,6.33-3.25,6.33-11.12h-6.33v-20.88h17.8v19.34c0,12.84-5.65,21.05-17.8,23.45v-10.78Z"/>
</svg>