<?xml version="1.0" encoding="UTF-8"?>
<svg id="Layer_1" data-name="Layer 1" xmlns="http://www.w3.org/2000/svg" viewBox="0 0 180 180">
  <defs>
    <style>
      .cls-1 {
        fill: #52f2a8;
      }

      .cls-1, .cls-2 {
        stroke-width: 0px;
      }

      .cls-2 {
        fill: #fff;
      }
    </style>
  </defs>
  <path class="cls-1" d="M118.03,27.72c-2.11,2.11-5.12,2.99-8.06,2.35-4.26-.94-8.59-1.42-12.89-1.42-32.19,0-60.44,28.81-60.44,61.65,0,3.95.43,7.93,1.28,11.83.63,2.94-.25,5.95-2.35,8.06l-1.21,1.2c-1.68,1.68-3.85,2.57-6.12,2.57-.83,0-1.66-.12-2.49-.36-3.14-.92-5.44-3.39-6.14-6.6-1.21-5.47-1.82-11.16-1.82-16.9C17.8,45.85,52.72,11.19,97.3,11.19c5.38,0,10.87.6,16.3,1.76,3.23.69,5.71,2.98,6.64,6.13.92,3.11.09,6.34-2.21,8.64Z"/>
  <path class="cls-2" d="M160.38,137.32c-15.53,20.01-38.45,31.49-62.88,31.49s-46.86-10.65-62.07-29.21c-2.88-3.51-2.64-8.57.56-11.77l1.08-1.08c1.76-1.76,4.2-2.69,6.69-2.55,2.48.15,4.78,1.34,6.32,3.28,11.86,14.95,29.51,23.88,47.23,23.88s35.52-8.86,48.54-24.93c1.63-2.03,4.09-3.19,6.74-3.19h.84c3.37,0,6.39,1.89,7.88,4.93,1.47,3.01,1.11,6.52-.93,9.15Z"/>
  <path class="cls-2" d="M161.16,50.89c-1.49,3.01-4.49,4.88-7.85,4.88h-1.14c-2.72,0-5.32-1.31-6.97-3.49-2.82-3.71-6.13-7.11-9.83-10.07-1.95-1.57-3.14-3.9-3.28-6.38-.13-2.47.8-4.89,2.55-6.65l.37-.37c3.09-3.09,8.03-3.42,11.5-.78,5.28,4.03,9.91,8.62,13.76,13.66,2.04,2.66,2.38,6.19.89,9.2Z"/>
</svg>