<?xml version="1.0" encoding="UTF-8"?>
<svg id="Layer_1" data-name="Layer 1" xmlns="http://www.w3.org/2000/svg" viewBox="0 0 180 180">
  <defs>
    <style>
      .cls-1 {
        fill: #52f2a8;
      }

      .cls-1, .cls-2 {
        stroke-width: 0px;
      }

      .cls-2 {
        fill: #174034;
      }
    </style>
  </defs>
  <path class="cls-1" d="M118.04,27.72c-2.11,2.11-5.12,2.99-8.06,2.35-4.26-.94-8.59-1.42-12.89-1.42-32.19,0-60.44,28.81-60.44,61.65,0,3.95.43,7.93,1.27,11.83.64,2.95-.24,5.96-2.35,8.06l-1.2,1.2c-1.68,1.68-3.86,2.58-6.12,2.58-.83,0-1.66-.12-2.49-.37-3.15-.92-5.44-3.38-6.15-6.6-1.2-5.47-1.81-11.16-1.81-16.89C17.8,45.86,52.72,11.2,97.31,11.2c5.38,0,10.87.59,16.3,1.76,3.23.69,5.71,2.98,6.63,6.13.92,3.11.1,6.34-2.2,8.63Z"/>
  <path class="cls-2" d="M160.37,137.33c-15.52,20-38.44,31.48-62.87,31.48s-46.86-10.64-62.07-29.2c-2.88-3.51-2.64-8.57.56-11.78l1.08-1.07c1.76-1.76,4.2-2.69,6.69-2.55,2.47.14,4.78,1.34,6.32,3.28,11.86,14.95,29.51,23.87,47.23,23.87s35.51-8.85,48.53-24.93c1.64-2.02,4.1-3.19,6.75-3.19h.84c3.37,0,6.39,1.89,7.88,4.93,1.47,3.01,1.11,6.52-.94,9.16Z"/>
  <path class="cls-2" d="M161.16,50.89c-1.49,3.01-4.5,4.88-7.85,4.88h-1.14c-2.72,0-5.32-1.3-6.97-3.48-2.82-3.72-6.13-7.11-9.83-10.08-1.95-1.57-3.14-3.89-3.28-6.38-.13-2.47.8-4.89,2.55-6.64l.37-.38c3.09-3.08,8.03-3.42,11.5-.77,5.28,4.02,9.91,8.62,13.76,13.65,2.04,2.67,2.38,6.19.89,9.2Z"/>
</svg>