<?xml version="1.0" encoding="UTF-8"?>
<svg id="Layer_1" data-name="Layer 1" xmlns="http://www.w3.org/2000/svg" viewBox="0 0 712.1 236.94">
  <defs>
    <style>
      .cls-1 {
        letter-spacing: -.01em;
      }

      .cls-2 {
        font-family: AvenirNext-DemiBoldItalic, 'Avenir Next';
        font-size: 23.04px;
        font-style: italic;
        font-weight: 300;
      }

      .cls-2, .cls-3 {
        fill: #fff;
      }

      .cls-4 {
        letter-spacing: -.01em;
      }

      .cls-5 {
        letter-spacing: -.01em;
      }

      .cls-6 {
        letter-spacing: 0em;
      }

      .cls-7 {
        letter-spacing: -.02em;
      }

      .cls-8 {
        letter-spacing: -.1em;
      }

      .cls-9 {
        letter-spacing: -.02em;
      }

      .cls-10 {
        letter-spacing: 0em;
      }

      .cls-11 {
        fill: #174034;
      }

      .cls-11, .cls-3 {
        stroke-width: 0px;
      }
    </style>
  </defs>
  <g>
    <g>
      <g>
        <path class="cls-3" d="M117.67,37.78c-1.65,1.65-3.86,2.56-6.16,2.56-.63,0-1.27-.07-1.9-.21-4.26-.94-8.59-1.42-12.89-1.42-32.2,0-60.44,28.81-60.44,61.65,0,3.93.43,7.92,1.27,11.84.63,2.95-.25,5.95-2.35,8.05l-1.2,1.2c-1.67,1.68-3.85,2.57-6.11,2.57-.83,0-1.67-.11-2.5-.36-3.14-.92-5.44-3.39-6.14-6.6-1.21-5.49-1.82-11.17-1.82-16.89,0-44.25,34.92-78.91,79.51-78.91,5.41,0,10.89.59,16.3,1.75,3.23.7,5.71,2.99,6.64,6.14.92,3.11.09,6.34-2.21,8.63Z"/>
        <path class="cls-11" d="M160.01,147.38c-7.76,10-17.38,17.88-28.1,23.25-10.73,5.37-22.56,8.24-34.78,8.24-24.24,0-46.86-10.64-62.07-29.2-2.88-3.51-2.64-8.57.56-11.77l1.08-1.08c1.76-1.76,4.2-2.69,6.69-2.55,2.48.14,4.78,1.34,6.32,3.28,11.86,14.95,29.51,23.87,47.23,23.87s35.52-8.85,48.53-24.93c1.64-2.02,4.1-3.19,6.75-3.19h.84c3.37,0,6.39,1.89,7.88,4.93,1.47,3.01,1.11,6.52-.93,9.15Z"/>
        <path class="cls-11" d="M160.78,60.95c-1.49,3.01-4.49,4.88-7.85,4.88h-1.14c-2.72,0-5.33-1.3-6.97-3.48-2.82-3.72-6.13-7.11-9.83-10.08-1.95-1.57-3.14-3.89-3.28-6.38-.13-2.47.8-4.89,2.55-6.64l.37-.37c3.09-3.09,8.03-3.43,11.5-.78,5.28,4.02,9.91,8.62,13.76,13.65,2.04,2.67,2.38,6.19.89,9.2Z"/>
      </g>
      <g>
        <path class="cls-11" d="M179.95,174.64v-94.96h16.63v8.57h.34c4.29-6.34,11.66-10.46,24.17-11.14v18.34c-15.43.51-23.31,9.94-23.31,25.88v53.31h-17.83Z"/>
        <path class="cls-11" d="M246.45,134.88c4.11,15.77,16.63,25.88,31.2,25.88,11.14,0,21.6-5.83,27.08-15.94h17.83c-7.37,19.54-25.2,32.22-45.59,32.22-26.74,0-48.33-23.65-48.33-49.02,0-30,22.62-50.91,47.82-50.91,27.94,0,49.19,21.6,49.19,48.85,0,2.91,0,5.66-.51,8.91h-78.67ZM307.82,121.17c-1.37-16.11-15.6-27.77-30.85-27.77s-29.14,11.48-30.51,27.77h61.36Z"/>
        <path class="cls-11" d="M421.46,174.64v-14.74h-.34c-6.68,11.31-18.68,17.14-32.22,17.14-27.77,0-50.39-20.91-50.39-48.34,0-30.34,21.77-51.59,49.71-51.59,13.88,0,25.54,5.14,32.91,15.94h.34v-13.37h17.83v94.96h-17.83ZM421.8,127.34c0-18.51-13.37-33.94-33.08-33.94-17.83,0-32.39,15.25-32.39,33.94s14.57,33.42,32.39,33.42,33.08-15.43,33.08-33.42Z"/>
        <path class="cls-11" d="M465.17,174.64v-78.67h-12.86v-16.28h12.86v-31.88h17.83v31.88h15.6v16.28h-15.6v78.67h-17.83Z"/>
        <path class="cls-11" d="M567.53,177.04c-26.74,0-50.56-22.8-50.56-49.54,0-28.97,22.8-50.39,51.93-50.39,26.22,0,50.91,20.57,50.56,50.73-.34,25.37-21.6,49.19-51.93,49.19ZM568.04,93.4c-17.83,0-33.25,15.08-33.25,33.59s14.91,33.77,32.91,33.77,33.94-14.74,33.94-33.94-14.91-33.42-33.6-33.42Z"/>
        <path class="cls-11" d="M637.64,174.64v-94.96h16.63v8.57h.34c4.29-6.34,11.66-10.46,24.17-11.14v18.34c-15.43.51-23.31,9.94-23.31,25.88v53.31h-17.83Z"/>
        <circle class="cls-3" cx="682.44" cy="166.64" r="10.23"/>
      </g>
    </g>
    <text class="cls-2" transform="translate(60.18 203.36)"><tspan x="0" y="0">Crypto </tspan><tspan class="cls-4" x="77.3" y="0">R</tspan><tspan class="cls-6" x="91.4" y="0">el</tspan><tspan class="cls-1" x="110.54" y="0">a</tspan><tspan class="cls-6" x="122.73" y="0">ted Equity</tspan><tspan class="cls-9" x="231.04" y="0"> </tspan><tspan x="236.39" y="0">And</tspan><tspan class="cls-7" x="279.84" y="0"> </tspan><tspan class="cls-8" x="285.05" y="0">T</tspan><tspan x="295.11" y="0">o</tspan><tspan class="cls-9" x="309.03" y="0">k</tspan><tspan x="320.62" y="0">en Ope</tspan><tspan class="cls-5" x="399.55" y="0">r</tspan><tspan class="cls-10" x="407.09" y="0">a</tspan><tspan x="419.28" y="0">tional </tspan><tspan class="cls-4" x="484.96" y="0">R</tspan><tspan class="cls-6" x="499.06" y="0">esou</tspan><tspan class="cls-5" x="549.66" y="0">r</tspan><tspan x="557.19" y="0">ces</tspan></text>
  </g>
  <path class="cls-3" d="M507.16,77.28c4.11-1.37,6.33-3.25,6.33-11.12h-6.33v-20.88h17.8v19.34c0,12.84-5.65,21.05-17.8,23.45v-10.78Z"/>
</svg>