<?xml version="1.0" encoding="UTF-8" standalone="no"?>
<!-- Created with Inkscape (http://www.inkscape.org/) -->

<svg
   version="1.1"
   id="svg182"
   width="240"
   height="240"
   viewBox="0 0 240 240"
   sodipodi:docname="CRET_Logo.svg"
   inkscape:version="1.2.1 (9c6d41e410, 2022-07-14)"
   xmlns:inkscape="http://www.inkscape.org/namespaces/inkscape"
   xmlns:sodipodi="http://sodipodi.sourceforge.net/DTD/sodipodi-0.dtd"
   xmlns="http://www.w3.org/2000/svg"
   xmlns:svg="http://www.w3.org/2000/svg">
  <defs
     id="defs186" />
  <sodipodi:namedview
     id="namedview184"
     pagecolor="#ffffff"
     bordercolor="#000000"
     borderopacity="0.25"
     inkscape:showpageshadow="2"
     inkscape:pageopacity="0.0"
     inkscape:pagecheckerboard="0"
     inkscape:deskcolor="#d1d1d1"
     showgrid="false"
     inkscape:zoom="2.3747003"
     inkscape:cx="65.692501"
     inkscape:cy="138.96491"
     inkscape:window-width="1920"
     inkscape:window-height="1009"
     inkscape:window-x="-8"
     inkscape:window-y="-8"
     inkscape:window-maximized="1"
     inkscape:current-layer="g188" />
  <g
     inkscape:groupmode="layer"
     inkscape:label="Image"
     id="g188">
    <rect
       style="fill:#ffffff;fill-opacity:1;stroke:#ffffff;stroke-width:18.7823;stroke-linecap:round;stroke-linejoin:round;stroke-dasharray:none;stroke-opacity:1"
       id="rect579"
       width="221.21762"
       height="221.21765"
       x="9.3911924"
       y="9.3911924"
       ry="16.397533" />
    <g
       id="g577">
      <path
         style="fill:#51f1a7;stroke-width:0.32"
         d="m 33.529151,151.05966 c -2.79808,-1.09385 -4.94464,-3.04506 -6.3108,-5.73649 -1.73424,-3.41659 -3.26559,-15.12435 -3.27033,-25.00293 -0.005,-9.67182 0.88007,-17.39158 2.96789,-25.897167 7.32943,-29.85935 27.46922,-54.81036 55.16413,-68.34238 11.1776,-5.46148 21.636199,-8.57633 34.559999,-10.29288 5.91775,-0.78599 19.84021,-0.7782 25.6,0.0143 11.90632,1.63828 15.02475,3.10094 17.39675,8.1597 0.7257,1.54771 0.84322,2.22216 0.84301,4.8384 -2.9e-4,3.68511 -0.60114,5.2316 -3.03071,7.80051 -3.13641,3.31629 -6.65535,4.21935 -12.17407,3.12423 -6.09713,-1.2099 -9.00962,-1.48064 -15.83498,-1.47202 -12.35592,0.0156 -22.48814,2.42233 -33.725659,8.01089 -8.11874,4.03754 -14.57769,8.63872 -21.27653,15.1568 -19.86206,19.32611 -29.1308,46.538707 -24.50946,71.958617 1.35716,7.46514 0.74957,9.92895 -3.4954,14.17392 -2.19735,2.19735 -3.12672,2.8916 -4.60495,3.44 -2.38758,0.88574 -6.12657,0.91569 -8.29889,0.0665 z"
         id="path310" />
      <path
         style="fill:#163f33;stroke-width:0.32"
         d="m 121.12004,224.63063 c -24.982419,-2.22955 -47.922129,-12.62688 -65.503509,-29.68922 -4.8338,-4.69109 -8.61893,-9.06957 -9.76951,-11.30098 -0.79549,-1.54277 -0.88698,-2.05024 -0.88698,-4.92019 0,-4.05829 0.58385,-5.42525 3.68176,-8.62015 2.83983,-2.92873 5.01544,-4.06384 8.18364,-4.26976 4.55177,-0.29585 7.30653,1.15483 11.2481,5.92335 11.36573,13.75029 27.58345,24.02536 44.339009,28.09191 6.12615,1.48681 9.84031,1.89274 17.34749,1.89595 7.82917,0.003 11.58383,-0.42544 18.4,-2.10128 10.73949,-2.64044 22.02899,-8.34672 31.36,-15.85094 3.85132,-3.09733 10.01752,-9.16422 13.30879,-13.09446 4.31077,-5.14766 6.75347,-6.40675 11.93976,-6.15436 3.37183,0.16409 5.7295,1.14095 7.83475,3.2462 3.55722,3.55721 4.4942,8.96672 2.30054,13.28163 -1.67265,3.29007 -9.985,12.40381 -16.34384,17.91953 -15.95281,13.83764 -35.0686,22.45646 -55.87291,25.19168 -4.40835,0.57958 -17.14284,0.84593 -21.56709,0.45109 z m 78.72,-150.820337 c -2.98229,-0.98437 -4.52381,-2.16582 -7.12628,-5.46171 -2.41631,-3.06015 -6.90403,-7.65589 -10.81293,-11.07319 -2.46171,-2.15212 -3.47824,-3.29213 -4.32,-4.84476 -1.04564,-1.92867 -1.10079,-2.19072 -1.10079,-5.23039 0,-2.62441 0.127,-3.47505 0.70604,-4.72912 0.98615,-2.13578 3.97721,-5.16759 6.14233,-6.22603 1.56639,-0.76574 2.17381,-0.87641 4.83163,-0.88035 2.60921,-0.004 3.28941,0.11285 4.8,0.82364 5.32945,2.5077 19.32381,16.40659 21.88113,21.73186 0.87791,1.82812 0.99881,2.41032 0.99837,4.80774 -3.2e-4,2.42995 -0.11399,2.95827 -1.03998,4.83923 -1.2366,2.51189 -3.25223,4.48039 -5.78347,5.64825 -1.48158,0.68356 -2.37594,0.8544 -4.85605,0.9276 -1.8968,0.056 -3.52135,-0.0692 -4.32,-0.33277 z"
         id="path304" />
    </g>
  </g>
</svg>
